# Blender 4.4.3
# www.blender.org
mtllib big_phosphor_basin.mtl
o Cube.001
v -5.200000 0.000000 0.000000
v -4.828000 0.148322 0.000000
v -4.600879 0.368607 0.000000
v -4.516942 0.623075 0.000000
v -4.408319 0.695237 0.000000
v -4.210822 0.695237 0.000000
v -4.072574 0.592691 0.000000
v -4.013324 0.444568 0.000000
v -4.091675 0.556893 0.000000
v -4.804173 0.000000 1.989954
v -4.460490 0.148322 1.847596
v -4.250658 0.368607 1.760680
v -4.173110 0.623075 1.728559
v -4.072755 0.695237 1.686991
v -3.890292 0.695237 1.611412
v -3.762568 0.592691 1.558507
v -3.707829 0.444568 1.535833
v -3.780215 0.556893 1.565816
v -3.676955 0.000000 3.676955
v -3.413912 0.148322 3.413912
v -3.253313 0.368607 3.253313
v -3.193960 0.623075 3.193960
v -3.117152 0.695237 3.117152
v -2.977501 0.695237 2.977501
v -2.879745 0.592691 2.879745
v -2.837849 0.444568 2.837849
v -2.893251 0.556893 2.893251
v -1.989954 0.000000 4.804173
v -1.847595 0.148322 4.460490
v -1.760680 0.368607 4.250658
v -1.728559 0.623075 4.173110
v -1.686990 0.695237 4.072755
v -1.611412 0.695237 3.890292
v -1.558506 0.592691 3.762568
v -1.535833 0.444568 3.707829
v -1.565816 0.556893 3.780215
v 0.000000 0.000000 5.200000
v 0.000000 0.148322 4.828000
v 0.000000 0.368607 4.600879
v 0.000000 0.623075 4.516942
v 0.000000 0.695237 4.408319
v 0.000000 0.695237 4.210822
v 0.000000 0.592691 4.072574
v 0.000000 0.444568 4.013324
v 0.000000 0.556893 4.091675
v 1.989955 0.000000 4.804173
v 1.847596 0.148322 4.460490
v 1.760681 0.368607 4.250658
v 1.728559 0.623075 4.173110
v 1.686991 0.695237 4.072755
v 1.611412 0.695237 3.890292
v 1.558507 0.592691 3.762568
v 1.535833 0.444568 3.707829
v -0.000000 0.012627 0.000000
v 1.565817 0.556893 3.780215
v 3.676955 0.000000 3.676955
v 3.413912 0.148322 3.413912
v 3.253313 0.368607 3.253313
v 3.193960 0.623075 3.193960
v 3.117152 0.695237 3.117152
v 2.977501 0.695237 2.977501
v 2.879745 0.592691 2.879745
v 2.837849 0.444568 2.837849
v 2.893251 0.556893 2.893251
v 4.804174 0.000000 1.989953
v 4.460492 0.148322 1.847595
v 4.250659 0.368607 1.760679
v 4.173111 0.623075 1.728558
v 4.072757 0.695237 1.686990
v 3.890292 0.695237 1.611411
v 3.762568 0.592691 1.558506
v 3.707829 0.444568 1.535832
v 3.780215 0.556893 1.565815
v 5.200000 0.000000 -0.000001
v 4.828001 0.148322 -0.000001
v 4.600879 0.368607 -0.000001
v 4.516943 0.623075 -0.000001
v 4.408319 0.695237 -0.000001
v 4.210822 0.695237 -0.000000
v 4.072574 0.592691 -0.000000
v 4.013325 0.444568 -0.000000
v 4.091675 0.556893 -0.000000
v 4.804174 0.000000 -1.989954
v 4.460491 0.148322 -1.847596
v 4.250658 0.368607 -1.760680
v 4.173110 0.623075 -1.728559
v 4.072756 0.695237 -1.686991
v 3.890292 0.695237 -1.611412
v 3.762568 0.592691 -1.558507
v 3.707829 0.444568 -1.535833
v 3.780215 0.556893 -1.565816
v 3.676955 0.000000 -3.676956
v 3.413911 0.148322 -3.413912
v 3.253312 0.368607 -3.253313
v 3.193960 0.623075 -3.193961
v 3.117152 0.695237 -3.117153
v 2.977500 0.695237 -2.977501
v 2.879744 0.592691 -2.879745
v 2.837849 0.444568 -2.837850
v 2.893251 0.556893 -2.893251
v 1.989952 0.000000 -4.804175
v 1.847594 0.148322 -4.460492
v 1.760679 0.368607 -4.250659
v 1.728558 0.623075 -4.173111
v 1.686989 0.695237 -4.072757
v 1.611410 0.695237 -3.890293
v 1.558506 0.592691 -3.762568
v 1.535832 0.444568 -3.707829
v 1.565815 0.556893 -3.780215
v -0.000000 0.000000 -5.200000
v -0.000000 0.148322 -4.828001
v -0.000000 0.368607 -4.600879
v -0.000000 0.623075 -4.516943
v -0.000000 0.695237 -4.408319
v -0.000000 0.695237 -4.210822
v -0.000000 0.592691 -4.072574
v -0.000000 0.444568 -4.013325
v -0.000000 0.556893 -4.091675
v -1.989955 0.000000 -4.804173
v -1.847597 0.148322 -4.460491
v -1.760681 0.368607 -4.250658
v -1.728560 0.623075 -4.173110
v -1.686991 0.695237 -4.072756
v -1.611412 0.695237 -3.890292
v -1.558507 0.592691 -3.762568
v -1.535834 0.444568 -3.707828
v -1.565817 0.556893 -3.780214
v -3.676957 0.000000 -3.676954
v -3.413913 0.148322 -3.413910
v -3.253314 0.368607 -3.253311
v -3.193962 0.623075 -3.193959
v -3.117153 0.695237 -3.117151
v -2.977502 0.695237 -2.977500
v -2.879745 0.592691 -2.879744
v -2.837850 0.444568 -2.837848
v -2.893252 0.556893 -2.893250
v -4.804173 0.000000 -1.989954
v -4.460491 0.148322 -1.847596
v -4.250658 0.368607 -1.760680
v -4.173110 0.623075 -1.728559
v -4.072756 0.695237 -1.686991
v -3.890292 0.695237 -1.611412
v -3.762568 0.592691 -1.558507
v -3.707829 0.444568 -1.535833
v -3.780215 0.556893 -1.565816
vn -0.3694 0.9264 0.0735
vn -0.3131 0.9264 0.2092
vn -0.2092 0.9264 0.3131
vn -0.0735 0.9264 0.3694
vn 0.0735 0.9264 0.3694
vn 0.2092 0.9264 0.3131
vn 0.3131 0.9264 0.2092
vn 0.3694 0.9264 0.0735
vn 0.3694 0.9264 -0.0735
vn 0.3131 0.9264 -0.2092
vn 0.2092 0.9264 -0.3131
vn 0.0735 0.9264 -0.3694
vn -0.0735 0.9264 -0.3694
vn -0.2092 0.9264 -0.3131
vn -0.3131 0.9264 -0.2092
vn -0.3694 0.9264 -0.0735
vn -0.6896 0.7110 0.1372
vn -0.5846 0.7110 0.3906
vn -0.3906 0.7110 0.5846
vn -0.1372 0.7110 0.6896
vn 0.1372 0.7110 0.6896
vn 0.3906 0.7110 0.5846
vn 0.5846 0.7110 0.3906
vn 0.6896 0.7110 0.1372
vn 0.6896 0.7110 -0.1372
vn 0.5846 0.7110 -0.3906
vn 0.3906 0.7110 -0.5846
vn 0.1372 0.7110 -0.6896
vn -0.1372 0.7110 -0.6896
vn -0.3906 0.7110 -0.5846
vn -0.5846 0.7110 -0.3906
vn -0.6896 0.7110 -0.1372
vn -0.9332 0.3078 0.1856
vn -0.7911 0.3078 0.5286
vn -0.5286 0.3078 0.7911
vn -0.1856 0.3078 0.9332
vn 0.1856 0.3078 0.9332
vn 0.5286 0.3078 0.7911
vn 0.7911 0.3078 0.5286
vn 0.9332 0.3078 0.1856
vn 0.9332 0.3078 -0.1856
vn 0.7911 0.3078 -0.5286
vn 0.5286 0.3078 -0.7911
vn 0.1856 0.3078 -0.9332
vn -0.1856 0.3078 -0.9332
vn -0.5286 0.3078 -0.7911
vn -0.7911 0.3078 -0.5286
vn -0.9332 0.3078 -0.1856
vn -0.5500 0.8279 0.1094
vn -0.4663 0.8279 0.3116
vn -0.3116 0.8279 0.4663
vn -0.1094 0.8279 0.5500
vn 0.1094 0.8279 0.5500
vn 0.3116 0.8279 0.4663
vn 0.4663 0.8279 0.3116
vn 0.5500 0.8279 0.1094
vn 0.5500 0.8279 -0.1094
vn 0.4663 0.8279 -0.3116
vn 0.3116 0.8279 -0.4663
vn 0.1094 0.8279 -0.5500
vn -0.1094 0.8279 -0.5500
vn -0.3116 0.8279 -0.4663
vn -0.4663 0.8279 -0.3116
vn -0.5500 0.8279 -0.1094
vn -0.0000 1.0000 -0.0000
vn 0.5916 0.7976 -0.1177
vn 0.5015 0.7976 -0.3351
vn 0.3351 0.7976 -0.5015
vn 0.1177 0.7976 -0.5916
vn -0.1177 0.7976 -0.5916
vn -0.3351 0.7976 -0.5015
vn -0.5015 0.7976 -0.3351
vn -0.5916 0.7976 -0.1177
vn -0.5916 0.7976 0.1177
vn -0.5015 0.7976 0.3351
vn -0.3351 0.7976 0.5015
vn -0.1177 0.7976 0.5916
vn 0.1177 0.7976 0.5916
vn 0.3351 0.7976 0.5015
vn 0.5015 0.7976 0.3351
vn 0.5916 0.7976 0.1177
vn 0.9130 0.3652 -0.1816
vn 0.7740 0.3652 -0.5172
vn 0.5172 0.3652 -0.7740
vn 0.1816 0.3652 -0.9130
vn -0.1816 0.3652 -0.9130
vn -0.5172 0.3652 -0.7740
vn -0.7740 0.3652 -0.5172
vn -0.9130 0.3652 -0.1816
vn -0.9130 0.3652 0.1816
vn -0.7740 0.3652 0.5172
vn -0.5172 0.3652 0.7740
vn -0.1816 0.3652 0.9130
vn 0.1816 0.3652 0.9130
vn 0.5172 0.3652 0.7740
vn 0.7740 0.3652 0.5172
vn 0.9130 0.3652 0.1816
vn 0.1070 0.9940 -0.0213
vn 0.0907 0.9940 -0.0606
vn 0.0606 0.9940 -0.0907
vn 0.0213 0.9940 -0.1070
vn -0.0213 0.9940 -0.1070
vn -0.0606 0.9940 -0.0907
vn -0.0907 0.9940 -0.0606
vn -0.1070 0.9940 -0.0213
vn -0.1070 0.9940 0.0213
vn -0.0907 0.9940 0.0606
vn -0.0606 0.9940 0.0907
vn -0.0213 0.9940 0.1070
vn 0.0213 0.9940 0.1070
vn 0.0606 0.9940 0.0907
vn 0.0907 0.9940 0.0606
vn 0.1070 0.9940 0.0213
vt 0.125000 0.031250
vt 0.125000 0.062500
vt 0.000000 0.062500
vt 0.000000 0.031250
vt 0.250000 0.031250
vt 0.250000 0.062500
vt 0.375000 0.031250
vt 0.375000 0.062500
vt 0.500000 0.031250
vt 0.500000 0.062500
vt 0.625000 0.031250
vt 0.625000 0.062500
vt 0.750000 0.031250
vt 0.750000 0.062500
vt 0.875000 0.031250
vt 0.875000 0.062500
vt 1.000000 0.031250
vt 1.000000 0.062500
vt 0.125000 0.359375
vt 0.125000 0.390625
vt 0.000000 0.390625
vt 0.000000 0.359375
vt 0.250000 0.359375
vt 0.250000 0.390625
vt 0.375000 0.359375
vt 0.375000 0.390625
vt 0.500000 0.359375
vt 0.500000 0.390625
vt 0.625000 0.359375
vt 0.625000 0.390625
vt 0.750000 0.359375
vt 0.750000 0.390625
vt 0.875000 0.359375
vt 0.875000 0.390625
vt 1.000000 0.359375
vt 1.000000 0.390625
vt 0.125000 0.093750
vt 0.000000 0.093750
vt 0.250000 0.093750
vt 0.375000 0.093750
vt 0.500000 0.093750
vt 0.625000 0.093750
vt 0.750000 0.093750
vt 0.875000 0.093750
vt 1.000000 0.093750
vt 0.125000 0.421875
vt 0.000000 0.421875
vt 0.250000 0.421875
vt 0.375000 0.421875
vt 0.500000 0.421875
vt 0.625000 0.421875
vt 0.750000 0.421875
vt 0.875000 0.421875
vt 1.000000 0.421875
vt 0.125000 0.125000
vt 0.000000 0.125000
vt 0.250000 0.125000
vt 0.375000 0.125000
vt 0.500000 0.125000
vt 0.625000 0.125000
vt 0.750000 0.125000
vt 0.875000 0.125000
vt 1.000000 0.125000
vt 0.125000 0.453125
vt 0.000000 0.453125
vt 0.250000 0.453125
vt 0.375000 0.453125
vt 0.500000 0.453125
vt 0.625000 0.453125
vt 0.750000 0.453125
vt 0.875000 0.453125
vt 1.000000 0.453125
vt 0.125000 0.140625
vt 0.000000 0.140625
vt 0.250000 0.140625
vt 0.375000 0.140625
vt 0.500000 0.140625
vt 0.625000 0.140625
vt 0.750000 0.140625
vt 0.875000 0.140625
vt 1.000000 0.140625
vt 0.125000 0.468750
vt 0.000000 0.468750
vt 0.250000 0.468750
vt 0.375000 0.468750
vt 0.500000 0.468750
vt 0.625000 0.468750
vt 0.750000 0.468750
vt 0.875000 0.468750
vt 1.000000 0.468750
vt 0.125000 0.156250
vt 0.000000 0.156250
vt 0.250000 0.156250
vt 0.375000 0.156250
vt 0.500000 0.156250
vt 0.625000 0.156250
vt 0.750000 0.156250
vt 0.875000 0.156250
vt 1.000000 0.156250
vt 0.125000 0.484375
vt 0.000000 0.484375
vt 0.250000 0.484375
vt 0.375000 0.484375
vt 0.500000 0.484375
vt 0.625000 0.484375
vt 0.750000 0.484375
vt 0.875000 0.484375
vt 1.000000 0.484375
vt 0.125000 0.171875
vt 0.000000 0.171875
vt 0.250000 0.171875
vt 0.375000 0.171875
vt 0.500000 0.171875
vt 0.625000 0.171875
vt 0.750000 0.171875
vt 0.875000 0.171875
vt 1.000000 0.171875
vt 0.125000 0.500000
vt 0.000000 0.500000
vt 0.250000 0.500000
vt 0.375000 0.500000
vt 0.500000 0.500000
vt 0.625000 0.500000
vt 0.750000 0.500000
vt 0.875000 0.500000
vt 1.000000 0.500000
vt 0.125000 0.187500
vt 0.000000 0.187500
vt 0.250000 0.187500
vt 0.375000 0.187500
vt 0.500000 0.187500
vt 0.625000 0.187500
vt 0.750000 0.187500
vt 0.875000 0.187500
vt 1.000000 0.187500
vt 0.125000 0.515625
vt 0.000000 0.515625
vt 0.250000 0.515625
vt 0.375000 0.515625
vt 0.500000 0.515625
vt 0.625000 0.515625
vt 0.750000 0.515625
vt 0.875000 0.515625
vt 1.000000 0.515625
vt 0.000000 0.328125
vt 0.125000 0.328125
vt 0.250000 0.328125
vt 0.375000 0.328125
vt 0.500000 0.328125
vt 0.625000 0.328125
vt 0.750000 0.328125
vt 0.875000 0.328125
vt 0.000000 0.656250
vt 0.125000 0.656250
vt 0.250000 0.656250
vt 0.375000 0.656250
vt 0.500000 0.656250
vt 0.625000 0.656250
vt 0.750000 0.656250
vt 0.875000 0.656250
vt 0.875000 0.556893
vt 0.937500 0.556893
vt 0.000000 0.556893
vt 0.062500 0.556893
vt 0.125000 0.556893
vt 0.187500 0.556893
vt 0.250000 0.556893
vt 0.312500 0.556893
vt 0.375000 0.556893
vt 0.437500 0.556893
vt 0.500000 0.556893
vt 0.562500 0.556893
vt 0.625000 0.556893
vt 0.687500 0.556893
vt 0.750000 0.556893
vt 0.812500 0.556893
s 0
usemtl Material
f 10/1/1 11/2/1 2/3/1 1/4/1
f 19/5/2 20/6/2 11/2/2 10/1/2
f 28/7/3 29/8/3 20/6/3 19/5/3
f 37/9/4 38/10/4 29/8/4 28/7/4
f 46/11/5 47/12/5 38/10/5 37/9/5
f 56/13/6 57/14/6 47/12/6 46/11/6
f 65/15/7 66/16/7 57/14/7 56/13/7
f 74/17/8 75/18/8 66/16/8 65/15/8
f 83/19/9 84/20/9 75/21/9 74/22/9
f 92/23/10 93/24/10 84/20/10 83/19/10
f 101/25/11 102/26/11 93/24/11 92/23/11
f 110/27/12 111/28/12 102/26/12 101/25/12
f 119/29/13 120/30/13 111/28/13 110/27/13
f 128/31/14 129/32/14 120/30/14 119/29/14
f 137/33/15 138/34/15 129/32/15 128/31/15
f 1/35/16 2/36/16 138/34/16 137/33/16
f 11/2/17 12/37/17 3/38/17 2/3/17
f 20/6/18 21/39/18 12/37/18 11/2/18
f 29/8/19 30/40/19 21/39/19 20/6/19
f 38/10/20 39/41/20 30/40/20 29/8/20
f 47/12/21 48/42/21 39/41/21 38/10/21
f 57/14/22 58/43/22 48/42/22 47/12/22
f 66/16/23 67/44/23 58/43/23 57/14/23
f 75/18/24 76/45/24 67/44/24 66/16/24
f 84/20/25 85/46/25 76/47/25 75/21/25
f 93/24/26 94/48/26 85/46/26 84/20/26
f 102/26/27 103/49/27 94/48/27 93/24/27
f 111/28/28 112/50/28 103/49/28 102/26/28
f 120/30/29 121/51/29 112/50/29 111/28/29
f 129/32/30 130/52/30 121/51/30 120/30/30
f 138/34/31 139/53/31 130/52/31 129/32/31
f 2/36/32 3/54/32 139/53/32 138/34/32
f 12/37/33 13/55/33 4/56/33 3/38/33
f 21/39/34 22/57/34 13/55/34 12/37/34
f 30/40/35 31/58/35 22/57/35 21/39/35
f 39/41/36 40/59/36 31/58/36 30/40/36
f 48/42/37 49/60/37 40/59/37 39/41/37
f 58/43/38 59/61/38 49/60/38 48/42/38
f 67/44/39 68/62/39 59/61/39 58/43/39
f 76/45/40 77/63/40 68/62/40 67/44/40
f 85/46/41 86/64/41 77/65/41 76/47/41
f 94/48/42 95/66/42 86/64/42 85/46/42
f 103/49/43 104/67/43 95/66/43 94/48/43
f 112/50/44 113/68/44 104/67/44 103/49/44
f 121/51/45 122/69/45 113/68/45 112/50/45
f 130/52/46 131/70/46 122/69/46 121/51/46
f 139/53/47 140/71/47 131/70/47 130/52/47
f 3/54/48 4/72/48 140/71/48 139/53/48
f 13/55/49 14/73/49 5/74/49 4/56/49
f 22/57/50 23/75/50 14/73/50 13/55/50
f 31/58/51 32/76/51 23/75/51 22/57/51
f 40/59/52 41/77/52 32/76/52 31/58/52
f 49/60/53 50/78/53 41/77/53 40/59/53
f 59/61/54 60/79/54 50/78/54 49/60/54
f 68/62/55 69/80/55 60/79/55 59/61/55
f 77/63/56 78/81/56 69/80/56 68/62/56
f 86/64/57 87/82/57 78/83/57 77/65/57
f 95/66/58 96/84/58 87/82/58 86/64/58
f 104/67/59 105/85/59 96/84/59 95/66/59
f 113/68/60 114/86/60 105/85/60 104/67/60
f 122/69/61 123/87/61 114/86/61 113/68/61
f 131/70/62 132/88/62 123/87/62 122/69/62
f 140/71/63 141/89/63 132/88/63 131/70/63
f 4/72/64 5/90/64 141/89/64 140/71/64
f 14/73/65 15/91/65 6/92/65 5/74/65
f 23/75/65 24/93/65 15/91/65 14/73/65
f 32/76/65 33/94/65 24/93/65 23/75/65
f 41/77/65 42/95/65 33/94/65 32/76/65
f 50/78/65 51/96/65 42/95/65 41/77/65
f 60/79/65 61/97/65 51/96/65 50/78/65
f 69/80/65 70/98/65 61/97/65 60/79/65
f 78/81/65 79/99/65 70/98/65 69/80/65
f 87/82/65 88/100/65 79/101/65 78/83/65
f 96/84/65 97/102/65 88/100/65 87/82/65
f 105/85/65 106/103/65 97/102/65 96/84/65
f 114/86/65 115/104/65 106/103/65 105/85/65
f 123/87/65 124/105/65 115/104/65 114/86/65
f 132/88/65 133/106/65 124/105/65 123/87/65
f 141/89/65 142/107/65 133/106/65 132/88/65
f 5/90/65 6/108/65 142/107/65 141/89/65
f 15/91/66 16/109/66 7/110/66 6/92/66
f 24/93/67 25/111/67 16/109/67 15/91/67
f 33/94/68 34/112/68 25/111/68 24/93/68
f 42/95/69 43/113/69 34/112/69 33/94/69
f 51/96/70 52/114/70 43/113/70 42/95/70
f 61/97/71 62/115/71 52/114/71 51/96/71
f 70/98/72 71/116/72 62/115/72 61/97/72
f 79/99/73 80/117/73 71/116/73 70/98/73
f 88/100/74 89/118/74 80/119/74 79/101/74
f 97/102/75 98/120/75 89/118/75 88/100/75
f 106/103/76 107/121/76 98/120/76 97/102/76
f 115/104/77 116/122/77 107/121/77 106/103/77
f 124/105/78 125/123/78 116/122/78 115/104/78
f 133/106/79 134/124/79 125/123/79 124/105/79
f 142/107/80 143/125/80 134/124/80 133/106/80
f 6/108/81 7/126/81 143/125/81 142/107/81
f 16/109/82 17/127/82 8/128/82 7/110/82
f 25/111/83 26/129/83 17/127/83 16/109/83
f 34/112/84 35/130/84 26/129/84 25/111/84
f 43/113/85 44/131/85 35/130/85 34/112/85
f 52/114/86 53/132/86 44/131/86 43/113/86
f 62/115/87 63/133/87 53/132/87 52/114/87
f 71/116/88 72/134/88 63/133/88 62/115/88
f 80/117/89 81/135/89 72/134/89 71/116/89
f 89/118/90 90/136/90 81/137/90 80/119/90
f 98/120/91 99/138/91 90/136/91 89/118/91
f 107/121/92 108/139/92 99/138/92 98/120/92
f 116/122/93 117/140/93 108/139/93 107/121/93
f 125/123/94 126/141/94 117/140/94 116/122/94
f 134/124/95 135/142/95 126/141/95 125/123/95
f 143/125/96 144/143/96 135/142/96 134/124/96
f 7/126/97 8/144/97 144/143/97 143/125/97
f 17/127/98 54/145/98 8/128/98
f 26/129/99 54/146/99 17/127/99
f 35/130/100 54/147/100 26/129/100
f 44/131/101 54/148/101 35/130/101
f 53/132/102 54/149/102 44/131/102
f 63/133/103 54/150/103 53/132/103
f 72/134/104 54/151/104 63/133/104
f 81/135/105 54/152/105 72/134/105
f 90/136/106 54/153/106 81/137/106
f 99/138/107 54/154/107 90/136/107
f 108/139/108 54/155/108 99/138/108
f 117/140/109 54/156/109 108/139/109
f 126/141/110 54/157/110 117/140/110
f 135/142/111 54/158/111 126/141/111
f 144/143/112 54/159/112 135/142/112
f 8/144/113 54/160/113 144/143/113
usemtl Effect
f 136/161/65 145/162/65 9/163/65 18/164/65 27/165/65 36/166/65 45/167/65 55/168/65 64/169/65 73/170/65 82/171/65 91/172/65 100/173/65 109/174/65 118/175/65 127/176/65
