# Blender 4.4.3
# www.blender.org
mtllib small_phosphor_basin.mtl
o Cube
v 0.000000 0.000000 -2.000000
v 0.000000 0.148322 -1.713846
v 0.000000 0.368607 -1.539137
v 0.000000 0.623075 -1.474571
v 0.000000 0.695237 -1.391014
v 0.000000 0.695237 -1.239094
v 0.000000 0.592691 -1.132749
v 0.000000 0.444568 -1.087173
v -0.765367 0.000000 -1.847759
v -0.655861 0.148322 -1.583387
v -0.589002 0.368607 -1.421977
v -0.564294 0.623075 -1.362326
v -0.532318 0.695237 -1.285130
v -0.474181 0.695237 -1.144773
v -0.433484 0.592691 -1.046524
v -0.416043 0.444568 -1.004417
v -1.414214 0.000000 -1.414214
v -1.211872 0.148322 -1.211872
v -1.088334 0.368607 -1.088334
v -1.042679 0.623075 -1.042679
v -0.983596 0.695237 -0.983596
v -0.876171 0.695237 -0.876171
v -0.800974 0.592691 -0.800974
v -0.768747 0.444568 -0.768747
v -1.847759 0.000000 -0.765367
v -1.583387 0.148322 -0.655861
v -1.421977 0.368607 -0.589002
v -1.362326 0.623075 -0.564294
v -1.285130 0.695237 -0.532318
v -1.144773 0.695237 -0.474181
v -1.046524 0.592691 -0.433484
v -1.004417 0.444568 -0.416043
v -2.000000 0.000000 0.000000
v -1.713846 0.148322 0.000000
v -1.539137 0.368607 0.000000
v -1.474571 0.623075 0.000000
v -1.391014 0.695237 0.000000
v -1.239094 0.695237 0.000000
v -1.132749 0.592691 0.000000
v -1.087173 0.444568 0.000000
v -1.847759 0.000000 0.765367
v -1.583387 0.148322 0.655861
v -1.421977 0.368607 0.589002
v -1.362326 0.623075 0.564294
v -1.285130 0.695237 0.532318
v -1.144773 0.695237 0.474181
v -1.046524 0.592691 0.433484
v -1.004417 0.444568 0.416043
v -1.414214 0.000000 1.414214
v -1.211872 0.148322 1.211872
v -1.088334 0.368607 1.088334
v -1.042679 0.623075 1.042679
v -0.983596 0.695237 0.983596
v -0.876171 0.695237 0.876171
v -0.800974 0.592691 0.800974
v -0.768747 0.444568 0.768747
v -0.765367 0.000000 1.847759
v -0.655860 0.148322 1.583388
v -0.589002 0.368607 1.421978
v -0.564294 0.623075 1.362326
v -0.532318 0.695237 1.285130
v -0.474180 0.695237 1.144773
v -0.433484 0.592691 1.046524
v -0.416043 0.444568 1.004417
v 0.000000 0.000000 2.000000
v 0.000000 0.148322 1.713846
v 0.000000 0.368607 1.539137
v 0.000000 0.623075 1.474571
v 0.000000 0.695237 1.391014
v 0.000000 0.695237 1.239094
v 0.000000 0.592691 1.132749
v 0.000000 0.444568 1.087173
v 0.765367 0.000000 1.847759
v 0.655861 0.148322 1.583387
v 0.589002 0.368607 1.421977
v 0.564294 0.623075 1.362326
v 0.532318 0.695237 1.285130
v 0.474181 0.695237 1.144773
v 0.433484 0.592691 1.046524
v 0.416043 0.444568 1.004417
v 1.414214 0.000000 1.414213
v 1.211872 0.148322 1.211872
v 1.088335 0.368607 1.088334
v 1.042679 0.623075 1.042679
v 0.983596 0.695237 0.983596
v 0.876172 0.695237 0.876171
v 0.800975 0.592691 0.800974
v 0.768747 0.444568 0.768747
v 1.847759 0.000000 0.765366
v 1.583388 0.148322 0.655860
v 1.421978 0.368607 0.589002
v 1.362326 0.623075 0.564293
v 1.285130 0.695237 0.532318
v 1.144773 0.695237 0.474180
v 1.046524 0.592691 0.433484
v 1.004417 0.444568 0.416043
v 2.000000 0.000000 -0.000000
v 1.713846 0.148322 -0.000000
v 1.539137 0.368607 -0.000000
v 1.474571 0.623075 -0.000000
v 1.391014 0.695237 -0.000000
v 1.239094 0.695237 -0.000000
v 1.132749 0.592691 -0.000000
v 1.087173 0.444568 -0.000000
v 1.847759 0.000000 -0.765367
v 1.583387 0.148322 -0.655861
v 1.421977 0.368607 -0.589003
v 1.362326 0.623075 -0.564294
v 1.285130 0.695237 -0.532318
v 1.144773 0.695237 -0.474181
v 1.046523 0.592691 -0.433484
v 1.004417 0.444568 -0.416043
v 1.414213 0.000000 -1.414214
v 1.211872 0.148322 -1.211873
v 1.088334 0.368607 -1.088335
v 1.042679 0.623075 -1.042679
v 0.983595 0.695237 -0.983596
v 0.876171 0.695237 -0.876172
v 0.800974 0.592691 -0.800975
v 0.768747 0.444568 -0.768747
v 0.765367 0.000000 -1.847759
v 0.655861 0.148322 -1.583387
v 0.589002 0.368607 -1.421977
v 0.564294 0.623075 -1.362326
v 0.532318 0.695237 -1.285130
v 0.474181 0.695237 -1.144773
v 0.433484 0.592691 -1.046524
v 0.416043 0.444568 -1.004417
v -0.000000 0.012627 -0.000000
v -0.000000 0.556893 -1.205752
v -0.461421 0.556893 -1.113970
v -0.852596 0.556893 -0.852596
v -1.113970 0.556893 -0.461421
v -1.205752 0.556893 0.000000
v -1.113970 0.556893 0.461421
v -0.852596 0.556893 0.852596
v -0.461421 0.556893 1.113970
v 0.000000 0.556893 1.205752
v 0.461421 0.556893 1.113970
v 0.852596 0.556893 0.852595
v 1.113970 0.556893 0.461421
v 1.205752 0.556893 -0.000000
v 1.113970 0.556893 -0.461422
v 0.852595 0.556893 -0.852596
v 0.461421 0.556893 -1.113970
vn -0.0912 0.8841 -0.4583
vn -0.2596 0.8841 -0.3885
vn -0.3885 0.8841 -0.2596
vn -0.4583 0.8841 -0.0912
vn -0.4583 0.8841 0.0912
vn -0.3885 0.8841 0.2596
vn -0.2596 0.8841 0.3885
vn -0.0912 0.8841 0.4583
vn 0.0912 0.8841 0.4583
vn 0.2596 0.8841 0.3885
vn 0.3885 0.8841 0.2596
vn 0.4583 0.8841 0.0912
vn 0.4583 0.8841 -0.0912
vn 0.3885 0.8841 -0.2596
vn 0.2596 0.8841 -0.3885
vn 0.0912 0.8841 -0.4583
vn -0.1540 0.6140 -0.7742
vn -0.4385 0.6140 -0.6563
vn -0.6563 0.6140 -0.4385
vn -0.7742 0.6140 -0.1540
vn -0.7742 0.6140 0.1540
vn -0.6563 0.6140 0.4385
vn -0.4385 0.6140 0.6563
vn -0.1540 0.6140 0.7742
vn 0.1540 0.6140 0.7742
vn 0.4385 0.6140 0.6563
vn 0.6563 0.6140 0.4385
vn 0.7742 0.6140 0.1540
vn 0.7742 0.6140 -0.1540
vn 0.6563 0.6140 -0.4385
vn 0.4385 0.6140 -0.6563
vn 0.1540 0.6140 -0.7742
vn -0.1893 0.2415 -0.9518
vn -0.5391 0.2415 -0.8069
vn -0.8069 0.2415 -0.5391
vn -0.9518 0.2415 -0.1893
vn -0.9518 0.2415 0.1893
vn -0.8069 0.2415 0.5391
vn -0.5391 0.2415 0.8069
vn -0.1893 0.2415 0.9518
vn 0.1893 0.2415 0.9518
vn 0.5391 0.2415 0.8069
vn 0.8069 0.2415 0.5391
vn 0.9518 0.2415 0.1893
vn 0.9518 0.2415 -0.1893
vn 0.8069 0.2415 -0.5391
vn 0.5391 0.2415 -0.8069
vn 0.1893 0.2415 -0.9518
vn -0.1289 0.7505 -0.6482
vn -0.3672 0.7505 -0.5495
vn -0.5495 0.7505 -0.3672
vn -0.6482 0.7505 -0.1289
vn -0.6482 0.7505 0.1289
vn -0.5495 0.7505 0.3672
vn -0.3672 0.7505 0.5495
vn -0.1289 0.7505 0.6482
vn 0.1289 0.7505 0.6482
vn 0.3672 0.7505 0.5495
vn 0.5495 0.7505 0.3672
vn 0.6482 0.7505 0.1289
vn 0.6482 0.7505 -0.1289
vn 0.5495 0.7505 -0.3672
vn 0.3672 0.7505 -0.5495
vn 0.1289 0.7505 -0.6482
vn -0.0000 1.0000 -0.0000
vn 0.1368 0.7131 0.6876
vn 0.3895 0.7131 0.5829
vn 0.5829 0.7131 0.3895
vn 0.6876 0.7131 0.1368
vn 0.6876 0.7131 -0.1368
vn 0.5829 0.7131 -0.3895
vn 0.3895 0.7131 -0.5829
vn 0.1368 0.7131 -0.6876
vn -0.1368 0.7131 -0.6876
vn -0.3895 0.7131 -0.5829
vn -0.5829 0.7131 -0.3895
vn -0.6876 0.7131 -0.1368
vn -0.6876 0.7131 0.1368
vn -0.5829 0.7131 0.3895
vn -0.3895 0.7131 0.5829
vn -0.1368 0.7131 0.6876
vn 0.1868 0.2889 0.9390
vn 0.5319 0.2889 0.7960
vn 0.7960 0.2889 0.5319
vn 0.9390 0.2889 0.1868
vn 0.9390 0.2889 -0.1868
vn 0.7960 0.2889 -0.5319
vn 0.5319 0.2889 -0.7960
vn 0.1868 0.2889 -0.9390
vn -0.1868 0.2889 -0.9390
vn -0.5319 0.2889 -0.7960
vn -0.7960 0.2889 -0.5319
vn -0.9390 0.2889 -0.1868
vn -0.9390 0.2889 0.1868
vn -0.7960 0.2889 0.5319
vn -0.5319 0.2889 0.7960
vn -0.1868 0.2889 0.9390
vn 0.3682 0.9268 0.0732
vn 0.3122 0.9268 0.2086
vn 0.3682 0.9268 -0.0732
vn 0.3122 0.9268 -0.2086
vn 0.2086 0.9268 -0.3122
vn 0.0732 0.9268 -0.3682
vn -0.0732 0.9268 -0.3682
vn -0.2086 0.9268 -0.3122
vn -0.3122 0.9268 -0.2086
vn -0.3682 0.9268 -0.0732
vn -0.3682 0.9268 0.0732
vn -0.3122 0.9268 0.2086
vn -0.2086 0.9268 0.3122
vn -0.0732 0.9268 0.3682
vn 0.0732 0.9268 0.3682
vn 0.2086 0.9268 0.3122
vt 0.000000 1.000000
vt 0.062500 1.000000
vt 0.062500 0.968750
vt 0.000000 0.968750
vt 0.125000 1.000000
vt 0.125000 0.968750
vt 0.187500 1.000000
vt 0.187500 0.968750
vt 0.250000 1.000000
vt 0.250000 0.968750
vt 0.312500 1.000000
vt 0.312500 0.968750
vt 0.375000 1.000000
vt 0.375000 0.968750
vt 0.437500 1.000000
vt 0.437500 0.968750
vt 0.500000 1.000000
vt 0.500000 0.968750
vt 0.562500 1.000000
vt 0.562500 0.968750
vt 0.625000 1.000000
vt 0.625000 0.968750
vt 0.687500 1.000000
vt 0.687500 0.968750
vt 0.750000 1.000000
vt 0.750000 0.968750
vt 0.812500 1.000000
vt 0.812500 0.968750
vt 0.875000 1.000000
vt 0.875000 0.968750
vt 0.937500 1.000000
vt 0.937500 0.968750
vt 1.000000 1.000000
vt 1.000000 0.968750
vt 0.062500 0.937500
vt 0.000000 0.937500
vt 0.125000 0.937500
vt 0.187500 0.937500
vt 0.250000 0.937500
vt 0.312500 0.937500
vt 0.375000 0.937500
vt 0.437500 0.937500
vt 0.500000 0.937500
vt 0.562500 0.937500
vt 0.625000 0.937500
vt 0.687500 0.937500
vt 0.750000 0.937500
vt 0.812500 0.937500
vt 0.875000 0.937500
vt 0.937500 0.937500
vt 1.000000 0.937500
vt 0.062500 0.906250
vt 0.000000 0.906250
vt 0.125000 0.906250
vt 0.187500 0.906250
vt 0.250000 0.906250
vt 0.312500 0.906250
vt 0.375000 0.906250
vt 0.437500 0.906250
vt 0.500000 0.906250
vt 0.562500 0.906250
vt 0.625000 0.906250
vt 0.687500 0.906250
vt 0.750000 0.906250
vt 0.812500 0.906250
vt 0.875000 0.906250
vt 0.937500 0.906250
vt 1.000000 0.906250
vt 0.062500 0.890625
vt 0.000000 0.890625
vt 0.125000 0.890625
vt 0.187500 0.890625
vt 0.250000 0.890625
vt 0.312500 0.890625
vt 0.375000 0.890625
vt 0.437500 0.890625
vt 0.500000 0.890625
vt 0.562500 0.890625
vt 0.625000 0.890625
vt 0.687500 0.890625
vt 0.750000 0.890625
vt 0.812500 0.890625
vt 0.875000 0.890625
vt 0.937500 0.890625
vt 1.000000 0.890625
vt 0.062500 0.875000
vt 0.000000 0.875000
vt 0.125000 0.875000
vt 0.187500 0.875000
vt 0.250000 0.875000
vt 0.312500 0.875000
vt 0.375000 0.875000
vt 0.437500 0.875000
vt 0.500000 0.875000
vt 0.562500 0.875000
vt 0.625000 0.875000
vt 0.687500 0.875000
vt 0.750000 0.875000
vt 0.812500 0.875000
vt 0.875000 0.875000
vt 0.937500 0.875000
vt 1.000000 0.875000
vt 0.062500 0.859375
vt 0.000000 0.859375
vt 0.125000 0.859375
vt 0.187500 0.859375
vt 0.250000 0.859375
vt 0.312500 0.859375
vt 0.375000 0.859375
vt 0.437500 0.859375
vt 0.500000 0.859375
vt 0.562500 0.859375
vt 0.625000 0.859375
vt 0.687500 0.859375
vt 0.750000 0.859375
vt 0.812500 0.859375
vt 0.875000 0.859375
vt 0.937500 0.859375
vt 1.000000 0.859375
vt 0.062500 0.828125
vt 0.000000 0.828125
vt 0.125000 0.828125
vt 0.187500 0.828125
vt 0.250000 0.828125
vt 0.312500 0.828125
vt 0.375000 0.828125
vt 0.437500 0.828125
vt 0.500000 0.828125
vt 0.562500 0.828125
vt 0.625000 0.828125
vt 0.687500 0.828125
vt 0.750000 0.828125
vt 0.812500 0.828125
vt 0.875000 0.828125
vt 0.937500 0.828125
vt 1.000000 0.828125
vt 0.187500 0.734375
vt 0.125000 0.734375
vt 0.250000 0.734375
vt 0.312500 0.734375
vt 0.375000 0.734375
vt 0.437500 0.734375
vt 0.500000 0.734375
vt 0.562500 0.734375
vt 0.625000 0.734375
vt 0.687500 0.734375
vt 0.750000 0.734375
vt 0.812500 0.734375
vt 0.875000 0.734375
vt 0.937500 0.734375
vt -0.000000 0.734375
vt 0.062500 0.734375
vt 0.000000 0.000000
s 0
usemtl Material
f 1/1/1 9/2/1 10/3/1 2/4/1
f 9/2/2 17/5/2 18/6/2 10/3/2
f 17/5/3 25/7/3 26/8/3 18/6/3
f 25/7/4 33/9/4 34/10/4 26/8/4
f 33/9/5 41/11/5 42/12/5 34/10/5
f 41/11/6 49/13/6 50/14/6 42/12/6
f 49/13/7 57/15/7 58/16/7 50/14/7
f 57/15/8 65/17/8 66/18/8 58/16/8
f 65/17/9 73/19/9 74/20/9 66/18/9
f 73/19/10 81/21/10 82/22/10 74/20/10
f 81/21/11 89/23/11 90/24/11 82/22/11
f 89/23/12 97/25/12 98/26/12 90/24/12
f 97/25/13 105/27/13 106/28/13 98/26/13
f 105/27/14 113/29/14 114/30/14 106/28/14
f 113/29/15 121/31/15 122/32/15 114/30/15
f 121/31/16 1/33/16 2/34/16 122/32/16
f 2/4/17 10/3/17 11/35/17 3/36/17
f 10/3/18 18/6/18 19/37/18 11/35/18
f 18/6/19 26/8/19 27/38/19 19/37/19
f 26/8/20 34/10/20 35/39/20 27/38/20
f 34/10/21 42/12/21 43/40/21 35/39/21
f 42/12/22 50/14/22 51/41/22 43/40/22
f 50/14/23 58/16/23 59/42/23 51/41/23
f 58/16/24 66/18/24 67/43/24 59/42/24
f 66/18/25 74/20/25 75/44/25 67/43/25
f 74/20/26 82/22/26 83/45/26 75/44/26
f 82/22/27 90/24/27 91/46/27 83/45/27
f 90/24/28 98/26/28 99/47/28 91/46/28
f 98/26/29 106/28/29 107/48/29 99/47/29
f 106/28/30 114/30/30 115/49/30 107/48/30
f 114/30/31 122/32/31 123/50/31 115/49/31
f 122/32/32 2/34/32 3/51/32 123/50/32
f 3/36/33 11/35/33 12/52/33 4/53/33
f 11/35/34 19/37/34 20/54/34 12/52/34
f 19/37/35 27/38/35 28/55/35 20/54/35
f 27/38/36 35/39/36 36/56/36 28/55/36
f 35/39/37 43/40/37 44/57/37 36/56/37
f 43/40/38 51/41/38 52/58/38 44/57/38
f 51/41/39 59/42/39 60/59/39 52/58/39
f 59/42/40 67/43/40 68/60/40 60/59/40
f 67/43/41 75/44/41 76/61/41 68/60/41
f 75/44/42 83/45/42 84/62/42 76/61/42
f 83/45/43 91/46/43 92/63/43 84/62/43
f 91/46/44 99/47/44 100/64/44 92/63/44
f 99/47/45 107/48/45 108/65/45 100/64/45
f 107/48/46 115/49/46 116/66/46 108/65/46
f 115/49/47 123/50/47 124/67/47 116/66/47
f 123/50/48 3/51/48 4/68/48 124/67/48
f 4/53/49 12/52/49 13/69/49 5/70/49
f 12/52/50 20/54/50 21/71/50 13/69/50
f 20/54/51 28/55/51 29/72/51 21/71/51
f 28/55/52 36/56/52 37/73/52 29/72/52
f 36/56/53 44/57/53 45/74/53 37/73/53
f 44/57/54 52/58/54 53/75/54 45/74/54
f 52/58/55 60/59/55 61/76/55 53/75/55
f 60/59/56 68/60/56 69/77/56 61/76/56
f 68/60/57 76/61/57 77/78/57 69/77/57
f 76/61/58 84/62/58 85/79/58 77/78/58
f 84/62/59 92/63/59 93/80/59 85/79/59
f 92/63/60 100/64/60 101/81/60 93/80/60
f 100/64/61 108/65/61 109/82/61 101/81/61
f 108/65/62 116/66/62 117/83/62 109/82/62
f 116/66/63 124/67/63 125/84/63 117/83/63
f 124/67/64 4/68/64 5/85/64 125/84/64
f 5/70/65 13/69/65 14/86/65 6/87/65
f 13/69/65 21/71/65 22/88/65 14/86/65
f 21/71/65 29/72/65 30/89/65 22/88/65
f 29/72/65 37/73/65 38/90/65 30/89/65
f 37/73/65 45/74/65 46/91/65 38/90/65
f 45/74/65 53/75/65 54/92/65 46/91/65
f 53/75/65 61/76/65 62/93/65 54/92/65
f 61/76/65 69/77/65 70/94/65 62/93/65
f 69/77/65 77/78/65 78/95/65 70/94/65
f 77/78/65 85/79/65 86/96/65 78/95/65
f 85/79/65 93/80/65 94/97/65 86/96/65
f 93/80/65 101/81/65 102/98/65 94/97/65
f 101/81/65 109/82/65 110/99/65 102/98/65
f 109/82/65 117/83/65 118/100/65 110/99/65
f 117/83/65 125/84/65 126/101/65 118/100/65
f 125/84/65 5/85/65 6/102/65 126/101/65
f 6/87/66 14/86/66 15/103/66 7/104/66
f 14/86/67 22/88/67 23/105/67 15/103/67
f 22/88/68 30/89/68 31/106/68 23/105/68
f 30/89/69 38/90/69 39/107/69 31/106/69
f 38/90/70 46/91/70 47/108/70 39/107/70
f 46/91/71 54/92/71 55/109/71 47/108/71
f 54/92/72 62/93/72 63/110/72 55/109/72
f 62/93/73 70/94/73 71/111/73 63/110/73
f 70/94/74 78/95/74 79/112/74 71/111/74
f 78/95/75 86/96/75 87/113/75 79/112/75
f 86/96/76 94/97/76 95/114/76 87/113/76
f 94/97/77 102/98/77 103/115/77 95/114/77
f 102/98/78 110/99/78 111/116/78 103/115/78
f 110/99/79 118/100/79 119/117/79 111/116/79
f 118/100/80 126/101/80 127/118/80 119/117/80
f 126/101/81 6/102/81 7/119/81 127/118/81
f 7/104/82 15/103/82 16/120/82 8/121/82
f 15/103/83 23/105/83 24/122/83 16/120/83
f 23/105/84 31/106/84 32/123/84 24/122/84
f 31/106/85 39/107/85 40/124/85 32/123/85
f 39/107/86 47/108/86 48/125/86 40/124/86
f 47/108/87 55/109/87 56/126/87 48/125/87
f 55/109/88 63/110/88 64/127/88 56/126/88
f 63/110/89 71/111/89 72/128/89 64/127/89
f 71/111/90 79/112/90 80/129/90 72/128/90
f 79/112/91 87/113/91 88/130/91 80/129/91
f 87/113/92 95/114/92 96/131/92 88/130/92
f 95/114/93 103/115/93 104/132/93 96/131/93
f 103/115/94 111/116/94 112/133/94 104/132/94
f 111/116/95 119/117/95 120/134/95 112/133/95
f 119/117/96 127/118/96 128/135/96 120/134/96
f 127/118/97 7/119/97 8/136/97 128/135/97
f 32/123/98 40/124/98 129/137/98
f 24/122/99 32/123/99 129/138/99
f 40/124/100 48/125/100 129/139/100
f 48/125/101 56/126/101 129/140/101
f 56/126/102 64/127/102 129/141/102
f 64/127/103 72/128/103 129/142/103
f 72/128/104 80/129/104 129/143/104
f 80/129/105 88/130/105 129/144/105
f 88/130/106 96/131/106 129/145/106
f 96/131/107 104/132/107 129/146/107
f 104/132/108 112/133/108 129/147/108
f 120/134/109 129/148/109 112/133/109
f 120/134/110 128/135/110 129/149/110
f 128/135/111 8/136/111 129/150/111
f 8/121/112 16/120/112 129/151/112
f 16/120/113 24/122/113 129/152/113
usemtl Effect
f 132/153/65 133/153/65 134/153/65 135/153/65 136/153/65 137/153/65 138/153/65 139/153/65 140/153/65 141/153/65 142/153/65 143/153/65 144/153/65 145/153/65 130/153/65 131/153/65
