{
  "tempo": 135.000135000135,
  "tracks": {
	"Niko": [
		{
		  "name": "C#3",
		  "midi": 49,
		  "time": 0,
		  "velocity": 0.7874015748031497,
		  "duration": 0.222222
		},
		{
		  "name": "C#4",
		  "midi": 61,
		  "time": 0,
		  "velocity": 0.7874015748031497,
		  "duration": 0.222222
		},
		{
		  "name": "C#3",
		  "midi": 49,
		  "time": 1.11111,
		  "velocity": 0.7874015748031497,
		  "duration": 0.22222199999999992
		},
		{
		  "name": "C#4",
		  "midi": 61,
		  "time": 1.11111,
		  "velocity": 0.7874015748031497,
		  "duration": 0.22222199999999992
		},
		{
		  "name": "C#3",
		  "midi": 49,
		  "time": 1.777776,
		  "velocity": 0.7874015748031497,
		  "duration": 0.22222199999999992
		},
		{
		  "name": "C#4",
		  "midi": 61,
		  "time": 1.777776,
		  "velocity": 0.7874015748031497,
		  "duration": 0.22222199999999992
		},
		{
		  "name": "C#3",
		  "midi": 49,
		  "time": 1.999998,
		  "velocity": 0.7874015748031497,
		  "duration": 0.11111099999999996
		},
		{
		  "name": "C#4",
		  "midi": 61,
		  "time": 1.999998,
		  "velocity": 0.7874015748031497,
		  "duration": 0.11111099999999996
		},
		{
		  "name": "C#3",
		  "midi": 49,
		  "time": 2.888886,
		  "velocity": 0.7874015748031497,
		  "duration": 0.22222199999999992
		},
		{
		  "name": "C#4",
		  "midi": 61,
		  "time": 2.888886,
		  "velocity": 0.7874015748031497,
		  "duration": 0.22222199999999992
		},
		{
		  "name": "A2",
		  "midi": 45,
		  "time": 3.5555519999999996,
		  "velocity": 0.7874015748031497,
		  "duration": 0.22222199999999992
		},
		{
		  "name": "A3",
		  "midi": 57,
		  "time": 3.5555519999999996,
		  "velocity": 0.7874015748031497,
		  "duration": 0.22222199999999992
		},
		{
		  "name": "A2",
		  "midi": 45,
		  "time": 3.8888849999999997,
		  "velocity": 0.7874015748031497,
		  "duration": 0.22222199999999992
		},
		{
		  "name": "A3",
		  "midi": 57,
		  "time": 3.8888849999999997,
		  "velocity": 0.7874015748031497,
		  "duration": 0.22222199999999992
		},
		{
		  "name": "A2",
		  "midi": 45,
		  "time": 4.222218,
		  "velocity": 0.7874015748031497,
		  "duration": 0.22222200000000036
		},
		{
		  "name": "A3",
		  "midi": 57,
		  "time": 4.222218,
		  "velocity": 0.7874015748031497,
		  "duration": 0.22222200000000036
		},
		{
		  "name": "A2",
		  "midi": 45,
		  "time": 4.888884,
		  "velocity": 0.7874015748031497,
		  "duration": 0.22222200000000036
		},
		{
		  "name": "A3",
		  "midi": 57,
		  "time": 4.888884,
		  "velocity": 0.7874015748031497,
		  "duration": 0.22222200000000036
		},
		{
		  "name": "B2",
		  "midi": 47,
		  "time": 5.333328000000001,
		  "velocity": 0.7874015748031497,
		  "duration": 0.22222200000000036
		},
		{
		  "name": "B3",
		  "midi": 59,
		  "time": 5.333328000000001,
		  "velocity": 0.7874015748031497,
		  "duration": 0.22222200000000036
		},
		{
		  "name": "B2",
		  "midi": 47,
		  "time": 5.666661000000001,
		  "velocity": 0.7874015748031497,
		  "duration": 0.22222200000000036
		},
		{
		  "name": "B3",
		  "midi": 59,
		  "time": 5.666661000000001,
		  "velocity": 0.7874015748031497,
		  "duration": 0.22222200000000036
		},
		{
		  "name": "B2",
		  "midi": 47,
		  "time": 5.999994000000002,
		  "velocity": 0.7874015748031497,
		  "duration": 0.22222200000000036
		},
		{
		  "name": "B3",
		  "midi": 59,
		  "time": 5.999994000000002,
		  "velocity": 0.7874015748031497,
		  "duration": 0.22222200000000036
		},
		{
		  "name": "B2",
		  "midi": 47,
		  "time": 6.666660000000002,
		  "velocity": 0.7874015748031497,
		  "duration": 0.22222200000000036
		},
		{
		  "name": "B3",
		  "midi": 59,
		  "time": 6.666660000000002,
		  "velocity": 0.7874015748031497,
		  "duration": 0.22222200000000036
		},
		{
		  "name": "C#3",
		  "midi": 49,
		  "time": 7.111104000000003,
		  "velocity": 0.7874015748031497,
		  "duration": 0.22222200000000036
		},
		{
		  "name": "C#4",
		  "midi": 61,
		  "time": 7.111104000000003,
		  "velocity": 0.7874015748031497,
		  "duration": 0.22222200000000036
		},
		{
		  "name": "C#3",
		  "midi": 49,
		  "time": 8.222214000000003,
		  "velocity": 0.7874015748031497,
		  "duration": 0.22222200000000036
		},
		{
		  "name": "C#4",
		  "midi": 61,
		  "time": 8.222214000000003,
		  "velocity": 0.7874015748031497,
		  "duration": 0.22222200000000036
		},
		{
		  "name": "C#3",
		  "midi": 49,
		  "time": 8.888880000000004,
		  "velocity": 0.7874015748031497,
		  "duration": 0.22222200000000036
		},
		{
		  "name": "C#4",
		  "midi": 61,
		  "time": 8.888880000000004,
		  "velocity": 0.7874015748031497,
		  "duration": 0.22222200000000036
		},
		{
		  "name": "C#3",
		  "midi": 49,
		  "time": 9.999990000000004,
		  "velocity": 0.7874015748031497,
		  "duration": 0.22222200000000036
		},
		{
		  "name": "C#4",
		  "midi": 61,
		  "time": 9.999990000000004,
		  "velocity": 0.7874015748031497,
		  "duration": 0.22222200000000036
		},
		{
		  "name": "A2",
		  "midi": 45,
		  "time": 10.666656000000005,
		  "velocity": 0.7874015748031497,
		  "duration": 0.22222200000000036
		},
		{
		  "name": "A3",
		  "midi": 57,
		  "time": 10.666656000000005,
		  "velocity": 0.7874015748031497,
		  "duration": 0.22222200000000036
		},
		{
		  "name": "A2",
		  "midi": 45,
		  "time": 10.999989000000005,
		  "velocity": 0.7874015748031497,
		  "duration": 0.22222200000000036
		},
		{
		  "name": "A3",
		  "midi": 57,
		  "time": 10.999989000000005,
		  "velocity": 0.7874015748031497,
		  "duration": 0.22222200000000036
		},
		{
		  "name": "A2",
		  "midi": 45,
		  "time": 11.333322000000004,
		  "velocity": 0.7874015748031497,
		  "duration": 0.22222200000000036
		},
		{
		  "name": "A3",
		  "midi": 57,
		  "time": 11.333322000000004,
		  "velocity": 0.7874015748031497,
		  "duration": 0.22222200000000036
		},
		{
		  "name": "A2",
		  "midi": 45,
		  "time": 11.999988000000005,
		  "velocity": 0.7874015748031497,
		  "duration": 0.22222200000000036
		},
		{
		  "name": "A3",
		  "midi": 57,
		  "time": 11.999988000000005,
		  "velocity": 0.7874015748031497,
		  "duration": 0.22222200000000036
		},
		{
		  "name": "B2",
		  "midi": 47,
		  "time": 12.444432000000006,
		  "velocity": 0.7874015748031497,
		  "duration": 0.22222200000000036
		},
		{
		  "name": "B3",
		  "midi": 59,
		  "time": 12.444432000000006,
		  "velocity": 0.7874015748031497,
		  "duration": 0.22222200000000036
		},
		{
		  "name": "B2",
		  "midi": 47,
		  "time": 12.777765000000006,
		  "velocity": 0.7874015748031497,
		  "duration": 0.22222200000000036
		},
		{
		  "name": "B3",
		  "midi": 59,
		  "time": 12.777765000000006,
		  "velocity": 0.7874015748031497,
		  "duration": 0.22222200000000036
		},
		{
		  "name": "B2",
		  "midi": 47,
		  "time": 13.111098000000005,
		  "velocity": 0.7874015748031497,
		  "duration": 0.22222200000000036
		},
		{
		  "name": "B3",
		  "midi": 59,
		  "time": 13.111098000000005,
		  "velocity": 0.7874015748031497,
		  "duration": 0.22222200000000036
		},
		{
		  "name": "E4",
		  "midi": 64,
		  "time": 13.555542000000006,
		  "velocity": 0.7952755905511811,
		  "duration": 0.22222200000000036
		},
		{
		  "name": "E3",
		  "midi": 52,
		  "time": 13.555542000000006,
		  "velocity": 0.7952755905511811,
		  "duration": 0.22222200000000036
		},
		{
		  "name": "F#4",
		  "midi": 66,
		  "time": 13.777764000000007,
		  "velocity": 0.7952755905511811,
		  "duration": 0.22222200000000036
		},
		{
		  "name": "F#3",
		  "midi": 54,
		  "time": 13.777764000000007,
		  "velocity": 0.7952755905511811,
		  "duration": 0.22222200000000036
		},
		{
		  "name": "B3",
		  "midi": 59,
		  "time": 13.999986000000007,
		  "velocity": 0.7952755905511811,
		  "duration": 0.22222200000000036
		},
		{
		  "name": "B2",
		  "midi": 47,
		  "time": 13.999986000000007,
		  "velocity": 0.7952755905511811,
		  "duration": 0.22222200000000036
		},
		{
		  "name": "C#4",
		  "midi": 61,
		  "time": 14.222208000000007,
		  "velocity": 0.7874015748031497,
		  "duration": 0.22222200000000036
		},
		{
		  "name": "C#3",
		  "midi": 49,
		  "time": 14.222208000000007,
		  "velocity": 0.7952755905511811,
		  "duration": 0.22222200000000036
		},
		{
		  "name": "C#3",
		  "midi": 49,
		  "time": 15.333318000000007,
		  "velocity": 0.7874015748031497,
		  "duration": 0.22222200000000036
		},
		{
		  "name": "C#4",
		  "midi": 61,
		  "time": 15.333318000000007,
		  "velocity": 0.7874015748031497,
		  "duration": 0.22222200000000036
		},
		{
		  "name": "C#3",
		  "midi": 49,
		  "time": 15.999984000000008,
		  "velocity": 0.7874015748031497,
		  "duration": 0.2222219999999986
		},
		{
		  "name": "C#4",
		  "midi": 61,
		  "time": 15.999984000000008,
		  "velocity": 0.7874015748031497,
		  "duration": 0.2222219999999986
		},
		{
		  "name": "C#3",
		  "midi": 49,
		  "time": 16.222206000000007,
		  "velocity": 0.7874015748031497,
		  "duration": 0.11111100000000107
		},
		{
		  "name": "C#4",
		  "midi": 61,
		  "time": 16.222206000000007,
		  "velocity": 0.7874015748031497,
		  "duration": 0.11111100000000107
		},
		{
		  "name": "C#3",
		  "midi": 49,
		  "time": 17.11109400000001,
		  "velocity": 0.7874015748031497,
		  "duration": 0.2222219999999986
		},
		{
		  "name": "C#4",
		  "midi": 61,
		  "time": 17.11109400000001,
		  "velocity": 0.7874015748031497,
		  "duration": 0.2222219999999986
		},
		{
		  "name": "A2",
		  "midi": 45,
		  "time": 17.777760000000008,
		  "velocity": 0.7874015748031497,
		  "duration": 0.2222219999999986
		},
		{
		  "name": "A3",
		  "midi": 57,
		  "time": 17.777760000000008,
		  "velocity": 0.7874015748031497,
		  "duration": 0.2222219999999986
		},
		{
		  "name": "A2",
		  "midi": 45,
		  "time": 18.111093000000007,
		  "velocity": 0.7874015748031497,
		  "duration": 0.2222219999999986
		},
		{
		  "name": "A3",
		  "midi": 57,
		  "time": 18.111093000000007,
		  "velocity": 0.7874015748031497,
		  "duration": 0.2222219999999986
		},
		{
		  "name": "A2",
		  "midi": 45,
		  "time": 18.444426000000007,
		  "velocity": 0.7874015748031497,
		  "duration": 0.2222219999999986
		},
		{
		  "name": "A3",
		  "midi": 57,
		  "time": 18.444426000000007,
		  "velocity": 0.7874015748031497,
		  "duration": 0.2222219999999986
		},
		{
		  "name": "A2",
		  "midi": 45,
		  "time": 19.111092000000006,
		  "velocity": 0.7874015748031497,
		  "duration": 0.2222219999999986
		},
		{
		  "name": "A3",
		  "midi": 57,
		  "time": 19.111092000000006,
		  "velocity": 0.7874015748031497,
		  "duration": 0.2222219999999986
		},
		{
		  "name": "B2",
		  "midi": 47,
		  "time": 19.555536000000004,
		  "velocity": 0.7874015748031497,
		  "duration": 0.2222219999999986
		},
		{
		  "name": "B3",
		  "midi": 59,
		  "time": 19.555536000000004,
		  "velocity": 0.7874015748031497,
		  "duration": 0.2222219999999986
		},
		{
		  "name": "B2",
		  "midi": 47,
		  "time": 19.888869000000003,
		  "velocity": 0.7874015748031497,
		  "duration": 0.2222219999999986
		},
		{
		  "name": "B3",
		  "midi": 59,
		  "time": 19.888869000000003,
		  "velocity": 0.7874015748031497,
		  "duration": 0.2222219999999986
		},
		{
		  "name": "B2",
		  "midi": 47,
		  "time": 20.222202000000003,
		  "velocity": 0.7874015748031497,
		  "duration": 0.2222219999999986
		},
		{
		  "name": "B3",
		  "midi": 59,
		  "time": 20.222202000000003,
		  "velocity": 0.7874015748031497,
		  "duration": 0.2222219999999986
		},
		{
		  "name": "B2",
		  "midi": 47,
		  "time": 20.888868000000002,
		  "velocity": 0.7874015748031497,
		  "duration": 0.2222219999999986
		},
		{
		  "name": "B3",
		  "midi": 59,
		  "time": 20.888868000000002,
		  "velocity": 0.7874015748031497,
		  "duration": 0.2222219999999986
		},
		{
		  "name": "C#3",
		  "midi": 49,
		  "time": 21.333312,
		  "velocity": 0.7874015748031497,
		  "duration": 0.2222219999999986
		},
		{
		  "name": "C#4",
		  "midi": 61,
		  "time": 21.333312,
		  "velocity": 0.7874015748031497,
		  "duration": 0.2222219999999986
		},
		{
		  "name": "C#3",
		  "midi": 49,
		  "time": 22.444422,
		  "velocity": 0.7874015748031497,
		  "duration": 0.2222219999999986
		},
		{
		  "name": "C#4",
		  "midi": 61,
		  "time": 22.444422,
		  "velocity": 0.7874015748031497,
		  "duration": 0.2222219999999986
		},
		{
		  "name": "C#3",
		  "midi": 49,
		  "time": 23.111088,
		  "velocity": 0.7874015748031497,
		  "duration": 0.2222219999999986
		},
		{
		  "name": "C#4",
		  "midi": 61,
		  "time": 23.111088,
		  "velocity": 0.7874015748031497,
		  "duration": 0.2222219999999986
		},
		{
		  "name": "C#3",
		  "midi": 49,
		  "time": 24.222198,
		  "velocity": 0.7874015748031497,
		  "duration": 0.2222219999999986
		},
		{
		  "name": "C#4",
		  "midi": 61,
		  "time": 24.222198,
		  "velocity": 0.7874015748031497,
		  "duration": 0.2222219999999986
		},
		{
		  "name": "A2",
		  "midi": 45,
		  "time": 24.888863999999998,
		  "velocity": 0.7874015748031497,
		  "duration": 0.2222219999999986
		},
		{
		  "name": "A3",
		  "midi": 57,
		  "time": 24.888863999999998,
		  "velocity": 0.7874015748031497,
		  "duration": 0.2222219999999986
		},
		{
		  "name": "A2",
		  "midi": 45,
		  "time": 25.222196999999998,
		  "velocity": 0.7874015748031497,
		  "duration": 0.2222219999999986
		},
		{
		  "name": "A3",
		  "midi": 57,
		  "time": 25.222196999999998,
		  "velocity": 0.7874015748031497,
		  "duration": 0.2222219999999986
		},
		{
		  "name": "A2",
		  "midi": 45,
		  "time": 25.555529999999997,
		  "velocity": 0.7874015748031497,
		  "duration": 0.2222219999999986
		},
		{
		  "name": "A3",
		  "midi": 57,
		  "time": 25.555529999999997,
		  "velocity": 0.7874015748031497,
		  "duration": 0.2222219999999986
		},
		{
		  "name": "A2",
		  "midi": 45,
		  "time": 26.222195999999997,
		  "velocity": 0.7874015748031497,
		  "duration": 0.2222219999999986
		},
		{
		  "name": "A3",
		  "midi": 57,
		  "time": 26.222195999999997,
		  "velocity": 0.7874015748031497,
		  "duration": 0.2222219999999986
		},
		{
		  "name": "B2",
		  "midi": 47,
		  "time": 26.666639999999994,
		  "velocity": 0.7874015748031497,
		  "duration": 0.2222219999999986
		},
		{
		  "name": "B3",
		  "midi": 59,
		  "time": 26.666639999999994,
		  "velocity": 0.7874015748031497,
		  "duration": 0.2222219999999986
		},
		{
		  "name": "B2",
		  "midi": 47,
		  "time": 26.999972999999994,
		  "velocity": 0.7874015748031497,
		  "duration": 0.2222219999999986
		},
		{
		  "name": "B3",
		  "midi": 59,
		  "time": 26.999972999999994,
		  "velocity": 0.7874015748031497,
		  "duration": 0.2222219999999986
		},
		{
		  "name": "B2",
		  "midi": 47,
		  "time": 27.333305999999993,
		  "velocity": 0.7874015748031497,
		  "duration": 0.2222219999999986
		},
		{
		  "name": "B3",
		  "midi": 59,
		  "time": 27.333305999999993,
		  "velocity": 0.7874015748031497,
		  "duration": 0.2222219999999986
		},
		{
		  "name": "E4",
		  "midi": 64,
		  "time": 27.77774999999999,
		  "velocity": 0.7952755905511811,
		  "duration": 0.2222219999999986
		},
		{
		  "name": "E3",
		  "midi": 52,
		  "time": 27.77774999999999,
		  "velocity": 0.7952755905511811,
		  "duration": 0.2222219999999986
		},
		{
		  "name": "F#4",
		  "midi": 66,
		  "time": 27.99997199999999,
		  "velocity": 0.7952755905511811,
		  "duration": 0.2222219999999986
		},
		{
		  "name": "F#3",
		  "midi": 54,
		  "time": 27.99997199999999,
		  "velocity": 0.7952755905511811,
		  "duration": 0.2222219999999986
		},
		{
		  "name": "B3",
		  "midi": 59,
		  "time": 28.222193999999988,
		  "velocity": 0.7952755905511811,
		  "duration": 0.2222219999999986
		},
		{
		  "name": "B2",
		  "midi": 47,
		  "time": 28.222193999999988,
		  "velocity": 0.7952755905511811,
		  "duration": 0.2222219999999986
		},
		{
		  "name": "C#4",
		  "midi": 61,
		  "time": 28.444415999999986,
		  "velocity": 0.7874015748031497,
		  "duration": 0.2222219999999986
		},
		{
		  "name": "C#3",
		  "midi": 49,
		  "time": 28.444415999999986,
		  "velocity": 0.7952755905511811,
		  "duration": 0.2222219999999986
		},
		{
		  "name": "F#3",
		  "midi": 54,
		  "time": 101.33323199999998,
		  "velocity": 0.7874015748031497,
		  "duration": 0.222222000000329
		},
		{
		  "name": "F#4",
		  "midi": 66,
		  "time": 101.55545400000031,
		  "velocity": 0.7874015748031497,
		  "duration": 0.1111110000001645
		},
		{
		  "name": "F#3",
		  "midi": 54,
		  "time": 101.66656500000047,
		  "velocity": 0.7874015748031497,
		  "duration": 0.1111110000001645
		},
		{
		  "name": "F#4",
		  "midi": 66,
		  "time": 101.77767600000064,
		  "velocity": 0.7874015748031497,
		  "duration": 0.222222000000329
		},
		{
		  "name": "E4",
		  "midi": 64,
		  "time": 101.99989800000097,
		  "velocity": 0.7874015748031497,
		  "duration": 0.1111110000001645
		},
		{
		  "name": "A4",
		  "midi": 69,
		  "time": 102.11100900000113,
		  "velocity": 0.7874015748031497,
		  "duration": 0.3333330000004935
		},
		{
		  "name": "F#4",
		  "midi": 66,
		  "time": 102.44434200000163,
		  "velocity": 0.7874015748031497,
		  "duration": 0.222222000000329
		},
		{
		  "name": "E4",
		  "midi": 64,
		  "time": 102.66656400000196,
		  "velocity": 0.7874015748031497,
		  "duration": 0.1111110000001645
		},
		{
		  "name": "F#4",
		  "midi": 66,
		  "time": 102.77767500000212,
		  "velocity": 0.7874015748031497,
		  "duration": 0.222222000000329
		},
		{
		  "name": "F#3",
		  "midi": 54,
		  "time": 103.11100800000261,
		  "velocity": 0.7874015748031497,
		  "duration": 0.222222000000329
		},
		{
		  "name": "F#4",
		  "midi": 66,
		  "time": 103.33323000000294,
		  "velocity": 0.7874015748031497,
		  "duration": 0.1111110000001645
		},
		{
		  "name": "F#3",
		  "midi": 54,
		  "time": 103.4443410000031,
		  "velocity": 0.7874015748031497,
		  "duration": 0.1111110000001645
		},
		{
		  "name": "F#4",
		  "midi": 66,
		  "time": 103.55545200000327,
		  "velocity": 0.7874015748031497,
		  "duration": 0.222222000000329
		},
		{
		  "name": "E4",
		  "midi": 64,
		  "time": 103.7776740000036,
		  "velocity": 0.7874015748031497,
		  "duration": 0.1111110000001645
		},
		{
		  "name": "A4",
		  "midi": 69,
		  "time": 103.88878500000376,
		  "velocity": 0.7874015748031497,
		  "duration": 0.3333330000004935
		},
		{
		  "name": "F#4",
		  "midi": 66,
		  "time": 104.22211800000426,
		  "velocity": 0.7874015748031497,
		  "duration": 0.222222000000329
		},
		{
		  "name": "E4",
		  "midi": 64,
		  "time": 104.44434000000459,
		  "velocity": 0.7874015748031497,
		  "duration": 0.1111110000001645
		},
		{
		  "name": "F#4",
		  "midi": 66,
		  "time": 104.55545100000475,
		  "velocity": 0.7874015748031497,
		  "duration": 0.222222000000329
		},
		{
		  "name": "F#3",
		  "midi": 54,
		  "time": 104.88878400000524,
		  "velocity": 0.7874015748031497,
		  "duration": 0.222222000000329
		},
		{
		  "name": "F#4",
		  "midi": 66,
		  "time": 105.11100600000557,
		  "velocity": 0.7874015748031497,
		  "duration": 0.1111110000001645
		},
		{
		  "name": "F#3",
		  "midi": 54,
		  "time": 105.22211700000574,
		  "velocity": 0.7874015748031497,
		  "duration": 0.1111110000001645
		},
		{
		  "name": "F#4",
		  "midi": 66,
		  "time": 105.3332280000059,
		  "velocity": 0.7874015748031497,
		  "duration": 0.222222000000329
		},
		{
		  "name": "E4",
		  "midi": 64,
		  "time": 105.55545000000623,
		  "velocity": 0.7874015748031497,
		  "duration": 0.1111110000001645
		},
		{
		  "name": "A4",
		  "midi": 69,
		  "time": 105.6665610000064,
		  "velocity": 0.7874015748031497,
		  "duration": 0.3333330000004935
		},
		{
		  "name": "F#4",
		  "midi": 66,
		  "time": 105.99989400000689,
		  "velocity": 0.7874015748031497,
		  "duration": 0.222222000000329
		},
		{
		  "name": "E4",
		  "midi": 64,
		  "time": 106.22211600000722,
		  "velocity": 0.7874015748031497,
		  "duration": 0.1111110000001645
		},
		{
		  "name": "F#4",
		  "midi": 66,
		  "time": 106.33322700000738,
		  "velocity": 0.7874015748031497,
		  "duration": 0.222222000000329
		},
		{
		  "name": "F#3",
		  "midi": 54,
		  "time": 106.66656000000788,
		  "velocity": 0.7874015748031497,
		  "duration": 0.222222000000329
		},
		{
		  "name": "F#4",
		  "midi": 66,
		  "time": 106.8887820000082,
		  "velocity": 0.7874015748031497,
		  "duration": 0.1111110000001645
		},
		{
		  "name": "F#3",
		  "midi": 54,
		  "time": 106.99989300000837,
		  "velocity": 0.7874015748031497,
		  "duration": 0.1111110000001645
		},
		{
		  "name": "F#4",
		  "midi": 66,
		  "time": 107.11100400000853,
		  "velocity": 0.7874015748031497,
		  "duration": 0.222222000000329
		},
		{
		  "name": "E4",
		  "midi": 64,
		  "time": 107.33322600000886,
		  "velocity": 0.7874015748031497,
		  "duration": 0.1111110000001645
		},
		{
		  "name": "A4",
		  "midi": 69,
		  "time": 107.44433700000903,
		  "velocity": 0.7874015748031497,
		  "duration": 0.3333330000004935
		},
		{
		  "name": "F#4",
		  "midi": 66,
		  "time": 107.77767000000952,
		  "velocity": 0.7874015748031497,
		  "duration": 0.222222000000329
		},
		{
		  "name": "E4",
		  "midi": 64,
		  "time": 107.99989200000985,
		  "velocity": 0.7874015748031497,
		  "duration": 0.1111110000001645
		},
		{
		  "name": "F#4",
		  "midi": 66,
		  "time": 108.11100300001002,
		  "velocity": 0.7874015748031497,
		  "duration": 0.222222000000329
		},
		{
		  "name": "F#4",
		  "midi": 66,
		  "time": 115.5554400000105,
		  "velocity": 0.8818897637795275,
		  "duration": 0.22222200000000214
		},
		{
		  "name": "D4",
		  "midi": 62,
		  "time": 115.99988400001051,
		  "velocity": 0.8818897637795275,
		  "duration": 0.22222200000000214
		},
		{
		  "name": "C#4",
		  "midi": 61,
		  "time": 116.44432800001051,
		  "velocity": 0.8818897637795275,
		  "duration": 0.22222200000000214
		},
		{
		  "name": "A3",
		  "midi": 57,
		  "time": 116.88877200001052,
		  "velocity": 0.8818897637795275,
		  "duration": 0.22222200000000214
		},
		{
		  "name": "F#3",
		  "midi": 54,
		  "time": 117.11099400001052,
		  "velocity": 0.8818897637795275,
		  "duration": 0.11111099999999396
		},
		{
		  "name": "A3",
		  "midi": 57,
		  "time": 117.33321600001051,
		  "velocity": 0.8818897637795275,
		  "duration": 0.11111099999999396
		},
		{
		  "name": "F#3",
		  "midi": 54,
		  "time": 117.5554380000105,
		  "velocity": 0.8818897637795275,
		  "duration": 0.11111099999999396
		},
		{
		  "name": "A3",
		  "midi": 57,
		  "time": 117.77766000001048,
		  "velocity": 0.8818897637795275,
		  "duration": 0.11111099999999396
		},
		{
		  "name": "B3",
		  "midi": 59,
		  "time": 117.88877100001048,
		  "velocity": 0.8818897637795275,
		  "duration": 0.11111099999999396
		},
		{
		  "name": "C#4",
		  "midi": 61,
		  "time": 118.11099300001047,
		  "velocity": 0.8818897637795275,
		  "duration": 0.11111099999999396
		},
		{
		  "name": "F#4",
		  "midi": 66,
		  "time": 118.44432600001046,
		  "velocity": 0.8818897637795275,
		  "duration": 0.11111099999999396
		},
		{
		  "name": "F#3",
		  "midi": 54,
		  "time": 119.11099200001046,
		  "velocity": 0.8818897637795275,
		  "duration": 0.11111099999999396
		},
		{
		  "name": "F#4",
		  "midi": 66,
		  "time": 119.55543600001045,
		  "velocity": 0.8818897637795275,
		  "duration": 0.11111099999999396
		},
		{
		  "name": "A4",
		  "midi": 69,
		  "time": 119.99988000001044,
		  "velocity": 0.8818897637795275,
		  "duration": 0.11111099999999396
		},
		{
		  "name": "E4",
		  "midi": 64,
		  "time": 120.44432400001043,
		  "velocity": 0.8818897637795275,
		  "duration": 0.11111099999999396
		},
		{
		  "name": "C#4",
		  "midi": 61,
		  "time": 120.66654600001041,
		  "velocity": 0.8818897637795275,
		  "duration": 0.11111099999999396
		},
		{
		  "name": "E4",
		  "midi": 64,
		  "time": 120.8887680000104,
		  "velocity": 0.8818897637795275,
		  "duration": 0.11111099999999396
		},
		{
		  "name": "C#4",
		  "midi": 61,
		  "time": 121.11099000001039,
		  "velocity": 0.8818897637795275,
		  "duration": 0.22222200000000214
		},
		{
		  "name": "E4",
		  "midi": 64,
		  "time": 121.33321200001039,
		  "velocity": 0.8818897637795275,
		  "duration": 0.11111099999999396
		},
		{
		  "name": "F4",
		  "midi": 65,
		  "time": 121.44432300001039,
		  "velocity": 0.8818897637795275,
		  "duration": 0.11111099999999396
		},
		{
		  "name": "F#4",
		  "midi": 66,
		  "time": 121.66654500001037,
		  "velocity": 0.8818897637795275,
		  "duration": 0.11111099999999396
		},
		{
		  "name": "F#4",
		  "midi": 66,
		  "time": 121.99987800001037,
		  "velocity": 0.8188976377952756,
		  "duration": 0.11111099999999396
		},
		{
		  "name": "C#4",
		  "midi": 61,
		  "time": 122.44432200001036,
		  "velocity": 0.8188976377952756,
		  "duration": 0.11111099999999396
		},
		{
		  "name": "A4",
		  "midi": 69,
		  "time": 122.66654400001035,
		  "velocity": 0.8818897637795275,
		  "duration": 0.22222200000000214
		},
		{
		  "name": "C#4",
		  "midi": 61,
		  "time": 123.11098800001035,
		  "velocity": 0.8818897637795275,
		  "duration": 0.22222200000000214
		},
		{
		  "name": "E4",
		  "midi": 64,
		  "time": 123.55543200001036,
		  "velocity": 0.8818897637795275,
		  "duration": 0.22222200000000214
		},
		{
		  "name": "F4",
		  "midi": 65,
		  "time": 123.99987600001036,
		  "velocity": 0.8818897637795275,
		  "duration": 0.22222200000000214
		},
		{
		  "name": "F#4",
		  "midi": 66,
		  "time": 124.33320900001036,
		  "velocity": 0.8818897637795275,
		  "duration": 0.22222200000000214
		},
		{
		  "name": "B3",
		  "midi": 59,
		  "time": 124.66654200001035,
		  "velocity": 0.8818897637795275,
		  "duration": 0.11111099999999396
		},
		{
		  "name": "A3",
		  "midi": 57,
		  "time": 124.88876400001034,
		  "velocity": 0.8818897637795275,
		  "duration": 0.11111099999999396
		},
		{
		  "name": "B3",
		  "midi": 59,
		  "time": 124.99987500001033,
		  "velocity": 0.8818897637795275,
		  "duration": 0.11111099999999396
		},
		{
		  "name": "C#4",
		  "midi": 61,
		  "time": 125.22209700001032,
		  "velocity": 0.8818897637795275,
		  "duration": 0.11111099999999396
		},
		{
		  "name": "F#4",
		  "midi": 66,
		  "time": 125.55543000001032,
		  "velocity": 0.8818897637795275,
		  "duration": 0.11111099999999396
		},
		{
		  "name": "F#3",
		  "midi": 54,
		  "time": 126.22209600001031,
		  "velocity": 0.8818897637795275,
		  "duration": 0.11111099999999396
		},
		{
		  "name": "F#4",
		  "midi": 66,
		  "time": 126.6665400000103,
		  "velocity": 0.8818897637795275,
		  "duration": 0.11111099999999396
		},
		{
		  "name": "A4",
		  "midi": 69,
		  "time": 127.11098400001029,
		  "velocity": 0.8818897637795275,
		  "duration": 0.11111099999999396
		},
		{
		  "name": "E4",
		  "midi": 64,
		  "time": 127.55542800001028,
		  "velocity": 0.8818897637795275,
		  "duration": 0.11111099999999396
		},
		{
		  "name": "C#4",
		  "midi": 61,
		  "time": 127.77765000001027,
		  "velocity": 0.8818897637795275,
		  "duration": 0.11111099999999396
		},
		{
		  "name": "E4",
		  "midi": 64,
		  "time": 127.99987200001026,
		  "velocity": 0.8818897637795275,
		  "duration": 0.11111100000000818
		},
		{
		  "name": "C#4",
		  "midi": 61,
		  "time": 128.22209400001026,
		  "velocity": 0.8818897637795275,
		  "duration": 0.3333330000000103
		},
		{
		  "name": "F4",
		  "midi": 65,
		  "time": 128.55542700001027,
		  "velocity": 0.8818897637795275,
		  "duration": 0.11111099999999396
		},
		{
		  "name": "F#4",
		  "midi": 66,
		  "time": 128.77764900001026,
		  "velocity": 0.8818897637795275,
		  "duration": 0.11111099999999396
		},
		{
		  "name": "F#3",
		  "midi": 54,
		  "time": 128.88876000001025,
		  "velocity": 0.5669291338582677,
		  "duration": 0.07407399999999598
		},
		{
		  "name": "G3",
		  "midi": 55,
		  "time": 128.96283400001025,
		  "velocity": 0.5905511811023622,
		  "duration": 0.07407399999999598
		},
		{
		  "name": "G#3",
		  "midi": 56,
		  "time": 129.03690800001024,
		  "velocity": 0.6141732283464567,
		  "duration": 0.07407399999999598
		},
		{
		  "name": "A3",
		  "midi": 57,
		  "time": 129.11098200001024,
		  "velocity": 0.6377952755905512,
		  "duration": 0.07407399999999598
		},
		{
		  "name": "A#3",
		  "midi": 58,
		  "time": 129.18505600001023,
		  "velocity": 0.6614173228346457,
		  "duration": 0.07407399999999598
		},
		{
		  "name": "B3",
		  "midi": 59,
		  "time": 129.25913000001023,
		  "velocity": 0.6850393700787402,
		  "duration": 0.07407399999999598
		},
		{
		  "name": "C4",
		  "midi": 60,
		  "time": 129.33320400001023,
		  "velocity": 0.7086614173228346,
		  "duration": 0.07407399999999598
		},
		{
		  "name": "C#4",
		  "midi": 61,
		  "time": 129.40727800001022,
		  "velocity": 0.7244094488188977,
		  "duration": 0.07407399999999598
		},
		{
		  "name": "D4",
		  "midi": 62,
		  "time": 129.48135200001022,
		  "velocity": 0.7480314960629921,
		  "duration": 0.07407399999999598
		},
		{
		  "name": "D#4",
		  "midi": 63,
		  "time": 129.55542600001021,
		  "velocity": 0.7716535433070866,
		  "duration": 0.07407399999999598
		},
		{
		  "name": "E4",
		  "midi": 64,
		  "time": 129.6295000000102,
		  "velocity": 0.7952755905511811,
		  "duration": 0.07407399999999598
		},
		{
		  "name": "F4",
		  "midi": 65,
		  "time": 129.7035740000102,
		  "velocity": 0.8188976377952756,
		  "duration": 0.07407399999999598
		},
		{
		  "name": "F#4",
		  "midi": 66,
		  "time": 129.7776480000102,
		  "velocity": 0.8818897637795275,
		  "duration": 0.11111099999999396
		},
		{
		  "name": "F#3",
		  "midi": 54,
		  "time": 145.7776320000102,
		  "velocity": 0.8031496062992126,
		  "duration": 0.22222199999998793
		},
		{
		  "name": "C#3",
		  "midi": 49,
		  "time": 145.99985400001017,
		  "velocity": 0.4881889763779528,
		  "duration": 0.22222199999998793
		},
		{
		  "name": "C#3",
		  "midi": 49,
		  "time": 146.22207600001016,
		  "velocity": 0.4881889763779528,
		  "duration": 0.22222199999998793
		},
		{
		  "name": "F#3",
		  "midi": 54,
		  "time": 146.55540900001014,
		  "velocity": 0.8031496062992126,
		  "duration": 0.22222199999998793
		},
		{
		  "name": "F#3",
		  "midi": 54,
		  "time": 146.77763100001013,
		  "velocity": 0.8031496062992126,
		  "duration": 0.22222199999998793
		},
		{
		  "name": "E3",
		  "midi": 52,
		  "time": 146.99985300001012,
		  "velocity": 0.4881889763779528,
		  "duration": 0.05555549999999698
		},
		{
		  "name": "D#3",
		  "midi": 51,
		  "time": 147.05540850001012,
		  "velocity": 0.4881889763779528,
		  "duration": 0.05555549999999698
		},
		{
		  "name": "C#3",
		  "midi": 49,
		  "time": 147.1109640000101,
		  "velocity": 0.7086614173228346,
		  "duration": 0.22222199999998793
		},
		{
		  "name": "G#3",
		  "midi": 56,
		  "time": 147.5554080000101,
		  "velocity": 0.8031496062992126,
		  "duration": 0.22222199999998793
		},
		{
		  "name": "D#3",
		  "midi": 51,
		  "time": 147.77763000001008,
		  "velocity": 0.4881889763779528,
		  "duration": 0.22222199999998793
		},
		{
		  "name": "D#3",
		  "midi": 51,
		  "time": 147.99985200001007,
		  "velocity": 0.4881889763779528,
		  "duration": 0.22222199999998793
		},
		{
		  "name": "G#3",
		  "midi": 56,
		  "time": 148.33318500001005,
		  "velocity": 0.8031496062992126,
		  "duration": 0.22222199999998793
		},
		{
		  "name": "G#3",
		  "midi": 56,
		  "time": 148.55540700001004,
		  "velocity": 0.8031496062992126,
		  "duration": 0.22222199999998793
		},
		{
		  "name": "F#3",
		  "midi": 54,
		  "time": 148.77762900001002,
		  "velocity": 0.4881889763779528,
		  "duration": 0.05555549999999698
		},
		{
		  "name": "F3",
		  "midi": 53,
		  "time": 148.83318450001002,
		  "velocity": 0.4881889763779528,
		  "duration": 0.05555549999999698
		},
		{
		  "name": "D#3",
		  "midi": 51,
		  "time": 148.88874000001002,
		  "velocity": 0.7086614173228346,
		  "duration": 0.22222199999998793
		},
		{
		  "name": "A3",
		  "midi": 57,
		  "time": 149.33318400001,
		  "velocity": 0.8031496062992126,
		  "duration": 0.22222199999998793
		},
		{
		  "name": "E3",
		  "midi": 52,
		  "time": 149.55540600000998,
		  "velocity": 0.4881889763779528,
		  "duration": 0.22222199999998793
		},
		{
		  "name": "E3",
		  "midi": 52,
		  "time": 149.77762800000997,
		  "velocity": 0.4881889763779528,
		  "duration": 0.22222199999998793
		},
		{
		  "name": "A3",
		  "midi": 57,
		  "time": 150.11096100000995,
		  "velocity": 0.8031496062992126,
		  "duration": 0.22222199999998793
		},
		{
		  "name": "A3",
		  "midi": 57,
		  "time": 150.33318300000994,
		  "velocity": 0.8031496062992126,
		  "duration": 0.22222199999998793
		},
		{
		  "name": "G3",
		  "midi": 55,
		  "time": 150.55540500000993,
		  "velocity": 0.4881889763779528,
		  "duration": 0.05555549999999698
		},
		{
		  "name": "F#3",
		  "midi": 54,
		  "time": 150.61096050000992,
		  "velocity": 0.4881889763779528,
		  "duration": 0.05555549999999698
		},
		{
		  "name": "E3",
		  "midi": 52,
		  "time": 150.66651600000992,
		  "velocity": 0.7086614173228346,
		  "duration": 0.22222199999998793
		},
		{
		  "name": "B3",
		  "midi": 59,
		  "time": 151.1109600000099,
		  "velocity": 0.8031496062992126,
		  "duration": 0.22222199999998793
		},
		{
		  "name": "F#3",
		  "midi": 54,
		  "time": 151.33318200000988,
		  "velocity": 0.4881889763779528,
		  "duration": 0.22222199999998793
		},
		{
		  "name": "F#3",
		  "midi": 54,
		  "time": 151.55540400000987,
		  "velocity": 0.4881889763779528,
		  "duration": 0.22222199999998793
		},
		{
		  "name": "B3",
		  "midi": 59,
		  "time": 151.88873700000985,
		  "velocity": 0.8031496062992126,
		  "duration": 0.22222199999998793
		},
		{
		  "name": "B3",
		  "midi": 59,
		  "time": 152.11095900000984,
		  "velocity": 0.8031496062992126,
		  "duration": 0.22222199999998793
		},
		{
		  "name": "A3",
		  "midi": 57,
		  "time": 152.33318100000983,
		  "velocity": 0.4881889763779528,
		  "duration": 0.05555549999999698
		},
		{
		  "name": "G#3",
		  "midi": 56,
		  "time": 152.38873650000983,
		  "velocity": 0.4881889763779528,
		  "duration": 0.05555549999999698
		},
		{
		  "name": "F#3",
		  "midi": 54,
		  "time": 152.44429200000982,
		  "velocity": 0.7086614173228346,
		  "duration": 0.22222199999998793
		},
		{
		  "name": "F#3",
		  "midi": 54,
		  "time": 152.8887360000098,
		  "velocity": 0.8031496062992126,
		  "duration": 0.22222199999998793
		},
		{
		  "name": "F#4",
		  "midi": 66,
		  "time": 152.8887360000098,
		  "velocity": 0.8031496062992126,
		  "duration": 0.22222199999998793
		},
		{
		  "name": "E4",
		  "midi": 64,
		  "time": 153.22206900000978,
		  "velocity": 0.4881889763779528,
		  "duration": 0.05555549999999698
		},
		{
		  "name": "E3",
		  "midi": 52,
		  "time": 153.22206900000978,
		  "velocity": 0.4881889763779528,
		  "duration": 0.05555549999999698
		},
		{
		  "name": "D#4",
		  "midi": 63,
		  "time": 153.27762450000978,
		  "velocity": 0.4881889763779528,
		  "duration": 0.05555549999999698
		},
		{
		  "name": "D#3",
		  "midi": 51,
		  "time": 153.27762450000978,
		  "velocity": 0.4881889763779528,
		  "duration": 0.05555549999999698
		},
		{
		  "name": "C#3",
		  "midi": 49,
		  "time": 153.33318000000978,
		  "velocity": 0.4881889763779528,
		  "duration": 0.22222199999998793
		},
		{
		  "name": "C#4",
		  "midi": 61,
		  "time": 153.33318000000978,
		  "velocity": 0.4881889763779528,
		  "duration": 0.22222199999998793
		},
		{
		  "name": "F#3",
		  "midi": 54,
		  "time": 153.66651300000976,
		  "velocity": 0.8031496062992126,
		  "duration": 0.22222199999998793
		},
		{
		  "name": "F#4",
		  "midi": 66,
		  "time": 153.66651300000976,
		  "velocity": 0.8031496062992126,
		  "duration": 0.22222199999998793
		},
		{
		  "name": "F#3",
		  "midi": 54,
		  "time": 153.88873500000975,
		  "velocity": 0.8031496062992126,
		  "duration": 0.22222199999998793
		},
		{
		  "name": "F#4",
		  "midi": 66,
		  "time": 153.88873500000975,
		  "velocity": 0.8031496062992126,
		  "duration": 0.22222199999998793
		},
		{
		  "name": "E4",
		  "midi": 64,
		  "time": 154.11095700000973,
		  "velocity": 0.4881889763779528,
		  "duration": 0.05555549999999698
		},
		{
		  "name": "E3",
		  "midi": 52,
		  "time": 154.11095700000973,
		  "velocity": 0.4881889763779528,
		  "duration": 0.05555549999999698
		},
		{
		  "name": "D#4",
		  "midi": 63,
		  "time": 154.16651250000973,
		  "velocity": 0.4881889763779528,
		  "duration": 0.05555549999999698
		},
		{
		  "name": "D#3",
		  "midi": 51,
		  "time": 154.16651250000973,
		  "velocity": 0.4881889763779528,
		  "duration": 0.05555549999999698
		},
		{
		  "name": "C#3",
		  "midi": 49,
		  "time": 154.22206800000973,
		  "velocity": 0.7086614173228346,
		  "duration": 0.22222199999998793
		},
		{
		  "name": "C#4",
		  "midi": 61,
		  "time": 154.22206800000973,
		  "velocity": 0.7086614173228346,
		  "duration": 0.22222199999998793
		},
		{
		  "name": "G#3",
		  "midi": 56,
		  "time": 154.6665120000097,
		  "velocity": 0.8031496062992126,
		  "duration": 0.22222199999998793
		},
		{
		  "name": "G#4",
		  "midi": 68,
		  "time": 154.6665120000097,
		  "velocity": 0.8031496062992126,
		  "duration": 0.22222199999998793
		},
		{
		  "name": "F#4",
		  "midi": 66,
		  "time": 154.99984500000969,
		  "velocity": 0.4881889763779528,
		  "duration": 0.05555549999999698
		},
		{
		  "name": "F#3",
		  "midi": 54,
		  "time": 154.99984500000969,
		  "velocity": 0.4881889763779528,
		  "duration": 0.05555549999999698
		},
		{
		  "name": "F4",
		  "midi": 65,
		  "time": 155.05540050000968,
		  "velocity": 0.4881889763779528,
		  "duration": 0.05555549999999698
		},
		{
		  "name": "F3",
		  "midi": 53,
		  "time": 155.05540050000968,
		  "velocity": 0.4881889763779528,
		  "duration": 0.05555549999999698
		},
		{
		  "name": "D#3",
		  "midi": 51,
		  "time": 155.11095600000968,
		  "velocity": 0.4881889763779528,
		  "duration": 0.22222199999998793
		},
		{
		  "name": "D#4",
		  "midi": 63,
		  "time": 155.11095600000968,
		  "velocity": 0.4881889763779528,
		  "duration": 0.22222199999998793
		},
		{
		  "name": "G#3",
		  "midi": 56,
		  "time": 155.44428900000966,
		  "velocity": 0.8031496062992126,
		  "duration": 0.22222199999998793
		},
		{
		  "name": "G#4",
		  "midi": 68,
		  "time": 155.44428900000966,
		  "velocity": 0.8031496062992126,
		  "duration": 0.22222199999998793
		},
		{
		  "name": "G#3",
		  "midi": 56,
		  "time": 155.66651100000965,
		  "velocity": 0.8031496062992126,
		  "duration": 0.22222199999998793
		},
		{
		  "name": "G#4",
		  "midi": 68,
		  "time": 155.66651100000965,
		  "velocity": 0.8031496062992126,
		  "duration": 0.22222199999998793
		},
		{
		  "name": "F#4",
		  "midi": 66,
		  "time": 155.88873300000964,
		  "velocity": 0.4881889763779528,
		  "duration": 0.05555549999999698
		},
		{
		  "name": "F#3",
		  "midi": 54,
		  "time": 155.88873300000964,
		  "velocity": 0.4881889763779528,
		  "duration": 0.05555549999999698
		},
		{
		  "name": "F4",
		  "midi": 65,
		  "time": 155.94428850000963,
		  "velocity": 0.4881889763779528,
		  "duration": 0.05555549999999698
		},
		{
		  "name": "F3",
		  "midi": 53,
		  "time": 155.94428850000963,
		  "velocity": 0.4881889763779528,
		  "duration": 0.05555549999999698
		},
		{
		  "name": "D#3",
		  "midi": 51,
		  "time": 155.99984400000963,
		  "velocity": 0.7086614173228346,
		  "duration": 0.22222199999998793
		},
		{
		  "name": "D#4",
		  "midi": 63,
		  "time": 155.99984400000963,
		  "velocity": 0.7086614173228346,
		  "duration": 0.22222199999998793
		},
		{
		  "name": "A3",
		  "midi": 57,
		  "time": 156.4442880000096,
		  "velocity": 0.8031496062992126,
		  "duration": 0.22222199999998793
		},
		{
		  "name": "A4",
		  "midi": 69,
		  "time": 156.4442880000096,
		  "velocity": 0.8031496062992126,
		  "duration": 0.22222199999998793
		},
		{
		  "name": "G4",
		  "midi": 67,
		  "time": 156.7776210000096,
		  "velocity": 0.4881889763779528,
		  "duration": 0.05555549999999698
		},
		{
		  "name": "G3",
		  "midi": 55,
		  "time": 156.7776210000096,
		  "velocity": 0.4881889763779528,
		  "duration": 0.05555549999999698
		},
		{
		  "name": "F#4",
		  "midi": 66,
		  "time": 156.83317650000959,
		  "velocity": 0.4881889763779528,
		  "duration": 0.05555549999999698
		},
		{
		  "name": "F#3",
		  "midi": 54,
		  "time": 156.83317650000959,
		  "velocity": 0.4881889763779528,
		  "duration": 0.05555549999999698
		},
		{
		  "name": "E3",
		  "midi": 52,
		  "time": 156.88873200000958,
		  "velocity": 0.4881889763779528,
		  "duration": 0.22222199999998793
		},
		{
		  "name": "E4",
		  "midi": 64,
		  "time": 156.88873200000958,
		  "velocity": 0.4881889763779528,
		  "duration": 0.22222199999998793
		},
		{
		  "name": "A3",
		  "midi": 57,
		  "time": 157.22206500000956,
		  "velocity": 0.8031496062992126,
		  "duration": 0.22222199999998793
		},
		{
		  "name": "A4",
		  "midi": 69,
		  "time": 157.22206500000956,
		  "velocity": 0.8031496062992126,
		  "duration": 0.22222199999998793
		},
		{
		  "name": "A3",
		  "midi": 57,
		  "time": 157.44428700000955,
		  "velocity": 0.8031496062992126,
		  "duration": 0.22222199999998793
		},
		{
		  "name": "A4",
		  "midi": 69,
		  "time": 157.44428700000955,
		  "velocity": 0.8031496062992126,
		  "duration": 0.22222199999998793
		},
		{
		  "name": "G4",
		  "midi": 67,
		  "time": 157.66650900000954,
		  "velocity": 0.4881889763779528,
		  "duration": 0.05555549999999698
		},
		{
		  "name": "G3",
		  "midi": 55,
		  "time": 157.66650900000954,
		  "velocity": 0.4881889763779528,
		  "duration": 0.05555549999999698
		},
		{
		  "name": "F#4",
		  "midi": 66,
		  "time": 157.72206450000954,
		  "velocity": 0.4881889763779528,
		  "duration": 0.05555549999999698
		},
		{
		  "name": "F#3",
		  "midi": 54,
		  "time": 157.72206450000954,
		  "velocity": 0.4881889763779528,
		  "duration": 0.05555549999999698
		},
		{
		  "name": "E3",
		  "midi": 52,
		  "time": 157.77762000000953,
		  "velocity": 0.7086614173228346,
		  "duration": 0.22222199999998793
		},
		{
		  "name": "E4",
		  "midi": 64,
		  "time": 157.77762000000953,
		  "velocity": 0.7086614173228346,
		  "duration": 0.22222199999998793
		},
		{
		  "name": "B3",
		  "midi": 59,
		  "time": 158.2220640000095,
		  "velocity": 0.8031496062992126,
		  "duration": 0.22222199999998793
		},
		{
		  "name": "B4",
		  "midi": 71,
		  "time": 158.2220640000095,
		  "velocity": 0.8031496062992126,
		  "duration": 0.22222199999998793
		},
		{
		  "name": "A4",
		  "midi": 69,
		  "time": 158.5553970000095,
		  "velocity": 0.4881889763779528,
		  "duration": 0.05555549999999698
		},
		{
		  "name": "A3",
		  "midi": 57,
		  "time": 158.5553970000095,
		  "velocity": 0.4881889763779528,
		  "duration": 0.05555549999999698
		},
		{
		  "name": "G#4",
		  "midi": 68,
		  "time": 158.6109525000095,
		  "velocity": 0.4881889763779528,
		  "duration": 0.05555549999999698
		},
		{
		  "name": "G#3",
		  "midi": 56,
		  "time": 158.6109525000095,
		  "velocity": 0.4881889763779528,
		  "duration": 0.05555549999999698
		},
		{
		  "name": "F#3",
		  "midi": 54,
		  "time": 158.6665080000095,
		  "velocity": 0.4881889763779528,
		  "duration": 0.22222199999998793
		},
		{
		  "name": "F#4",
		  "midi": 66,
		  "time": 158.6665080000095,
		  "velocity": 0.4881889763779528,
		  "duration": 0.22222199999998793
		},
		{
		  "name": "B3",
		  "midi": 59,
		  "time": 158.99984100000947,
		  "velocity": 0.8031496062992126,
		  "duration": 0.22222199999998793
		},
		{
		  "name": "B4",
		  "midi": 71,
		  "time": 158.99984100000947,
		  "velocity": 0.8031496062992126,
		  "duration": 0.22222199999998793
		},
		{
		  "name": "B3",
		  "midi": 59,
		  "time": 159.22206300000946,
		  "velocity": 0.8031496062992126,
		  "duration": 0.22222199999998793
		},
		{
		  "name": "B4",
		  "midi": 71,
		  "time": 159.22206300000946,
		  "velocity": 0.8031496062992126,
		  "duration": 0.22222199999998793
		},
		{
		  "name": "A4",
		  "midi": 69,
		  "time": 159.44428500000944,
		  "velocity": 0.4881889763779528,
		  "duration": 0.05555549999999698
		},
		{
		  "name": "A3",
		  "midi": 57,
		  "time": 159.44428500000944,
		  "velocity": 0.4881889763779528,
		  "duration": 0.05555549999999698
		},
		{
		  "name": "G#4",
		  "midi": 68,
		  "time": 159.49984050000944,
		  "velocity": 0.4881889763779528,
		  "duration": 0.05555549999999698
		},
		{
		  "name": "G#3",
		  "midi": 56,
		  "time": 159.49984050000944,
		  "velocity": 0.4881889763779528,
		  "duration": 0.05555549999999698
		},
		{
		  "name": "F#3",
		  "midi": 54,
		  "time": 159.55539600000944,
		  "velocity": 0.7086614173228346,
		  "duration": 0.22222199999998793
		},
		{
		  "name": "F#4",
		  "midi": 66,
		  "time": 159.55539600000944,
		  "velocity": 0.7086614173228346,
		  "duration": 0.22222199999998793
		},
		{
		  "name": "F#3",
		  "midi": 54,
		  "time": 159.9998400000094,
		  "velocity": 0.8346456692913385,
		  "duration": 0.22222199999998793
		},
		{
		  "name": "F#4",
		  "midi": 66,
		  "time": 159.9998400000094,
		  "velocity": 0.8346456692913385,
		  "duration": 0.22222199999998793
		},
		{
		  "name": "E4",
		  "midi": 64,
		  "time": 160.3331730000094,
		  "velocity": 0.5196850393700787,
		  "duration": 0.05555549999999698
		},
		{
		  "name": "E3",
		  "midi": 52,
		  "time": 160.3331730000094,
		  "velocity": 0.5196850393700787,
		  "duration": 0.05555549999999698
		},
		{
		  "name": "D#4",
		  "midi": 63,
		  "time": 160.3887285000094,
		  "velocity": 0.5196850393700787,
		  "duration": 0.05555549999999698
		},
		{
		  "name": "D#3",
		  "midi": 51,
		  "time": 160.3887285000094,
		  "velocity": 0.5196850393700787,
		  "duration": 0.05555549999999698
		},
		{
		  "name": "C#3",
		  "midi": 49,
		  "time": 160.4442840000094,
		  "velocity": 0.5196850393700787,
		  "duration": 0.22222199999998793
		},
		{
		  "name": "C#4",
		  "midi": 61,
		  "time": 160.4442840000094,
		  "velocity": 0.5196850393700787,
		  "duration": 0.22222199999998793
		},
		{
		  "name": "F#3",
		  "midi": 54,
		  "time": 160.77761700000937,
		  "velocity": 0.8346456692913385,
		  "duration": 0.22222199999998793
		},
		{
		  "name": "F#4",
		  "midi": 66,
		  "time": 160.77761700000937,
		  "velocity": 0.8346456692913385,
		  "duration": 0.22222199999998793
		},
		{
		  "name": "F#3",
		  "midi": 54,
		  "time": 160.99983900000936,
		  "velocity": 0.8346456692913385,
		  "duration": 0.22222199999998793
		},
		{
		  "name": "F#4",
		  "midi": 66,
		  "time": 160.99983900000936,
		  "velocity": 0.8346456692913385,
		  "duration": 0.22222199999998793
		},
		{
		  "name": "E4",
		  "midi": 64,
		  "time": 161.22206100000935,
		  "velocity": 0.5196850393700787,
		  "duration": 0.05555549999999698
		},
		{
		  "name": "E3",
		  "midi": 52,
		  "time": 161.22206100000935,
		  "velocity": 0.5196850393700787,
		  "duration": 0.05555549999999698
		},
		{
		  "name": "D#4",
		  "midi": 63,
		  "time": 161.27761650000934,
		  "velocity": 0.5196850393700787,
		  "duration": 0.05555549999999698
		},
		{
		  "name": "D#3",
		  "midi": 51,
		  "time": 161.27761650000934,
		  "velocity": 0.5196850393700787,
		  "duration": 0.05555549999999698
		},
		{
		  "name": "C#3",
		  "midi": 49,
		  "time": 161.33317200000934,
		  "velocity": 0.7401574803149606,
		  "duration": 0.22222199999998793
		},
		{
		  "name": "C#4",
		  "midi": 61,
		  "time": 161.33317200000934,
		  "velocity": 0.7401574803149606,
		  "duration": 0.22222199999998793
		},
		{
		  "name": "G#3",
		  "midi": 56,
		  "time": 161.77761600000932,
		  "velocity": 0.8346456692913385,
		  "duration": 0.22222199999998793
		},
		{
		  "name": "G#4",
		  "midi": 68,
		  "time": 161.77761600000932,
		  "velocity": 0.8346456692913385,
		  "duration": 0.22222199999998793
		},
		{
		  "name": "F#4",
		  "midi": 66,
		  "time": 162.1109490000093,
		  "velocity": 0.5196850393700787,
		  "duration": 0.05555549999999698
		},
		{
		  "name": "F#3",
		  "midi": 54,
		  "time": 162.1109490000093,
		  "velocity": 0.5196850393700787,
		  "duration": 0.05555549999999698
		},
		{
		  "name": "F4",
		  "midi": 65,
		  "time": 162.1665045000093,
		  "velocity": 0.5196850393700787,
		  "duration": 0.05555549999999698
		},
		{
		  "name": "F3",
		  "midi": 53,
		  "time": 162.1665045000093,
		  "velocity": 0.5196850393700787,
		  "duration": 0.05555549999999698
		},
		{
		  "name": "D#3",
		  "midi": 51,
		  "time": 162.2220600000093,
		  "velocity": 0.5196850393700787,
		  "duration": 0.22222199999998793
		},
		{
		  "name": "D#4",
		  "midi": 63,
		  "time": 162.2220600000093,
		  "velocity": 0.5196850393700787,
		  "duration": 0.22222199999998793
		},
		{
		  "name": "G#3",
		  "midi": 56,
		  "time": 162.55539300000927,
		  "velocity": 0.8346456692913385,
		  "duration": 0.22222199999998793
		},
		{
		  "name": "G#4",
		  "midi": 68,
		  "time": 162.55539300000927,
		  "velocity": 0.8346456692913385,
		  "duration": 0.22222199999998793
		},
		{
		  "name": "G#3",
		  "midi": 56,
		  "time": 162.77761500000926,
		  "velocity": 0.8346456692913385,
		  "duration": 0.22222199999998793
		},
		{
		  "name": "G#4",
		  "midi": 68,
		  "time": 162.77761500000926,
		  "velocity": 0.8346456692913385,
		  "duration": 0.22222199999998793
		},
		{
		  "name": "F#4",
		  "midi": 66,
		  "time": 162.99983700000925,
		  "velocity": 0.5196850393700787,
		  "duration": 0.05555549999999698
		},
		{
		  "name": "F#3",
		  "midi": 54,
		  "time": 162.99983700000925,
		  "velocity": 0.5196850393700787,
		  "duration": 0.05555549999999698
		},
		{
		  "name": "F4",
		  "midi": 65,
		  "time": 163.05539250000925,
		  "velocity": 0.5196850393700787,
		  "duration": 0.05555549999999698
		},
		{
		  "name": "F3",
		  "midi": 53,
		  "time": 163.05539250000925,
		  "velocity": 0.5196850393700787,
		  "duration": 0.05555549999999698
		},
		{
		  "name": "D#3",
		  "midi": 51,
		  "time": 163.11094800000924,
		  "velocity": 0.7401574803149606,
		  "duration": 0.22222199999998793
		},
		{
		  "name": "D#4",
		  "midi": 63,
		  "time": 163.11094800000924,
		  "velocity": 0.7401574803149606,
		  "duration": 0.22222199999998793
		},
		{
		  "name": "A3",
		  "midi": 57,
		  "time": 163.55539200000922,
		  "velocity": 0.8346456692913385,
		  "duration": 0.22222199999998793
		},
		{
		  "name": "A4",
		  "midi": 69,
		  "time": 163.55539200000922,
		  "velocity": 0.8346456692913385,
		  "duration": 0.22222199999998793
		},
		{
		  "name": "G4",
		  "midi": 67,
		  "time": 163.8887250000092,
		  "velocity": 0.5196850393700787,
		  "duration": 0.05555549999999698
		},
		{
		  "name": "G3",
		  "midi": 55,
		  "time": 163.8887250000092,
		  "velocity": 0.5196850393700787,
		  "duration": 0.05555549999999698
		},
		{
		  "name": "F#4",
		  "midi": 66,
		  "time": 163.9442805000092,
		  "velocity": 0.5196850393700787,
		  "duration": 0.05555549999999698
		},
		{
		  "name": "F#3",
		  "midi": 54,
		  "time": 163.9442805000092,
		  "velocity": 0.5196850393700787,
		  "duration": 0.05555549999999698
		},
		{
		  "name": "E3",
		  "midi": 52,
		  "time": 163.9998360000092,
		  "velocity": 0.5196850393700787,
		  "duration": 0.22222199999998793
		},
		{
		  "name": "E4",
		  "midi": 64,
		  "time": 163.9998360000092,
		  "velocity": 0.5196850393700787,
		  "duration": 0.22222199999998793
		},
		{
		  "name": "A3",
		  "midi": 57,
		  "time": 164.33316900000918,
		  "velocity": 0.8346456692913385,
		  "duration": 0.22222199999998793
		},
		{
		  "name": "A4",
		  "midi": 69,
		  "time": 164.33316900000918,
		  "velocity": 0.8346456692913385,
		  "duration": 0.22222199999998793
		},
		{
		  "name": "A3",
		  "midi": 57,
		  "time": 164.55539100000917,
		  "velocity": 0.8346456692913385,
		  "duration": 0.22222199999998793
		},
		{
		  "name": "A4",
		  "midi": 69,
		  "time": 164.55539100000917,
		  "velocity": 0.8346456692913385,
		  "duration": 0.22222199999998793
		},
		{
		  "name": "G4",
		  "midi": 67,
		  "time": 164.77761300000915,
		  "velocity": 0.5196850393700787,
		  "duration": 0.05555549999999698
		},
		{
		  "name": "G3",
		  "midi": 55,
		  "time": 164.77761300000915,
		  "velocity": 0.5196850393700787,
		  "duration": 0.05555549999999698
		},
		{
		  "name": "F#4",
		  "midi": 66,
		  "time": 164.83316850000915,
		  "velocity": 0.5196850393700787,
		  "duration": 0.05555549999999698
		},
		{
		  "name": "F#3",
		  "midi": 54,
		  "time": 164.83316850000915,
		  "velocity": 0.5196850393700787,
		  "duration": 0.05555549999999698
		},
		{
		  "name": "E3",
		  "midi": 52,
		  "time": 164.88872400000915,
		  "velocity": 0.7401574803149606,
		  "duration": 0.22222199999998793
		},
		{
		  "name": "E4",
		  "midi": 64,
		  "time": 164.88872400000915,
		  "velocity": 0.7401574803149606,
		  "duration": 0.22222199999998793
		},
		{
		  "name": "B3",
		  "midi": 59,
		  "time": 165.33316800000912,
		  "velocity": 0.8346456692913385,
		  "duration": 0.22222199999998793
		},
		{
		  "name": "B4",
		  "midi": 71,
		  "time": 165.33316800000912,
		  "velocity": 0.8346456692913385,
		  "duration": 0.22222199999998793
		},
		{
		  "name": "A4",
		  "midi": 69,
		  "time": 165.6665010000091,
		  "velocity": 0.5196850393700787,
		  "duration": 0.05555549999999698
		},
		{
		  "name": "A3",
		  "midi": 57,
		  "time": 165.6665010000091,
		  "velocity": 0.5196850393700787,
		  "duration": 0.05555549999999698
		},
		{
		  "name": "G#4",
		  "midi": 68,
		  "time": 165.7220565000091,
		  "velocity": 0.5196850393700787,
		  "duration": 0.05555549999999698
		},
		{
		  "name": "G#3",
		  "midi": 56,
		  "time": 165.7220565000091,
		  "velocity": 0.5196850393700787,
		  "duration": 0.05555549999999698
		},
		{
		  "name": "F#3",
		  "midi": 54,
		  "time": 165.7776120000091,
		  "velocity": 0.5196850393700787,
		  "duration": 0.22222199999998793
		},
		{
		  "name": "F#4",
		  "midi": 66,
		  "time": 165.7776120000091,
		  "velocity": 0.5196850393700787,
		  "duration": 0.22222199999998793
		},
		{
		  "name": "B3",
		  "midi": 59,
		  "time": 166.11094500000908,
		  "velocity": 0.8346456692913385,
		  "duration": 0.22222199999998793
		},
		{
		  "name": "B4",
		  "midi": 71,
		  "time": 166.11094500000908,
		  "velocity": 0.8346456692913385,
		  "duration": 0.22222199999998793
		},
		{
		  "name": "B3",
		  "midi": 59,
		  "time": 166.33316700000907,
		  "velocity": 0.8346456692913385,
		  "duration": 0.22222199999998793
		},
		{
		  "name": "B4",
		  "midi": 71,
		  "time": 166.33316700000907,
		  "velocity": 0.8346456692913385,
		  "duration": 0.22222199999998793
		},
		{
		  "name": "A4",
		  "midi": 69,
		  "time": 166.55538900000906,
		  "velocity": 0.5196850393700787,
		  "duration": 0.05555549999999698
		},
		{
		  "name": "A3",
		  "midi": 57,
		  "time": 166.55538900000906,
		  "velocity": 0.5196850393700787,
		  "duration": 0.05555549999999698
		},
		{
		  "name": "G#4",
		  "midi": 68,
		  "time": 166.61094450000905,
		  "velocity": 0.5196850393700787,
		  "duration": 0.05555549999999698
		},
		{
		  "name": "G#3",
		  "midi": 56,
		  "time": 166.61094450000905,
		  "velocity": 0.5196850393700787,
		  "duration": 0.05555549999999698
		},
		{
		  "name": "F#3",
		  "midi": 54,
		  "time": 166.66650000000905,
		  "velocity": 0.7401574803149606,
		  "duration": 0.22222199999998793
		},
		{
		  "name": "F#4",
		  "midi": 66,
		  "time": 166.66650000000905,
		  "velocity": 0.7401574803149606,
		  "duration": 0.22222199999998793
		},
		{
		  "name": "C#4",
		  "midi": 61,
		  "time": 167.11094400000903,
		  "velocity": 0.8976377952755905,
		  "duration": 0.22222199999998793
		},
		{
		  "name": "C#5",
		  "midi": 73,
		  "time": 167.11094400000903,
		  "velocity": 0.8976377952755905,
		  "duration": 0.22222199999998793
		},
		{
		  "name": "B4",
		  "midi": 71,
		  "time": 167.444277000009,
		  "velocity": 0.5826771653543307,
		  "duration": 0.05555549999999698
		},
		{
		  "name": "B3",
		  "midi": 59,
		  "time": 167.444277000009,
		  "velocity": 0.5826771653543307,
		  "duration": 0.05555549999999698
		},
		{
		  "name": "A#4",
		  "midi": 70,
		  "time": 167.499832500009,
		  "velocity": 0.5826771653543307,
		  "duration": 0.05555549999999698
		},
		{
		  "name": "A#3",
		  "midi": 58,
		  "time": 167.499832500009,
		  "velocity": 0.5826771653543307,
		  "duration": 0.05555549999999698
		},
		{
		  "name": "G#3",
		  "midi": 56,
		  "time": 167.555388000009,
		  "velocity": 0.5826771653543307,
		  "duration": 0.22222199999998793
		},
		{
		  "name": "G#4",
		  "midi": 68,
		  "time": 167.555388000009,
		  "velocity": 0.5826771653543307,
		  "duration": 0.22222199999998793
		},
		{
		  "name": "C#4",
		  "midi": 61,
		  "time": 167.88872100000899,
		  "velocity": 0.8976377952755905,
		  "duration": 0.22222199999998793
		},
		{
		  "name": "C#5",
		  "midi": 73,
		  "time": 167.88872100000899,
		  "velocity": 0.8976377952755905,
		  "duration": 0.22222199999998793
		},
		{
		  "name": "C#4",
		  "midi": 61,
		  "time": 168.11094300000897,
		  "velocity": 0.8976377952755905,
		  "duration": 0.22222199999998793
		},
		{
		  "name": "C#5",
		  "midi": 73,
		  "time": 168.11094300000897,
		  "velocity": 0.8976377952755905,
		  "duration": 0.22222199999998793
		},
		{
		  "name": "B4",
		  "midi": 71,
		  "time": 168.33316500000896,
		  "velocity": 0.5826771653543307,
		  "duration": 0.05555549999999698
		},
		{
		  "name": "B3",
		  "midi": 59,
		  "time": 168.33316500000896,
		  "velocity": 0.5826771653543307,
		  "duration": 0.05555549999999698
		},
		{
		  "name": "A#4",
		  "midi": 70,
		  "time": 168.38872050000896,
		  "velocity": 0.5826771653543307,
		  "duration": 0.05555549999999698
		},
		{
		  "name": "A#3",
		  "midi": 58,
		  "time": 168.38872050000896,
		  "velocity": 0.5826771653543307,
		  "duration": 0.05555549999999698
		},
		{
		  "name": "G#3",
		  "midi": 56,
		  "time": 168.44427600000895,
		  "velocity": 0.8031496062992126,
		  "duration": 0.22222199999998793
		},
		{
		  "name": "G#4",
		  "midi": 68,
		  "time": 168.44427600000895,
		  "velocity": 0.8031496062992126,
		  "duration": 0.22222199999998793
		},
		{
		  "name": "D#4",
		  "midi": 63,
		  "time": 168.88872000000893,
		  "velocity": 0.8976377952755905,
		  "duration": 0.22222199999998793
		},
		{
		  "name": "D#5",
		  "midi": 75,
		  "time": 168.88872000000893,
		  "velocity": 0.8976377952755905,
		  "duration": 0.22222199999998793
		},
		{
		  "name": "C#5",
		  "midi": 73,
		  "time": 169.2220530000089,
		  "velocity": 0.5826771653543307,
		  "duration": 0.05555549999999698
		},
		{
		  "name": "C#4",
		  "midi": 61,
		  "time": 169.2220530000089,
		  "velocity": 0.5826771653543307,
		  "duration": 0.05555549999999698
		},
		{
		  "name": "C5",
		  "midi": 72,
		  "time": 169.2776085000089,
		  "velocity": 0.5826771653543307,
		  "duration": 0.05555549999999698
		},
		{
		  "name": "C4",
		  "midi": 60,
		  "time": 169.2776085000089,
		  "velocity": 0.5826771653543307,
		  "duration": 0.05555549999999698
		},
		{
		  "name": "A#3",
		  "midi": 58,
		  "time": 169.3331640000089,
		  "velocity": 0.5826771653543307,
		  "duration": 0.22222199999998793
		},
		{
		  "name": "A#4",
		  "midi": 70,
		  "time": 169.3331640000089,
		  "velocity": 0.5826771653543307,
		  "duration": 0.22222199999998793
		},
		{
		  "name": "D#4",
		  "midi": 63,
		  "time": 169.6664970000089,
		  "velocity": 0.8976377952755905,
		  "duration": 0.22222199999998793
		},
		{
		  "name": "D#5",
		  "midi": 75,
		  "time": 169.6664970000089,
		  "velocity": 0.8976377952755905,
		  "duration": 0.22222199999998793
		},
		{
		  "name": "D#4",
		  "midi": 63,
		  "time": 169.88871900000888,
		  "velocity": 0.8976377952755905,
		  "duration": 0.22222199999998793
		},
		{
		  "name": "D#5",
		  "midi": 75,
		  "time": 169.88871900000888,
		  "velocity": 0.8976377952755905,
		  "duration": 0.22222199999998793
		},
		{
		  "name": "C#5",
		  "midi": 73,
		  "time": 170.11094100000886,
		  "velocity": 0.5826771653543307,
		  "duration": 0.05555549999999698
		},
		{
		  "name": "C#4",
		  "midi": 61,
		  "time": 170.11094100000886,
		  "velocity": 0.5826771653543307,
		  "duration": 0.05555549999999698
		},
		{
		  "name": "C5",
		  "midi": 72,
		  "time": 170.16649650000886,
		  "velocity": 0.5826771653543307,
		  "duration": 0.05555549999999698
		},
		{
		  "name": "C4",
		  "midi": 60,
		  "time": 170.16649650000886,
		  "velocity": 0.5826771653543307,
		  "duration": 0.05555549999999698
		},
		{
		  "name": "A#3",
		  "midi": 58,
		  "time": 170.22205200000886,
		  "velocity": 0.8031496062992126,
		  "duration": 0.22222199999998793
		},
		{
		  "name": "A#4",
		  "midi": 70,
		  "time": 170.22205200000886,
		  "velocity": 0.8031496062992126,
		  "duration": 0.22222199999998793
		},
		{
		  "name": "E4",
		  "midi": 64,
		  "time": 170.66649600000883,
		  "velocity": 0.8976377952755905,
		  "duration": 0.22222199999998793
		},
		{
		  "name": "E5",
		  "midi": 76,
		  "time": 170.66649600000883,
		  "velocity": 0.8976377952755905,
		  "duration": 0.22222199999998793
		},
		{
		  "name": "D5",
		  "midi": 74,
		  "time": 170.99982900000882,
		  "velocity": 0.5826771653543307,
		  "duration": 0.05555549999999698
		},
		{
		  "name": "D4",
		  "midi": 62,
		  "time": 170.99982900000882,
		  "velocity": 0.5826771653543307,
		  "duration": 0.05555549999999698
		},
		{
		  "name": "C#5",
		  "midi": 73,
		  "time": 171.0553845000088,
		  "velocity": 0.5826771653543307,
		  "duration": 0.05555549999999698
		},
		{
		  "name": "C#4",
		  "midi": 61,
		  "time": 171.0553845000088,
		  "velocity": 0.5826771653543307,
		  "duration": 0.05555549999999698
		},
		{
		  "name": "B3",
		  "midi": 59,
		  "time": 171.1109400000088,
		  "velocity": 0.5826771653543307,
		  "duration": 0.22222199999998793
		},
		{
		  "name": "B4",
		  "midi": 71,
		  "time": 171.1109400000088,
		  "velocity": 0.5826771653543307,
		  "duration": 0.22222199999998793
		},
		{
		  "name": "E4",
		  "midi": 64,
		  "time": 171.4442730000088,
		  "velocity": 0.8976377952755905,
		  "duration": 0.22222199999998793
		},
		{
		  "name": "E5",
		  "midi": 76,
		  "time": 171.4442730000088,
		  "velocity": 0.8976377952755905,
		  "duration": 0.22222199999998793
		},
		{
		  "name": "E4",
		  "midi": 64,
		  "time": 171.66649500000878,
		  "velocity": 0.8976377952755905,
		  "duration": 0.22222199999998793
		},
		{
		  "name": "E5",
		  "midi": 76,
		  "time": 171.66649500000878,
		  "velocity": 0.8976377952755905,
		  "duration": 0.22222199999998793
		},
		{
		  "name": "D5",
		  "midi": 74,
		  "time": 171.88871700000877,
		  "velocity": 0.5826771653543307,
		  "duration": 0.05555549999999698
		},
		{
		  "name": "D4",
		  "midi": 62,
		  "time": 171.88871700000877,
		  "velocity": 0.5826771653543307,
		  "duration": 0.05555549999999698
		},
		{
		  "name": "C#5",
		  "midi": 73,
		  "time": 171.94427250000876,
		  "velocity": 0.5826771653543307,
		  "duration": 0.05555549999999698
		},
		{
		  "name": "C#4",
		  "midi": 61,
		  "time": 171.94427250000876,
		  "velocity": 0.5826771653543307,
		  "duration": 0.05555549999999698
		},
		{
		  "name": "B3",
		  "midi": 59,
		  "time": 171.99982800000876,
		  "velocity": 0.8031496062992126,
		  "duration": 0.22222199999998793
		},
		{
		  "name": "B4",
		  "midi": 71,
		  "time": 171.99982800000876,
		  "velocity": 0.8031496062992126,
		  "duration": 0.22222199999998793
		},
		{
		  "name": "F#4",
		  "midi": 66,
		  "time": 172.44427200000874,
		  "velocity": 0.8976377952755905,
		  "duration": 0.22222199999998793
		},
		{
		  "name": "F#5",
		  "midi": 78,
		  "time": 172.44427200000874,
		  "velocity": 0.8976377952755905,
		  "duration": 0.22222199999998793
		},
		{
		  "name": "E5",
		  "midi": 76,
		  "time": 172.77760500000872,
		  "velocity": 0.5826771653543307,
		  "duration": 0.05555549999999698
		},
		{
		  "name": "E4",
		  "midi": 64,
		  "time": 172.77760500000872,
		  "velocity": 0.5826771653543307,
		  "duration": 0.05555549999999698
		},
		{
		  "name": "D#5",
		  "midi": 75,
		  "time": 172.83316050000872,
		  "velocity": 0.5826771653543307,
		  "duration": 0.05555549999999698
		},
		{
		  "name": "D#4",
		  "midi": 63,
		  "time": 172.83316050000872,
		  "velocity": 0.5826771653543307,
		  "duration": 0.05555549999999698
		},
		{
		  "name": "C#4",
		  "midi": 61,
		  "time": 172.8887160000087,
		  "velocity": 0.5826771653543307,
		  "duration": 0.22222199999998793
		},
		{
		  "name": "C#5",
		  "midi": 73,
		  "time": 172.8887160000087,
		  "velocity": 0.5826771653543307,
		  "duration": 0.22222199999998793
		},
		{
		  "name": "F#4",
		  "midi": 66,
		  "time": 173.2220490000087,
		  "velocity": 0.8976377952755905,
		  "duration": 0.22222199999998793
		},
		{
		  "name": "F#5",
		  "midi": 78,
		  "time": 173.2220490000087,
		  "velocity": 0.8976377952755905,
		  "duration": 0.22222199999998793
		},
		{
		  "name": "F#4",
		  "midi": 66,
		  "time": 173.44427100000868,
		  "velocity": 0.8976377952755905,
		  "duration": 0.22222199999998793
		},
		{
		  "name": "F#5",
		  "midi": 78,
		  "time": 173.44427100000868,
		  "velocity": 0.8976377952755905,
		  "duration": 0.22222199999998793
		},
		{
		  "name": "E5",
		  "midi": 76,
		  "time": 173.66649300000867,
		  "velocity": 0.5826771653543307,
		  "duration": 0.05555549999999698
		},
		{
		  "name": "E4",
		  "midi": 64,
		  "time": 173.66649300000867,
		  "velocity": 0.5826771653543307,
		  "duration": 0.05555549999999698
		},
		{
		  "name": "D#5",
		  "midi": 75,
		  "time": 173.72204850000867,
		  "velocity": 0.5826771653543307,
		  "duration": 0.05555549999999698
		},
		{
		  "name": "D#4",
		  "midi": 63,
		  "time": 173.72204850000867,
		  "velocity": 0.5826771653543307,
		  "duration": 0.05555549999999698
		},
		{
		  "name": "C#4",
		  "midi": 61,
		  "time": 173.77760400000867,
		  "velocity": 0.8031496062992126,
		  "duration": 0.22222199999998793
		},
		{
		  "name": "C#5",
		  "midi": 73,
		  "time": 173.77760400000867,
		  "velocity": 0.8031496062992126,
		  "duration": 0.22222199999998793
		},
		{
		  "name": "F#2",
		  "midi": 42,
		  "time": 174.22204800000864,
		  "velocity": 0.7874015748031497,
		  "duration": 0.22222199999998793
		},
		{
		  "name": "F#2",
		  "midi": 42,
		  "time": 174.66649200000862,
		  "velocity": 0.7874015748031497,
		  "duration": 0.22222199999998793
		},
		{
		  "name": "F#2",
		  "midi": 42,
		  "time": 175.3331580000086,
		  "velocity": 0.7874015748031497,
		  "duration": 0.22222199999998793
		},
		{
		  "name": "F#2",
		  "midi": 42,
		  "time": 175.9998240000086,
		  "velocity": 0.7874015748031497,
		  "duration": 0.22222199999998793
		},
		{
		  "name": "F#2",
		  "midi": 42,
		  "time": 176.44426800000858,
		  "velocity": 0.7874015748031497,
		  "duration": 0.22222199999998793
		},
		{
		  "name": "F#2",
		  "midi": 42,
		  "time": 177.11093400000857,
		  "velocity": 0.7874015748031497,
		  "duration": 0.22222199999998793
		},
		{
		  "name": "G#2",
		  "midi": 44,
		  "time": 177.33315600000856,
		  "velocity": 0.7874015748031497,
		  "duration": 0.22222199999998793
		},
		{
		  "name": "A2",
		  "midi": 45,
		  "time": 177.55537800000855,
		  "velocity": 0.7874015748031497,
		  "duration": 0.22222199999998793
		},
		{
		  "name": "C#3",
		  "midi": 49,
		  "time": 177.77760000000853,
		  "velocity": 0.7874015748031497,
		  "duration": 0.22222199999998793
		},
		{
		  "name": "C#3",
		  "midi": 49,
		  "time": 178.2220440000085,
		  "velocity": 0.7874015748031497,
		  "duration": 0.22222199999998793
		},
		{
		  "name": "C#3",
		  "midi": 49,
		  "time": 178.8887100000085,
		  "velocity": 0.7874015748031497,
		  "duration": 0.22222199999998793
		},
		{
		  "name": "B2",
		  "midi": 47,
		  "time": 179.5553760000085,
		  "velocity": 0.7874015748031497,
		  "duration": 0.22222199999998793
		},
		{
		  "name": "B2",
		  "midi": 47,
		  "time": 179.99982000000847,
		  "velocity": 0.7874015748031497,
		  "duration": 0.22222199999998793
		},
		{
		  "name": "F#2",
		  "midi": 42,
		  "time": 180.66648600000846,
		  "velocity": 0.7874015748031497,
		  "duration": 0.22222199999998793
		},
		{
		  "name": "G#2",
		  "midi": 44,
		  "time": 180.88870800000845,
		  "velocity": 0.7874015748031497,
		  "duration": 0.22222199999998793
		},
		{
		  "name": "A2",
		  "midi": 45,
		  "time": 181.11093000000844,
		  "velocity": 0.7874015748031497,
		  "duration": 0.22222199999998793
		},
		{
		  "name": "F#2",
		  "midi": 42,
		  "time": 181.33315200000843,
		  "velocity": 0.7874015748031497,
		  "duration": 0.22222199999998793
		},
		{
		  "name": "F#2",
		  "midi": 42,
		  "time": 181.7775960000084,
		  "velocity": 0.7874015748031497,
		  "duration": 0.22222199999998793
		},
		{
		  "name": "F#2",
		  "midi": 42,
		  "time": 182.4442620000084,
		  "velocity": 0.7874015748031497,
		  "duration": 0.22222199999998793
		},
		{
		  "name": "F#2",
		  "midi": 42,
		  "time": 183.11092800000839,
		  "velocity": 0.7874015748031497,
		  "duration": 0.22222199999998793
		},
		{
		  "name": "F#2",
		  "midi": 42,
		  "time": 183.55537200000836,
		  "velocity": 0.7874015748031497,
		  "duration": 0.22222199999998793
		},
		{
		  "name": "F#2",
		  "midi": 42,
		  "time": 184.22203800000835,
		  "velocity": 0.7874015748031497,
		  "duration": 0.22222199999998793
		},
		{
		  "name": "G#2",
		  "midi": 44,
		  "time": 184.44426000000834,
		  "velocity": 0.7874015748031497,
		  "duration": 0.22222199999998793
		},
		{
		  "name": "A2",
		  "midi": 45,
		  "time": 184.66648200000833,
		  "velocity": 0.7874015748031497,
		  "duration": 0.22222199999998793
		},
		{
		  "name": "C#3",
		  "midi": 49,
		  "time": 184.88870400000832,
		  "velocity": 0.7874015748031497,
		  "duration": 0.22222199999998793
		},
		{
		  "name": "C#3",
		  "midi": 49,
		  "time": 185.3331480000083,
		  "velocity": 0.7874015748031497,
		  "duration": 0.22222199999998793
		},
		{
		  "name": "C#3",
		  "midi": 49,
		  "time": 185.99981400000829,
		  "velocity": 0.7874015748031497,
		  "duration": 0.22222199999998793
		},
		{
		  "name": "B2",
		  "midi": 47,
		  "time": 186.66648000000828,
		  "velocity": 0.7874015748031497,
		  "duration": 0.22222199999998793
		},
		{
		  "name": "B2",
		  "midi": 47,
		  "time": 187.11092400000825,
		  "velocity": 0.7874015748031497,
		  "duration": 0.22222199999998793
		},
		{
		  "name": "F#2",
		  "midi": 42,
		  "time": 187.77759000000825,
		  "velocity": 0.7874015748031497,
		  "duration": 0.22222199999998793
		},
		{
		  "name": "G#2",
		  "midi": 44,
		  "time": 187.99981200000823,
		  "velocity": 0.7874015748031497,
		  "duration": 0.22222199999998793
		},
		{
		  "name": "A2",
		  "midi": 45,
		  "time": 188.22203400000822,
		  "velocity": 0.7874015748031497,
		  "duration": 0.22222199999998793
		},
		{
		  "name": "F#2",
		  "midi": 42,
		  "time": 188.4442560000082,
		  "velocity": 0.7874015748031497,
		  "duration": 0.22222199999998793
		},
		{
		  "name": "F#2",
		  "midi": 42,
		  "time": 188.88870000000819,
		  "velocity": 0.7874015748031497,
		  "duration": 0.22222199999998793
		},
		{
		  "name": "F#2",
		  "midi": 42,
		  "time": 189.55536600000818,
		  "velocity": 0.7874015748031497,
		  "duration": 0.22222199999998793
		},
		{
		  "name": "F#2",
		  "midi": 42,
		  "time": 190.22203200000817,
		  "velocity": 0.7874015748031497,
		  "duration": 0.22222199999998793
		},
		{
		  "name": "F#2",
		  "midi": 42,
		  "time": 190.66647600000815,
		  "velocity": 0.7874015748031497,
		  "duration": 0.22222199999998793
		},
		{
		  "name": "F#2",
		  "midi": 42,
		  "time": 191.33314200000814,
		  "velocity": 0.7874015748031497,
		  "duration": 0.22222199999998793
		},
		{
		  "name": "G#2",
		  "midi": 44,
		  "time": 191.55536400000813,
		  "velocity": 0.7874015748031497,
		  "duration": 0.22222199999998793
		},
		{
		  "name": "A2",
		  "midi": 45,
		  "time": 191.7775860000081,
		  "velocity": 0.7874015748031497,
		  "duration": 0.22222199999998793
		},
		{
		  "name": "C#3",
		  "midi": 49,
		  "time": 191.9998080000081,
		  "velocity": 0.7874015748031497,
		  "duration": 0.22222199999998793
		},
		{
		  "name": "C#3",
		  "midi": 49,
		  "time": 192.44425200000808,
		  "velocity": 0.7874015748031497,
		  "duration": 0.22222199999998793
		},
		{
		  "name": "C#3",
		  "midi": 49,
		  "time": 193.11091800000807,
		  "velocity": 0.7874015748031497,
		  "duration": 0.22222199999998793
		},
		{
		  "name": "B2",
		  "midi": 47,
		  "time": 193.77758400000806,
		  "velocity": 0.7874015748031497,
		  "duration": 0.22222199999998793
		},
		{
		  "name": "B2",
		  "midi": 47,
		  "time": 194.22202800000804,
		  "velocity": 0.7874015748031497,
		  "duration": 0.22222199999998793
		},
		{
		  "name": "F#2",
		  "midi": 42,
		  "time": 194.88869400000803,
		  "velocity": 0.7874015748031497,
		  "duration": 0.22222199999998793
		},
		{
		  "name": "G#2",
		  "midi": 44,
		  "time": 195.11091600000802,
		  "velocity": 0.7874015748031497,
		  "duration": 0.22222199999998793
		},
		{
		  "name": "A2",
		  "midi": 45,
		  "time": 195.333138000008,
		  "velocity": 0.7874015748031497,
		  "duration": 0.22222199999998793
		},
		{
		  "name": "F#2",
		  "midi": 42,
		  "time": 195.555360000008,
		  "velocity": 0.7874015748031497,
		  "duration": 0.22222199999998793
		},
		{
		  "name": "F#2",
		  "midi": 42,
		  "time": 195.99980400000797,
		  "velocity": 0.7874015748031497,
		  "duration": 0.22222199999998793
		},
		{
		  "name": "F#2",
		  "midi": 42,
		  "time": 196.66647000000796,
		  "velocity": 0.7874015748031497,
		  "duration": 0.22222199999998793
		},
		{
		  "name": "F#2",
		  "midi": 42,
		  "time": 197.33313600000795,
		  "velocity": 0.7874015748031497,
		  "duration": 0.22222199999998793
		},
		{
		  "name": "F#2",
		  "midi": 42,
		  "time": 197.77758000000793,
		  "velocity": 0.7874015748031497,
		  "duration": 0.22222199999998793
		},
		{
		  "name": "F#2",
		  "midi": 42,
		  "time": 198.44424600000792,
		  "velocity": 0.7874015748031497,
		  "duration": 0.22222199999998793
		},
		{
		  "name": "G#2",
		  "midi": 44,
		  "time": 198.6664680000079,
		  "velocity": 0.7874015748031497,
		  "duration": 0.22222199999998793
		},
		{
		  "name": "A2",
		  "midi": 45,
		  "time": 198.8886900000079,
		  "velocity": 0.7874015748031497,
		  "duration": 0.22222199999998793
		},
		{
		  "name": "C#3",
		  "midi": 49,
		  "time": 199.1109120000079,
		  "velocity": 0.7874015748031497,
		  "duration": 0.22222199999998793
		},
		{
		  "name": "C#3",
		  "midi": 49,
		  "time": 199.55535600000786,
		  "velocity": 0.7874015748031497,
		  "duration": 0.22222199999998793
		},
		{
		  "name": "C#3",
		  "midi": 49,
		  "time": 200.22202200000785,
		  "velocity": 0.7874015748031497,
		  "duration": 0.22222199999998793
		},
		{
		  "name": "B2",
		  "midi": 47,
		  "time": 200.88868800000785,
		  "velocity": 0.7874015748031497,
		  "duration": 0.22222199999998793
		},
		{
		  "name": "B2",
		  "midi": 47,
		  "time": 201.33313200000782,
		  "velocity": 0.7874015748031497,
		  "duration": 0.22222199999998793
		},
		{
		  "name": "F#2",
		  "midi": 42,
		  "time": 201.99979800000781,
		  "velocity": 0.7874015748031497,
		  "duration": 0.22222199999998793
		},
		{
		  "name": "G#2",
		  "midi": 44,
		  "time": 202.2220200000078,
		  "velocity": 0.7874015748031497,
		  "duration": 0.22222199999998793
		},
		{
		  "name": "A2",
		  "midi": 45,
		  "time": 202.4442420000078,
		  "velocity": 0.7874015748031497,
		  "duration": 0.22222199999998793
		},
		{
		  "name": "F#3",
		  "midi": 54,
		  "time": 216.88867200000777,
		  "velocity": 0.7874015748031497,
		  "duration": 0.222222000000329
		},
		{
		  "name": "F#4",
		  "midi": 66,
		  "time": 217.1108940000081,
		  "velocity": 0.7874015748031497,
		  "duration": 0.1111110000001645
		},
		{
		  "name": "F#3",
		  "midi": 54,
		  "time": 217.22200500000827,
		  "velocity": 0.7874015748031497,
		  "duration": 0.1111110000001645
		},
		{
		  "name": "F#4",
		  "midi": 66,
		  "time": 217.33311600000843,
		  "velocity": 0.7874015748031497,
		  "duration": 0.222222000000329
		},
		{
		  "name": "E4",
		  "midi": 64,
		  "time": 217.55533800000876,
		  "velocity": 0.7874015748031497,
		  "duration": 0.1111110000001645
		},
		{
		  "name": "A4",
		  "midi": 69,
		  "time": 217.66644900000892,
		  "velocity": 0.7874015748031497,
		  "duration": 0.3333330000004935
		},
		{
		  "name": "F#4",
		  "midi": 66,
		  "time": 217.99978200000942,
		  "velocity": 0.7874015748031497,
		  "duration": 0.222222000000329
		},
		{
		  "name": "E4",
		  "midi": 64,
		  "time": 218.22200400000975,
		  "velocity": 0.7874015748031497,
		  "duration": 0.1111110000001645
		},
		{
		  "name": "F#4",
		  "midi": 66,
		  "time": 218.3331150000099,
		  "velocity": 0.7874015748031497,
		  "duration": 0.222222000000329
		},
		{
		  "name": "F#3",
		  "midi": 54,
		  "time": 218.6664480000104,
		  "velocity": 0.7874015748031497,
		  "duration": 0.222222000000329
		},
		{
		  "name": "F#4",
		  "midi": 66,
		  "time": 218.88867000001073,
		  "velocity": 0.7874015748031497,
		  "duration": 0.1111110000001645
		},
		{
		  "name": "F#3",
		  "midi": 54,
		  "time": 218.9997810000109,
		  "velocity": 0.7874015748031497,
		  "duration": 0.1111110000001645
		},
		{
		  "name": "F#4",
		  "midi": 66,
		  "time": 219.11089200001106,
		  "velocity": 0.7874015748031497,
		  "duration": 0.222222000000329
		},
		{
		  "name": "E4",
		  "midi": 64,
		  "time": 219.3331140000114,
		  "velocity": 0.7874015748031497,
		  "duration": 0.1111110000001645
		},
		{
		  "name": "A4",
		  "midi": 69,
		  "time": 219.44422500001156,
		  "velocity": 0.7874015748031497,
		  "duration": 0.3333330000004935
		},
		{
		  "name": "F#4",
		  "midi": 66,
		  "time": 219.77755800001205,
		  "velocity": 0.7874015748031497,
		  "duration": 0.222222000000329
		},
		{
		  "name": "E4",
		  "midi": 64,
		  "time": 219.99978000001238,
		  "velocity": 0.7874015748031497,
		  "duration": 0.1111110000001645
		},
		{
		  "name": "F#4",
		  "midi": 66,
		  "time": 220.11089100001254,
		  "velocity": 0.7874015748031497,
		  "duration": 0.222222000000329
		},
		{
		  "name": "F#3",
		  "midi": 54,
		  "time": 220.44422400001304,
		  "velocity": 0.7874015748031497,
		  "duration": 0.222222000000329
		},
		{
		  "name": "F#4",
		  "midi": 66,
		  "time": 220.66644600001337,
		  "velocity": 0.7874015748031497,
		  "duration": 0.1111110000001645
		},
		{
		  "name": "F#3",
		  "midi": 54,
		  "time": 220.77755700001353,
		  "velocity": 0.7874015748031497,
		  "duration": 0.1111110000001645
		},
		{
		  "name": "F#4",
		  "midi": 66,
		  "time": 220.8886680000137,
		  "velocity": 0.7874015748031497,
		  "duration": 0.222222000000329
		},
		{
		  "name": "E4",
		  "midi": 64,
		  "time": 221.11089000001402,
		  "velocity": 0.7874015748031497,
		  "duration": 0.1111110000001645
		},
		{
		  "name": "A4",
		  "midi": 69,
		  "time": 221.2220010000142,
		  "velocity": 0.7874015748031497,
		  "duration": 0.3333330000004935
		},
		{
		  "name": "F#4",
		  "midi": 66,
		  "time": 221.55533400001468,
		  "velocity": 0.7874015748031497,
		  "duration": 0.222222000000329
		},
		{
		  "name": "E4",
		  "midi": 64,
		  "time": 221.777556000015,
		  "velocity": 0.7874015748031497,
		  "duration": 0.1111110000001645
		},
		{
		  "name": "F#4",
		  "midi": 66,
		  "time": 221.88866700001518,
		  "velocity": 0.7874015748031497,
		  "duration": 0.222222000000329
		},
		{
		  "name": "F#3",
		  "midi": 54,
		  "time": 222.22200000001567,
		  "velocity": 0.7874015748031497,
		  "duration": 0.222222000000329
		},
		{
		  "name": "F#4",
		  "midi": 66,
		  "time": 222.444222000016,
		  "velocity": 0.7874015748031497,
		  "duration": 0.1111110000001645
		},
		{
		  "name": "F#3",
		  "midi": 54,
		  "time": 222.55533300001616,
		  "velocity": 0.7874015748031497,
		  "duration": 0.1111110000001645
		},
		{
		  "name": "F#4",
		  "midi": 66,
		  "time": 222.66644400001633,
		  "velocity": 0.7874015748031497,
		  "duration": 0.222222000000329
		},
		{
		  "name": "E4",
		  "midi": 64,
		  "time": 222.88866600001666,
		  "velocity": 0.7874015748031497,
		  "duration": 0.1111110000001645
		},
		{
		  "name": "A4",
		  "midi": 69,
		  "time": 222.99977700001682,
		  "velocity": 0.7874015748031497,
		  "duration": 0.3333330000004935
		},
		{
		  "name": "F#4",
		  "midi": 66,
		  "time": 223.3331100000173,
		  "velocity": 0.7874015748031497,
		  "duration": 0.222222000000329
		},
		{
		  "name": "E4",
		  "midi": 64,
		  "time": 223.55533200001764,
		  "velocity": 0.7874015748031497,
		  "duration": 0.1111110000001645
		},
		{
		  "name": "F#4",
		  "midi": 66,
		  "time": 223.6664430000178,
		  "velocity": 0.7874015748031497,
		  "duration": 0.222222000000329
		}
	  ],
	"Niko2": [
		{
		  "name": "A4",
		  "midi": 69,
		  "time": 14.222208,
		  "velocity": 0.7559055118110236,
		  "duration": 0.22222200000000036
		},
		{
		  "name": "A5",
		  "midi": 81,
		  "time": 14.222208,
		  "velocity": 0.7559055118110236,
		  "duration": 0.22222200000000036
		},
		{
		  "name": "F#4",
		  "midi": 66,
		  "time": 14.555541,
		  "velocity": 0.7559055118110236,
		  "duration": 0.22222200000000036
		},
		{
		  "name": "F#5",
		  "midi": 78,
		  "time": 14.555541,
		  "velocity": 0.7559055118110236,
		  "duration": 0.22222200000000036
		},
		{
		  "name": "C#4",
		  "midi": 61,
		  "time": 14.888874,
		  "velocity": 0.7559055118110236,
		  "duration": 0.1111109999999993
		},
		{
		  "name": "F#4",
		  "midi": 66,
		  "time": 14.888874,
		  "velocity": 0.7559055118110236,
		  "duration": 0.1111109999999993
		},
		{
		  "name": "C#4",
		  "midi": 61,
		  "time": 14.999984999999999,
		  "velocity": 0.7559055118110236,
		  "duration": 0.1111109999999993
		},
		{
		  "name": "F#4",
		  "midi": 66,
		  "time": 14.999984999999999,
		  "velocity": 0.7559055118110236,
		  "duration": 0.1111109999999993
		},
		{
		  "name": "C#4",
		  "midi": 61,
		  "time": 15.111095999999998,
		  "velocity": 0.7559055118110236,
		  "duration": 0.22222200000000036
		},
		{
		  "name": "F#4",
		  "midi": 66,
		  "time": 15.111095999999998,
		  "velocity": 0.7559055118110236,
		  "duration": 0.22222200000000036
		},
		{
		  "name": "C#4",
		  "midi": 61,
		  "time": 15.333317999999998,
		  "velocity": 0.7559055118110236,
		  "duration": 0.22222200000000036
		},
		{
		  "name": "F#4",
		  "midi": 66,
		  "time": 15.333317999999998,
		  "velocity": 0.7559055118110236,
		  "duration": 0.22222200000000036
		},
		{
		  "name": "C#4",
		  "midi": 61,
		  "time": 15.555539999999999,
		  "velocity": 0.7559055118110236,
		  "duration": 0.1111109999999993
		},
		{
		  "name": "F#4",
		  "midi": 66,
		  "time": 15.555539999999999,
		  "velocity": 0.7559055118110236,
		  "duration": 0.1111109999999993
		},
		{
		  "name": "C#4",
		  "midi": 61,
		  "time": 15.666650999999998,
		  "velocity": 0.7559055118110236,
		  "duration": 0.22222200000000036
		},
		{
		  "name": "F#4",
		  "midi": 66,
		  "time": 15.666650999999998,
		  "velocity": 0.7559055118110236,
		  "duration": 0.22222200000000036
		},
		{
		  "name": "F#4",
		  "midi": 66,
		  "time": 15.999983999999998,
		  "velocity": 0.7559055118110236,
		  "duration": 0.2222219999999986
		},
		{
		  "name": "C#4",
		  "midi": 61,
		  "time": 15.999983999999998,
		  "velocity": 0.7559055118110236,
		  "duration": 0.2222219999999986
		},
		{
		  "name": "C#4",
		  "midi": 61,
		  "time": 16.333316999999997,
		  "velocity": 0.7559055118110236,
		  "duration": 0.2222219999999986
		},
		{
		  "name": "F#4",
		  "midi": 66,
		  "time": 16.333316999999997,
		  "velocity": 0.7559055118110236,
		  "duration": 0.2222219999999986
		},
		{
		  "name": "C#4",
		  "midi": 61,
		  "time": 16.666649999999997,
		  "velocity": 0.7559055118110236,
		  "duration": 0.2222219999999986
		},
		{
		  "name": "F#4",
		  "midi": 66,
		  "time": 16.666649999999997,
		  "velocity": 0.7559055118110236,
		  "duration": 0.2222219999999986
		},
		{
		  "name": "C#4",
		  "midi": 61,
		  "time": 16.888871999999996,
		  "velocity": 0.7559055118110236,
		  "duration": 0.2222219999999986
		},
		{
		  "name": "F#4",
		  "midi": 66,
		  "time": 16.888871999999996,
		  "velocity": 0.7559055118110236,
		  "duration": 0.2222219999999986
		},
		{
		  "name": "C#4",
		  "midi": 61,
		  "time": 17.111093999999994,
		  "velocity": 0.7559055118110236,
		  "duration": 0.2222219999999986
		},
		{
		  "name": "F#4",
		  "midi": 66,
		  "time": 17.111093999999994,
		  "velocity": 0.7559055118110236,
		  "duration": 0.2222219999999986
		},
		{
		  "name": "C#4",
		  "midi": 61,
		  "time": 17.333315999999993,
		  "velocity": 0.7559055118110236,
		  "duration": 0.11111100000000107
		},
		{
		  "name": "F#4",
		  "midi": 66,
		  "time": 17.333315999999993,
		  "velocity": 0.7559055118110236,
		  "duration": 0.11111100000000107
		},
		{
		  "name": "C#4",
		  "midi": 61,
		  "time": 17.444426999999994,
		  "velocity": 0.7559055118110236,
		  "duration": 0.2222219999999986
		},
		{
		  "name": "F#4",
		  "midi": 66,
		  "time": 17.444426999999994,
		  "velocity": 0.7559055118110236,
		  "duration": 0.2222219999999986
		},
		{
		  "name": "E4",
		  "midi": 64,
		  "time": 17.777759999999994,
		  "velocity": 0.7874015748031497,
		  "duration": 0.2222219999999986
		},
		{
		  "name": "A4",
		  "midi": 69,
		  "time": 17.777759999999994,
		  "velocity": 0.7559055118110236,
		  "duration": 0.2222219999999986
		},
		{
		  "name": "A4",
		  "midi": 69,
		  "time": 18.111092999999993,
		  "velocity": 0.7559055118110236,
		  "duration": 0.2222219999999986
		},
		{
		  "name": "E4",
		  "midi": 64,
		  "time": 18.111092999999993,
		  "velocity": 0.7559055118110236,
		  "duration": 0.2222219999999986
		},
		{
		  "name": "E4",
		  "midi": 64,
		  "time": 18.444425999999993,
		  "velocity": 0.7559055118110236,
		  "duration": 0.11111100000000107
		},
		{
		  "name": "A4",
		  "midi": 69,
		  "time": 18.444425999999993,
		  "velocity": 0.7559055118110236,
		  "duration": 0.11111100000000107
		},
		{
		  "name": "E4",
		  "midi": 64,
		  "time": 18.555536999999994,
		  "velocity": 0.7559055118110236,
		  "duration": 0.11111100000000107
		},
		{
		  "name": "A4",
		  "midi": 69,
		  "time": 18.555536999999994,
		  "velocity": 0.7559055118110236,
		  "duration": 0.11111100000000107
		},
		{
		  "name": "E4",
		  "midi": 64,
		  "time": 18.666647999999995,
		  "velocity": 0.7559055118110236,
		  "duration": 0.2222219999999986
		},
		{
		  "name": "A4",
		  "midi": 69,
		  "time": 18.666647999999995,
		  "velocity": 0.7559055118110236,
		  "duration": 0.2222219999999986
		},
		{
		  "name": "A4",
		  "midi": 69,
		  "time": 18.888869999999994,
		  "velocity": 0.7559055118110236,
		  "duration": 0.2222219999999986
		},
		{
		  "name": "E4",
		  "midi": 64,
		  "time": 18.888869999999994,
		  "velocity": 0.7559055118110236,
		  "duration": 0.2222219999999986
		},
		{
		  "name": "A4",
		  "midi": 69,
		  "time": 19.111091999999992,
		  "velocity": 0.7559055118110236,
		  "duration": 0.11111100000000107
		},
		{
		  "name": "E4",
		  "midi": 64,
		  "time": 19.111091999999992,
		  "velocity": 0.7559055118110236,
		  "duration": 0.11111100000000107
		},
		{
		  "name": "A4",
		  "midi": 69,
		  "time": 19.222202999999993,
		  "velocity": 0.7559055118110236,
		  "duration": 0.2222219999999986
		},
		{
		  "name": "E4",
		  "midi": 64,
		  "time": 19.222202999999993,
		  "velocity": 0.7559055118110236,
		  "duration": 0.2222219999999986
		},
		{
		  "name": "F#4",
		  "midi": 66,
		  "time": 19.555535999999993,
		  "velocity": 0.7559055118110236,
		  "duration": 0.2222219999999986
		},
		{
		  "name": "B4",
		  "midi": 71,
		  "time": 19.555535999999993,
		  "velocity": 0.7559055118110236,
		  "duration": 0.2222219999999986
		},
		{
		  "name": "B4",
		  "midi": 71,
		  "time": 19.888868999999993,
		  "velocity": 0.7559055118110236,
		  "duration": 0.2222219999999986
		},
		{
		  "name": "F#4",
		  "midi": 66,
		  "time": 19.888868999999993,
		  "velocity": 0.7559055118110236,
		  "duration": 0.2222219999999986
		},
		{
		  "name": "F#4",
		  "midi": 66,
		  "time": 20.222201999999992,
		  "velocity": 0.7559055118110236,
		  "duration": 0.2222219999999986
		},
		{
		  "name": "B4",
		  "midi": 71,
		  "time": 20.222201999999992,
		  "velocity": 0.7559055118110236,
		  "duration": 0.2222219999999986
		},
		{
		  "name": "F#4",
		  "midi": 66,
		  "time": 20.44442399999999,
		  "velocity": 0.7559055118110236,
		  "duration": 0.2222219999999986
		},
		{
		  "name": "B4",
		  "midi": 71,
		  "time": 20.44442399999999,
		  "velocity": 0.7559055118110236,
		  "duration": 0.2222219999999986
		},
		{
		  "name": "F#4",
		  "midi": 66,
		  "time": 20.66664599999999,
		  "velocity": 0.7559055118110236,
		  "duration": 0.2222219999999986
		},
		{
		  "name": "B4",
		  "midi": 71,
		  "time": 20.66664599999999,
		  "velocity": 0.7559055118110236,
		  "duration": 0.2222219999999986
		},
		{
		  "name": "A4",
		  "midi": 69,
		  "time": 20.888867999999988,
		  "velocity": 0.7559055118110236,
		  "duration": 0.2222219999999986
		},
		{
		  "name": "D5",
		  "midi": 74,
		  "time": 20.888867999999988,
		  "velocity": 0.7559055118110236,
		  "duration": 0.2222219999999986
		},
		{
		  "name": "G#4",
		  "midi": 68,
		  "time": 21.333311999999985,
		  "velocity": 0.7559055118110236,
		  "duration": 0.2222219999999986
		},
		{
		  "name": "C#5",
		  "midi": 73,
		  "time": 21.333311999999985,
		  "velocity": 0.7559055118110236,
		  "duration": 0.2222219999999986
		},
		{
		  "name": "C#4",
		  "midi": 61,
		  "time": 21.666644999999985,
		  "velocity": 0.7559055118110236,
		  "duration": 0.2222219999999986
		},
		{
		  "name": "F#4",
		  "midi": 66,
		  "time": 21.666644999999985,
		  "velocity": 0.7559055118110236,
		  "duration": 0.2222219999999986
		},
		{
		  "name": "C#4",
		  "midi": 61,
		  "time": 21.999977999999984,
		  "velocity": 0.7559055118110236,
		  "duration": 0.11111100000000107
		},
		{
		  "name": "F#4",
		  "midi": 66,
		  "time": 21.999977999999984,
		  "velocity": 0.7559055118110236,
		  "duration": 0.11111100000000107
		},
		{
		  "name": "C#4",
		  "midi": 61,
		  "time": 22.111088999999986,
		  "velocity": 0.7559055118110236,
		  "duration": 0.11111100000000107
		},
		{
		  "name": "F#4",
		  "midi": 66,
		  "time": 22.111088999999986,
		  "velocity": 0.7559055118110236,
		  "duration": 0.11111100000000107
		},
		{
		  "name": "C#4",
		  "midi": 61,
		  "time": 22.222199999999987,
		  "velocity": 0.7559055118110236,
		  "duration": 0.2222219999999986
		},
		{
		  "name": "F#4",
		  "midi": 66,
		  "time": 22.222199999999987,
		  "velocity": 0.7559055118110236,
		  "duration": 0.2222219999999986
		},
		{
		  "name": "C#4",
		  "midi": 61,
		  "time": 22.444421999999985,
		  "velocity": 0.7559055118110236,
		  "duration": 0.2222219999999986
		},
		{
		  "name": "F#4",
		  "midi": 66,
		  "time": 22.444421999999985,
		  "velocity": 0.7559055118110236,
		  "duration": 0.2222219999999986
		},
		{
		  "name": "C#4",
		  "midi": 61,
		  "time": 22.666643999999984,
		  "velocity": 0.7559055118110236,
		  "duration": 0.11111100000000107
		},
		{
		  "name": "F#4",
		  "midi": 66,
		  "time": 22.666643999999984,
		  "velocity": 0.7559055118110236,
		  "duration": 0.11111100000000107
		},
		{
		  "name": "C#4",
		  "midi": 61,
		  "time": 22.777754999999985,
		  "velocity": 0.7559055118110236,
		  "duration": 0.2222219999999986
		},
		{
		  "name": "F#4",
		  "midi": 66,
		  "time": 22.777754999999985,
		  "velocity": 0.7559055118110236,
		  "duration": 0.2222219999999986
		},
		{
		  "name": "F#4",
		  "midi": 66,
		  "time": 23.111087999999985,
		  "velocity": 0.7559055118110236,
		  "duration": 0.2222219999999986
		},
		{
		  "name": "C#4",
		  "midi": 61,
		  "time": 23.111087999999985,
		  "velocity": 0.7559055118110236,
		  "duration": 0.2222219999999986
		},
		{
		  "name": "C#4",
		  "midi": 61,
		  "time": 23.444420999999984,
		  "velocity": 0.7559055118110236,
		  "duration": 0.2222219999999986
		},
		{
		  "name": "F#4",
		  "midi": 66,
		  "time": 23.444420999999984,
		  "velocity": 0.7559055118110236,
		  "duration": 0.2222219999999986
		},
		{
		  "name": "C#4",
		  "midi": 61,
		  "time": 23.777753999999984,
		  "velocity": 0.7559055118110236,
		  "duration": 0.2222219999999986
		},
		{
		  "name": "F#4",
		  "midi": 66,
		  "time": 23.777753999999984,
		  "velocity": 0.7559055118110236,
		  "duration": 0.2222219999999986
		},
		{
		  "name": "C#4",
		  "midi": 61,
		  "time": 23.999975999999982,
		  "velocity": 0.7559055118110236,
		  "duration": 0.2222219999999986
		},
		{
		  "name": "F#4",
		  "midi": 66,
		  "time": 23.999975999999982,
		  "velocity": 0.7559055118110236,
		  "duration": 0.2222219999999986
		},
		{
		  "name": "C#4",
		  "midi": 61,
		  "time": 24.22219799999998,
		  "velocity": 0.7559055118110236,
		  "duration": 0.2222219999999986
		},
		{
		  "name": "F#4",
		  "midi": 66,
		  "time": 24.22219799999998,
		  "velocity": 0.7559055118110236,
		  "duration": 0.2222219999999986
		},
		{
		  "name": "C#4",
		  "midi": 61,
		  "time": 24.44441999999998,
		  "velocity": 0.7559055118110236,
		  "duration": 0.11111100000000107
		},
		{
		  "name": "F#4",
		  "midi": 66,
		  "time": 24.44441999999998,
		  "velocity": 0.7559055118110236,
		  "duration": 0.11111100000000107
		},
		{
		  "name": "C#4",
		  "midi": 61,
		  "time": 24.55553099999998,
		  "velocity": 0.7559055118110236,
		  "duration": 0.2222219999999986
		},
		{
		  "name": "F#4",
		  "midi": 66,
		  "time": 24.55553099999998,
		  "velocity": 0.7559055118110236,
		  "duration": 0.2222219999999986
		},
		{
		  "name": "A4",
		  "midi": 69,
		  "time": 24.88886399999998,
		  "velocity": 0.7559055118110236,
		  "duration": 0.2222219999999986
		},
		{
		  "name": "E4",
		  "midi": 64,
		  "time": 24.88886399999998,
		  "velocity": 0.7559055118110236,
		  "duration": 0.2222219999999986
		},
		{
		  "name": "A4",
		  "midi": 69,
		  "time": 25.22219699999998,
		  "velocity": 0.7559055118110236,
		  "duration": 0.2222219999999986
		},
		{
		  "name": "E4",
		  "midi": 64,
		  "time": 25.22219699999998,
		  "velocity": 0.7559055118110236,
		  "duration": 0.2222219999999986
		},
		{
		  "name": "E4",
		  "midi": 64,
		  "time": 25.55552999999998,
		  "velocity": 0.7559055118110236,
		  "duration": 0.11111100000000107
		},
		{
		  "name": "A4",
		  "midi": 69,
		  "time": 25.55552999999998,
		  "velocity": 0.7559055118110236,
		  "duration": 0.11111100000000107
		},
		{
		  "name": "E4",
		  "midi": 64,
		  "time": 25.66664099999998,
		  "velocity": 0.7559055118110236,
		  "duration": 0.11111100000000107
		},
		{
		  "name": "A4",
		  "midi": 69,
		  "time": 25.66664099999998,
		  "velocity": 0.7559055118110236,
		  "duration": 0.11111100000000107
		},
		{
		  "name": "E4",
		  "midi": 64,
		  "time": 25.777751999999982,
		  "velocity": 0.7559055118110236,
		  "duration": 0.2222219999999986
		},
		{
		  "name": "A4",
		  "midi": 69,
		  "time": 25.777751999999982,
		  "velocity": 0.7559055118110236,
		  "duration": 0.2222219999999986
		},
		{
		  "name": "A4",
		  "midi": 69,
		  "time": 25.99997399999998,
		  "velocity": 0.7559055118110236,
		  "duration": 0.2222219999999986
		},
		{
		  "name": "E4",
		  "midi": 64,
		  "time": 25.99997399999998,
		  "velocity": 0.7559055118110236,
		  "duration": 0.2222219999999986
		},
		{
		  "name": "A4",
		  "midi": 69,
		  "time": 26.22219599999998,
		  "velocity": 0.7559055118110236,
		  "duration": 0.11111100000000107
		},
		{
		  "name": "E4",
		  "midi": 64,
		  "time": 26.22219599999998,
		  "velocity": 0.7559055118110236,
		  "duration": 0.11111100000000107
		},
		{
		  "name": "A4",
		  "midi": 69,
		  "time": 26.33330699999998,
		  "velocity": 0.7559055118110236,
		  "duration": 0.2222219999999986
		},
		{
		  "name": "E4",
		  "midi": 64,
		  "time": 26.33330699999998,
		  "velocity": 0.7559055118110236,
		  "duration": 0.2222219999999986
		},
		{
		  "name": "F#4",
		  "midi": 66,
		  "time": 26.66663999999998,
		  "velocity": 0.7559055118110236,
		  "duration": 0.2222219999999986
		},
		{
		  "name": "B4",
		  "midi": 71,
		  "time": 26.66663999999998,
		  "velocity": 0.7559055118110236,
		  "duration": 0.2222219999999986
		},
		{
		  "name": "B4",
		  "midi": 71,
		  "time": 26.99997299999998,
		  "velocity": 0.7559055118110236,
		  "duration": 0.2222219999999986
		},
		{
		  "name": "F#4",
		  "midi": 66,
		  "time": 26.99997299999998,
		  "velocity": 0.7559055118110236,
		  "duration": 0.2222219999999986
		},
		{
		  "name": "F#4",
		  "midi": 66,
		  "time": 27.33330599999998,
		  "velocity": 0.7559055118110236,
		  "duration": 0.2222219999999986
		},
		{
		  "name": "B4",
		  "midi": 71,
		  "time": 27.33330599999998,
		  "velocity": 0.7559055118110236,
		  "duration": 0.2222219999999986
		},
		{
		  "name": "F#4",
		  "midi": 66,
		  "time": 27.555527999999978,
		  "velocity": 0.7559055118110236,
		  "duration": 0.2222219999999986
		},
		{
		  "name": "B4",
		  "midi": 71,
		  "time": 27.555527999999978,
		  "velocity": 0.7559055118110236,
		  "duration": 0.2222219999999986
		},
		{
		  "name": "F#4",
		  "midi": 66,
		  "time": 27.777749999999976,
		  "velocity": 0.7559055118110236,
		  "duration": 0.2222219999999986
		},
		{
		  "name": "B4",
		  "midi": 71,
		  "time": 27.777749999999976,
		  "velocity": 0.7559055118110236,
		  "duration": 0.2222219999999986
		},
		{
		  "name": "B4",
		  "midi": 71,
		  "time": 27.999971999999975,
		  "velocity": 0.7559055118110236,
		  "duration": 0.2222219999999986
		},
		{
		  "name": "E5",
		  "midi": 76,
		  "time": 27.999971999999975,
		  "velocity": 0.7559055118110236,
		  "duration": 0.2222219999999986
		},
		{
		  "name": "F#5",
		  "midi": 78,
		  "time": 28.444415999999972,
		  "velocity": 0.7559055118110236,
		  "duration": 0.4444440000000007
		},
		{
		  "name": "F#4",
		  "midi": 66,
		  "time": 28.444415999999972,
		  "velocity": 0.7559055118110236,
		  "duration": 0.4444440000000007
		},
		{
		  "name": "F#5",
		  "midi": 78,
		  "time": 28.888859999999973,
		  "velocity": 0.7559055118110236,
		  "duration": 0.11111100000000107
		},
		{
		  "name": "C#5",
		  "midi": 73,
		  "time": 28.999970999999974,
		  "velocity": 0.7559055118110236,
		  "duration": 0.11111100000000107
		},
		{
		  "name": "A4",
		  "midi": 69,
		  "time": 29.111081999999975,
		  "velocity": 0.7559055118110236,
		  "duration": 0.11111100000000107
		},
		{
		  "name": "F#4",
		  "midi": 66,
		  "time": 29.222192999999976,
		  "velocity": 0.7559055118110236,
		  "duration": 0.11111100000000107
		},
		{
		  "name": "C#5",
		  "midi": 73,
		  "time": 29.333303999999977,
		  "velocity": 0.7559055118110236,
		  "duration": 0.2222219999999986
		},
		{
		  "name": "E5",
		  "midi": 76,
		  "time": 29.666636999999977,
		  "velocity": 0.7559055118110236,
		  "duration": 0.2222219999999986
		},
		{
		  "name": "C#5",
		  "midi": 73,
		  "time": 29.999969999999976,
		  "velocity": 0.7559055118110236,
		  "duration": 0.2222219999999986
		},
		{
		  "name": "F#4",
		  "midi": 66,
		  "time": 30.222191999999975,
		  "velocity": 0.7559055118110236,
		  "duration": 0.2222219999999986
		},
		{
		  "name": "F#4",
		  "midi": 66,
		  "time": 30.444413999999973,
		  "velocity": 0.7559055118110236,
		  "duration": 0.2222219999999986
		},
		{
		  "name": "A4",
		  "midi": 69,
		  "time": 30.666635999999972,
		  "velocity": 0.7559055118110236,
		  "duration": 0.11111100000000107
		},
		{
		  "name": "F#4",
		  "midi": 66,
		  "time": 30.777746999999973,
		  "velocity": 0.7559055118110236,
		  "duration": 0.11111100000000107
		},
		{
		  "name": "C#4",
		  "midi": 61,
		  "time": 30.888857999999974,
		  "velocity": 0.7559055118110236,
		  "duration": 0.11111100000000107
		},
		{
		  "name": "F#4",
		  "midi": 66,
		  "time": 30.999968999999975,
		  "velocity": 0.7559055118110236,
		  "duration": 0.11111100000000107
		},
		{
		  "name": "A4",
		  "midi": 69,
		  "time": 31.111079999999976,
		  "velocity": 0.7559055118110236,
		  "duration": 0.2222219999999986
		},
		{
		  "name": "C#5",
		  "midi": 73,
		  "time": 31.444412999999976,
		  "velocity": 0.7559055118110236,
		  "duration": 0.11111100000000107
		},
		{
		  "name": "A4",
		  "midi": 69,
		  "time": 31.555523999999977,
		  "velocity": 0.7559055118110236,
		  "duration": 0.2222219999999986
		},
		{
		  "name": "F#4",
		  "midi": 66,
		  "time": 31.777745999999976,
		  "velocity": 0.7559055118110236,
		  "duration": 0.2222219999999986
		},
		{
		  "name": "F#5",
		  "midi": 78,
		  "time": 31.999967999999974,
		  "velocity": 0.7559055118110236,
		  "duration": 0.4444439999999972
		},
		{
		  "name": "F#4",
		  "midi": 66,
		  "time": 31.999967999999974,
		  "velocity": 0.7559055118110236,
		  "duration": 0.4444439999999972
		},
		{
		  "name": "F#5",
		  "midi": 78,
		  "time": 32.44441199999997,
		  "velocity": 0.7559055118110236,
		  "duration": 0.11111100000000107
		},
		{
		  "name": "C#5",
		  "midi": 73,
		  "time": 32.55552299999997,
		  "velocity": 0.7559055118110236,
		  "duration": 0.11111100000000107
		},
		{
		  "name": "A4",
		  "midi": 69,
		  "time": 32.66663399999997,
		  "velocity": 0.7559055118110236,
		  "duration": 0.11111100000000107
		},
		{
		  "name": "F#4",
		  "midi": 66,
		  "time": 32.777744999999975,
		  "velocity": 0.7559055118110236,
		  "duration": 0.11111100000000107
		},
		{
		  "name": "C#5",
		  "midi": 73,
		  "time": 32.888855999999976,
		  "velocity": 0.7559055118110236,
		  "duration": 0.22222200000000214
		},
		{
		  "name": "E5",
		  "midi": 76,
		  "time": 33.22218899999998,
		  "velocity": 0.7559055118110236,
		  "duration": 0.22222200000000214
		},
		{
		  "name": "C#5",
		  "midi": 73,
		  "time": 33.55552199999998,
		  "velocity": 0.7559055118110236,
		  "duration": 0.22222200000000214
		},
		{
		  "name": "F#4",
		  "midi": 66,
		  "time": 33.777743999999984,
		  "velocity": 0.7559055118110236,
		  "duration": 0.22222200000000214
		},
		{
		  "name": "F#4",
		  "midi": 66,
		  "time": 33.999965999999986,
		  "velocity": 0.7559055118110236,
		  "duration": 0.22222200000000214
		},
		{
		  "name": "A4",
		  "midi": 69,
		  "time": 34.22218799999999,
		  "velocity": 0.7559055118110236,
		  "duration": 0.11111100000000107
		},
		{
		  "name": "E4",
		  "midi": 64,
		  "time": 34.33329899999999,
		  "velocity": 0.7559055118110236,
		  "duration": 0.11111100000000107
		},
		{
		  "name": "G#4",
		  "midi": 68,
		  "time": 34.44440999999999,
		  "velocity": 0.7559055118110236,
		  "duration": 0.11111100000000107
		},
		{
		  "name": "E4",
		  "midi": 64,
		  "time": 34.55552099999999,
		  "velocity": 0.7559055118110236,
		  "duration": 0.11111100000000107
		},
		{
		  "name": "A4",
		  "midi": 69,
		  "time": 34.66663199999999,
		  "velocity": 0.7559055118110236,
		  "duration": 0.22222200000000214
		},
		{
		  "name": "C#5",
		  "midi": 73,
		  "time": 34.999964999999996,
		  "velocity": 0.7559055118110236,
		  "duration": 0.11111100000000107
		},
		{
		  "name": "A4",
		  "midi": 69,
		  "time": 35.111076,
		  "velocity": 0.7559055118110236,
		  "duration": 0.22222200000000214
		},
		{
		  "name": "F#4",
		  "midi": 66,
		  "time": 35.333298,
		  "velocity": 0.7559055118110236,
		  "duration": 0.22222200000000214
		},
		{
		  "name": "F#5",
		  "midi": 78,
		  "time": 35.55552,
		  "velocity": 0.7559055118110236,
		  "duration": 0.4444439999999972
		},
		{
		  "name": "F#4",
		  "midi": 66,
		  "time": 35.55552,
		  "velocity": 0.7559055118110236,
		  "duration": 0.4444439999999972
		},
		{
		  "name": "F#5",
		  "midi": 78,
		  "time": 35.999964,
		  "velocity": 0.7559055118110236,
		  "duration": 0.11111100000000107
		},
		{
		  "name": "C#5",
		  "midi": 73,
		  "time": 36.111075,
		  "velocity": 0.7559055118110236,
		  "duration": 0.11111100000000107
		},
		{
		  "name": "A4",
		  "midi": 69,
		  "time": 36.222186,
		  "velocity": 0.7559055118110236,
		  "duration": 0.11111100000000107
		},
		{
		  "name": "F#4",
		  "midi": 66,
		  "time": 36.333297,
		  "velocity": 0.7559055118110236,
		  "duration": 0.11111100000000107
		},
		{
		  "name": "C#5",
		  "midi": 73,
		  "time": 36.444408,
		  "velocity": 0.7559055118110236,
		  "duration": 0.22222200000000214
		},
		{
		  "name": "E5",
		  "midi": 76,
		  "time": 36.777741000000006,
		  "velocity": 0.7559055118110236,
		  "duration": 0.22222200000000214
		},
		{
		  "name": "C#5",
		  "midi": 73,
		  "time": 37.11107400000001,
		  "velocity": 0.7559055118110236,
		  "duration": 0.22222200000000214
		},
		{
		  "name": "F#4",
		  "midi": 66,
		  "time": 37.33329600000001,
		  "velocity": 0.7559055118110236,
		  "duration": 0.22222200000000214
		},
		{
		  "name": "F#4",
		  "midi": 66,
		  "time": 37.55551800000001,
		  "velocity": 0.7559055118110236,
		  "duration": 0.22222200000000214
		},
		{
		  "name": "A4",
		  "midi": 69,
		  "time": 37.777740000000016,
		  "velocity": 0.7559055118110236,
		  "duration": 0.11111100000000107
		},
		{
		  "name": "F#4",
		  "midi": 66,
		  "time": 37.88885100000002,
		  "velocity": 0.7559055118110236,
		  "duration": 0.11111100000000107
		},
		{
		  "name": "C#4",
		  "midi": 61,
		  "time": 37.99996200000002,
		  "velocity": 0.7559055118110236,
		  "duration": 0.11111100000000107
		},
		{
		  "name": "F#4",
		  "midi": 66,
		  "time": 38.11107300000002,
		  "velocity": 0.7559055118110236,
		  "duration": 0.11111100000000107
		},
		{
		  "name": "A4",
		  "midi": 69,
		  "time": 38.22218400000002,
		  "velocity": 0.7559055118110236,
		  "duration": 0.22222200000000214
		},
		{
		  "name": "C#5",
		  "midi": 73,
		  "time": 38.55551700000002,
		  "velocity": 0.7559055118110236,
		  "duration": 0.11111100000000107
		},
		{
		  "name": "A4",
		  "midi": 69,
		  "time": 38.666628000000024,
		  "velocity": 0.7559055118110236,
		  "duration": 0.22222200000000214
		},
		{
		  "name": "F#4",
		  "midi": 66,
		  "time": 38.888850000000026,
		  "velocity": 0.7559055118110236,
		  "duration": 0.22222200000000214
		},
		{
		  "name": "F#5",
		  "midi": 78,
		  "time": 39.11107200000003,
		  "velocity": 0.7559055118110236,
		  "duration": 0.4444439999999972
		},
		{
		  "name": "F#4",
		  "midi": 66,
		  "time": 39.11107200000003,
		  "velocity": 0.7559055118110236,
		  "duration": 0.4444439999999972
		},
		{
		  "name": "F#5",
		  "midi": 78,
		  "time": 39.555516000000026,
		  "velocity": 0.7559055118110236,
		  "duration": 0.11111100000000107
		},
		{
		  "name": "C#5",
		  "midi": 73,
		  "time": 39.66662700000003,
		  "velocity": 0.7559055118110236,
		  "duration": 0.11111100000000107
		},
		{
		  "name": "A4",
		  "midi": 69,
		  "time": 39.77773800000003,
		  "velocity": 0.7559055118110236,
		  "duration": 0.11111100000000107
		},
		{
		  "name": "F#4",
		  "midi": 66,
		  "time": 39.88884900000003,
		  "velocity": 0.7559055118110236,
		  "duration": 0.11111100000000107
		},
		{
		  "name": "C#5",
		  "midi": 73,
		  "time": 39.99996000000003,
		  "velocity": 0.7559055118110236,
		  "duration": 0.22222200000000214
		},
		{
		  "name": "E5",
		  "midi": 76,
		  "time": 40.33329300000003,
		  "velocity": 0.7559055118110236,
		  "duration": 0.22222200000000214
		},
		{
		  "name": "C#5",
		  "midi": 73,
		  "time": 40.666626000000036,
		  "velocity": 0.7559055118110236,
		  "duration": 0.22222200000000214
		},
		{
		  "name": "F#4",
		  "midi": 66,
		  "time": 40.88884800000004,
		  "velocity": 0.7559055118110236,
		  "duration": 0.22222200000000214
		},
		{
		  "name": "F#4",
		  "midi": 66,
		  "time": 41.11107000000004,
		  "velocity": 0.7559055118110236,
		  "duration": 0.22222200000000214
		},
		{
		  "name": "A4",
		  "midi": 69,
		  "time": 41.33329200000004,
		  "velocity": 0.7559055118110236,
		  "duration": 0.11111100000000107
		},
		{
		  "name": "E4",
		  "midi": 64,
		  "time": 41.444403000000044,
		  "velocity": 0.7559055118110236,
		  "duration": 0.11111100000000107
		},
		{
		  "name": "G#4",
		  "midi": 68,
		  "time": 41.555514000000045,
		  "velocity": 0.7559055118110236,
		  "duration": 0.11111100000000107
		},
		{
		  "name": "E4",
		  "midi": 64,
		  "time": 41.666625000000046,
		  "velocity": 0.7559055118110236,
		  "duration": 0.11111100000000107
		},
		{
		  "name": "A5",
		  "midi": 81,
		  "time": 41.77773600000005,
		  "velocity": 0.7559055118110236,
		  "duration": 0.4444439999999972
		},
		{
		  "name": "A4",
		  "midi": 69,
		  "time": 41.77773600000005,
		  "velocity": 0.7559055118110236,
		  "duration": 0.4444439999999972
		},
		{
		  "name": "C#5",
		  "midi": 73,
		  "time": 42.222180000000044,
		  "velocity": 0.7559055118110236,
		  "duration": 0.4444439999999972
		},
		{
		  "name": "C#6",
		  "midi": 85,
		  "time": 42.222180000000044,
		  "velocity": 0.7559055118110236,
		  "duration": 0.4444439999999972
		},
		{
		  "name": "A4",
		  "midi": 69,
		  "time": 42.66662400000004,
		  "velocity": 0.7559055118110236,
		  "duration": 0.22222200000000214
		},
		{
		  "name": "A5",
		  "midi": 81,
		  "time": 42.66662400000004,
		  "velocity": 0.7559055118110236,
		  "duration": 0.22222200000000214
		},
		{
		  "name": "F#4",
		  "midi": 66,
		  "time": 42.999957000000045,
		  "velocity": 0.7559055118110236,
		  "duration": 0.22222200000000214
		},
		{
		  "name": "F#5",
		  "midi": 78,
		  "time": 42.999957000000045,
		  "velocity": 0.7559055118110236,
		  "duration": 0.22222200000000214
		},
		{
		  "name": "C#4",
		  "midi": 61,
		  "time": 43.33329000000005,
		  "velocity": 0.7559055118110236,
		  "duration": 0.11111100000000107
		},
		{
		  "name": "F#4",
		  "midi": 66,
		  "time": 43.33329000000005,
		  "velocity": 0.7559055118110236,
		  "duration": 0.11111100000000107
		},
		{
		  "name": "C#4",
		  "midi": 61,
		  "time": 43.44440100000005,
		  "velocity": 0.7559055118110236,
		  "duration": 0.11111100000000107
		},
		{
		  "name": "F#4",
		  "midi": 66,
		  "time": 43.44440100000005,
		  "velocity": 0.7559055118110236,
		  "duration": 0.11111100000000107
		},
		{
		  "name": "C#4",
		  "midi": 61,
		  "time": 43.55551200000005,
		  "velocity": 0.7559055118110236,
		  "duration": 0.22222200000000214
		},
		{
		  "name": "F#4",
		  "midi": 66,
		  "time": 43.55551200000005,
		  "velocity": 0.7559055118110236,
		  "duration": 0.22222200000000214
		},
		{
		  "name": "C#4",
		  "midi": 61,
		  "time": 43.77773400000005,
		  "velocity": 0.7559055118110236,
		  "duration": 0.22222200000000214
		},
		{
		  "name": "F#4",
		  "midi": 66,
		  "time": 43.77773400000005,
		  "velocity": 0.7559055118110236,
		  "duration": 0.22222200000000214
		},
		{
		  "name": "C#4",
		  "midi": 61,
		  "time": 43.999956000000054,
		  "velocity": 0.7559055118110236,
		  "duration": 0.11111100000000107
		},
		{
		  "name": "F#4",
		  "midi": 66,
		  "time": 43.999956000000054,
		  "velocity": 0.7559055118110236,
		  "duration": 0.11111100000000107
		},
		{
		  "name": "C#4",
		  "midi": 61,
		  "time": 44.111067000000055,
		  "velocity": 0.7559055118110236,
		  "duration": 0.22222200000000214
		},
		{
		  "name": "F#4",
		  "midi": 66,
		  "time": 44.111067000000055,
		  "velocity": 0.7559055118110236,
		  "duration": 0.22222200000000214
		},
		{
		  "name": "D4",
		  "midi": 62,
		  "time": 44.44440000000006,
		  "velocity": 0.7559055118110236,
		  "duration": 0.22222200000000214
		},
		{
		  "name": "A3",
		  "midi": 57,
		  "time": 44.44440000000006,
		  "velocity": 0.7559055118110236,
		  "duration": 0.22222200000000214
		},
		{
		  "name": "A3",
		  "midi": 57,
		  "time": 44.77773300000006,
		  "velocity": 0.7559055118110236,
		  "duration": 0.22222200000000214
		},
		{
		  "name": "D4",
		  "midi": 62,
		  "time": 44.77773300000006,
		  "velocity": 0.7559055118110236,
		  "duration": 0.22222200000000214
		},
		{
		  "name": "B3",
		  "midi": 59,
		  "time": 45.111066000000065,
		  "velocity": 0.7559055118110236,
		  "duration": 0.22222200000000214
		},
		{
		  "name": "E4",
		  "midi": 64,
		  "time": 45.111066000000065,
		  "velocity": 0.7559055118110236,
		  "duration": 0.22222200000000214
		},
		{
		  "name": "B3",
		  "midi": 59,
		  "time": 45.33328800000007,
		  "velocity": 0.7559055118110236,
		  "duration": 0.22222200000000214
		},
		{
		  "name": "E4",
		  "midi": 64,
		  "time": 45.33328800000007,
		  "velocity": 0.7559055118110236,
		  "duration": 0.22222200000000214
		},
		{
		  "name": "B3",
		  "midi": 59,
		  "time": 45.55551000000007,
		  "velocity": 0.7559055118110236,
		  "duration": 0.22222200000000214
		},
		{
		  "name": "E4",
		  "midi": 64,
		  "time": 45.55551000000007,
		  "velocity": 0.7559055118110236,
		  "duration": 0.22222200000000214
		},
		{
		  "name": "B3",
		  "midi": 59,
		  "time": 45.77773200000007,
		  "velocity": 0.7559055118110236,
		  "duration": 0.11111100000000107
		},
		{
		  "name": "E4",
		  "midi": 64,
		  "time": 45.77773200000007,
		  "velocity": 0.7559055118110236,
		  "duration": 0.11111100000000107
		},
		{
		  "name": "B3",
		  "midi": 59,
		  "time": 45.88884300000007,
		  "velocity": 0.7559055118110236,
		  "duration": 0.22222200000000214
		},
		{
		  "name": "E4",
		  "midi": 64,
		  "time": 45.88884300000007,
		  "velocity": 0.7559055118110236,
		  "duration": 0.22222200000000214
		},
		{
		  "name": "E4",
		  "midi": 64,
		  "time": 46.222176000000076,
		  "velocity": 0.7559055118110236,
		  "duration": 0.22222200000000214
		},
		{
		  "name": "A4",
		  "midi": 69,
		  "time": 46.222176000000076,
		  "velocity": 0.7559055118110236,
		  "duration": 0.22222200000000214
		},
		{
		  "name": "C#4",
		  "midi": 61,
		  "time": 46.55550900000008,
		  "velocity": 0.7559055118110236,
		  "duration": 0.22222200000000214
		},
		{
		  "name": "F#4",
		  "midi": 66,
		  "time": 46.55550900000008,
		  "velocity": 0.7559055118110236,
		  "duration": 0.22222200000000214
		},
		{
		  "name": "C#4",
		  "midi": 61,
		  "time": 46.88884200000008,
		  "velocity": 0.7559055118110236,
		  "duration": 0.11111100000000107
		},
		{
		  "name": "F#4",
		  "midi": 66,
		  "time": 46.88884200000008,
		  "velocity": 0.7559055118110236,
		  "duration": 0.11111100000000107
		},
		{
		  "name": "C#4",
		  "midi": 61,
		  "time": 46.99995300000008,
		  "velocity": 0.7559055118110236,
		  "duration": 0.11111100000000107
		},
		{
		  "name": "F#4",
		  "midi": 66,
		  "time": 46.99995300000008,
		  "velocity": 0.7559055118110236,
		  "duration": 0.11111100000000107
		},
		{
		  "name": "C#4",
		  "midi": 61,
		  "time": 47.111064000000084,
		  "velocity": 0.7559055118110236,
		  "duration": 0.22222200000000214
		},
		{
		  "name": "F#4",
		  "midi": 66,
		  "time": 47.111064000000084,
		  "velocity": 0.7559055118110236,
		  "duration": 0.22222200000000214
		},
		{
		  "name": "C#4",
		  "midi": 61,
		  "time": 47.333286000000086,
		  "velocity": 0.7559055118110236,
		  "duration": 0.22222200000000214
		},
		{
		  "name": "F#4",
		  "midi": 66,
		  "time": 47.333286000000086,
		  "velocity": 0.7559055118110236,
		  "duration": 0.22222200000000214
		},
		{
		  "name": "C#4",
		  "midi": 61,
		  "time": 47.55550800000009,
		  "velocity": 0.7559055118110236,
		  "duration": 0.11111100000000107
		},
		{
		  "name": "F#4",
		  "midi": 66,
		  "time": 47.55550800000009,
		  "velocity": 0.7559055118110236,
		  "duration": 0.11111100000000107
		},
		{
		  "name": "C#4",
		  "midi": 61,
		  "time": 47.66661900000009,
		  "velocity": 0.7559055118110236,
		  "duration": 0.22222200000000214
		},
		{
		  "name": "F#4",
		  "midi": 66,
		  "time": 47.66661900000009,
		  "velocity": 0.7559055118110236,
		  "duration": 0.22222200000000214
		},
		{
		  "name": "D4",
		  "midi": 62,
		  "time": 47.99995200000009,
		  "velocity": 0.7559055118110236,
		  "duration": 0.22222200000000214
		},
		{
		  "name": "A3",
		  "midi": 57,
		  "time": 47.99995200000009,
		  "velocity": 0.7559055118110236,
		  "duration": 0.22222200000000214
		},
		{
		  "name": "A3",
		  "midi": 57,
		  "time": 48.333285000000096,
		  "velocity": 0.7559055118110236,
		  "duration": 0.22222200000000214
		},
		{
		  "name": "D4",
		  "midi": 62,
		  "time": 48.333285000000096,
		  "velocity": 0.7559055118110236,
		  "duration": 0.22222200000000214
		},
		{
		  "name": "B3",
		  "midi": 59,
		  "time": 48.6666180000001,
		  "velocity": 0.7559055118110236,
		  "duration": 0.22222200000000214
		},
		{
		  "name": "E4",
		  "midi": 64,
		  "time": 48.6666180000001,
		  "velocity": 0.7559055118110236,
		  "duration": 0.22222200000000214
		},
		{
		  "name": "B3",
		  "midi": 59,
		  "time": 48.8888400000001,
		  "velocity": 0.7559055118110236,
		  "duration": 0.22222200000000214
		},
		{
		  "name": "E4",
		  "midi": 64,
		  "time": 48.8888400000001,
		  "velocity": 0.7559055118110236,
		  "duration": 0.22222200000000214
		},
		{
		  "name": "B3",
		  "midi": 59,
		  "time": 49.1110620000001,
		  "velocity": 0.7559055118110236,
		  "duration": 0.22222200000000214
		},
		{
		  "name": "E4",
		  "midi": 64,
		  "time": 49.1110620000001,
		  "velocity": 0.7559055118110236,
		  "duration": 0.22222200000000214
		},
		{
		  "name": "B3",
		  "midi": 59,
		  "time": 49.333284000000106,
		  "velocity": 0.7559055118110236,
		  "duration": 0.11111100000000107
		},
		{
		  "name": "E4",
		  "midi": 64,
		  "time": 49.333284000000106,
		  "velocity": 0.7559055118110236,
		  "duration": 0.11111100000000107
		},
		{
		  "name": "B3",
		  "midi": 59,
		  "time": 49.44439500000011,
		  "velocity": 0.7559055118110236,
		  "duration": 0.22222200000000214
		},
		{
		  "name": "E4",
		  "midi": 64,
		  "time": 49.44439500000011,
		  "velocity": 0.7559055118110236,
		  "duration": 0.22222200000000214
		},
		{
		  "name": "C#4",
		  "midi": 61,
		  "time": 49.77772800000011,
		  "velocity": 0.7559055118110236,
		  "duration": 0.22222200000000214
		},
		{
		  "name": "F#4",
		  "midi": 66,
		  "time": 49.77772800000011,
		  "velocity": 0.7559055118110236,
		  "duration": 0.22222200000000214
		},
		{
		  "name": "C#4",
		  "midi": 61,
		  "time": 50.11106100000011,
		  "velocity": 0.7559055118110236,
		  "duration": 0.22222200000000214
		},
		{
		  "name": "F#4",
		  "midi": 66,
		  "time": 50.11106100000011,
		  "velocity": 0.7559055118110236,
		  "duration": 0.22222200000000214
		},
		{
		  "name": "C#4",
		  "midi": 61,
		  "time": 50.444394000000116,
		  "velocity": 0.7559055118110236,
		  "duration": 0.11111100000000107
		},
		{
		  "name": "F#4",
		  "midi": 66,
		  "time": 50.444394000000116,
		  "velocity": 0.7559055118110236,
		  "duration": 0.11111100000000107
		},
		{
		  "name": "C#4",
		  "midi": 61,
		  "time": 50.55550500000012,
		  "velocity": 0.7559055118110236,
		  "duration": 0.11111100000000107
		},
		{
		  "name": "F#4",
		  "midi": 66,
		  "time": 50.55550500000012,
		  "velocity": 0.7559055118110236,
		  "duration": 0.11111100000000107
		},
		{
		  "name": "C#4",
		  "midi": 61,
		  "time": 50.66661600000012,
		  "velocity": 0.7559055118110236,
		  "duration": 0.22222200000000214
		},
		{
		  "name": "F#4",
		  "midi": 66,
		  "time": 50.66661600000012,
		  "velocity": 0.7559055118110236,
		  "duration": 0.22222200000000214
		},
		{
		  "name": "C#4",
		  "midi": 61,
		  "time": 50.88883800000012,
		  "velocity": 0.7559055118110236,
		  "duration": 0.22222200000000214
		},
		{
		  "name": "F#4",
		  "midi": 66,
		  "time": 50.88883800000012,
		  "velocity": 0.7559055118110236,
		  "duration": 0.22222200000000214
		},
		{
		  "name": "C#4",
		  "midi": 61,
		  "time": 51.11106000000012,
		  "velocity": 0.7559055118110236,
		  "duration": 0.11111100000000107
		},
		{
		  "name": "F#4",
		  "midi": 66,
		  "time": 51.11106000000012,
		  "velocity": 0.7559055118110236,
		  "duration": 0.11111100000000107
		},
		{
		  "name": "C#4",
		  "midi": 61,
		  "time": 51.222171000000124,
		  "velocity": 0.7559055118110236,
		  "duration": 0.22222200000000214
		},
		{
		  "name": "F#4",
		  "midi": 66,
		  "time": 51.222171000000124,
		  "velocity": 0.7559055118110236,
		  "duration": 0.22222200000000214
		},
		{
		  "name": "D4",
		  "midi": 62,
		  "time": 51.55550400000013,
		  "velocity": 0.7559055118110236,
		  "duration": 0.22222200000000214
		},
		{
		  "name": "A3",
		  "midi": 57,
		  "time": 51.55550400000013,
		  "velocity": 0.7559055118110236,
		  "duration": 0.22222200000000214
		},
		{
		  "name": "A3",
		  "midi": 57,
		  "time": 51.88883700000013,
		  "velocity": 0.7559055118110236,
		  "duration": 0.22222200000000214
		},
		{
		  "name": "D4",
		  "midi": 62,
		  "time": 51.88883700000013,
		  "velocity": 0.7559055118110236,
		  "duration": 0.22222200000000214
		},
		{
		  "name": "B3",
		  "midi": 59,
		  "time": 52.22217000000013,
		  "velocity": 0.7559055118110236,
		  "duration": 0.22222200000000214
		},
		{
		  "name": "E4",
		  "midi": 64,
		  "time": 52.22217000000013,
		  "velocity": 0.7559055118110236,
		  "duration": 0.22222200000000214
		},
		{
		  "name": "B3",
		  "midi": 59,
		  "time": 52.444392000000136,
		  "velocity": 0.7559055118110236,
		  "duration": 0.22222200000000214
		},
		{
		  "name": "E4",
		  "midi": 64,
		  "time": 52.444392000000136,
		  "velocity": 0.7559055118110236,
		  "duration": 0.22222200000000214
		},
		{
		  "name": "B3",
		  "midi": 59,
		  "time": 52.66661400000014,
		  "velocity": 0.7559055118110236,
		  "duration": 0.22222200000000214
		},
		{
		  "name": "E4",
		  "midi": 64,
		  "time": 52.66661400000014,
		  "velocity": 0.7559055118110236,
		  "duration": 0.22222200000000214
		},
		{
		  "name": "B3",
		  "midi": 59,
		  "time": 52.88883600000014,
		  "velocity": 0.7559055118110236,
		  "duration": 0.11111100000000107
		},
		{
		  "name": "E4",
		  "midi": 64,
		  "time": 52.88883600000014,
		  "velocity": 0.7559055118110236,
		  "duration": 0.11111100000000107
		},
		{
		  "name": "B3",
		  "midi": 59,
		  "time": 52.99994700000014,
		  "velocity": 0.7559055118110236,
		  "duration": 0.22222200000000214
		},
		{
		  "name": "E4",
		  "midi": 64,
		  "time": 52.99994700000014,
		  "velocity": 0.7559055118110236,
		  "duration": 0.22222200000000214
		},
		{
		  "name": "E4",
		  "midi": 64,
		  "time": 53.333280000000144,
		  "velocity": 0.7559055118110236,
		  "duration": 0.22222200000000214
		},
		{
		  "name": "A4",
		  "midi": 69,
		  "time": 53.333280000000144,
		  "velocity": 0.7559055118110236,
		  "duration": 0.22222200000000214
		},
		{
		  "name": "C#4",
		  "midi": 61,
		  "time": 53.66661300000015,
		  "velocity": 0.7559055118110236,
		  "duration": 0.22222200000000214
		},
		{
		  "name": "F#4",
		  "midi": 66,
		  "time": 53.66661300000015,
		  "velocity": 0.7559055118110236,
		  "duration": 0.22222200000000214
		},
		{
		  "name": "C#4",
		  "midi": 61,
		  "time": 53.99994600000015,
		  "velocity": 0.7559055118110236,
		  "duration": 0.11111100000000107
		},
		{
		  "name": "F#4",
		  "midi": 66,
		  "time": 53.99994600000015,
		  "velocity": 0.7559055118110236,
		  "duration": 0.11111100000000107
		},
		{
		  "name": "C#4",
		  "midi": 61,
		  "time": 54.11105700000015,
		  "velocity": 0.7559055118110236,
		  "duration": 0.11111100000000107
		},
		{
		  "name": "F#4",
		  "midi": 66,
		  "time": 54.11105700000015,
		  "velocity": 0.7559055118110236,
		  "duration": 0.11111100000000107
		},
		{
		  "name": "C#4",
		  "midi": 61,
		  "time": 54.22216800000015,
		  "velocity": 0.7559055118110236,
		  "duration": 0.22222200000000214
		},
		{
		  "name": "F#4",
		  "midi": 66,
		  "time": 54.22216800000015,
		  "velocity": 0.7559055118110236,
		  "duration": 0.22222200000000214
		},
		{
		  "name": "C#4",
		  "midi": 61,
		  "time": 54.444390000000155,
		  "velocity": 0.7559055118110236,
		  "duration": 0.22222200000000214
		},
		{
		  "name": "F#4",
		  "midi": 66,
		  "time": 54.444390000000155,
		  "velocity": 0.7559055118110236,
		  "duration": 0.22222200000000214
		},
		{
		  "name": "C#4",
		  "midi": 61,
		  "time": 54.66661200000016,
		  "velocity": 0.7559055118110236,
		  "duration": 0.11111100000000107
		},
		{
		  "name": "F#4",
		  "midi": 66,
		  "time": 54.66661200000016,
		  "velocity": 0.7559055118110236,
		  "duration": 0.11111100000000107
		},
		{
		  "name": "C#4",
		  "midi": 61,
		  "time": 54.77772300000016,
		  "velocity": 0.7559055118110236,
		  "duration": 0.22222200000000214
		},
		{
		  "name": "F#4",
		  "midi": 66,
		  "time": 54.77772300000016,
		  "velocity": 0.7559055118110236,
		  "duration": 0.22222200000000214
		},
		{
		  "name": "D4",
		  "midi": 62,
		  "time": 55.11105600000016,
		  "velocity": 0.7559055118110236,
		  "duration": 0.22222200000000214
		},
		{
		  "name": "A3",
		  "midi": 57,
		  "time": 55.11105600000016,
		  "velocity": 0.7559055118110236,
		  "duration": 0.22222200000000214
		},
		{
		  "name": "A3",
		  "midi": 57,
		  "time": 55.444389000000164,
		  "velocity": 0.7559055118110236,
		  "duration": 0.22222200000000214
		},
		{
		  "name": "D4",
		  "midi": 62,
		  "time": 55.444389000000164,
		  "velocity": 0.7559055118110236,
		  "duration": 0.22222200000000214
		},
		{
		  "name": "B3",
		  "midi": 59,
		  "time": 55.77772200000017,
		  "velocity": 0.7559055118110236,
		  "duration": 0.22222200000000214
		},
		{
		  "name": "E4",
		  "midi": 64,
		  "time": 55.77772200000017,
		  "velocity": 0.7559055118110236,
		  "duration": 0.22222200000000214
		},
		{
		  "name": "B3",
		  "midi": 59,
		  "time": 55.99994400000017,
		  "velocity": 0.7559055118110236,
		  "duration": 0.22222200000000214
		},
		{
		  "name": "E4",
		  "midi": 64,
		  "time": 55.99994400000017,
		  "velocity": 0.7559055118110236,
		  "duration": 0.22222200000000214
		},
		{
		  "name": "B3",
		  "midi": 59,
		  "time": 56.22216600000017,
		  "velocity": 0.7559055118110236,
		  "duration": 0.22222200000000214
		},
		{
		  "name": "E4",
		  "midi": 64,
		  "time": 56.22216600000017,
		  "velocity": 0.7559055118110236,
		  "duration": 0.22222200000000214
		},
		{
		  "name": "B3",
		  "midi": 59,
		  "time": 56.444388000000174,
		  "velocity": 0.7559055118110236,
		  "duration": 0.11111100000000107
		},
		{
		  "name": "E4",
		  "midi": 64,
		  "time": 56.444388000000174,
		  "velocity": 0.7559055118110236,
		  "duration": 0.11111100000000107
		},
		{
		  "name": "B3",
		  "midi": 59,
		  "time": 56.555499000000175,
		  "velocity": 0.7559055118110236,
		  "duration": 0.3333330000000032
		},
		{
		  "name": "E4",
		  "midi": 64,
		  "time": 56.555499000000175,
		  "velocity": 0.7559055118110236,
		  "duration": 0.3333330000000032
		},
		{
		  "name": "C#4",
		  "midi": 61,
		  "time": 56.88883200000018,
		  "velocity": 0.8188976377952756,
		  "duration": 0.22222200000000214
		},
		{
		  "name": "C#5",
		  "midi": 73,
		  "time": 56.88883200000018,
		  "velocity": 0.8188976377952756,
		  "duration": 0.22222200000000214
		},
		{
		  "name": "C5",
		  "midi": 72,
		  "time": 57.11105400000018,
		  "velocity": 0.8188976377952756,
		  "duration": 0.22222200000000214
		},
		{
		  "name": "C4",
		  "midi": 60,
		  "time": 57.11105400000018,
		  "velocity": 0.8188976377952756,
		  "duration": 0.22222200000000214
		},
		{
		  "name": "B4",
		  "midi": 71,
		  "time": 57.33327600000018,
		  "velocity": 0.8188976377952756,
		  "duration": 0.11111100000000107
		},
		{
		  "name": "B3",
		  "midi": 59,
		  "time": 57.33327600000018,
		  "velocity": 0.8188976377952756,
		  "duration": 0.11111100000000107
		},
		{
		  "name": "A4",
		  "midi": 69,
		  "time": 57.444387000000184,
		  "velocity": 0.8188976377952756,
		  "duration": 0.22222200000000214
		},
		{
		  "name": "A3",
		  "midi": 57,
		  "time": 57.444387000000184,
		  "velocity": 0.8188976377952756,
		  "duration": 0.22222200000000214
		},
		{
		  "name": "F#4",
		  "midi": 66,
		  "time": 57.666609000000186,
		  "velocity": 0.8188976377952756,
		  "duration": 0.22222200000000214
		},
		{
		  "name": "F#3",
		  "midi": 54,
		  "time": 57.666609000000186,
		  "velocity": 0.8188976377952756,
		  "duration": 0.22222200000000214
		},
		{
		  "name": "C#5",
		  "midi": 73,
		  "time": 58.22216400000019,
		  "velocity": 0.8188976377952756,
		  "duration": 0.22222200000000214
		},
		{
		  "name": "F#5",
		  "midi": 78,
		  "time": 58.22216400000019,
		  "velocity": 0.8188976377952756,
		  "duration": 0.22222200000000214
		},
		{
		  "name": "F#4",
		  "midi": 66,
		  "time": 58.22216400000019,
		  "velocity": 0.8188976377952756,
		  "duration": 0.22222200000000214
		},
		{
		  "name": "C#5",
		  "midi": 73,
		  "time": 58.666608000000195,
		  "velocity": 0.8188976377952756,
		  "duration": 0.22222200000000214
		},
		{
		  "name": "C#4",
		  "midi": 61,
		  "time": 58.666608000000195,
		  "velocity": 0.8188976377952756,
		  "duration": 0.22222200000000214
		},
		{
		  "name": "C5",
		  "midi": 72,
		  "time": 58.8888300000002,
		  "velocity": 0.8188976377952756,
		  "duration": 0.22222200000000214
		},
		{
		  "name": "C4",
		  "midi": 60,
		  "time": 58.8888300000002,
		  "velocity": 0.8188976377952756,
		  "duration": 0.22222200000000214
		},
		{
		  "name": "B4",
		  "midi": 71,
		  "time": 59.1110520000002,
		  "velocity": 0.8188976377952756,
		  "duration": 0.11111100000000107
		},
		{
		  "name": "B3",
		  "midi": 59,
		  "time": 59.1110520000002,
		  "velocity": 0.8188976377952756,
		  "duration": 0.11111100000000107
		},
		{
		  "name": "A4",
		  "midi": 69,
		  "time": 59.2221630000002,
		  "velocity": 0.8188976377952756,
		  "duration": 0.22222200000000214
		},
		{
		  "name": "A3",
		  "midi": 57,
		  "time": 59.2221630000002,
		  "velocity": 0.8188976377952756,
		  "duration": 0.22222200000000214
		},
		{
		  "name": "F#4",
		  "midi": 66,
		  "time": 59.4443850000002,
		  "velocity": 0.8188976377952756,
		  "duration": 0.22222200000000214
		},
		{
		  "name": "F#3",
		  "midi": 54,
		  "time": 59.4443850000002,
		  "velocity": 0.8188976377952756,
		  "duration": 0.22222200000000214
		},
		{
		  "name": "F#4",
		  "midi": 66,
		  "time": 60.2221620000002,
		  "velocity": 0.8188976377952756,
		  "duration": 0.22222200000000214
		},
		{
		  "name": "F#3",
		  "midi": 54,
		  "time": 60.2221620000002,
		  "velocity": 0.8188976377952756,
		  "duration": 0.22222200000000214
		},
		{
		  "name": "C#4",
		  "midi": 61,
		  "time": 60.444384000000206,
		  "velocity": 0.8188976377952756,
		  "duration": 0.22222200000000214
		},
		{
		  "name": "C#3",
		  "midi": 49,
		  "time": 60.444384000000206,
		  "velocity": 0.8188976377952756,
		  "duration": 0.22222200000000214
		},
		{
		  "name": "C#4",
		  "midi": 61,
		  "time": 60.66660600000021,
		  "velocity": 0.8188976377952756,
		  "duration": 0.22222200000000214
		},
		{
		  "name": "C#3",
		  "midi": 49,
		  "time": 60.66660600000021,
		  "velocity": 0.8188976377952756,
		  "duration": 0.22222200000000214
		},
		{
		  "name": "E4",
		  "midi": 64,
		  "time": 60.88882800000021,
		  "velocity": 0.8188976377952756,
		  "duration": 0.11111100000000107
		},
		{
		  "name": "E3",
		  "midi": 52,
		  "time": 60.88882800000021,
		  "velocity": 0.8188976377952756,
		  "duration": 0.11111100000000107
		},
		{
		  "name": "E4",
		  "midi": 64,
		  "time": 60.99993900000021,
		  "velocity": 0.8188976377952756,
		  "duration": 0.11111100000000107
		},
		{
		  "name": "E3",
		  "midi": 52,
		  "time": 60.99993900000021,
		  "velocity": 0.8188976377952756,
		  "duration": 0.11111100000000107
		},
		{
		  "name": "E4",
		  "midi": 64,
		  "time": 61.11105000000021,
		  "velocity": 0.8188976377952756,
		  "duration": 0.11111100000000107
		},
		{
		  "name": "E3",
		  "midi": 52,
		  "time": 61.11105000000021,
		  "velocity": 0.8188976377952756,
		  "duration": 0.11111100000000107
		},
		{
		  "name": "F#4",
		  "midi": 66,
		  "time": 61.22216100000021,
		  "velocity": 0.8188976377952756,
		  "duration": 0.22222200000000214
		},
		{
		  "name": "F#3",
		  "midi": 54,
		  "time": 61.22216100000021,
		  "velocity": 0.8188976377952756,
		  "duration": 0.22222200000000214
		},
		{
		  "name": "F#4",
		  "midi": 66,
		  "time": 61.99993800000021,
		  "velocity": 0.8188976377952756,
		  "duration": 0.22222200000000214
		},
		{
		  "name": "F#3",
		  "midi": 54,
		  "time": 61.99993800000021,
		  "velocity": 0.8188976377952756,
		  "duration": 0.22222200000000214
		},
		{
		  "name": "C#5",
		  "midi": 73,
		  "time": 62.222160000000216,
		  "velocity": 0.8188976377952756,
		  "duration": 0.22222200000000214
		},
		{
		  "name": "C#4",
		  "midi": 61,
		  "time": 62.222160000000216,
		  "velocity": 0.8188976377952756,
		  "duration": 0.22222200000000214
		},
		{
		  "name": "C5",
		  "midi": 72,
		  "time": 62.44438200000022,
		  "velocity": 0.8188976377952756,
		  "duration": 0.22222200000000214
		},
		{
		  "name": "C4",
		  "midi": 60,
		  "time": 62.44438200000022,
		  "velocity": 0.8188976377952756,
		  "duration": 0.22222200000000214
		},
		{
		  "name": "B4",
		  "midi": 71,
		  "time": 62.66660400000022,
		  "velocity": 0.8188976377952756,
		  "duration": 0.11111100000000107
		},
		{
		  "name": "B3",
		  "midi": 59,
		  "time": 62.66660400000022,
		  "velocity": 0.8188976377952756,
		  "duration": 0.11111100000000107
		},
		{
		  "name": "A4",
		  "midi": 69,
		  "time": 62.77771500000022,
		  "velocity": 0.8188976377952756,
		  "duration": 0.22222200000000214
		},
		{
		  "name": "A3",
		  "midi": 57,
		  "time": 62.77771500000022,
		  "velocity": 0.8188976377952756,
		  "duration": 0.22222200000000214
		},
		{
		  "name": "B4",
		  "midi": 71,
		  "time": 62.99993700000022,
		  "velocity": 0.8188976377952756,
		  "duration": 0.22222200000000214
		},
		{
		  "name": "B3",
		  "midi": 59,
		  "time": 62.99993700000022,
		  "velocity": 0.8188976377952756,
		  "duration": 0.22222200000000214
		},
		{
		  "name": "B4",
		  "midi": 71,
		  "time": 63.333270000000226,
		  "velocity": 0.8188976377952756,
		  "duration": 0.22222200000000214
		},
		{
		  "name": "B3",
		  "midi": 59,
		  "time": 63.333270000000226,
		  "velocity": 0.8188976377952756,
		  "duration": 0.22222200000000214
		},
		{
		  "name": "A4",
		  "midi": 69,
		  "time": 63.55549200000023,
		  "velocity": 0.8188976377952756,
		  "duration": 0.22222200000000214
		},
		{
		  "name": "A3",
		  "midi": 57,
		  "time": 63.55549200000023,
		  "velocity": 0.8188976377952756,
		  "duration": 0.22222200000000214
		},
		{
		  "name": "F#4",
		  "midi": 66,
		  "time": 63.77771400000023,
		  "velocity": 0.8188976377952756,
		  "duration": 0.22222200000000214
		},
		{
		  "name": "F#3",
		  "midi": 54,
		  "time": 63.77771400000023,
		  "velocity": 0.8188976377952756,
		  "duration": 0.22222200000000214
		},
		{
		  "name": "E4",
		  "midi": 64,
		  "time": 63.99993600000023,
		  "velocity": 0.8188976377952756,
		  "duration": 0.11111099999999396
		},
		{
		  "name": "E3",
		  "midi": 52,
		  "time": 63.99993600000023,
		  "velocity": 0.8188976377952756,
		  "duration": 0.11111099999999396
		},
		{
		  "name": "F#4",
		  "midi": 66,
		  "time": 64.11104700000023,
		  "velocity": 0.8188976377952756,
		  "duration": 0.22222200000000214
		},
		{
		  "name": "F#3",
		  "midi": 54,
		  "time": 64.11104700000023,
		  "velocity": 0.8188976377952756,
		  "duration": 0.22222200000000214
		},
		{
		  "name": "F#4",
		  "midi": 66,
		  "time": 64.33326900000023,
		  "velocity": 0.8188976377952756,
		  "duration": 0.22222200000000214
		},
		{
		  "name": "F#3",
		  "midi": 54,
		  "time": 64.33326900000023,
		  "velocity": 0.8188976377952756,
		  "duration": 0.22222200000000214
		},
		{
		  "name": "F#4",
		  "midi": 66,
		  "time": 64.55549100000023,
		  "velocity": 0.8188976377952756,
		  "duration": 0.11111099999999396
		},
		{
		  "name": "F#3",
		  "midi": 54,
		  "time": 64.55549100000023,
		  "velocity": 0.8188976377952756,
		  "duration": 0.11111099999999396
		},
		{
		  "name": "E4",
		  "midi": 64,
		  "time": 64.66660200000022,
		  "velocity": 0.8188976377952756,
		  "duration": 0.22222200000000214
		},
		{
		  "name": "E3",
		  "midi": 52,
		  "time": 64.66660200000022,
		  "velocity": 0.8188976377952756,
		  "duration": 0.22222200000000214
		},
		{
		  "name": "F#4",
		  "midi": 66,
		  "time": 64.88882400000023,
		  "velocity": 0.8188976377952756,
		  "duration": 0.22222200000000214
		},
		{
		  "name": "F#3",
		  "midi": 54,
		  "time": 64.88882400000023,
		  "velocity": 0.8188976377952756,
		  "duration": 0.22222200000000214
		},
		{
		  "name": "B4",
		  "midi": 71,
		  "time": 65.55549000000023,
		  "velocity": 0.8188976377952756,
		  "duration": 0.22222200000000214
		},
		{
		  "name": "B3",
		  "midi": 59,
		  "time": 65.55549000000023,
		  "velocity": 0.8188976377952756,
		  "duration": 0.22222200000000214
		},
		{
		  "name": "C#5",
		  "midi": 73,
		  "time": 65.77771200000024,
		  "velocity": 0.8188976377952756,
		  "duration": 0.22222200000000214
		},
		{
		  "name": "C#4",
		  "midi": 61,
		  "time": 65.77771200000024,
		  "velocity": 0.8188976377952756,
		  "duration": 0.22222200000000214
		},
		{
		  "name": "C5",
		  "midi": 72,
		  "time": 65.99993400000024,
		  "velocity": 0.8188976377952756,
		  "duration": 0.22222200000000214
		},
		{
		  "name": "C4",
		  "midi": 60,
		  "time": 65.99993400000024,
		  "velocity": 0.8188976377952756,
		  "duration": 0.22222200000000214
		},
		{
		  "name": "B4",
		  "midi": 71,
		  "time": 66.22215600000024,
		  "velocity": 0.8188976377952756,
		  "duration": 0.11111099999999396
		},
		{
		  "name": "B3",
		  "midi": 59,
		  "time": 66.22215600000024,
		  "velocity": 0.8188976377952756,
		  "duration": 0.11111099999999396
		},
		{
		  "name": "A4",
		  "midi": 69,
		  "time": 66.33326700000023,
		  "velocity": 0.8188976377952756,
		  "duration": 0.22222200000000214
		},
		{
		  "name": "A3",
		  "midi": 57,
		  "time": 66.33326700000023,
		  "velocity": 0.8188976377952756,
		  "duration": 0.22222200000000214
		},
		{
		  "name": "F#4",
		  "midi": 66,
		  "time": 66.55548900000024,
		  "velocity": 0.8188976377952756,
		  "duration": 0.22222200000000214
		},
		{
		  "name": "F#3",
		  "midi": 54,
		  "time": 66.55548900000024,
		  "velocity": 0.8188976377952756,
		  "duration": 0.22222200000000214
		},
		{
		  "name": "F#4",
		  "midi": 66,
		  "time": 67.33326600000024,
		  "velocity": 0.8188976377952756,
		  "duration": 0.22222200000000214
		},
		{
		  "name": "F#3",
		  "midi": 54,
		  "time": 67.33326600000024,
		  "velocity": 0.8188976377952756,
		  "duration": 0.22222200000000214
		},
		{
		  "name": "C#4",
		  "midi": 61,
		  "time": 67.55548800000024,
		  "velocity": 0.8188976377952756,
		  "duration": 0.22222200000000214
		},
		{
		  "name": "C#3",
		  "midi": 49,
		  "time": 67.55548800000024,
		  "velocity": 0.8188976377952756,
		  "duration": 0.22222200000000214
		},
		{
		  "name": "C#4",
		  "midi": 61,
		  "time": 67.77771000000024,
		  "velocity": 0.8188976377952756,
		  "duration": 0.22222200000000214
		},
		{
		  "name": "C#3",
		  "midi": 49,
		  "time": 67.77771000000024,
		  "velocity": 0.8188976377952756,
		  "duration": 0.22222200000000214
		},
		{
		  "name": "E4",
		  "midi": 64,
		  "time": 67.99993200000024,
		  "velocity": 0.8188976377952756,
		  "duration": 0.11111099999999396
		},
		{
		  "name": "E3",
		  "midi": 52,
		  "time": 67.99993200000024,
		  "velocity": 0.8188976377952756,
		  "duration": 0.11111099999999396
		},
		{
		  "name": "E4",
		  "midi": 64,
		  "time": 68.11104300000024,
		  "velocity": 0.8188976377952756,
		  "duration": 0.11111099999999396
		},
		{
		  "name": "E3",
		  "midi": 52,
		  "time": 68.11104300000024,
		  "velocity": 0.8188976377952756,
		  "duration": 0.11111099999999396
		},
		{
		  "name": "E4",
		  "midi": 64,
		  "time": 68.22215400000023,
		  "velocity": 0.8188976377952756,
		  "duration": 0.11111099999999396
		},
		{
		  "name": "E3",
		  "midi": 52,
		  "time": 68.22215400000023,
		  "velocity": 0.8188976377952756,
		  "duration": 0.11111099999999396
		},
		{
		  "name": "F#4",
		  "midi": 66,
		  "time": 68.33326500000022,
		  "velocity": 0.8188976377952756,
		  "duration": 0.22222200000000214
		},
		{
		  "name": "F#3",
		  "midi": 54,
		  "time": 68.33326500000022,
		  "velocity": 0.8188976377952756,
		  "duration": 0.22222200000000214
		},
		{
		  "name": "F#4",
		  "midi": 66,
		  "time": 69.11104200000023,
		  "velocity": 0.8188976377952756,
		  "duration": 0.22222200000000214
		},
		{
		  "name": "F#3",
		  "midi": 54,
		  "time": 69.11104200000023,
		  "velocity": 0.8188976377952756,
		  "duration": 0.22222200000000214
		},
		{
		  "name": "C#5",
		  "midi": 73,
		  "time": 69.33326400000023,
		  "velocity": 0.8188976377952756,
		  "duration": 0.22222200000000214
		},
		{
		  "name": "C#4",
		  "midi": 61,
		  "time": 69.33326400000023,
		  "velocity": 0.8188976377952756,
		  "duration": 0.22222200000000214
		},
		{
		  "name": "C5",
		  "midi": 72,
		  "time": 69.55548600000023,
		  "velocity": 0.8188976377952756,
		  "duration": 0.22222200000000214
		},
		{
		  "name": "C4",
		  "midi": 60,
		  "time": 69.55548600000023,
		  "velocity": 0.8188976377952756,
		  "duration": 0.22222200000000214
		},
		{
		  "name": "B4",
		  "midi": 71,
		  "time": 69.77770800000023,
		  "velocity": 0.8188976377952756,
		  "duration": 0.11111099999999396
		},
		{
		  "name": "B3",
		  "midi": 59,
		  "time": 69.77770800000023,
		  "velocity": 0.8188976377952756,
		  "duration": 0.11111099999999396
		},
		{
		  "name": "A4",
		  "midi": 69,
		  "time": 69.88881900000023,
		  "velocity": 0.8188976377952756,
		  "duration": 0.22222200000000214
		},
		{
		  "name": "A3",
		  "midi": 57,
		  "time": 69.88881900000023,
		  "velocity": 0.8188976377952756,
		  "duration": 0.22222200000000214
		},
		{
		  "name": "B4",
		  "midi": 71,
		  "time": 70.11104100000023,
		  "velocity": 0.8188976377952756,
		  "duration": 0.22222200000000214
		},
		{
		  "name": "B3",
		  "midi": 59,
		  "time": 70.11104100000023,
		  "velocity": 0.8188976377952756,
		  "duration": 0.22222200000000214
		},
		{
		  "name": "A4",
		  "midi": 69,
		  "time": 70.66659600000023,
		  "velocity": 0.8188976377952756,
		  "duration": 0.22222200000000214
		},
		{
		  "name": "A3",
		  "midi": 57,
		  "time": 70.66659600000023,
		  "velocity": 0.8188976377952756,
		  "duration": 0.22222200000000214
		},
		{
		  "name": "F#4",
		  "midi": 66,
		  "time": 70.88881800000023,
		  "velocity": 0.8188976377952756,
		  "duration": 0.22222200000000214
		},
		{
		  "name": "F#3",
		  "midi": 54,
		  "time": 70.88881800000023,
		  "velocity": 0.8188976377952756,
		  "duration": 0.22222200000000214
		},
		{
		  "name": "E4",
		  "midi": 64,
		  "time": 71.11104000000023,
		  "velocity": 0.8188976377952756,
		  "duration": 0.11111099999999396
		},
		{
		  "name": "E3",
		  "midi": 52,
		  "time": 71.11104000000023,
		  "velocity": 0.8188976377952756,
		  "duration": 0.11111099999999396
		},
		{
		  "name": "F#4",
		  "midi": 66,
		  "time": 71.22215100000022,
		  "velocity": 0.8188976377952756,
		  "duration": 0.22222200000000214
		},
		{
		  "name": "F#3",
		  "midi": 54,
		  "time": 71.22215100000022,
		  "velocity": 0.8188976377952756,
		  "duration": 0.22222200000000214
		},
		{
		  "name": "F#4",
		  "midi": 66,
		  "time": 71.44437300000023,
		  "velocity": 0.8188976377952756,
		  "duration": 0.11111099999999396
		},
		{
		  "name": "F#3",
		  "midi": 54,
		  "time": 71.44437300000023,
		  "velocity": 0.8188976377952756,
		  "duration": 0.11111099999999396
		},
		{
		  "name": "F#4",
		  "midi": 66,
		  "time": 71.66659500000021,
		  "velocity": 0.8188976377952756,
		  "duration": 0.11111099999999396
		},
		{
		  "name": "F#3",
		  "midi": 54,
		  "time": 71.66659500000021,
		  "velocity": 0.8188976377952756,
		  "duration": 0.11111099999999396
		},
		{
		  "name": "E4",
		  "midi": 64,
		  "time": 71.77770600000021,
		  "velocity": 0.8188976377952756,
		  "duration": 0.11111099999999396
		},
		{
		  "name": "E3",
		  "midi": 52,
		  "time": 71.77770600000021,
		  "velocity": 0.8188976377952756,
		  "duration": 0.11111099999999396
		},
		{
		  "name": "F#4",
		  "midi": 66,
		  "time": 71.9999280000002,
		  "velocity": 0.8188976377952756,
		  "duration": 0.22222200000000214
		},
		{
		  "name": "F#3",
		  "midi": 54,
		  "time": 71.9999280000002,
		  "velocity": 0.8188976377952756,
		  "duration": 0.22222200000000214
		},
		{
		  "name": "F#4",
		  "midi": 66,
		  "time": 72.4443720000002,
		  "velocity": 0.8188976377952756,
		  "duration": 0.11111099999999396
		},
		{
		  "name": "F#3",
		  "midi": 54,
		  "time": 72.4443720000002,
		  "velocity": 0.8188976377952756,
		  "duration": 0.11111099999999396
		},
		{
		  "name": "A3",
		  "midi": 57,
		  "time": 72.5554830000002,
		  "velocity": 0.8188976377952756,
		  "duration": 0.11111099999999396
		},
		{
		  "name": "A4",
		  "midi": 69,
		  "time": 72.5554830000002,
		  "velocity": 0.8188976377952756,
		  "duration": 0.11111099999999396
		},
		{
		  "name": "B3",
		  "midi": 59,
		  "time": 72.66659400000019,
		  "velocity": 0.8188976377952756,
		  "duration": 0.22222200000000214
		},
		{
		  "name": "B4",
		  "midi": 71,
		  "time": 72.66659400000019,
		  "velocity": 0.8188976377952756,
		  "duration": 0.22222200000000214
		},
		{
		  "name": "C5",
		  "midi": 72,
		  "time": 72.88881600000019,
		  "velocity": 0.8188976377952756,
		  "duration": 0.4444440000000043
		},
		{
		  "name": "B4",
		  "midi": 71,
		  "time": 73.3332600000002,
		  "velocity": 0.8188976377952756,
		  "duration": 0.11111099999999396
		},
		{
		  "name": "A4",
		  "midi": 69,
		  "time": 73.44437100000019,
		  "velocity": 0.8188976377952756,
		  "duration": 0.11111099999999396
		},
		{
		  "name": "F#4",
		  "midi": 66,
		  "time": 73.66659300000018,
		  "velocity": 0.8188976377952756,
		  "duration": 0.3333329999999961
		},
		{
		  "name": "F#4",
		  "midi": 66,
		  "time": 74.22214800000017,
		  "velocity": 0.8188976377952756,
		  "duration": 0.11111099999999396
		},
		{
		  "name": "A4",
		  "midi": 69,
		  "time": 74.33325900000017,
		  "velocity": 0.8188976377952756,
		  "duration": 0.11111099999999396
		},
		{
		  "name": "C5",
		  "midi": 72,
		  "time": 74.44437000000016,
		  "velocity": 0.8188976377952756,
		  "duration": 0.22222200000000214
		},
		{
		  "name": "B4",
		  "midi": 71,
		  "time": 74.66659200000016,
		  "velocity": 0.8188976377952756,
		  "duration": 0.11111099999999396
		},
		{
		  "name": "B4",
		  "midi": 71,
		  "time": 74.88881400000015,
		  "velocity": 0.8188976377952756,
		  "duration": 0.11111099999999396
		},
		{
		  "name": "B4",
		  "midi": 71,
		  "time": 75.11103600000014,
		  "velocity": 0.8188976377952756,
		  "duration": 0.11111099999999396
		},
		{
		  "name": "A4",
		  "midi": 69,
		  "time": 75.22214700000013,
		  "velocity": 0.8188976377952756,
		  "duration": 0.11111099999999396
		},
		{
		  "name": "E4",
		  "midi": 64,
		  "time": 75.33325800000013,
		  "velocity": 0.8188976377952756,
		  "duration": 0.11111099999999396
		},
		{
		  "name": "F#4",
		  "midi": 66,
		  "time": 75.44436900000012,
		  "velocity": 0.8188976377952756,
		  "duration": 0.3333329999999961
		},
		{
		  "name": "F#4",
		  "midi": 66,
		  "time": 75.99992400000012,
		  "velocity": 0.8188976377952756,
		  "duration": 0.11111099999999396
		},
		{
		  "name": "A4",
		  "midi": 69,
		  "time": 76.11103500000011,
		  "velocity": 0.8188976377952756,
		  "duration": 0.11111099999999396
		},
		{
		  "name": "B4",
		  "midi": 71,
		  "time": 76.22214600000011,
		  "velocity": 0.8188976377952756,
		  "duration": 0.22222200000000214
		},
		{
		  "name": "F5",
		  "midi": 77,
		  "time": 76.44436800000011,
		  "velocity": 0.8188976377952756,
		  "duration": 0.4444440000000043
		},
		{
		  "name": "B4",
		  "midi": 71,
		  "time": 76.88881200000012,
		  "velocity": 0.8188976377952756,
		  "duration": 0.11111099999999396
		},
		{
		  "name": "A4",
		  "midi": 69,
		  "time": 76.99992300000011,
		  "velocity": 0.8188976377952756,
		  "duration": 0.11111099999999396
		},
		{
		  "name": "F#4",
		  "midi": 66,
		  "time": 77.2221450000001,
		  "velocity": 0.8188976377952756,
		  "duration": 0.3333329999999961
		},
		{
		  "name": "F#4",
		  "midi": 66,
		  "time": 77.7777000000001,
		  "velocity": 0.8188976377952756,
		  "duration": 0.11111099999999396
		},
		{
		  "name": "A4",
		  "midi": 69,
		  "time": 77.88881100000009,
		  "velocity": 0.8188976377952756,
		  "duration": 0.11111099999999396
		},
		{
		  "name": "C5",
		  "midi": 72,
		  "time": 77.99992200000008,
		  "velocity": 0.8188976377952756,
		  "duration": 0.22222200000000214
		},
		{
		  "name": "E4",
		  "midi": 64,
		  "time": 78.22214400000009,
		  "velocity": 0.7559055118110236,
		  "duration": 0.11111099999999396
		},
		{
		  "name": "E4",
		  "midi": 64,
		  "time": 78.44436600000007,
		  "velocity": 0.7559055118110236,
		  "duration": 0.11111099999999396
		},
		{
		  "name": "E4",
		  "midi": 64,
		  "time": 78.66658800000006,
		  "velocity": 0.7559055118110236,
		  "duration": 0.11111099999999396
		},
		{
		  "name": "C#4",
		  "midi": 61,
		  "time": 78.77769900000006,
		  "velocity": 0.7559055118110236,
		  "duration": 0.11111099999999396
		},
		{
		  "name": "E4",
		  "midi": 64,
		  "time": 78.88881000000005,
		  "velocity": 0.7559055118110236,
		  "duration": 0.11111099999999396
		},
		{
		  "name": "F#4",
		  "midi": 66,
		  "time": 78.99992100000004,
		  "velocity": 0.7559055118110236,
		  "duration": 0.3333329999999961
		},
		{
		  "name": "F#4",
		  "midi": 66,
		  "time": 79.55547600000004,
		  "velocity": 0.7559055118110236,
		  "duration": 0.11111099999999396
		},
		{
		  "name": "A4",
		  "midi": 69,
		  "time": 79.66658700000004,
		  "velocity": 0.7559055118110236,
		  "duration": 0.11111099999999396
		},
		{
		  "name": "B4",
		  "midi": 71,
		  "time": 79.77769800000003,
		  "velocity": 0.7559055118110236,
		  "duration": 0.22222200000000214
		},
		{
		  "name": "C4",
		  "midi": 60,
		  "time": 79.99992000000003,
		  "velocity": 0.7559055118110236,
		  "duration": 0.4444440000000043
		},
		{
		  "name": "C5",
		  "midi": 72,
		  "time": 79.99992000000003,
		  "velocity": 0.7559055118110236,
		  "duration": 0.4444440000000043
		},
		{
		  "name": "B3",
		  "midi": 59,
		  "time": 80.44436400000004,
		  "velocity": 0.7559055118110236,
		  "duration": 0.3333329999999961
		},
		{
		  "name": "B4",
		  "midi": 71,
		  "time": 80.44436400000004,
		  "velocity": 0.7559055118110236,
		  "duration": 0.3333329999999961
		},
		{
		  "name": "A3",
		  "midi": 57,
		  "time": 80.77769700000003,
		  "velocity": 0.7559055118110236,
		  "duration": 0.11111099999999396
		},
		{
		  "name": "A4",
		  "midi": 69,
		  "time": 80.77769700000003,
		  "velocity": 0.7559055118110236,
		  "duration": 0.11111099999999396
		},
		{
		  "name": "F#3",
		  "midi": 54,
		  "time": 80.99991900000002,
		  "velocity": 0.7559055118110236,
		  "duration": 0.3333329999999961
		},
		{
		  "name": "F#4",
		  "midi": 66,
		  "time": 80.99991900000002,
		  "velocity": 0.7559055118110236,
		  "duration": 0.3333329999999961
		},
		{
		  "name": "C#5",
		  "midi": 73,
		  "time": 81.44436300000001,
		  "velocity": 0.7559055118110236,
		  "duration": 0.11111099999999396
		},
		{
		  "name": "C#4",
		  "midi": 61,
		  "time": 81.44436300000001,
		  "velocity": 0.7559055118110236,
		  "duration": 0.11111099999999396
		},
		{
		  "name": "F#3",
		  "midi": 54,
		  "time": 81.555474,
		  "velocity": 0.7559055118110236,
		  "duration": 0.11111099999999396
		},
		{
		  "name": "F#4",
		  "midi": 66,
		  "time": 81.555474,
		  "velocity": 0.7559055118110236,
		  "duration": 0.11111099999999396
		},
		{
		  "name": "A3",
		  "midi": 57,
		  "time": 81.666585,
		  "velocity": 0.7559055118110236,
		  "duration": 0.11111099999999396
		},
		{
		  "name": "A4",
		  "midi": 69,
		  "time": 81.666585,
		  "velocity": 0.7559055118110236,
		  "duration": 0.11111099999999396
		},
		{
		  "name": "C4",
		  "midi": 60,
		  "time": 81.77769599999999,
		  "velocity": 0.7559055118110236,
		  "duration": 0.11111099999999396
		},
		{
		  "name": "C5",
		  "midi": 72,
		  "time": 81.77769599999999,
		  "velocity": 0.7559055118110236,
		  "duration": 0.11111099999999396
		},
		{
		  "name": "B3",
		  "midi": 59,
		  "time": 81.88880699999999,
		  "velocity": 0.7559055118110236,
		  "duration": 0.11111099999999396
		},
		{
		  "name": "B4",
		  "midi": 71,
		  "time": 81.88880699999999,
		  "velocity": 0.7559055118110236,
		  "duration": 0.11111099999999396
		},
		{
		  "name": "A3",
		  "midi": 57,
		  "time": 81.99991799999998,
		  "velocity": 0.7559055118110236,
		  "duration": 0.11111099999999396
		},
		{
		  "name": "A4",
		  "midi": 69,
		  "time": 81.99991799999998,
		  "velocity": 0.7559055118110236,
		  "duration": 0.11111099999999396
		},
		{
		  "name": "E3",
		  "midi": 52,
		  "time": 82.11102899999997,
		  "velocity": 0.7559055118110236,
		  "duration": 0.11111099999999396
		},
		{
		  "name": "E4",
		  "midi": 64,
		  "time": 82.11102899999997,
		  "velocity": 0.7559055118110236,
		  "duration": 0.11111099999999396
		},
		{
		  "name": "B3",
		  "midi": 59,
		  "time": 82.22213999999997,
		  "velocity": 0.7559055118110236,
		  "duration": 0.22222200000000214
		},
		{
		  "name": "B4",
		  "midi": 71,
		  "time": 82.22213999999997,
		  "velocity": 0.7559055118110236,
		  "duration": 0.22222200000000214
		},
		{
		  "name": "A3",
		  "midi": 57,
		  "time": 82.44436199999997,
		  "velocity": 0.7559055118110236,
		  "duration": 0.11111099999999396
		},
		{
		  "name": "A4",
		  "midi": 69,
		  "time": 82.44436199999997,
		  "velocity": 0.7559055118110236,
		  "duration": 0.11111099999999396
		},
		{
		  "name": "F#3",
		  "midi": 54,
		  "time": 82.55547299999996,
		  "velocity": 0.7559055118110236,
		  "duration": 0.11111099999999396
		},
		{
		  "name": "F#4",
		  "midi": 66,
		  "time": 82.55547299999996,
		  "velocity": 0.7559055118110236,
		  "duration": 0.11111099999999396
		},
		{
		  "name": "F#3",
		  "midi": 54,
		  "time": 82.66658399999996,
		  "velocity": 0.7559055118110236,
		  "duration": 0.11111099999999396
		},
		{
		  "name": "F#4",
		  "midi": 66,
		  "time": 82.66658399999996,
		  "velocity": 0.7559055118110236,
		  "duration": 0.11111099999999396
		},
		{
		  "name": "E3",
		  "midi": 52,
		  "time": 82.77769499999995,
		  "velocity": 0.7559055118110236,
		  "duration": 0.11111099999999396
		},
		{
		  "name": "E4",
		  "midi": 64,
		  "time": 82.77769499999995,
		  "velocity": 0.7559055118110236,
		  "duration": 0.11111099999999396
		},
		{
		  "name": "F#3",
		  "midi": 54,
		  "time": 82.99991699999994,
		  "velocity": 0.7559055118110236,
		  "duration": 0.3333329999999961
		},
		{
		  "name": "F#4",
		  "midi": 66,
		  "time": 82.99991699999994,
		  "velocity": 0.7559055118110236,
		  "duration": 0.3333329999999961
		},
		{
		  "name": "F#3",
		  "midi": 54,
		  "time": 83.33324999999994,
		  "velocity": 0.7559055118110236,
		  "duration": 0.11111099999999396
		},
		{
		  "name": "F#4",
		  "midi": 66,
		  "time": 83.33324999999994,
		  "velocity": 0.7559055118110236,
		  "duration": 0.11111099999999396
		},
		{
		  "name": "A3",
		  "midi": 57,
		  "time": 83.44436099999993,
		  "velocity": 0.7559055118110236,
		  "duration": 0.11111099999999396
		},
		{
		  "name": "A4",
		  "midi": 69,
		  "time": 83.44436099999993,
		  "velocity": 0.7559055118110236,
		  "duration": 0.11111099999999396
		},
		{
		  "name": "C4",
		  "midi": 60,
		  "time": 83.55547199999992,
		  "velocity": 0.7559055118110236,
		  "duration": 0.4444440000000043
		},
		{
		  "name": "C5",
		  "midi": 72,
		  "time": 83.55547199999992,
		  "velocity": 0.7559055118110236,
		  "duration": 0.4444440000000043
		},
		{
		  "name": "B3",
		  "midi": 59,
		  "time": 83.99991599999993,
		  "velocity": 0.7559055118110236,
		  "duration": 0.3333329999999961
		},
		{
		  "name": "B4",
		  "midi": 71,
		  "time": 83.99991599999993,
		  "velocity": 0.7559055118110236,
		  "duration": 0.3333329999999961
		},
		{
		  "name": "A3",
		  "midi": 57,
		  "time": 84.33324899999992,
		  "velocity": 0.7559055118110236,
		  "duration": 0.11111099999999396
		},
		{
		  "name": "A4",
		  "midi": 69,
		  "time": 84.33324899999992,
		  "velocity": 0.7559055118110236,
		  "duration": 0.11111099999999396
		},
		{
		  "name": "F#3",
		  "midi": 54,
		  "time": 84.55547099999991,
		  "velocity": 0.7559055118110236,
		  "duration": 0.3333329999999961
		},
		{
		  "name": "F#4",
		  "midi": 66,
		  "time": 84.55547099999991,
		  "velocity": 0.7559055118110236,
		  "duration": 0.3333329999999961
		},
		{
		  "name": "C#5",
		  "midi": 73,
		  "time": 84.88880399999991,
		  "velocity": 0.7559055118110236,
		  "duration": 0.11111099999999396
		},
		{
		  "name": "C#4",
		  "midi": 61,
		  "time": 84.88880399999991,
		  "velocity": 0.7559055118110236,
		  "duration": 0.11111099999999396
		},
		{
		  "name": "F#4",
		  "midi": 66,
		  "time": 84.9999149999999,
		  "velocity": 0.7559055118110236,
		  "duration": 0.11111099999999396
		},
		{
		  "name": "F#3",
		  "midi": 54,
		  "time": 84.9999149999999,
		  "velocity": 0.7559055118110236,
		  "duration": 0.11111099999999396
		},
		{
		  "name": "A3",
		  "midi": 57,
		  "time": 85.1110259999999,
		  "velocity": 0.7559055118110236,
		  "duration": 0.11111099999999396
		},
		{
		  "name": "A4",
		  "midi": 69,
		  "time": 85.1110259999999,
		  "velocity": 0.7559055118110236,
		  "duration": 0.11111099999999396
		},
		{
		  "name": "C#4",
		  "midi": 61,
		  "time": 85.22213699999989,
		  "velocity": 0.7559055118110236,
		  "duration": 0.11111099999999396
		},
		{
		  "name": "C#5",
		  "midi": 73,
		  "time": 85.22213699999989,
		  "velocity": 0.7559055118110236,
		  "duration": 0.11111099999999396
		},
		{
		  "name": "B3",
		  "midi": 59,
		  "time": 85.33324799999988,
		  "velocity": 0.7559055118110236,
		  "duration": 0.11111099999999396
		},
		{
		  "name": "B4",
		  "midi": 71,
		  "time": 85.33324799999988,
		  "velocity": 0.7559055118110236,
		  "duration": 0.11111099999999396
		},
		{
		  "name": "A3",
		  "midi": 57,
		  "time": 85.44435899999988,
		  "velocity": 0.7559055118110236,
		  "duration": 0.11111099999999396
		},
		{
		  "name": "A4",
		  "midi": 69,
		  "time": 85.44435899999988,
		  "velocity": 0.7559055118110236,
		  "duration": 0.11111099999999396
		},
		{
		  "name": "E3",
		  "midi": 52,
		  "time": 85.55546999999987,
		  "velocity": 0.7559055118110236,
		  "duration": 0.11111099999999396
		},
		{
		  "name": "E4",
		  "midi": 64,
		  "time": 85.55546999999987,
		  "velocity": 0.7559055118110236,
		  "duration": 0.11111099999999396
		},
		{
		  "name": "E3",
		  "midi": 52,
		  "time": 85.77769199999986,
		  "velocity": 0.7559055118110236,
		  "duration": 0.11111099999999396
		},
		{
		  "name": "E4",
		  "midi": 64,
		  "time": 85.77769199999986,
		  "velocity": 0.7559055118110236,
		  "duration": 0.11111099999999396
		},
		{
		  "name": "E3",
		  "midi": 52,
		  "time": 85.99991399999985,
		  "velocity": 0.7559055118110236,
		  "duration": 0.11111099999999396
		},
		{
		  "name": "E4",
		  "midi": 64,
		  "time": 85.99991399999985,
		  "velocity": 0.7559055118110236,
		  "duration": 0.11111099999999396
		},
		{
		  "name": "C#3",
		  "midi": 49,
		  "time": 86.11102499999984,
		  "velocity": 0.7559055118110236,
		  "duration": 0.11111099999999396
		},
		{
		  "name": "C#4",
		  "midi": 61,
		  "time": 86.11102499999984,
		  "velocity": 0.7559055118110236,
		  "duration": 0.11111099999999396
		},
		{
		  "name": "E3",
		  "midi": 52,
		  "time": 86.22213599999984,
		  "velocity": 0.7559055118110236,
		  "duration": 0.11111099999999396
		},
		{
		  "name": "E4",
		  "midi": 64,
		  "time": 86.22213599999984,
		  "velocity": 0.7559055118110236,
		  "duration": 0.11111099999999396
		},
		{
		  "name": "C#3",
		  "midi": 49,
		  "time": 86.33324699999983,
		  "velocity": 0.7559055118110236,
		  "duration": 0.11111099999999396
		},
		{
		  "name": "C#4",
		  "midi": 61,
		  "time": 86.33324699999983,
		  "velocity": 0.7559055118110236,
		  "duration": 0.11111099999999396
		},
		{
		  "name": "F#3",
		  "midi": 54,
		  "time": 86.55546899999982,
		  "velocity": 0.7559055118110236,
		  "duration": 0.4444440000000043
		},
		{
		  "name": "F#4",
		  "midi": 66,
		  "time": 86.55546899999982,
		  "velocity": 0.7559055118110236,
		  "duration": 0.4444440000000043
		},
		{
		  "name": "C#5",
		  "midi": 73,
		  "time": 108.44433599999982,
		  "velocity": 0.5984251968503937,
		  "duration": 0.22222200000000214
		},
		{
		  "name": "C#4",
		  "midi": 61,
		  "time": 108.44433599999982,
		  "velocity": 0.5984251968503937,
		  "duration": 0.22222200000000214
		},
		{
		  "name": "F#4",
		  "midi": 66,
		  "time": 108.44433599999982,
		  "velocity": 0.5984251968503937,
		  "duration": 0.22222200000000214
		},
		{
		  "name": "E3",
		  "midi": 52,
		  "time": 108.88877999999983,
		  "velocity": 0.5984251968503937,
		  "duration": 0.22222200000000214
		},
		{
		  "name": "B4",
		  "midi": 71,
		  "time": 108.88877999999983,
		  "velocity": 0.5984251968503937,
		  "duration": 0.22222200000000214
		},
		{
		  "name": "E4",
		  "midi": 64,
		  "time": 108.88877999999983,
		  "velocity": 0.5984251968503937,
		  "duration": 0.22222200000000214
		},
		{
		  "name": "A#4",
		  "midi": 70,
		  "time": 109.33322399999983,
		  "velocity": 0.5984251968503937,
		  "duration": 0.22222200000000214
		},
		{
		  "name": "D#4",
		  "midi": 63,
		  "time": 109.33322399999983,
		  "velocity": 0.5984251968503937,
		  "duration": 0.22222200000000214
		},
		{
		  "name": "D#3",
		  "midi": 51,
		  "time": 109.33322399999983,
		  "velocity": 0.5984251968503937,
		  "duration": 0.22222200000000214
		},
		{
		  "name": "C#5",
		  "midi": 73,
		  "time": 109.66655699999983,
		  "velocity": 0.5984251968503937,
		  "duration": 0.22222200000000214
		},
		{
		  "name": "C#4",
		  "midi": 61,
		  "time": 109.66655699999983,
		  "velocity": 0.5984251968503937,
		  "duration": 0.22222200000000214
		},
		{
		  "name": "C#3",
		  "midi": 49,
		  "time": 109.66655699999983,
		  "velocity": 0.5984251968503937,
		  "duration": 0.22222200000000214
		},
		{
		  "name": "C#5",
		  "midi": 73,
		  "time": 109.99988999999982,
		  "velocity": 0.5984251968503937,
		  "duration": 0.22222200000000214
		},
		{
		  "name": "F#4",
		  "midi": 66,
		  "time": 109.99988999999982,
		  "velocity": 0.5984251968503937,
		  "duration": 0.22222200000000214
		},
		{
		  "name": "F#3",
		  "midi": 54,
		  "time": 109.99988999999982,
		  "velocity": 0.5984251968503937,
		  "duration": 0.22222200000000214
		},
		{
		  "name": "E3",
		  "midi": 52,
		  "time": 110.66655599999983,
		  "velocity": 0.5984251968503937,
		  "duration": 0.22222200000000214
		},
		{
		  "name": "B4",
		  "midi": 71,
		  "time": 110.66655599999983,
		  "velocity": 0.5984251968503937,
		  "duration": 0.22222200000000214
		},
		{
		  "name": "E4",
		  "midi": 64,
		  "time": 110.66655599999983,
		  "velocity": 0.5984251968503937,
		  "duration": 0.22222200000000214
		},
		{
		  "name": "A#4",
		  "midi": 70,
		  "time": 111.11099999999983,
		  "velocity": 0.5984251968503937,
		  "duration": 0.22222200000000214
		},
		{
		  "name": "D#4",
		  "midi": 63,
		  "time": 111.11099999999983,
		  "velocity": 0.5984251968503937,
		  "duration": 0.22222200000000214
		},
		{
		  "name": "D#3",
		  "midi": 51,
		  "time": 111.11099999999983,
		  "velocity": 0.5984251968503937,
		  "duration": 0.22222200000000214
		},
		{
		  "name": "C#5",
		  "midi": 73,
		  "time": 111.44433299999983,
		  "velocity": 0.5984251968503937,
		  "duration": 0.22222200000000214
		},
		{
		  "name": "C#4",
		  "midi": 61,
		  "time": 111.44433299999983,
		  "velocity": 0.5984251968503937,
		  "duration": 0.22222200000000214
		},
		{
		  "name": "C#3",
		  "midi": 49,
		  "time": 111.44433299999983,
		  "velocity": 0.5984251968503937,
		  "duration": 0.22222200000000214
		},
		{
		  "name": "C#5",
		  "midi": 73,
		  "time": 111.77766599999983,
		  "velocity": 0.5984251968503937,
		  "duration": 0.22222200000000214
		},
		{
		  "name": "F#4",
		  "midi": 66,
		  "time": 111.77766599999983,
		  "velocity": 0.5984251968503937,
		  "duration": 0.22222200000000214
		},
		{
		  "name": "F#3",
		  "midi": 54,
		  "time": 111.77766599999983,
		  "velocity": 0.5984251968503937,
		  "duration": 0.22222200000000214
		},
		{
		  "name": "F#4",
		  "midi": 66,
		  "time": 131.1109799999998,
		  "velocity": 0.8188976377952756,
		  "duration": 0.11111099999999396
		},
		{
		  "name": "F#3",
		  "midi": 54,
		  "time": 131.1109799999998,
		  "velocity": 0.8188976377952756,
		  "duration": 0.11111099999999396
		},
		{
		  "name": "A3",
		  "midi": 57,
		  "time": 131.2220909999998,
		  "velocity": 0.8188976377952756,
		  "duration": 0.11111099999999396
		},
		{
		  "name": "A4",
		  "midi": 69,
		  "time": 131.2220909999998,
		  "velocity": 0.8188976377952756,
		  "duration": 0.11111099999999396
		},
		{
		  "name": "B3",
		  "midi": 59,
		  "time": 131.3332019999998,
		  "velocity": 0.8188976377952756,
		  "duration": 0.22222199999998793
		},
		{
		  "name": "B4",
		  "midi": 71,
		  "time": 131.3332019999998,
		  "velocity": 0.8188976377952756,
		  "duration": 0.22222199999998793
		},
		{
		  "name": "C5",
		  "midi": 72,
		  "time": 131.5554239999998,
		  "velocity": 0.8188976377952756,
		  "duration": 0.4444440000000043
		},
		{
		  "name": "B4",
		  "midi": 71,
		  "time": 131.9998679999998,
		  "velocity": 0.8188976377952756,
		  "duration": 0.11111099999999396
		},
		{
		  "name": "A4",
		  "midi": 69,
		  "time": 132.1109789999998,
		  "velocity": 0.8188976377952756,
		  "duration": 0.11111099999999396
		},
		{
		  "name": "F#4",
		  "midi": 66,
		  "time": 132.33320099999978,
		  "velocity": 0.8188976377952756,
		  "duration": 0.3333330000000103
		},
		{
		  "name": "F#4",
		  "midi": 66,
		  "time": 132.88875599999977,
		  "velocity": 0.8188976377952756,
		  "duration": 0.11111099999999396
		},
		{
		  "name": "A4",
		  "midi": 69,
		  "time": 132.99986699999977,
		  "velocity": 0.8188976377952756,
		  "duration": 0.11111099999999396
		},
		{
		  "name": "C5",
		  "midi": 72,
		  "time": 133.11097799999976,
		  "velocity": 0.8188976377952756,
		  "duration": 0.22222199999998793
		},
		{
		  "name": "B4",
		  "midi": 71,
		  "time": 133.33319999999975,
		  "velocity": 0.8188976377952756,
		  "duration": 0.11111099999999396
		},
		{
		  "name": "B4",
		  "midi": 71,
		  "time": 133.55542199999974,
		  "velocity": 0.8188976377952756,
		  "duration": 0.11111099999999396
		},
		{
		  "name": "B4",
		  "midi": 71,
		  "time": 133.77764399999973,
		  "velocity": 0.8188976377952756,
		  "duration": 0.11111099999999396
		},
		{
		  "name": "A4",
		  "midi": 69,
		  "time": 133.88875499999972,
		  "velocity": 0.8188976377952756,
		  "duration": 0.11111099999999396
		},
		{
		  "name": "E4",
		  "midi": 64,
		  "time": 133.9998659999997,
		  "velocity": 0.8188976377952756,
		  "duration": 0.11111099999999396
		},
		{
		  "name": "F#4",
		  "midi": 66,
		  "time": 134.1109769999997,
		  "velocity": 0.8188976377952756,
		  "duration": 0.3333330000000103
		},
		{
		  "name": "F#4",
		  "midi": 66,
		  "time": 134.6665319999997,
		  "velocity": 0.8188976377952756,
		  "duration": 0.11111099999999396
		},
		{
		  "name": "A4",
		  "midi": 69,
		  "time": 134.7776429999997,
		  "velocity": 0.8188976377952756,
		  "duration": 0.11111099999999396
		},
		{
		  "name": "B4",
		  "midi": 71,
		  "time": 134.8887539999997,
		  "velocity": 0.8188976377952756,
		  "duration": 0.22222199999998793
		},
		{
		  "name": "F5",
		  "midi": 77,
		  "time": 135.11097599999968,
		  "velocity": 0.8188976377952756,
		  "duration": 0.4444440000000043
		},
		{
		  "name": "B4",
		  "midi": 71,
		  "time": 135.55541999999969,
		  "velocity": 0.8188976377952756,
		  "duration": 0.11111099999999396
		},
		{
		  "name": "A4",
		  "midi": 69,
		  "time": 135.66653099999968,
		  "velocity": 0.8188976377952756,
		  "duration": 0.11111099999999396
		},
		{
		  "name": "F#4",
		  "midi": 66,
		  "time": 135.88875299999967,
		  "velocity": 0.8188976377952756,
		  "duration": 0.3333330000000103
		},
		{
		  "name": "F#4",
		  "midi": 66,
		  "time": 136.44430799999967,
		  "velocity": 0.8188976377952756,
		  "duration": 0.11111099999999396
		},
		{
		  "name": "A4",
		  "midi": 69,
		  "time": 136.55541899999966,
		  "velocity": 0.8188976377952756,
		  "duration": 0.11111099999999396
		},
		{
		  "name": "C5",
		  "midi": 72,
		  "time": 136.66652999999965,
		  "velocity": 0.8188976377952756,
		  "duration": 0.22222199999998793
		},
		{
		  "name": "E4",
		  "midi": 64,
		  "time": 136.88875199999964,
		  "velocity": 0.7559055118110236,
		  "duration": 0.11111099999999396
		},
		{
		  "name": "E4",
		  "midi": 64,
		  "time": 137.11097399999963,
		  "velocity": 0.7559055118110236,
		  "duration": 0.11111099999999396
		},
		{
		  "name": "E4",
		  "midi": 64,
		  "time": 137.33319599999962,
		  "velocity": 0.7559055118110236,
		  "duration": 0.11111099999999396
		},
		{
		  "name": "C#4",
		  "midi": 61,
		  "time": 137.4443069999996,
		  "velocity": 0.7559055118110236,
		  "duration": 0.11111099999999396
		},
		{
		  "name": "E4",
		  "midi": 64,
		  "time": 137.5554179999996,
		  "velocity": 0.7559055118110236,
		  "duration": 0.11111099999999396
		},
		{
		  "name": "F#4",
		  "midi": 66,
		  "time": 137.6665289999996,
		  "velocity": 0.7559055118110236,
		  "duration": 0.3333330000000103
		},
		{
		  "name": "F#4",
		  "midi": 66,
		  "time": 138.2220839999996,
		  "velocity": 0.7559055118110236,
		  "duration": 0.11111099999999396
		},
		{
		  "name": "A4",
		  "midi": 69,
		  "time": 138.3331949999996,
		  "velocity": 0.7559055118110236,
		  "duration": 0.11111099999999396
		},
		{
		  "name": "B4",
		  "midi": 71,
		  "time": 138.44430599999959,
		  "velocity": 0.7559055118110236,
		  "duration": 0.22222199999998793
		},
		{
		  "name": "C4",
		  "midi": 60,
		  "time": 138.66652799999957,
		  "velocity": 0.7559055118110236,
		  "duration": 0.4444440000000043
		},
		{
		  "name": "C5",
		  "midi": 72,
		  "time": 138.66652799999957,
		  "velocity": 0.7559055118110236,
		  "duration": 0.4444440000000043
		},
		{
		  "name": "B3",
		  "midi": 59,
		  "time": 139.11097199999958,
		  "velocity": 0.7559055118110236,
		  "duration": 0.3333330000000103
		},
		{
		  "name": "B4",
		  "midi": 71,
		  "time": 139.11097199999958,
		  "velocity": 0.7559055118110236,
		  "duration": 0.3333330000000103
		},
		{
		  "name": "A3",
		  "midi": 57,
		  "time": 139.4443049999996,
		  "velocity": 0.7559055118110236,
		  "duration": 0.11111099999999396
		},
		{
		  "name": "A4",
		  "midi": 69,
		  "time": 139.4443049999996,
		  "velocity": 0.7559055118110236,
		  "duration": 0.11111099999999396
		},
		{
		  "name": "F#3",
		  "midi": 54,
		  "time": 139.66652699999958,
		  "velocity": 0.7559055118110236,
		  "duration": 0.3333330000000103
		},
		{
		  "name": "F#4",
		  "midi": 66,
		  "time": 139.66652699999958,
		  "velocity": 0.7559055118110236,
		  "duration": 0.3333330000000103
		},
		{
		  "name": "C#5",
		  "midi": 73,
		  "time": 140.11097099999958,
		  "velocity": 0.7559055118110236,
		  "duration": 0.11111099999999396
		},
		{
		  "name": "C#4",
		  "midi": 61,
		  "time": 140.11097099999958,
		  "velocity": 0.7559055118110236,
		  "duration": 0.11111099999999396
		},
		{
		  "name": "F#3",
		  "midi": 54,
		  "time": 140.22208199999957,
		  "velocity": 0.7559055118110236,
		  "duration": 0.11111099999999396
		},
		{
		  "name": "F#4",
		  "midi": 66,
		  "time": 140.22208199999957,
		  "velocity": 0.7559055118110236,
		  "duration": 0.11111099999999396
		},
		{
		  "name": "A3",
		  "midi": 57,
		  "time": 140.33319299999957,
		  "velocity": 0.7559055118110236,
		  "duration": 0.11111099999999396
		},
		{
		  "name": "A4",
		  "midi": 69,
		  "time": 140.33319299999957,
		  "velocity": 0.7559055118110236,
		  "duration": 0.11111099999999396
		},
		{
		  "name": "C4",
		  "midi": 60,
		  "time": 140.44430399999956,
		  "velocity": 0.7559055118110236,
		  "duration": 0.11111099999999396
		},
		{
		  "name": "C5",
		  "midi": 72,
		  "time": 140.44430399999956,
		  "velocity": 0.7559055118110236,
		  "duration": 0.11111099999999396
		},
		{
		  "name": "B3",
		  "midi": 59,
		  "time": 140.55541499999956,
		  "velocity": 0.7559055118110236,
		  "duration": 0.11111099999999396
		},
		{
		  "name": "B4",
		  "midi": 71,
		  "time": 140.55541499999956,
		  "velocity": 0.7559055118110236,
		  "duration": 0.11111099999999396
		},
		{
		  "name": "A3",
		  "midi": 57,
		  "time": 140.66652599999955,
		  "velocity": 0.7559055118110236,
		  "duration": 0.11111099999999396
		},
		{
		  "name": "A4",
		  "midi": 69,
		  "time": 140.66652599999955,
		  "velocity": 0.7559055118110236,
		  "duration": 0.11111099999999396
		},
		{
		  "name": "E3",
		  "midi": 52,
		  "time": 140.77763699999954,
		  "velocity": 0.7559055118110236,
		  "duration": 0.11111099999999396
		},
		{
		  "name": "E4",
		  "midi": 64,
		  "time": 140.77763699999954,
		  "velocity": 0.7559055118110236,
		  "duration": 0.11111099999999396
		},
		{
		  "name": "B3",
		  "midi": 59,
		  "time": 140.88874799999954,
		  "velocity": 0.7559055118110236,
		  "duration": 0.22222199999998793
		},
		{
		  "name": "B4",
		  "midi": 71,
		  "time": 140.88874799999954,
		  "velocity": 0.7559055118110236,
		  "duration": 0.22222199999998793
		},
		{
		  "name": "A3",
		  "midi": 57,
		  "time": 141.11096999999953,
		  "velocity": 0.7559055118110236,
		  "duration": 0.11111099999999396
		},
		{
		  "name": "A4",
		  "midi": 69,
		  "time": 141.11096999999953,
		  "velocity": 0.7559055118110236,
		  "duration": 0.11111099999999396
		},
		{
		  "name": "F#3",
		  "midi": 54,
		  "time": 141.22208099999952,
		  "velocity": 0.7559055118110236,
		  "duration": 0.11111099999999396
		},
		{
		  "name": "F#4",
		  "midi": 66,
		  "time": 141.22208099999952,
		  "velocity": 0.7559055118110236,
		  "duration": 0.11111099999999396
		},
		{
		  "name": "F#3",
		  "midi": 54,
		  "time": 141.3331919999995,
		  "velocity": 0.7559055118110236,
		  "duration": 0.11111099999999396
		},
		{
		  "name": "F#4",
		  "midi": 66,
		  "time": 141.3331919999995,
		  "velocity": 0.7559055118110236,
		  "duration": 0.11111099999999396
		},
		{
		  "name": "E3",
		  "midi": 52,
		  "time": 141.4443029999995,
		  "velocity": 0.7559055118110236,
		  "duration": 0.11111099999999396
		},
		{
		  "name": "E4",
		  "midi": 64,
		  "time": 141.4443029999995,
		  "velocity": 0.7559055118110236,
		  "duration": 0.11111099999999396
		},
		{
		  "name": "F#3",
		  "midi": 54,
		  "time": 141.6665249999995,
		  "velocity": 0.7559055118110236,
		  "duration": 0.3333330000000103
		},
		{
		  "name": "F#4",
		  "midi": 66,
		  "time": 141.6665249999995,
		  "velocity": 0.7559055118110236,
		  "duration": 0.3333330000000103
		},
		{
		  "name": "F#3",
		  "midi": 54,
		  "time": 141.9998579999995,
		  "velocity": 0.7559055118110236,
		  "duration": 0.11111099999999396
		},
		{
		  "name": "F#4",
		  "midi": 66,
		  "time": 141.9998579999995,
		  "velocity": 0.7559055118110236,
		  "duration": 0.11111099999999396
		},
		{
		  "name": "A3",
		  "midi": 57,
		  "time": 142.1109689999995,
		  "velocity": 0.7559055118110236,
		  "duration": 0.11111099999999396
		},
		{
		  "name": "A4",
		  "midi": 69,
		  "time": 142.1109689999995,
		  "velocity": 0.7559055118110236,
		  "duration": 0.11111099999999396
		},
		{
		  "name": "C4",
		  "midi": 60,
		  "time": 142.2220799999995,
		  "velocity": 0.7559055118110236,
		  "duration": 0.4444440000000043
		},
		{
		  "name": "C5",
		  "midi": 72,
		  "time": 142.2220799999995,
		  "velocity": 0.7559055118110236,
		  "duration": 0.4444440000000043
		},
		{
		  "name": "B3",
		  "midi": 59,
		  "time": 142.6665239999995,
		  "velocity": 0.7559055118110236,
		  "duration": 0.3333330000000103
		},
		{
		  "name": "B4",
		  "midi": 71,
		  "time": 142.6665239999995,
		  "velocity": 0.7559055118110236,
		  "duration": 0.3333330000000103
		},
		{
		  "name": "A3",
		  "midi": 57,
		  "time": 142.9998569999995,
		  "velocity": 0.7559055118110236,
		  "duration": 0.11111099999999396
		},
		{
		  "name": "A4",
		  "midi": 69,
		  "time": 142.9998569999995,
		  "velocity": 0.7559055118110236,
		  "duration": 0.11111099999999396
		},
		{
		  "name": "F#3",
		  "midi": 54,
		  "time": 143.2220789999995,
		  "velocity": 0.7559055118110236,
		  "duration": 0.3333330000000103
		},
		{
		  "name": "F#4",
		  "midi": 66,
		  "time": 143.2220789999995,
		  "velocity": 0.7559055118110236,
		  "duration": 0.3333330000000103
		},
		{
		  "name": "C#5",
		  "midi": 73,
		  "time": 143.5554119999995,
		  "velocity": 0.7559055118110236,
		  "duration": 0.11111099999999396
		},
		{
		  "name": "C#4",
		  "midi": 61,
		  "time": 143.5554119999995,
		  "velocity": 0.7559055118110236,
		  "duration": 0.11111099999999396
		},
		{
		  "name": "F#4",
		  "midi": 66,
		  "time": 143.6665229999995,
		  "velocity": 0.7559055118110236,
		  "duration": 0.11111099999999396
		},
		{
		  "name": "F#3",
		  "midi": 54,
		  "time": 143.6665229999995,
		  "velocity": 0.7559055118110236,
		  "duration": 0.11111099999999396
		},
		{
		  "name": "A3",
		  "midi": 57,
		  "time": 143.7776339999995,
		  "velocity": 0.7559055118110236,
		  "duration": 0.11111099999999396
		},
		{
		  "name": "A4",
		  "midi": 69,
		  "time": 143.7776339999995,
		  "velocity": 0.7559055118110236,
		  "duration": 0.11111099999999396
		},
		{
		  "name": "C#4",
		  "midi": 61,
		  "time": 143.8887449999995,
		  "velocity": 0.7559055118110236,
		  "duration": 0.11111099999999396
		},
		{
		  "name": "C#5",
		  "midi": 73,
		  "time": 143.8887449999995,
		  "velocity": 0.7559055118110236,
		  "duration": 0.11111099999999396
		},
		{
		  "name": "B3",
		  "midi": 59,
		  "time": 143.99985599999948,
		  "velocity": 0.7559055118110236,
		  "duration": 0.11111099999999396
		},
		{
		  "name": "B4",
		  "midi": 71,
		  "time": 143.99985599999948,
		  "velocity": 0.7559055118110236,
		  "duration": 0.11111099999999396
		},
		{
		  "name": "A3",
		  "midi": 57,
		  "time": 144.11096699999948,
		  "velocity": 0.7559055118110236,
		  "duration": 0.11111099999999396
		},
		{
		  "name": "A4",
		  "midi": 69,
		  "time": 144.11096699999948,
		  "velocity": 0.7559055118110236,
		  "duration": 0.11111099999999396
		},
		{
		  "name": "E3",
		  "midi": 52,
		  "time": 144.22207799999947,
		  "velocity": 0.7559055118110236,
		  "duration": 0.11111099999999396
		},
		{
		  "name": "E4",
		  "midi": 64,
		  "time": 144.22207799999947,
		  "velocity": 0.7559055118110236,
		  "duration": 0.11111099999999396
		},
		{
		  "name": "E3",
		  "midi": 52,
		  "time": 144.44429999999946,
		  "velocity": 0.7559055118110236,
		  "duration": 0.11111099999999396
		},
		{
		  "name": "E4",
		  "midi": 64,
		  "time": 144.44429999999946,
		  "velocity": 0.7559055118110236,
		  "duration": 0.11111099999999396
		},
		{
		  "name": "E3",
		  "midi": 52,
		  "time": 144.66652199999945,
		  "velocity": 0.7559055118110236,
		  "duration": 0.11111099999999396
		},
		{
		  "name": "E4",
		  "midi": 64,
		  "time": 144.66652199999945,
		  "velocity": 0.7559055118110236,
		  "duration": 0.11111099999999396
		},
		{
		  "name": "C#3",
		  "midi": 49,
		  "time": 144.77763299999944,
		  "velocity": 0.7559055118110236,
		  "duration": 0.11111099999999396
		},
		{
		  "name": "C#4",
		  "midi": 61,
		  "time": 144.77763299999944,
		  "velocity": 0.7559055118110236,
		  "duration": 0.11111099999999396
		},
		{
		  "name": "E3",
		  "midi": 52,
		  "time": 144.88874399999943,
		  "velocity": 0.7559055118110236,
		  "duration": 0.11111099999999396
		},
		{
		  "name": "E4",
		  "midi": 64,
		  "time": 144.88874399999943,
		  "velocity": 0.7559055118110236,
		  "duration": 0.11111099999999396
		},
		{
		  "name": "C#3",
		  "midi": 49,
		  "time": 144.99985499999943,
		  "velocity": 0.7559055118110236,
		  "duration": 0.11111099999999396
		},
		{
		  "name": "C#4",
		  "midi": 61,
		  "time": 144.99985499999943,
		  "velocity": 0.7559055118110236,
		  "duration": 0.11111099999999396
		},
		{
		  "name": "F#3",
		  "midi": 54,
		  "time": 145.22207699999942,
		  "velocity": 0.7559055118110236,
		  "duration": 0.4444440000000043
		},
		{
		  "name": "F#4",
		  "midi": 66,
		  "time": 145.22207699999942,
		  "velocity": 0.7559055118110236,
		  "duration": 0.4444440000000043
		},
		{
		  "name": "C#4",
		  "midi": 61,
		  "time": 174.22204799999943,
		  "velocity": 0.6299212598425197,
		  "duration": 0.22222199999998793
		},
		{
		  "name": "F#4",
		  "midi": 66,
		  "time": 174.22204799999943,
		  "velocity": 0.6299212598425197,
		  "duration": 0.22222199999998793
		},
		{
		  "name": "C#4",
		  "midi": 61,
		  "time": 174.55538099999941,
		  "velocity": 0.6299212598425197,
		  "duration": 0.11111099999999396
		},
		{
		  "name": "F#4",
		  "midi": 66,
		  "time": 174.55538099999941,
		  "velocity": 0.6299212598425197,
		  "duration": 0.11111099999999396
		},
		{
		  "name": "C#4",
		  "midi": 61,
		  "time": 174.7776029999994,
		  "velocity": 0.6299212598425197,
		  "duration": 0.22222199999998793
		},
		{
		  "name": "F#4",
		  "midi": 66,
		  "time": 174.7776029999994,
		  "velocity": 0.6299212598425197,
		  "duration": 0.22222199999998793
		},
		{
		  "name": "A4",
		  "midi": 69,
		  "time": 175.11093599999938,
		  "velocity": 0.6299212598425197,
		  "duration": 0.22222199999998793
		},
		{
		  "name": "E4",
		  "midi": 64,
		  "time": 175.11093599999938,
		  "velocity": 0.6299212598425197,
		  "duration": 0.22222199999998793
		},
		{
		  "name": "C#4",
		  "midi": 61,
		  "time": 175.33315799999937,
		  "velocity": 0.6299212598425197,
		  "duration": 0.11111099999999396
		},
		{
		  "name": "F#4",
		  "midi": 66,
		  "time": 175.33315799999937,
		  "velocity": 0.6299212598425197,
		  "duration": 0.11111099999999396
		},
		{
		  "name": "C#4",
		  "midi": 61,
		  "time": 175.55537999999936,
		  "velocity": 0.6299212598425197,
		  "duration": 0.22222199999998793
		},
		{
		  "name": "F#4",
		  "midi": 66,
		  "time": 175.55537999999936,
		  "velocity": 0.6299212598425197,
		  "duration": 0.22222199999998793
		},
		{
		  "name": "C#4",
		  "midi": 61,
		  "time": 175.99982399999934,
		  "velocity": 0.6299212598425197,
		  "duration": 0.22222199999998793
		},
		{
		  "name": "F#4",
		  "midi": 66,
		  "time": 175.99982399999934,
		  "velocity": 0.6299212598425197,
		  "duration": 0.22222199999998793
		},
		{
		  "name": "C#4",
		  "midi": 61,
		  "time": 176.33315699999932,
		  "velocity": 0.6299212598425197,
		  "duration": 0.11111099999999396
		},
		{
		  "name": "F#4",
		  "midi": 66,
		  "time": 176.33315699999932,
		  "velocity": 0.6299212598425197,
		  "duration": 0.11111099999999396
		},
		{
		  "name": "C#4",
		  "midi": 61,
		  "time": 176.5553789999993,
		  "velocity": 0.6299212598425197,
		  "duration": 0.22222199999998793
		},
		{
		  "name": "F#4",
		  "midi": 66,
		  "time": 176.5553789999993,
		  "velocity": 0.6299212598425197,
		  "duration": 0.22222199999998793
		},
		{
		  "name": "A4",
		  "midi": 69,
		  "time": 176.8887119999993,
		  "velocity": 0.6299212598425197,
		  "duration": 0.22222199999998793
		},
		{
		  "name": "E4",
		  "midi": 64,
		  "time": 176.8887119999993,
		  "velocity": 0.6299212598425197,
		  "duration": 0.22222199999998793
		},
		{
		  "name": "C#4",
		  "midi": 61,
		  "time": 177.11093399999928,
		  "velocity": 0.6299212598425197,
		  "duration": 0.11111099999999396
		},
		{
		  "name": "F#4",
		  "midi": 66,
		  "time": 177.11093399999928,
		  "velocity": 0.6299212598425197,
		  "duration": 0.11111099999999396
		},
		{
		  "name": "C#4",
		  "midi": 61,
		  "time": 177.33315599999926,
		  "velocity": 0.6299212598425197,
		  "duration": 0.22222199999998793
		},
		{
		  "name": "F#4",
		  "midi": 66,
		  "time": 177.33315599999926,
		  "velocity": 0.6299212598425197,
		  "duration": 0.22222199999998793
		},
		{
		  "name": "C#4",
		  "midi": 61,
		  "time": 177.77759999999924,
		  "velocity": 0.6299212598425197,
		  "duration": 0.22222199999998793
		},
		{
		  "name": "F#4",
		  "midi": 66,
		  "time": 177.77759999999924,
		  "velocity": 0.6299212598425197,
		  "duration": 0.22222199999998793
		},
		{
		  "name": "C#4",
		  "midi": 61,
		  "time": 178.11093299999922,
		  "velocity": 0.6299212598425197,
		  "duration": 0.11111099999999396
		},
		{
		  "name": "F#4",
		  "midi": 66,
		  "time": 178.11093299999922,
		  "velocity": 0.6299212598425197,
		  "duration": 0.11111099999999396
		},
		{
		  "name": "C#4",
		  "midi": 61,
		  "time": 178.3331549999992,
		  "velocity": 0.6299212598425197,
		  "duration": 0.22222199999998793
		},
		{
		  "name": "F#4",
		  "midi": 66,
		  "time": 178.3331549999992,
		  "velocity": 0.6299212598425197,
		  "duration": 0.22222199999998793
		},
		{
		  "name": "A4",
		  "midi": 69,
		  "time": 178.6664879999992,
		  "velocity": 0.6299212598425197,
		  "duration": 0.22222199999998793
		},
		{
		  "name": "E4",
		  "midi": 64,
		  "time": 178.6664879999992,
		  "velocity": 0.6299212598425197,
		  "duration": 0.22222199999998793
		},
		{
		  "name": "C#4",
		  "midi": 61,
		  "time": 178.88870999999918,
		  "velocity": 0.6299212598425197,
		  "duration": 0.11111099999999396
		},
		{
		  "name": "F#4",
		  "midi": 66,
		  "time": 178.88870999999918,
		  "velocity": 0.6299212598425197,
		  "duration": 0.11111099999999396
		},
		{
		  "name": "C#4",
		  "midi": 61,
		  "time": 179.11093199999917,
		  "velocity": 0.6299212598425197,
		  "duration": 0.22222199999998793
		},
		{
		  "name": "F#4",
		  "midi": 66,
		  "time": 179.11093199999917,
		  "velocity": 0.6299212598425197,
		  "duration": 0.22222199999998793
		},
		{
		  "name": "C#4",
		  "midi": 61,
		  "time": 179.55537599999914,
		  "velocity": 0.6299212598425197,
		  "duration": 0.22222199999998793
		},
		{
		  "name": "F#4",
		  "midi": 66,
		  "time": 179.55537599999914,
		  "velocity": 0.6299212598425197,
		  "duration": 0.22222199999998793
		},
		{
		  "name": "C#4",
		  "midi": 61,
		  "time": 179.88870899999912,
		  "velocity": 0.6299212598425197,
		  "duration": 0.11111099999999396
		},
		{
		  "name": "F#4",
		  "midi": 66,
		  "time": 179.88870899999912,
		  "velocity": 0.6299212598425197,
		  "duration": 0.11111099999999396
		},
		{
		  "name": "C#4",
		  "midi": 61,
		  "time": 180.1109309999991,
		  "velocity": 0.6299212598425197,
		  "duration": 0.22222199999998793
		},
		{
		  "name": "F#4",
		  "midi": 66,
		  "time": 180.1109309999991,
		  "velocity": 0.6299212598425197,
		  "duration": 0.22222199999998793
		},
		{
		  "name": "B4",
		  "midi": 71,
		  "time": 180.4442639999991,
		  "velocity": 0.6299212598425197,
		  "duration": 0.22222199999998793
		},
		{
		  "name": "F#4",
		  "midi": 66,
		  "time": 180.4442639999991,
		  "velocity": 0.6299212598425197,
		  "duration": 0.22222199999998793
		},
		{
		  "name": "G#4",
		  "midi": 68,
		  "time": 180.66648599999908,
		  "velocity": 0.6299212598425197,
		  "duration": 0.11111099999999396
		},
		{
		  "name": "C#5",
		  "midi": 73,
		  "time": 180.66648599999908,
		  "velocity": 0.6299212598425197,
		  "duration": 0.11111099999999396
		},
		{
		  "name": "C#4",
		  "midi": 61,
		  "time": 180.88870799999907,
		  "velocity": 0.6299212598425197,
		  "duration": 0.22222199999998793
		},
		{
		  "name": "F#4",
		  "midi": 66,
		  "time": 180.88870799999907,
		  "velocity": 0.6299212598425197,
		  "duration": 0.22222199999998793
		},
		{
		  "name": "E4",
		  "midi": 64,
		  "time": 181.11092999999906,
		  "velocity": 0.6299212598425197,
		  "duration": 0.11111099999999396
		},
		{
		  "name": "A4",
		  "midi": 69,
		  "time": 181.11092999999906,
		  "velocity": 0.6299212598425197,
		  "duration": 0.11111099999999396
		},
		{
		  "name": "C#4",
		  "midi": 61,
		  "time": 181.33315199999905,
		  "velocity": 0.6299212598425197,
		  "duration": 0.22222199999998793
		},
		{
		  "name": "F#4",
		  "midi": 66,
		  "time": 181.33315199999905,
		  "velocity": 0.6299212598425197,
		  "duration": 0.22222199999998793
		},
		{
		  "name": "C#4",
		  "midi": 61,
		  "time": 181.66648499999903,
		  "velocity": 0.6299212598425197,
		  "duration": 0.11111099999999396
		},
		{
		  "name": "F#4",
		  "midi": 66,
		  "time": 181.66648499999903,
		  "velocity": 0.6299212598425197,
		  "duration": 0.11111099999999396
		},
		{
		  "name": "C#4",
		  "midi": 61,
		  "time": 181.88870699999902,
		  "velocity": 0.6299212598425197,
		  "duration": 0.22222199999998793
		},
		{
		  "name": "F#4",
		  "midi": 66,
		  "time": 181.88870699999902,
		  "velocity": 0.6299212598425197,
		  "duration": 0.22222199999998793
		},
		{
		  "name": "A4",
		  "midi": 69,
		  "time": 182.222039999999,
		  "velocity": 0.6299212598425197,
		  "duration": 0.22222199999998793
		},
		{
		  "name": "E4",
		  "midi": 64,
		  "time": 182.222039999999,
		  "velocity": 0.6299212598425197,
		  "duration": 0.22222199999998793
		},
		{
		  "name": "C#4",
		  "midi": 61,
		  "time": 182.444261999999,
		  "velocity": 0.6299212598425197,
		  "duration": 0.11111099999999396
		},
		{
		  "name": "F#4",
		  "midi": 66,
		  "time": 182.444261999999,
		  "velocity": 0.6299212598425197,
		  "duration": 0.11111099999999396
		},
		{
		  "name": "C#4",
		  "midi": 61,
		  "time": 182.66648399999897,
		  "velocity": 0.6299212598425197,
		  "duration": 0.22222199999998793
		},
		{
		  "name": "F#4",
		  "midi": 66,
		  "time": 182.66648399999897,
		  "velocity": 0.6299212598425197,
		  "duration": 0.22222199999998793
		},
		{
		  "name": "C#4",
		  "midi": 61,
		  "time": 183.11092799999895,
		  "velocity": 0.6299212598425197,
		  "duration": 0.22222199999998793
		},
		{
		  "name": "F#4",
		  "midi": 66,
		  "time": 183.11092799999895,
		  "velocity": 0.6299212598425197,
		  "duration": 0.22222199999998793
		},
		{
		  "name": "C#4",
		  "midi": 61,
		  "time": 183.44426099999893,
		  "velocity": 0.6299212598425197,
		  "duration": 0.11111099999999396
		},
		{
		  "name": "F#4",
		  "midi": 66,
		  "time": 183.44426099999893,
		  "velocity": 0.6299212598425197,
		  "duration": 0.11111099999999396
		},
		{
		  "name": "C#4",
		  "midi": 61,
		  "time": 183.66648299999892,
		  "velocity": 0.6299212598425197,
		  "duration": 0.22222199999998793
		},
		{
		  "name": "F#4",
		  "midi": 66,
		  "time": 183.66648299999892,
		  "velocity": 0.6299212598425197,
		  "duration": 0.22222199999998793
		},
		{
		  "name": "A4",
		  "midi": 69,
		  "time": 183.9998159999989,
		  "velocity": 0.6299212598425197,
		  "duration": 0.22222199999998793
		},
		{
		  "name": "E4",
		  "midi": 64,
		  "time": 183.9998159999989,
		  "velocity": 0.6299212598425197,
		  "duration": 0.22222199999998793
		},
		{
		  "name": "C#4",
		  "midi": 61,
		  "time": 184.2220379999989,
		  "velocity": 0.6299212598425197,
		  "duration": 0.11111099999999396
		},
		{
		  "name": "F#4",
		  "midi": 66,
		  "time": 184.2220379999989,
		  "velocity": 0.6299212598425197,
		  "duration": 0.11111099999999396
		},
		{
		  "name": "C#4",
		  "midi": 61,
		  "time": 184.44425999999888,
		  "velocity": 0.6299212598425197,
		  "duration": 0.22222199999998793
		},
		{
		  "name": "F#4",
		  "midi": 66,
		  "time": 184.44425999999888,
		  "velocity": 0.6299212598425197,
		  "duration": 0.22222199999998793
		},
		{
		  "name": "C#4",
		  "midi": 61,
		  "time": 184.88870399999885,
		  "velocity": 0.6299212598425197,
		  "duration": 0.22222199999998793
		},
		{
		  "name": "F#4",
		  "midi": 66,
		  "time": 184.88870399999885,
		  "velocity": 0.6299212598425197,
		  "duration": 0.22222199999998793
		},
		{
		  "name": "C#4",
		  "midi": 61,
		  "time": 185.22203699999883,
		  "velocity": 0.6299212598425197,
		  "duration": 0.11111099999999396
		},
		{
		  "name": "F#4",
		  "midi": 66,
		  "time": 185.22203699999883,
		  "velocity": 0.6299212598425197,
		  "duration": 0.11111099999999396
		},
		{
		  "name": "C#4",
		  "midi": 61,
		  "time": 185.44425899999882,
		  "velocity": 0.6299212598425197,
		  "duration": 0.22222199999998793
		},
		{
		  "name": "F#4",
		  "midi": 66,
		  "time": 185.44425899999882,
		  "velocity": 0.6299212598425197,
		  "duration": 0.22222199999998793
		},
		{
		  "name": "A4",
		  "midi": 69,
		  "time": 185.7775919999988,
		  "velocity": 0.6299212598425197,
		  "duration": 0.22222199999998793
		},
		{
		  "name": "E4",
		  "midi": 64,
		  "time": 185.7775919999988,
		  "velocity": 0.6299212598425197,
		  "duration": 0.22222199999998793
		},
		{
		  "name": "C#4",
		  "midi": 61,
		  "time": 185.9998139999988,
		  "velocity": 0.6299212598425197,
		  "duration": 0.11111099999999396
		},
		{
		  "name": "F#4",
		  "midi": 66,
		  "time": 185.9998139999988,
		  "velocity": 0.6299212598425197,
		  "duration": 0.11111099999999396
		},
		{
		  "name": "C#4",
		  "midi": 61,
		  "time": 186.22203599999878,
		  "velocity": 0.6299212598425197,
		  "duration": 0.22222199999998793
		},
		{
		  "name": "F#4",
		  "midi": 66,
		  "time": 186.22203599999878,
		  "velocity": 0.6299212598425197,
		  "duration": 0.22222199999998793
		},
		{
		  "name": "C#4",
		  "midi": 61,
		  "time": 186.66647999999876,
		  "velocity": 0.6299212598425197,
		  "duration": 0.22222199999998793
		},
		{
		  "name": "F#4",
		  "midi": 66,
		  "time": 186.66647999999876,
		  "velocity": 0.6299212598425197,
		  "duration": 0.22222199999998793
		},
		{
		  "name": "C#4",
		  "midi": 61,
		  "time": 186.99981299999874,
		  "velocity": 0.6299212598425197,
		  "duration": 0.11111099999999396
		},
		{
		  "name": "F#4",
		  "midi": 66,
		  "time": 186.99981299999874,
		  "velocity": 0.6299212598425197,
		  "duration": 0.11111099999999396
		},
		{
		  "name": "C#4",
		  "midi": 61,
		  "time": 187.22203499999873,
		  "velocity": 0.6299212598425197,
		  "duration": 0.22222199999998793
		},
		{
		  "name": "F#4",
		  "midi": 66,
		  "time": 187.22203499999873,
		  "velocity": 0.6299212598425197,
		  "duration": 0.22222199999998793
		},
		{
		  "name": "B4",
		  "midi": 71,
		  "time": 187.5553679999987,
		  "velocity": 0.6299212598425197,
		  "duration": 0.22222199999998793
		},
		{
		  "name": "F#4",
		  "midi": 66,
		  "time": 187.5553679999987,
		  "velocity": 0.6299212598425197,
		  "duration": 0.22222199999998793
		},
		{
		  "name": "G#4",
		  "midi": 68,
		  "time": 187.7775899999987,
		  "velocity": 0.6299212598425197,
		  "duration": 0.11111099999999396
		},
		{
		  "name": "C#5",
		  "midi": 73,
		  "time": 187.7775899999987,
		  "velocity": 0.6299212598425197,
		  "duration": 0.11111099999999396
		},
		{
		  "name": "C#4",
		  "midi": 61,
		  "time": 187.99981199999868,
		  "velocity": 0.6299212598425197,
		  "duration": 0.22222199999998793
		},
		{
		  "name": "F#4",
		  "midi": 66,
		  "time": 187.99981199999868,
		  "velocity": 0.6299212598425197,
		  "duration": 0.22222199999998793
		},
		{
		  "name": "E4",
		  "midi": 64,
		  "time": 188.22203399999867,
		  "velocity": 0.6299212598425197,
		  "duration": 0.11111099999999396
		},
		{
		  "name": "A4",
		  "midi": 69,
		  "time": 188.22203399999867,
		  "velocity": 0.6299212598425197,
		  "duration": 0.11111099999999396
		},
		{
		  "name": "C#4",
		  "midi": 61,
		  "time": 188.44425599999866,
		  "velocity": 0.6299212598425197,
		  "duration": 0.22222199999998793
		},
		{
		  "name": "F#4",
		  "midi": 66,
		  "time": 188.44425599999866,
		  "velocity": 0.6299212598425197,
		  "duration": 0.22222199999998793
		},
		{
		  "name": "C#4",
		  "midi": 61,
		  "time": 188.77758899999864,
		  "velocity": 0.6299212598425197,
		  "duration": 0.11111099999999396
		},
		{
		  "name": "F#4",
		  "midi": 66,
		  "time": 188.77758899999864,
		  "velocity": 0.6299212598425197,
		  "duration": 0.11111099999999396
		},
		{
		  "name": "C#4",
		  "midi": 61,
		  "time": 188.99981099999863,
		  "velocity": 0.6299212598425197,
		  "duration": 0.22222199999998793
		},
		{
		  "name": "F#4",
		  "midi": 66,
		  "time": 188.99981099999863,
		  "velocity": 0.6299212598425197,
		  "duration": 0.22222199999998793
		},
		{
		  "name": "A4",
		  "midi": 69,
		  "time": 189.3331439999986,
		  "velocity": 0.6299212598425197,
		  "duration": 0.22222199999998793
		},
		{
		  "name": "E4",
		  "midi": 64,
		  "time": 189.3331439999986,
		  "velocity": 0.6299212598425197,
		  "duration": 0.22222199999998793
		},
		{
		  "name": "C#4",
		  "midi": 61,
		  "time": 189.5553659999986,
		  "velocity": 0.6299212598425197,
		  "duration": 0.11111099999999396
		},
		{
		  "name": "F#4",
		  "midi": 66,
		  "time": 189.5553659999986,
		  "velocity": 0.6299212598425197,
		  "duration": 0.11111099999999396
		},
		{
		  "name": "C#4",
		  "midi": 61,
		  "time": 189.7775879999986,
		  "velocity": 0.6299212598425197,
		  "duration": 0.22222199999998793
		},
		{
		  "name": "F#4",
		  "midi": 66,
		  "time": 189.7775879999986,
		  "velocity": 0.6299212598425197,
		  "duration": 0.22222199999998793
		},
		{
		  "name": "C#4",
		  "midi": 61,
		  "time": 190.22203199999856,
		  "velocity": 0.6299212598425197,
		  "duration": 0.22222199999998793
		},
		{
		  "name": "F#4",
		  "midi": 66,
		  "time": 190.22203199999856,
		  "velocity": 0.6299212598425197,
		  "duration": 0.22222199999998793
		},
		{
		  "name": "C#4",
		  "midi": 61,
		  "time": 190.55536499999855,
		  "velocity": 0.6299212598425197,
		  "duration": 0.11111099999999396
		},
		{
		  "name": "F#4",
		  "midi": 66,
		  "time": 190.55536499999855,
		  "velocity": 0.6299212598425197,
		  "duration": 0.11111099999999396
		},
		{
		  "name": "C#4",
		  "midi": 61,
		  "time": 190.77758699999853,
		  "velocity": 0.6299212598425197,
		  "duration": 0.22222199999998793
		},
		{
		  "name": "F#4",
		  "midi": 66,
		  "time": 190.77758699999853,
		  "velocity": 0.6299212598425197,
		  "duration": 0.22222199999998793
		},
		{
		  "name": "A4",
		  "midi": 69,
		  "time": 191.11091999999852,
		  "velocity": 0.6299212598425197,
		  "duration": 0.22222199999998793
		},
		{
		  "name": "E4",
		  "midi": 64,
		  "time": 191.11091999999852,
		  "velocity": 0.6299212598425197,
		  "duration": 0.22222199999998793
		},
		{
		  "name": "C#4",
		  "midi": 61,
		  "time": 191.3331419999985,
		  "velocity": 0.6299212598425197,
		  "duration": 0.11111099999999396
		},
		{
		  "name": "F#4",
		  "midi": 66,
		  "time": 191.3331419999985,
		  "velocity": 0.6299212598425197,
		  "duration": 0.11111099999999396
		},
		{
		  "name": "C#4",
		  "midi": 61,
		  "time": 191.5553639999985,
		  "velocity": 0.6299212598425197,
		  "duration": 0.22222199999998793
		},
		{
		  "name": "F#4",
		  "midi": 66,
		  "time": 191.5553639999985,
		  "velocity": 0.6299212598425197,
		  "duration": 0.22222199999998793
		},
		{
		  "name": "C#4",
		  "midi": 61,
		  "time": 191.99980799999847,
		  "velocity": 0.6299212598425197,
		  "duration": 0.22222199999998793
		},
		{
		  "name": "F#4",
		  "midi": 66,
		  "time": 191.99980799999847,
		  "velocity": 0.6299212598425197,
		  "duration": 0.22222199999998793
		},
		{
		  "name": "C#4",
		  "midi": 61,
		  "time": 192.33314099999845,
		  "velocity": 0.6299212598425197,
		  "duration": 0.11111099999999396
		},
		{
		  "name": "F#4",
		  "midi": 66,
		  "time": 192.33314099999845,
		  "velocity": 0.6299212598425197,
		  "duration": 0.11111099999999396
		},
		{
		  "name": "C#4",
		  "midi": 61,
		  "time": 192.55536299999844,
		  "velocity": 0.6299212598425197,
		  "duration": 0.22222199999998793
		},
		{
		  "name": "F#4",
		  "midi": 66,
		  "time": 192.55536299999844,
		  "velocity": 0.6299212598425197,
		  "duration": 0.22222199999998793
		},
		{
		  "name": "A4",
		  "midi": 69,
		  "time": 192.88869599999842,
		  "velocity": 0.6299212598425197,
		  "duration": 0.22222199999998793
		},
		{
		  "name": "E4",
		  "midi": 64,
		  "time": 192.88869599999842,
		  "velocity": 0.6299212598425197,
		  "duration": 0.22222199999998793
		},
		{
		  "name": "C#4",
		  "midi": 61,
		  "time": 193.1109179999984,
		  "velocity": 0.6299212598425197,
		  "duration": 0.11111099999999396
		},
		{
		  "name": "F#4",
		  "midi": 66,
		  "time": 193.1109179999984,
		  "velocity": 0.6299212598425197,
		  "duration": 0.11111099999999396
		},
		{
		  "name": "C#4",
		  "midi": 61,
		  "time": 193.3331399999984,
		  "velocity": 0.6299212598425197,
		  "duration": 0.22222199999998793
		},
		{
		  "name": "F#4",
		  "midi": 66,
		  "time": 193.3331399999984,
		  "velocity": 0.6299212598425197,
		  "duration": 0.22222199999998793
		},
		{
		  "name": "C#4",
		  "midi": 61,
		  "time": 193.77758399999837,
		  "velocity": 0.6299212598425197,
		  "duration": 0.22222199999998793
		},
		{
		  "name": "F#4",
		  "midi": 66,
		  "time": 193.77758399999837,
		  "velocity": 0.6299212598425197,
		  "duration": 0.22222199999998793
		},
		{
		  "name": "C#4",
		  "midi": 61,
		  "time": 194.11091699999835,
		  "velocity": 0.6299212598425197,
		  "duration": 0.11111099999999396
		},
		{
		  "name": "F#4",
		  "midi": 66,
		  "time": 194.11091699999835,
		  "velocity": 0.6299212598425197,
		  "duration": 0.11111099999999396
		},
		{
		  "name": "C#4",
		  "midi": 61,
		  "time": 194.33313899999834,
		  "velocity": 0.6299212598425197,
		  "duration": 0.22222199999998793
		},
		{
		  "name": "F#4",
		  "midi": 66,
		  "time": 194.33313899999834,
		  "velocity": 0.6299212598425197,
		  "duration": 0.22222199999998793
		},
		{
		  "name": "B4",
		  "midi": 71,
		  "time": 194.66647199999832,
		  "velocity": 0.6299212598425197,
		  "duration": 0.22222199999998793
		},
		{
		  "name": "F#4",
		  "midi": 66,
		  "time": 194.66647199999832,
		  "velocity": 0.6299212598425197,
		  "duration": 0.22222199999998793
		},
		{
		  "name": "G#4",
		  "midi": 68,
		  "time": 194.8886939999983,
		  "velocity": 0.6299212598425197,
		  "duration": 0.11111099999999396
		},
		{
		  "name": "C#5",
		  "midi": 73,
		  "time": 194.8886939999983,
		  "velocity": 0.6299212598425197,
		  "duration": 0.11111099999999396
		},
		{
		  "name": "C#4",
		  "midi": 61,
		  "time": 195.1109159999983,
		  "velocity": 0.6299212598425197,
		  "duration": 0.22222199999998793
		},
		{
		  "name": "F#4",
		  "midi": 66,
		  "time": 195.1109159999983,
		  "velocity": 0.6299212598425197,
		  "duration": 0.22222199999998793
		},
		{
		  "name": "E4",
		  "midi": 64,
		  "time": 195.33313799999829,
		  "velocity": 0.6299212598425197,
		  "duration": 0.11111099999999396
		},
		{
		  "name": "A4",
		  "midi": 69,
		  "time": 195.33313799999829,
		  "velocity": 0.6299212598425197,
		  "duration": 0.11111099999999396
		},
		{
		  "name": "C#4",
		  "midi": 61,
		  "time": 195.55535999999827,
		  "velocity": 0.6299212598425197,
		  "duration": 0.22222199999998793
		},
		{
		  "name": "F#4",
		  "midi": 66,
		  "time": 195.55535999999827,
		  "velocity": 0.6299212598425197,
		  "duration": 0.22222199999998793
		},
		{
		  "name": "C#4",
		  "midi": 61,
		  "time": 195.88869299999826,
		  "velocity": 0.6299212598425197,
		  "duration": 0.11111099999999396
		},
		{
		  "name": "F#4",
		  "midi": 66,
		  "time": 195.88869299999826,
		  "velocity": 0.6299212598425197,
		  "duration": 0.11111099999999396
		},
		{
		  "name": "C#4",
		  "midi": 61,
		  "time": 196.11091499999824,
		  "velocity": 0.6299212598425197,
		  "duration": 0.22222199999998793
		},
		{
		  "name": "F#4",
		  "midi": 66,
		  "time": 196.11091499999824,
		  "velocity": 0.6299212598425197,
		  "duration": 0.22222199999998793
		},
		{
		  "name": "A4",
		  "midi": 69,
		  "time": 196.44424799999823,
		  "velocity": 0.6299212598425197,
		  "duration": 0.22222199999998793
		},
		{
		  "name": "E4",
		  "midi": 64,
		  "time": 196.44424799999823,
		  "velocity": 0.6299212598425197,
		  "duration": 0.22222199999998793
		},
		{
		  "name": "C#4",
		  "midi": 61,
		  "time": 196.6664699999982,
		  "velocity": 0.6299212598425197,
		  "duration": 0.11111099999999396
		},
		{
		  "name": "F#4",
		  "midi": 66,
		  "time": 196.6664699999982,
		  "velocity": 0.6299212598425197,
		  "duration": 0.11111099999999396
		},
		{
		  "name": "C#4",
		  "midi": 61,
		  "time": 196.8886919999982,
		  "velocity": 0.6299212598425197,
		  "duration": 0.22222199999998793
		},
		{
		  "name": "F#4",
		  "midi": 66,
		  "time": 196.8886919999982,
		  "velocity": 0.6299212598425197,
		  "duration": 0.22222199999998793
		},
		{
		  "name": "C#4",
		  "midi": 61,
		  "time": 197.33313599999818,
		  "velocity": 0.6299212598425197,
		  "duration": 0.22222199999998793
		},
		{
		  "name": "F#4",
		  "midi": 66,
		  "time": 197.33313599999818,
		  "velocity": 0.6299212598425197,
		  "duration": 0.22222199999998793
		},
		{
		  "name": "C#4",
		  "midi": 61,
		  "time": 197.66646899999816,
		  "velocity": 0.6299212598425197,
		  "duration": 0.11111099999999396
		},
		{
		  "name": "F#4",
		  "midi": 66,
		  "time": 197.66646899999816,
		  "velocity": 0.6299212598425197,
		  "duration": 0.11111099999999396
		},
		{
		  "name": "C#4",
		  "midi": 61,
		  "time": 197.88869099999815,
		  "velocity": 0.6299212598425197,
		  "duration": 0.22222199999998793
		},
		{
		  "name": "F#4",
		  "midi": 66,
		  "time": 197.88869099999815,
		  "velocity": 0.6299212598425197,
		  "duration": 0.22222199999998793
		},
		{
		  "name": "A4",
		  "midi": 69,
		  "time": 198.22202399999813,
		  "velocity": 0.6299212598425197,
		  "duration": 0.22222199999998793
		},
		{
		  "name": "E4",
		  "midi": 64,
		  "time": 198.22202399999813,
		  "velocity": 0.6299212598425197,
		  "duration": 0.22222199999998793
		},
		{
		  "name": "C#4",
		  "midi": 61,
		  "time": 198.44424599999812,
		  "velocity": 0.6299212598425197,
		  "duration": 0.11111099999999396
		},
		{
		  "name": "F#4",
		  "midi": 66,
		  "time": 198.44424599999812,
		  "velocity": 0.6299212598425197,
		  "duration": 0.11111099999999396
		},
		{
		  "name": "C#4",
		  "midi": 61,
		  "time": 198.6664679999981,
		  "velocity": 0.6299212598425197,
		  "duration": 0.22222199999998793
		},
		{
		  "name": "F#4",
		  "midi": 66,
		  "time": 198.6664679999981,
		  "velocity": 0.6299212598425197,
		  "duration": 0.22222199999998793
		},
		{
		  "name": "C#4",
		  "midi": 61,
		  "time": 199.11091199999808,
		  "velocity": 0.6299212598425197,
		  "duration": 0.22222199999998793
		},
		{
		  "name": "F#4",
		  "midi": 66,
		  "time": 199.11091199999808,
		  "velocity": 0.6299212598425197,
		  "duration": 0.22222199999998793
		},
		{
		  "name": "C#4",
		  "midi": 61,
		  "time": 199.44424499999806,
		  "velocity": 0.6299212598425197,
		  "duration": 0.11111099999999396
		},
		{
		  "name": "F#4",
		  "midi": 66,
		  "time": 199.44424499999806,
		  "velocity": 0.6299212598425197,
		  "duration": 0.11111099999999396
		},
		{
		  "name": "C#4",
		  "midi": 61,
		  "time": 199.66646699999805,
		  "velocity": 0.6299212598425197,
		  "duration": 0.22222199999998793
		},
		{
		  "name": "F#4",
		  "midi": 66,
		  "time": 199.66646699999805,
		  "velocity": 0.6299212598425197,
		  "duration": 0.22222199999998793
		},
		{
		  "name": "A4",
		  "midi": 69,
		  "time": 199.99979999999803,
		  "velocity": 0.6299212598425197,
		  "duration": 0.22222199999998793
		},
		{
		  "name": "E4",
		  "midi": 64,
		  "time": 199.99979999999803,
		  "velocity": 0.6299212598425197,
		  "duration": 0.22222199999998793
		},
		{
		  "name": "C#4",
		  "midi": 61,
		  "time": 200.22202199999802,
		  "velocity": 0.6299212598425197,
		  "duration": 0.11111099999999396
		},
		{
		  "name": "F#4",
		  "midi": 66,
		  "time": 200.22202199999802,
		  "velocity": 0.6299212598425197,
		  "duration": 0.11111099999999396
		},
		{
		  "name": "C#4",
		  "midi": 61,
		  "time": 200.444243999998,
		  "velocity": 0.6299212598425197,
		  "duration": 0.22222199999998793
		},
		{
		  "name": "F#4",
		  "midi": 66,
		  "time": 200.444243999998,
		  "velocity": 0.6299212598425197,
		  "duration": 0.22222199999998793
		},
		{
		  "name": "C#4",
		  "midi": 61,
		  "time": 200.88868799999798,
		  "velocity": 0.6299212598425197,
		  "duration": 0.22222199999998793
		},
		{
		  "name": "F#4",
		  "midi": 66,
		  "time": 200.88868799999798,
		  "velocity": 0.6299212598425197,
		  "duration": 0.22222199999998793
		},
		{
		  "name": "C#4",
		  "midi": 61,
		  "time": 201.22202099999797,
		  "velocity": 0.6299212598425197,
		  "duration": 0.11111099999999396
		},
		{
		  "name": "F#4",
		  "midi": 66,
		  "time": 201.22202099999797,
		  "velocity": 0.6299212598425197,
		  "duration": 0.11111099999999396
		},
		{
		  "name": "C#4",
		  "midi": 61,
		  "time": 201.44424299999795,
		  "velocity": 0.6299212598425197,
		  "duration": 0.22222199999998793
		},
		{
		  "name": "F#4",
		  "midi": 66,
		  "time": 201.44424299999795,
		  "velocity": 0.6299212598425197,
		  "duration": 0.22222199999998793
		},
		{
		  "name": "B4",
		  "midi": 71,
		  "time": 201.77757599999794,
		  "velocity": 0.6299212598425197,
		  "duration": 0.22222199999998793
		},
		{
		  "name": "F#4",
		  "midi": 66,
		  "time": 201.77757599999794,
		  "velocity": 0.6299212598425197,
		  "duration": 0.22222199999998793
		},
		{
		  "name": "G#4",
		  "midi": 68,
		  "time": 201.99979799999792,
		  "velocity": 0.6299212598425197,
		  "duration": 0.11111099999999396
		},
		{
		  "name": "C#5",
		  "midi": 73,
		  "time": 201.99979799999792,
		  "velocity": 0.6299212598425197,
		  "duration": 0.11111099999999396
		},
		{
		  "name": "C#4",
		  "midi": 61,
		  "time": 202.2220199999979,
		  "velocity": 0.6299212598425197,
		  "duration": 0.22222199999998793
		},
		{
		  "name": "F#4",
		  "midi": 66,
		  "time": 202.2220199999979,
		  "velocity": 0.6299212598425197,
		  "duration": 0.22222199999998793
		},
		{
		  "name": "E4",
		  "midi": 64,
		  "time": 202.4442419999979,
		  "velocity": 0.6299212598425197,
		  "duration": 0.11111099999999396
		},
		{
		  "name": "A4",
		  "midi": 69,
		  "time": 202.4442419999979,
		  "velocity": 0.6299212598425197,
		  "duration": 0.11111099999999396
		},
		{
		  "name": "C#5",
		  "midi": 73,
		  "time": 223.9997759999979,
		  "velocity": 0.5984251968503937,
		  "duration": 0.22222199999998793
		},
		{
		  "name": "C#4",
		  "midi": 61,
		  "time": 223.9997759999979,
		  "velocity": 0.5984251968503937,
		  "duration": 0.22222199999998793
		},
		{
		  "name": "F#4",
		  "midi": 66,
		  "time": 223.9997759999979,
		  "velocity": 0.5984251968503937,
		  "duration": 0.22222199999998793
		},
		{
		  "name": "E3",
		  "midi": 52,
		  "time": 224.44421999999787,
		  "velocity": 0.5984251968503937,
		  "duration": 0.22222199999998793
		},
		{
		  "name": "B4",
		  "midi": 71,
		  "time": 224.44421999999787,
		  "velocity": 0.5984251968503937,
		  "duration": 0.22222199999998793
		},
		{
		  "name": "E4",
		  "midi": 64,
		  "time": 224.44421999999787,
		  "velocity": 0.5984251968503937,
		  "duration": 0.22222199999998793
		},
		{
		  "name": "A#4",
		  "midi": 70,
		  "time": 224.88866399999785,
		  "velocity": 0.5984251968503937,
		  "duration": 0.22222199999998793
		},
		{
		  "name": "D#4",
		  "midi": 63,
		  "time": 224.88866399999785,
		  "velocity": 0.5984251968503937,
		  "duration": 0.22222199999998793
		},
		{
		  "name": "D#3",
		  "midi": 51,
		  "time": 224.88866399999785,
		  "velocity": 0.5984251968503937,
		  "duration": 0.22222199999998793
		},
		{
		  "name": "C#5",
		  "midi": 73,
		  "time": 225.22199699999783,
		  "velocity": 0.5984251968503937,
		  "duration": 0.22222199999998793
		},
		{
		  "name": "C#4",
		  "midi": 61,
		  "time": 225.22199699999783,
		  "velocity": 0.5984251968503937,
		  "duration": 0.22222199999998793
		},
		{
		  "name": "C#3",
		  "midi": 49,
		  "time": 225.22199699999783,
		  "velocity": 0.5984251968503937,
		  "duration": 0.22222199999998793
		},
		{
		  "name": "C#5",
		  "midi": 73,
		  "time": 225.5553299999978,
		  "velocity": 0.5984251968503937,
		  "duration": 0.22222199999998793
		},
		{
		  "name": "F#4",
		  "midi": 66,
		  "time": 225.5553299999978,
		  "velocity": 0.5984251968503937,
		  "duration": 0.22222199999998793
		},
		{
		  "name": "F#3",
		  "midi": 54,
		  "time": 225.5553299999978,
		  "velocity": 0.5984251968503937,
		  "duration": 0.22222199999998793
		},
		{
		  "name": "E3",
		  "midi": 52,
		  "time": 226.2219959999978,
		  "velocity": 0.5984251968503937,
		  "duration": 0.22222199999998793
		},
		{
		  "name": "B4",
		  "midi": 71,
		  "time": 226.2219959999978,
		  "velocity": 0.5984251968503937,
		  "duration": 0.22222199999998793
		},
		{
		  "name": "E4",
		  "midi": 64,
		  "time": 226.2219959999978,
		  "velocity": 0.5984251968503937,
		  "duration": 0.22222199999998793
		},
		{
		  "name": "A#4",
		  "midi": 70,
		  "time": 226.66643999999778,
		  "velocity": 0.5984251968503937,
		  "duration": 0.22222199999998793
		},
		{
		  "name": "D#4",
		  "midi": 63,
		  "time": 226.66643999999778,
		  "velocity": 0.5984251968503937,
		  "duration": 0.22222199999998793
		},
		{
		  "name": "D#3",
		  "midi": 51,
		  "time": 226.66643999999778,
		  "velocity": 0.5984251968503937,
		  "duration": 0.22222199999998793
		},
		{
		  "name": "C#5",
		  "midi": 73,
		  "time": 226.99977299999776,
		  "velocity": 0.5984251968503937,
		  "duration": 0.22222199999998793
		},
		{
		  "name": "C#4",
		  "midi": 61,
		  "time": 226.99977299999776,
		  "velocity": 0.5984251968503937,
		  "duration": 0.22222199999998793
		},
		{
		  "name": "C#3",
		  "midi": 49,
		  "time": 226.99977299999776,
		  "velocity": 0.5984251968503937,
		  "duration": 0.22222199999998793
		},
		{
		  "name": "C#5",
		  "midi": 73,
		  "time": 227.33310599999774,
		  "velocity": 0.5984251968503937,
		  "duration": 0.22222199999998793
		},
		{
		  "name": "F#4",
		  "midi": 66,
		  "time": 227.33310599999774,
		  "velocity": 0.5984251968503937,
		  "duration": 0.22222199999998793
		},
		{
		  "name": "F#3",
		  "midi": 54,
		  "time": 227.33310599999774,
		  "velocity": 0.5984251968503937,
		  "duration": 0.22222199999998793
		}
	  ],
	"MarioMeow": [
		{
		  "name": "C#4",
		  "midi": 61,
		  "time": 14.222208,
		  "velocity": 0.7874015748031497,
		  "duration": 0.1111109999999993
		},
		{
		  "name": "F#4",
		  "midi": 66,
		  "time": 14.222208,
		  "velocity": 0.7874015748031497,
		  "duration": 0.1111109999999993
		},
		{
		  "name": "F#3",
		  "midi": 54,
		  "time": 14.222208,
		  "velocity": 0.7874015748031497,
		  "duration": 0.1111109999999993
		},
		{
		  "name": "C#4",
		  "midi": 61,
		  "time": 14.888874,
		  "velocity": 0.7874015748031497,
		  "duration": 0.1111109999999993
		},
		{
		  "name": "F#4",
		  "midi": 66,
		  "time": 14.888874,
		  "velocity": 0.7874015748031497,
		  "duration": 0.1111109999999993
		},
		{
		  "name": "F#3",
		  "midi": 54,
		  "time": 14.888874,
		  "velocity": 0.7874015748031497,
		  "duration": 0.1111109999999993
		},
		{
		  "name": "C#4",
		  "midi": 61,
		  "time": 15.999984,
		  "velocity": 0.7874015748031497,
		  "duration": 0.1111109999999993
		},
		{
		  "name": "F#4",
		  "midi": 66,
		  "time": 15.999984,
		  "velocity": 0.7874015748031497,
		  "duration": 0.1111109999999993
		},
		{
		  "name": "F#3",
		  "midi": 54,
		  "time": 15.999984,
		  "velocity": 0.7874015748031497,
		  "duration": 0.1111109999999993
		},
		{
		  "name": "C#4",
		  "midi": 61,
		  "time": 16.666649999999997,
		  "velocity": 0.7874015748031497,
		  "duration": 0.11111100000000107
		},
		{
		  "name": "F#4",
		  "midi": 66,
		  "time": 16.666649999999997,
		  "velocity": 0.7874015748031497,
		  "duration": 0.11111100000000107
		},
		{
		  "name": "F#3",
		  "midi": 54,
		  "time": 16.666649999999997,
		  "velocity": 0.7874015748031497,
		  "duration": 0.11111100000000107
		},
		{
		  "name": "D4",
		  "midi": 62,
		  "time": 17.777759999999997,
		  "velocity": 0.7874015748031497,
		  "duration": 0.11111100000000107
		},
		{
		  "name": "A4",
		  "midi": 69,
		  "time": 17.777759999999997,
		  "velocity": 0.7874015748031497,
		  "duration": 0.11111100000000107
		},
		{
		  "name": "A3",
		  "midi": 57,
		  "time": 17.777759999999997,
		  "velocity": 0.7874015748031497,
		  "duration": 0.11111100000000107
		},
		{
		  "name": "D4",
		  "midi": 62,
		  "time": 18.444426,
		  "velocity": 0.7874015748031497,
		  "duration": 0.11111100000000107
		},
		{
		  "name": "A4",
		  "midi": 69,
		  "time": 18.444426,
		  "velocity": 0.7874015748031497,
		  "duration": 0.11111100000000107
		},
		{
		  "name": "A3",
		  "midi": 57,
		  "time": 18.444426,
		  "velocity": 0.7874015748031497,
		  "duration": 0.11111100000000107
		},
		{
		  "name": "E4",
		  "midi": 64,
		  "time": 19.555536,
		  "velocity": 0.7874015748031497,
		  "duration": 0.11111100000000107
		},
		{
		  "name": "B4",
		  "midi": 71,
		  "time": 19.555536,
		  "velocity": 0.7874015748031497,
		  "duration": 0.11111100000000107
		},
		{
		  "name": "B3",
		  "midi": 59,
		  "time": 19.555536,
		  "velocity": 0.7874015748031497,
		  "duration": 0.11111100000000107
		},
		{
		  "name": "E4",
		  "midi": 64,
		  "time": 20.222202000000003,
		  "velocity": 0.7874015748031497,
		  "duration": 0.11111100000000107
		},
		{
		  "name": "B4",
		  "midi": 71,
		  "time": 20.222202000000003,
		  "velocity": 0.7874015748031497,
		  "duration": 0.11111100000000107
		},
		{
		  "name": "B3",
		  "midi": 59,
		  "time": 20.222202000000003,
		  "velocity": 0.7874015748031497,
		  "duration": 0.11111100000000107
		},
		{
		  "name": "A4",
		  "midi": 69,
		  "time": 20.888868000000002,
		  "velocity": 0.7874015748031497,
		  "duration": 0.11111100000000107
		},
		{
		  "name": "D5",
		  "midi": 74,
		  "time": 20.888868000000002,
		  "velocity": 0.7874015748031497,
		  "duration": 0.11111100000000107
		},
		{
		  "name": "D4",
		  "midi": 62,
		  "time": 20.888868000000002,
		  "velocity": 0.7874015748031497,
		  "duration": 0.11111100000000107
		},
		{
		  "name": "C#4",
		  "midi": 61,
		  "time": 21.333312000000003,
		  "velocity": 0.7874015748031497,
		  "duration": 0.11111100000000107
		},
		{
		  "name": "F#4",
		  "midi": 66,
		  "time": 21.333312000000003,
		  "velocity": 0.7874015748031497,
		  "duration": 0.11111100000000107
		},
		{
		  "name": "F#3",
		  "midi": 54,
		  "time": 21.333312000000003,
		  "velocity": 0.7874015748031497,
		  "duration": 0.11111100000000107
		},
		{
		  "name": "C#4",
		  "midi": 61,
		  "time": 21.999978000000006,
		  "velocity": 0.7874015748031497,
		  "duration": 0.11111100000000107
		},
		{
		  "name": "F#4",
		  "midi": 66,
		  "time": 21.999978000000006,
		  "velocity": 0.7874015748031497,
		  "duration": 0.11111100000000107
		},
		{
		  "name": "F#3",
		  "midi": 54,
		  "time": 21.999978000000006,
		  "velocity": 0.7874015748031497,
		  "duration": 0.11111100000000107
		},
		{
		  "name": "C#4",
		  "midi": 61,
		  "time": 23.111088000000006,
		  "velocity": 0.7874015748031497,
		  "duration": 0.11111100000000107
		},
		{
		  "name": "F#4",
		  "midi": 66,
		  "time": 23.111088000000006,
		  "velocity": 0.7874015748031497,
		  "duration": 0.11111100000000107
		},
		{
		  "name": "F#3",
		  "midi": 54,
		  "time": 23.111088000000006,
		  "velocity": 0.7874015748031497,
		  "duration": 0.11111100000000107
		},
		{
		  "name": "C#4",
		  "midi": 61,
		  "time": 23.77775400000001,
		  "velocity": 0.7874015748031497,
		  "duration": 0.11111100000000107
		},
		{
		  "name": "F#4",
		  "midi": 66,
		  "time": 23.77775400000001,
		  "velocity": 0.7874015748031497,
		  "duration": 0.11111100000000107
		},
		{
		  "name": "F#3",
		  "midi": 54,
		  "time": 23.77775400000001,
		  "velocity": 0.7874015748031497,
		  "duration": 0.11111100000000107
		},
		{
		  "name": "D4",
		  "midi": 62,
		  "time": 24.88886400000001,
		  "velocity": 0.7874015748031497,
		  "duration": 0.11111100000000107
		},
		{
		  "name": "A4",
		  "midi": 69,
		  "time": 24.88886400000001,
		  "velocity": 0.7874015748031497,
		  "duration": 0.11111100000000107
		},
		{
		  "name": "A3",
		  "midi": 57,
		  "time": 24.88886400000001,
		  "velocity": 0.7874015748031497,
		  "duration": 0.11111100000000107
		},
		{
		  "name": "D4",
		  "midi": 62,
		  "time": 25.55553000000001,
		  "velocity": 0.7874015748031497,
		  "duration": 0.11111100000000107
		},
		{
		  "name": "A4",
		  "midi": 69,
		  "time": 25.55553000000001,
		  "velocity": 0.7874015748031497,
		  "duration": 0.11111100000000107
		},
		{
		  "name": "A3",
		  "midi": 57,
		  "time": 25.55553000000001,
		  "velocity": 0.7874015748031497,
		  "duration": 0.11111100000000107
		},
		{
		  "name": "E4",
		  "midi": 64,
		  "time": 26.66664000000001,
		  "velocity": 0.7874015748031497,
		  "duration": 0.11111100000000107
		},
		{
		  "name": "B4",
		  "midi": 71,
		  "time": 26.66664000000001,
		  "velocity": 0.7874015748031497,
		  "duration": 0.11111100000000107
		},
		{
		  "name": "B3",
		  "midi": 59,
		  "time": 26.66664000000001,
		  "velocity": 0.7874015748031497,
		  "duration": 0.11111100000000107
		},
		{
		  "name": "E4",
		  "midi": 64,
		  "time": 27.333306000000015,
		  "velocity": 0.7874015748031497,
		  "duration": 0.11111100000000107
		},
		{
		  "name": "B4",
		  "midi": 71,
		  "time": 27.333306000000015,
		  "velocity": 0.7874015748031497,
		  "duration": 0.11111100000000107
		},
		{
		  "name": "B3",
		  "midi": 59,
		  "time": 27.333306000000015,
		  "velocity": 0.7874015748031497,
		  "duration": 0.11111100000000107
		},
		{
		  "name": "B4",
		  "midi": 71,
		  "time": 27.999972000000014,
		  "velocity": 0.7874015748031497,
		  "duration": 0.11111100000000107
		},
		{
		  "name": "E5",
		  "midi": 76,
		  "time": 27.999972000000014,
		  "velocity": 0.7874015748031497,
		  "duration": 0.11111100000000107
		},
		{
		  "name": "E4",
		  "midi": 64,
		  "time": 27.999972000000014,
		  "velocity": 0.7874015748031497,
		  "duration": 0.11111100000000107
		},
		{
		  "name": "C#4",
		  "midi": 61,
		  "time": 42.66662400000001,
		  "velocity": 0.7874015748031497,
		  "duration": 0.11111100000000107
		},
		{
		  "name": "F#4",
		  "midi": 66,
		  "time": 42.66662400000001,
		  "velocity": 0.7874015748031497,
		  "duration": 0.11111100000000107
		},
		{
		  "name": "F#3",
		  "midi": 54,
		  "time": 42.66662400000001,
		  "velocity": 0.7874015748031497,
		  "duration": 0.11111100000000107
		},
		{
		  "name": "C#4",
		  "midi": 61,
		  "time": 43.33329000000001,
		  "velocity": 0.7874015748031497,
		  "duration": 0.11111100000000107
		},
		{
		  "name": "F#4",
		  "midi": 66,
		  "time": 43.33329000000001,
		  "velocity": 0.7874015748031497,
		  "duration": 0.11111100000000107
		},
		{
		  "name": "F#3",
		  "midi": 54,
		  "time": 43.33329000000001,
		  "velocity": 0.7874015748031497,
		  "duration": 0.11111100000000107
		},
		{
		  "name": "A3",
		  "midi": 57,
		  "time": 44.444400000000016,
		  "velocity": 0.7874015748031497,
		  "duration": 0.11111100000000107
		},
		{
		  "name": "D4",
		  "midi": 62,
		  "time": 44.444400000000016,
		  "velocity": 0.7874015748031497,
		  "duration": 0.11111100000000107
		},
		{
		  "name": "D3",
		  "midi": 50,
		  "time": 44.444400000000016,
		  "velocity": 0.7874015748031497,
		  "duration": 0.11111100000000107
		},
		{
		  "name": "B3",
		  "midi": 59,
		  "time": 45.111066000000015,
		  "velocity": 0.7874015748031497,
		  "duration": 0.11111100000000107
		},
		{
		  "name": "E4",
		  "midi": 64,
		  "time": 45.111066000000015,
		  "velocity": 0.7874015748031497,
		  "duration": 0.11111100000000107
		},
		{
		  "name": "E3",
		  "midi": 52,
		  "time": 45.111066000000015,
		  "velocity": 0.7874015748031497,
		  "duration": 0.11111100000000107
		},
		{
		  "name": "C#4",
		  "midi": 61,
		  "time": 46.22217600000002,
		  "velocity": 0.7874015748031497,
		  "duration": 0.11111100000000107
		},
		{
		  "name": "F#4",
		  "midi": 66,
		  "time": 46.22217600000002,
		  "velocity": 0.7874015748031497,
		  "duration": 0.11111100000000107
		},
		{
		  "name": "F#3",
		  "midi": 54,
		  "time": 46.22217600000002,
		  "velocity": 0.7874015748031497,
		  "duration": 0.11111100000000107
		},
		{
		  "name": "C#4",
		  "midi": 61,
		  "time": 46.88884200000002,
		  "velocity": 0.7874015748031497,
		  "duration": 0.11111100000000107
		},
		{
		  "name": "F#4",
		  "midi": 66,
		  "time": 46.88884200000002,
		  "velocity": 0.7874015748031497,
		  "duration": 0.11111100000000107
		},
		{
		  "name": "F#3",
		  "midi": 54,
		  "time": 46.88884200000002,
		  "velocity": 0.7874015748031497,
		  "duration": 0.11111100000000107
		},
		{
		  "name": "A3",
		  "midi": 57,
		  "time": 47.99995200000002,
		  "velocity": 0.7874015748031497,
		  "duration": 0.11111100000000107
		},
		{
		  "name": "D4",
		  "midi": 62,
		  "time": 47.99995200000002,
		  "velocity": 0.7874015748031497,
		  "duration": 0.11111100000000107
		},
		{
		  "name": "D3",
		  "midi": 50,
		  "time": 47.99995200000002,
		  "velocity": 0.7874015748031497,
		  "duration": 0.11111100000000107
		},
		{
		  "name": "B3",
		  "midi": 59,
		  "time": 48.66661800000002,
		  "velocity": 0.7874015748031497,
		  "duration": 0.11111100000000107
		},
		{
		  "name": "E4",
		  "midi": 64,
		  "time": 48.66661800000002,
		  "velocity": 0.7874015748031497,
		  "duration": 0.11111100000000107
		},
		{
		  "name": "E3",
		  "midi": 52,
		  "time": 48.66661800000002,
		  "velocity": 0.7874015748031497,
		  "duration": 0.11111100000000107
		},
		{
		  "name": "C#4",
		  "midi": 61,
		  "time": 49.777728000000025,
		  "velocity": 0.7874015748031497,
		  "duration": 0.11111100000000107
		},
		{
		  "name": "F#4",
		  "midi": 66,
		  "time": 49.777728000000025,
		  "velocity": 0.7874015748031497,
		  "duration": 0.11111100000000107
		},
		{
		  "name": "F#3",
		  "midi": 54,
		  "time": 49.777728000000025,
		  "velocity": 0.7874015748031497,
		  "duration": 0.11111100000000107
		},
		{
		  "name": "C#4",
		  "midi": 61,
		  "time": 50.444394000000024,
		  "velocity": 0.7874015748031497,
		  "duration": 0.11111100000000107
		},
		{
		  "name": "F#4",
		  "midi": 66,
		  "time": 50.444394000000024,
		  "velocity": 0.7874015748031497,
		  "duration": 0.11111100000000107
		},
		{
		  "name": "F#3",
		  "midi": 54,
		  "time": 50.444394000000024,
		  "velocity": 0.7874015748031497,
		  "duration": 0.11111100000000107
		},
		{
		  "name": "A3",
		  "midi": 57,
		  "time": 51.55550400000003,
		  "velocity": 0.7874015748031497,
		  "duration": 0.11111100000000107
		},
		{
		  "name": "D4",
		  "midi": 62,
		  "time": 51.55550400000003,
		  "velocity": 0.7874015748031497,
		  "duration": 0.11111100000000107
		},
		{
		  "name": "D3",
		  "midi": 50,
		  "time": 51.55550400000003,
		  "velocity": 0.7874015748031497,
		  "duration": 0.11111100000000107
		},
		{
		  "name": "B3",
		  "midi": 59,
		  "time": 52.22217000000003,
		  "velocity": 0.7874015748031497,
		  "duration": 0.11111100000000107
		},
		{
		  "name": "E4",
		  "midi": 64,
		  "time": 52.22217000000003,
		  "velocity": 0.7874015748031497,
		  "duration": 0.11111100000000107
		},
		{
		  "name": "E3",
		  "midi": 52,
		  "time": 52.22217000000003,
		  "velocity": 0.7874015748031497,
		  "duration": 0.11111100000000107
		},
		{
		  "name": "C#4",
		  "midi": 61,
		  "time": 53.33328000000003,
		  "velocity": 0.7874015748031497,
		  "duration": 0.11111100000000107
		},
		{
		  "name": "F#4",
		  "midi": 66,
		  "time": 53.33328000000003,
		  "velocity": 0.7874015748031497,
		  "duration": 0.11111100000000107
		},
		{
		  "name": "F#3",
		  "midi": 54,
		  "time": 53.33328000000003,
		  "velocity": 0.7874015748031497,
		  "duration": 0.11111100000000107
		},
		{
		  "name": "C#4",
		  "midi": 61,
		  "time": 53.99994600000003,
		  "velocity": 0.7874015748031497,
		  "duration": 0.11111100000000107
		},
		{
		  "name": "F#4",
		  "midi": 66,
		  "time": 53.99994600000003,
		  "velocity": 0.7874015748031497,
		  "duration": 0.11111100000000107
		},
		{
		  "name": "F#3",
		  "midi": 54,
		  "time": 53.99994600000003,
		  "velocity": 0.7874015748031497,
		  "duration": 0.11111100000000107
		},
		{
		  "name": "A3",
		  "midi": 57,
		  "time": 55.11105600000003,
		  "velocity": 0.7874015748031497,
		  "duration": 0.11111100000000107
		},
		{
		  "name": "D4",
		  "midi": 62,
		  "time": 55.11105600000003,
		  "velocity": 0.7874015748031497,
		  "duration": 0.11111100000000107
		},
		{
		  "name": "D3",
		  "midi": 50,
		  "time": 55.11105600000003,
		  "velocity": 0.7874015748031497,
		  "duration": 0.11111100000000107
		},
		{
		  "name": "B3",
		  "midi": 59,
		  "time": 55.77772200000003,
		  "velocity": 0.7874015748031497,
		  "duration": 0.11111100000000107
		},
		{
		  "name": "E4",
		  "midi": 64,
		  "time": 55.77772200000003,
		  "velocity": 0.7874015748031497,
		  "duration": 0.11111100000000107
		},
		{
		  "name": "E3",
		  "midi": 52,
		  "time": 55.77772200000003,
		  "velocity": 0.7874015748031497,
		  "duration": 0.11111100000000107
		},
		{
		  "name": "C#4",
		  "midi": 61,
		  "time": 87.11102400000003,
		  "velocity": 0.6929133858267716,
		  "duration": 0.11111099999999396
		},
		{
		  "name": "F#4",
		  "midi": 66,
		  "time": 87.11102400000003,
		  "velocity": 0.6929133858267716,
		  "duration": 0.11111099999999396
		},
		{
		  "name": "F#3",
		  "midi": 54,
		  "time": 87.11102400000003,
		  "velocity": 0.6929133858267716,
		  "duration": 0.11111099999999396
		},
		{
		  "name": "C#4",
		  "midi": 61,
		  "time": 87.33324600000002,
		  "velocity": 0.6929133858267716,
		  "duration": 0.11111099999999396
		},
		{
		  "name": "F#4",
		  "midi": 66,
		  "time": 87.33324600000002,
		  "velocity": 0.6929133858267716,
		  "duration": 0.11111099999999396
		},
		{
		  "name": "F#3",
		  "midi": 54,
		  "time": 87.33324600000002,
		  "velocity": 0.6929133858267716,
		  "duration": 0.11111099999999396
		},
		{
		  "name": "B3",
		  "midi": 59,
		  "time": 89.99991000000001,
		  "velocity": 0.6929133858267716,
		  "duration": 0.11111099999999396
		},
		{
		  "name": "E4",
		  "midi": 64,
		  "time": 89.99991000000001,
		  "velocity": 0.6929133858267716,
		  "duration": 0.11111099999999396
		},
		{
		  "name": "E3",
		  "midi": 52,
		  "time": 89.99991000000001,
		  "velocity": 0.6929133858267716,
		  "duration": 0.11111099999999396
		},
		{
		  "name": "B3",
		  "midi": 59,
		  "time": 90.11102100000001,
		  "velocity": 0.6929133858267716,
		  "duration": 0.11111099999999396
		},
		{
		  "name": "E4",
		  "midi": 64,
		  "time": 90.11102100000001,
		  "velocity": 0.6929133858267716,
		  "duration": 0.11111099999999396
		},
		{
		  "name": "E3",
		  "midi": 52,
		  "time": 90.11102100000001,
		  "velocity": 0.6929133858267716,
		  "duration": 0.11111099999999396
		},
		{
		  "name": "A3",
		  "midi": 57,
		  "time": 90.333243,
		  "velocity": 0.6929133858267716,
		  "duration": 0.11111099999999396
		},
		{
		  "name": "C#4",
		  "midi": 61,
		  "time": 90.333243,
		  "velocity": 0.6929133858267716,
		  "duration": 0.11111099999999396
		},
		{
		  "name": "C#3",
		  "midi": 49,
		  "time": 90.333243,
		  "velocity": 0.6929133858267716,
		  "duration": 0.11111099999999396
		},
		{
		  "name": "B3",
		  "midi": 59,
		  "time": 90.44435399999999,
		  "velocity": 0.6929133858267716,
		  "duration": 0.11111099999999396
		},
		{
		  "name": "E4",
		  "midi": 64,
		  "time": 90.44435399999999,
		  "velocity": 0.6929133858267716,
		  "duration": 0.11111099999999396
		},
		{
		  "name": "E3",
		  "midi": 52,
		  "time": 90.44435399999999,
		  "velocity": 0.6929133858267716,
		  "duration": 0.11111099999999396
		},
		{
		  "name": "C#4",
		  "midi": 61,
		  "time": 90.66657599999998,
		  "velocity": 0.6929133858267716,
		  "duration": 0.11111099999999396
		},
		{
		  "name": "F#4",
		  "midi": 66,
		  "time": 90.66657599999998,
		  "velocity": 0.6929133858267716,
		  "duration": 0.11111099999999396
		},
		{
		  "name": "F#3",
		  "midi": 54,
		  "time": 90.66657599999998,
		  "velocity": 0.6929133858267716,
		  "duration": 0.11111099999999396
		},
		{
		  "name": "C#4",
		  "midi": 61,
		  "time": 90.88879799999997,
		  "velocity": 0.6929133858267716,
		  "duration": 0.11111099999999396
		},
		{
		  "name": "F#4",
		  "midi": 66,
		  "time": 90.88879799999997,
		  "velocity": 0.6929133858267716,
		  "duration": 0.11111099999999396
		},
		{
		  "name": "F#3",
		  "midi": 54,
		  "time": 90.88879799999997,
		  "velocity": 0.6929133858267716,
		  "duration": 0.11111099999999396
		},
		{
		  "name": "E4",
		  "midi": 64,
		  "time": 93.55546199999996,
		  "velocity": 0.6929133858267716,
		  "duration": 0.11111099999999396
		},
		{
		  "name": "A4",
		  "midi": 69,
		  "time": 93.55546199999996,
		  "velocity": 0.6929133858267716,
		  "duration": 0.11111099999999396
		},
		{
		  "name": "A3",
		  "midi": 57,
		  "time": 93.55546199999996,
		  "velocity": 0.6929133858267716,
		  "duration": 0.11111099999999396
		},
		{
		  "name": "E4",
		  "midi": 64,
		  "time": 93.66657299999996,
		  "velocity": 0.6929133858267716,
		  "duration": 0.11111099999999396
		},
		{
		  "name": "A4",
		  "midi": 69,
		  "time": 93.66657299999996,
		  "velocity": 0.6929133858267716,
		  "duration": 0.11111099999999396
		},
		{
		  "name": "A3",
		  "midi": 57,
		  "time": 93.66657299999996,
		  "velocity": 0.6929133858267716,
		  "duration": 0.11111099999999396
		},
		{
		  "name": "C#4",
		  "midi": 61,
		  "time": 93.88879499999994,
		  "velocity": 0.6929133858267716,
		  "duration": 0.11111099999999396
		},
		{
		  "name": "F#4",
		  "midi": 66,
		  "time": 93.88879499999994,
		  "velocity": 0.6929133858267716,
		  "duration": 0.11111099999999396
		},
		{
		  "name": "F#3",
		  "midi": 54,
		  "time": 93.88879499999994,
		  "velocity": 0.6929133858267716,
		  "duration": 0.11111099999999396
		},
		{
		  "name": "E4",
		  "midi": 64,
		  "time": 93.99990599999994,
		  "velocity": 0.6929133858267716,
		  "duration": 0.11111099999999396
		},
		{
		  "name": "A4",
		  "midi": 69,
		  "time": 93.99990599999994,
		  "velocity": 0.6929133858267716,
		  "duration": 0.11111099999999396
		},
		{
		  "name": "A3",
		  "midi": 57,
		  "time": 93.99990599999994,
		  "velocity": 0.6929133858267716,
		  "duration": 0.11111099999999396
		},
		{
		  "name": "C#4",
		  "midi": 61,
		  "time": 94.22212799999993,
		  "velocity": 0.6929133858267716,
		  "duration": 0.11111099999999396
		},
		{
		  "name": "F#4",
		  "midi": 66,
		  "time": 94.22212799999993,
		  "velocity": 0.6929133858267716,
		  "duration": 0.11111099999999396
		},
		{
		  "name": "F#3",
		  "midi": 54,
		  "time": 94.22212799999993,
		  "velocity": 0.6929133858267716,
		  "duration": 0.11111099999999396
		},
		{
		  "name": "C#4",
		  "midi": 61,
		  "time": 94.44434999999991,
		  "velocity": 0.6929133858267716,
		  "duration": 0.11111099999999396
		},
		{
		  "name": "F#4",
		  "midi": 66,
		  "time": 94.44434999999991,
		  "velocity": 0.6929133858267716,
		  "duration": 0.11111099999999396
		},
		{
		  "name": "F#3",
		  "midi": 54,
		  "time": 94.44434999999991,
		  "velocity": 0.6929133858267716,
		  "duration": 0.11111099999999396
		},
		{
		  "name": "B3",
		  "midi": 59,
		  "time": 97.11101399999991,
		  "velocity": 0.6929133858267716,
		  "duration": 0.11111099999999396
		},
		{
		  "name": "E4",
		  "midi": 64,
		  "time": 97.11101399999991,
		  "velocity": 0.6929133858267716,
		  "duration": 0.11111099999999396
		},
		{
		  "name": "E3",
		  "midi": 52,
		  "time": 97.11101399999991,
		  "velocity": 0.6929133858267716,
		  "duration": 0.11111099999999396
		},
		{
		  "name": "B3",
		  "midi": 59,
		  "time": 97.2221249999999,
		  "velocity": 0.6929133858267716,
		  "duration": 0.11111099999999396
		},
		{
		  "name": "E4",
		  "midi": 64,
		  "time": 97.2221249999999,
		  "velocity": 0.6929133858267716,
		  "duration": 0.11111099999999396
		},
		{
		  "name": "E3",
		  "midi": 52,
		  "time": 97.2221249999999,
		  "velocity": 0.6929133858267716,
		  "duration": 0.11111099999999396
		},
		{
		  "name": "A3",
		  "midi": 57,
		  "time": 97.4443469999999,
		  "velocity": 0.6929133858267716,
		  "duration": 0.11111099999999396
		},
		{
		  "name": "C#4",
		  "midi": 61,
		  "time": 97.4443469999999,
		  "velocity": 0.6929133858267716,
		  "duration": 0.11111099999999396
		},
		{
		  "name": "C#3",
		  "midi": 49,
		  "time": 97.4443469999999,
		  "velocity": 0.6929133858267716,
		  "duration": 0.11111099999999396
		},
		{
		  "name": "B3",
		  "midi": 59,
		  "time": 97.55545799999989,
		  "velocity": 0.6929133858267716,
		  "duration": 0.11111099999999396
		},
		{
		  "name": "E4",
		  "midi": 64,
		  "time": 97.55545799999989,
		  "velocity": 0.6929133858267716,
		  "duration": 0.11111099999999396
		},
		{
		  "name": "E3",
		  "midi": 52,
		  "time": 97.55545799999989,
		  "velocity": 0.6929133858267716,
		  "duration": 0.11111099999999396
		},
		{
		  "name": "C#4",
		  "midi": 61,
		  "time": 97.77767999999988,
		  "velocity": 0.6929133858267716,
		  "duration": 0.11111099999999396
		},
		{
		  "name": "F#4",
		  "midi": 66,
		  "time": 97.77767999999988,
		  "velocity": 0.6929133858267716,
		  "duration": 0.11111099999999396
		},
		{
		  "name": "F#3",
		  "midi": 54,
		  "time": 97.77767999999988,
		  "velocity": 0.6929133858267716,
		  "duration": 0.11111099999999396
		},
		{
		  "name": "C#4",
		  "midi": 61,
		  "time": 97.99990199999986,
		  "velocity": 0.6929133858267716,
		  "duration": 0.11111099999999396
		},
		{
		  "name": "F#4",
		  "midi": 66,
		  "time": 97.99990199999986,
		  "velocity": 0.6929133858267716,
		  "duration": 0.11111099999999396
		},
		{
		  "name": "F#3",
		  "midi": 54,
		  "time": 97.99990199999986,
		  "velocity": 0.6929133858267716,
		  "duration": 0.11111099999999396
		},
		{
		  "name": "E4",
		  "midi": 64,
		  "time": 100.66656599999986,
		  "velocity": 0.6929133858267716,
		  "duration": 0.11111099999999396
		},
		{
		  "name": "A4",
		  "midi": 69,
		  "time": 100.66656599999986,
		  "velocity": 0.6929133858267716,
		  "duration": 0.11111099999999396
		},
		{
		  "name": "A3",
		  "midi": 57,
		  "time": 100.66656599999986,
		  "velocity": 0.6929133858267716,
		  "duration": 0.11111099999999396
		},
		{
		  "name": "E4",
		  "midi": 64,
		  "time": 100.77767699999985,
		  "velocity": 0.6929133858267716,
		  "duration": 0.11111099999999396
		},
		{
		  "name": "A4",
		  "midi": 69,
		  "time": 100.77767699999985,
		  "velocity": 0.6929133858267716,
		  "duration": 0.11111099999999396
		},
		{
		  "name": "A3",
		  "midi": 57,
		  "time": 100.77767699999985,
		  "velocity": 0.6929133858267716,
		  "duration": 0.11111099999999396
		},
		{
		  "name": "C#4",
		  "midi": 61,
		  "time": 100.99989899999984,
		  "velocity": 0.6929133858267716,
		  "duration": 0.11111099999999396
		},
		{
		  "name": "F#4",
		  "midi": 66,
		  "time": 100.99989899999984,
		  "velocity": 0.6929133858267716,
		  "duration": 0.11111099999999396
		},
		{
		  "name": "F#3",
		  "midi": 54,
		  "time": 100.99989899999984,
		  "velocity": 0.6929133858267716,
		  "duration": 0.11111099999999396
		},
		{
		  "name": "E4",
		  "midi": 64,
		  "time": 101.11100999999984,
		  "velocity": 0.6929133858267716,
		  "duration": 0.11111099999999396
		},
		{
		  "name": "A4",
		  "midi": 69,
		  "time": 101.11100999999984,
		  "velocity": 0.6929133858267716,
		  "duration": 0.11111099999999396
		},
		{
		  "name": "A3",
		  "midi": 57,
		  "time": 101.11100999999984,
		  "velocity": 0.6929133858267716,
		  "duration": 0.11111099999999396
		},
		{
		  "name": "C#4",
		  "midi": 61,
		  "time": 101.33323199999982,
		  "velocity": 0.6929133858267716,
		  "duration": 0.11111099999999396
		},
		{
		  "name": "F#4",
		  "midi": 66,
		  "time": 101.33323199999982,
		  "velocity": 0.6929133858267716,
		  "duration": 0.11111099999999396
		},
		{
		  "name": "F#3",
		  "midi": 54,
		  "time": 101.33323199999982,
		  "velocity": 0.6929133858267716,
		  "duration": 0.11111099999999396
		},
		{
		  "name": "C#4",
		  "midi": 61,
		  "time": 101.55545399999981,
		  "velocity": 0.6929133858267716,
		  "duration": 0.11111099999999396
		},
		{
		  "name": "F#4",
		  "midi": 66,
		  "time": 101.55545399999981,
		  "velocity": 0.6929133858267716,
		  "duration": 0.11111099999999396
		},
		{
		  "name": "F#3",
		  "midi": 54,
		  "time": 101.55545399999981,
		  "velocity": 0.6929133858267716,
		  "duration": 0.11111099999999396
		},
		{
		  "name": "B3",
		  "midi": 59,
		  "time": 104.22211799999981,
		  "velocity": 0.6929133858267716,
		  "duration": 0.11111099999999396
		},
		{
		  "name": "E4",
		  "midi": 64,
		  "time": 104.22211799999981,
		  "velocity": 0.6929133858267716,
		  "duration": 0.11111099999999396
		},
		{
		  "name": "E3",
		  "midi": 52,
		  "time": 104.22211799999981,
		  "velocity": 0.6929133858267716,
		  "duration": 0.11111099999999396
		},
		{
		  "name": "B3",
		  "midi": 59,
		  "time": 104.3332289999998,
		  "velocity": 0.6929133858267716,
		  "duration": 0.11111099999999396
		},
		{
		  "name": "E4",
		  "midi": 64,
		  "time": 104.3332289999998,
		  "velocity": 0.6929133858267716,
		  "duration": 0.11111099999999396
		},
		{
		  "name": "E3",
		  "midi": 52,
		  "time": 104.3332289999998,
		  "velocity": 0.6929133858267716,
		  "duration": 0.11111099999999396
		},
		{
		  "name": "A3",
		  "midi": 57,
		  "time": 104.55545099999979,
		  "velocity": 0.6929133858267716,
		  "duration": 0.11111099999999396
		},
		{
		  "name": "C#4",
		  "midi": 61,
		  "time": 104.55545099999979,
		  "velocity": 0.6929133858267716,
		  "duration": 0.11111099999999396
		},
		{
		  "name": "C#3",
		  "midi": 49,
		  "time": 104.55545099999979,
		  "velocity": 0.6929133858267716,
		  "duration": 0.11111099999999396
		},
		{
		  "name": "B3",
		  "midi": 59,
		  "time": 104.66656199999979,
		  "velocity": 0.6929133858267716,
		  "duration": 0.11111099999999396
		},
		{
		  "name": "E4",
		  "midi": 64,
		  "time": 104.66656199999979,
		  "velocity": 0.6929133858267716,
		  "duration": 0.11111099999999396
		},
		{
		  "name": "E3",
		  "midi": 52,
		  "time": 104.66656199999979,
		  "velocity": 0.6929133858267716,
		  "duration": 0.11111099999999396
		},
		{
		  "name": "C#4",
		  "midi": 61,
		  "time": 104.88878399999977,
		  "velocity": 0.6929133858267716,
		  "duration": 0.11111099999999396
		},
		{
		  "name": "F#4",
		  "midi": 66,
		  "time": 104.88878399999977,
		  "velocity": 0.6929133858267716,
		  "duration": 0.11111099999999396
		},
		{
		  "name": "F#3",
		  "midi": 54,
		  "time": 104.88878399999977,
		  "velocity": 0.6929133858267716,
		  "duration": 0.11111099999999396
		},
		{
		  "name": "C#4",
		  "midi": 61,
		  "time": 105.11100599999976,
		  "velocity": 0.6929133858267716,
		  "duration": 0.11111099999999396
		},
		{
		  "name": "F#4",
		  "midi": 66,
		  "time": 105.11100599999976,
		  "velocity": 0.6929133858267716,
		  "duration": 0.11111099999999396
		},
		{
		  "name": "F#3",
		  "midi": 54,
		  "time": 105.11100599999976,
		  "velocity": 0.6929133858267716,
		  "duration": 0.11111099999999396
		},
		{
		  "name": "B3",
		  "midi": 59,
		  "time": 107.77766999999976,
		  "velocity": 0.6929133858267716,
		  "duration": 0.11111099999999396
		},
		{
		  "name": "E4",
		  "midi": 64,
		  "time": 107.77766999999976,
		  "velocity": 0.6929133858267716,
		  "duration": 0.11111099999999396
		},
		{
		  "name": "E3",
		  "midi": 52,
		  "time": 107.77766999999976,
		  "velocity": 0.6929133858267716,
		  "duration": 0.11111099999999396
		},
		{
		  "name": "B3",
		  "midi": 59,
		  "time": 107.88878099999975,
		  "velocity": 0.6929133858267716,
		  "duration": 0.11111099999999396
		},
		{
		  "name": "E4",
		  "midi": 64,
		  "time": 107.88878099999975,
		  "velocity": 0.6929133858267716,
		  "duration": 0.11111099999999396
		},
		{
		  "name": "E3",
		  "midi": 52,
		  "time": 107.88878099999975,
		  "velocity": 0.6929133858267716,
		  "duration": 0.11111099999999396
		},
		{
		  "name": "A3",
		  "midi": 57,
		  "time": 108.11100299999974,
		  "velocity": 0.6929133858267716,
		  "duration": 0.11111099999999396
		},
		{
		  "name": "C#4",
		  "midi": 61,
		  "time": 108.11100299999974,
		  "velocity": 0.6929133858267716,
		  "duration": 0.11111099999999396
		},
		{
		  "name": "C#3",
		  "midi": 49,
		  "time": 108.11100299999974,
		  "velocity": 0.6929133858267716,
		  "duration": 0.11111099999999396
		},
		{
		  "name": "B3",
		  "midi": 59,
		  "time": 108.22211399999973,
		  "velocity": 0.6929133858267716,
		  "duration": 0.11111099999999396
		},
		{
		  "name": "E4",
		  "midi": 64,
		  "time": 108.22211399999973,
		  "velocity": 0.6929133858267716,
		  "duration": 0.11111099999999396
		},
		{
		  "name": "E3",
		  "midi": 52,
		  "time": 108.22211399999973,
		  "velocity": 0.6929133858267716,
		  "duration": 0.11111099999999396
		},
		{
		  "name": "E4",
		  "midi": 64,
		  "time": 108.44433599999972,
		  "velocity": 0.6929133858267716,
		  "duration": 0.11111099999999396
		},
		{
		  "name": "A4",
		  "midi": 69,
		  "time": 108.44433599999972,
		  "velocity": 0.6929133858267716,
		  "duration": 0.11111099999999396
		},
		{
		  "name": "A3",
		  "midi": 57,
		  "time": 108.44433599999972,
		  "velocity": 0.6929133858267716,
		  "duration": 0.11111099999999396
		},
		{
		  "name": "E4",
		  "midi": 64,
		  "time": 108.66655799999971,
		  "velocity": 0.6929133858267716,
		  "duration": 0.11111099999999396
		},
		{
		  "name": "A4",
		  "midi": 69,
		  "time": 108.66655799999971,
		  "velocity": 0.6929133858267716,
		  "duration": 0.11111099999999396
		},
		{
		  "name": "A3",
		  "midi": 57,
		  "time": 108.66655799999971,
		  "velocity": 0.6929133858267716,
		  "duration": 0.11111099999999396
		},
		{
		  "name": "F#4",
		  "midi": 66,
		  "time": 110.22211199999971,
		  "velocity": 0.6929133858267716,
		  "duration": 0.11111099999999396
		},
		{
		  "name": "B4",
		  "midi": 71,
		  "time": 110.22211199999971,
		  "velocity": 0.6929133858267716,
		  "duration": 0.11111099999999396
		},
		{
		  "name": "B3",
		  "midi": 59,
		  "time": 110.22211199999971,
		  "velocity": 0.6929133858267716,
		  "duration": 0.11111099999999396
		},
		{
		  "name": "F#4",
		  "midi": 66,
		  "time": 110.4443339999997,
		  "velocity": 0.6929133858267716,
		  "duration": 0.11111099999999396
		},
		{
		  "name": "B4",
		  "midi": 71,
		  "time": 110.4443339999997,
		  "velocity": 0.6929133858267716,
		  "duration": 0.11111099999999396
		},
		{
		  "name": "B3",
		  "midi": 59,
		  "time": 110.4443339999997,
		  "velocity": 0.6929133858267716,
		  "duration": 0.11111099999999396
		},
		{
		  "name": "E4",
		  "midi": 64,
		  "time": 111.3332219999997,
		  "velocity": 0.6929133858267716,
		  "duration": 0.11111099999999396
		},
		{
		  "name": "A4",
		  "midi": 69,
		  "time": 111.3332219999997,
		  "velocity": 0.6929133858267716,
		  "duration": 0.11111099999999396
		},
		{
		  "name": "A3",
		  "midi": 57,
		  "time": 111.3332219999997,
		  "velocity": 0.6929133858267716,
		  "duration": 0.11111099999999396
		},
		{
		  "name": "E4",
		  "midi": 64,
		  "time": 111.44433299999969,
		  "velocity": 0.6929133858267716,
		  "duration": 0.11111099999999396
		},
		{
		  "name": "A4",
		  "midi": 69,
		  "time": 111.44433299999969,
		  "velocity": 0.6929133858267716,
		  "duration": 0.11111099999999396
		},
		{
		  "name": "A3",
		  "midi": 57,
		  "time": 111.44433299999969,
		  "velocity": 0.6929133858267716,
		  "duration": 0.11111099999999396
		},
		{
		  "name": "C#4",
		  "midi": 61,
		  "time": 111.66655499999968,
		  "velocity": 0.6929133858267716,
		  "duration": 0.11111099999999396
		},
		{
		  "name": "F#4",
		  "midi": 66,
		  "time": 111.66655499999968,
		  "velocity": 0.6929133858267716,
		  "duration": 0.11111099999999396
		},
		{
		  "name": "F#3",
		  "midi": 54,
		  "time": 111.66655499999968,
		  "velocity": 0.6929133858267716,
		  "duration": 0.11111099999999396
		},
		{
		  "name": "E4",
		  "midi": 64,
		  "time": 111.77766599999967,
		  "velocity": 0.6929133858267716,
		  "duration": 0.11111099999999396
		},
		{
		  "name": "A4",
		  "midi": 69,
		  "time": 111.77766599999967,
		  "velocity": 0.6929133858267716,
		  "duration": 0.11111099999999396
		},
		{
		  "name": "A3",
		  "midi": 57,
		  "time": 111.77766599999967,
		  "velocity": 0.6929133858267716,
		  "duration": 0.11111099999999396
		},
		{
		  "name": "C#4",
		  "midi": 61,
		  "time": 111.99988799999966,
		  "velocity": 0.6929133858267716,
		  "duration": 0.11111099999999396
		},
		{
		  "name": "F#4",
		  "midi": 66,
		  "time": 111.99988799999966,
		  "velocity": 0.6929133858267716,
		  "duration": 0.11111099999999396
		},
		{
		  "name": "F#3",
		  "midi": 54,
		  "time": 111.99988799999966,
		  "velocity": 0.6929133858267716,
		  "duration": 0.11111099999999396
		},
		{
		  "name": "C#4",
		  "midi": 61,
		  "time": 112.22210999999965,
		  "velocity": 0.6929133858267716,
		  "duration": 0.11111099999999396
		},
		{
		  "name": "F#4",
		  "midi": 66,
		  "time": 112.22210999999965,
		  "velocity": 0.6929133858267716,
		  "duration": 0.11111099999999396
		},
		{
		  "name": "F#3",
		  "midi": 54,
		  "time": 112.22210999999965,
		  "velocity": 0.6929133858267716,
		  "duration": 0.11111099999999396
		},
		{
		  "name": "E4",
		  "midi": 64,
		  "time": 114.88877399999964,
		  "velocity": 0.6929133858267716,
		  "duration": 0.11111099999999396
		},
		{
		  "name": "A4",
		  "midi": 69,
		  "time": 114.88877399999964,
		  "velocity": 0.6929133858267716,
		  "duration": 0.11111099999999396
		},
		{
		  "name": "A3",
		  "midi": 57,
		  "time": 114.88877399999964,
		  "velocity": 0.6929133858267716,
		  "duration": 0.11111099999999396
		},
		{
		  "name": "E4",
		  "midi": 64,
		  "time": 114.99988499999964,
		  "velocity": 0.6929133858267716,
		  "duration": 0.11111099999999396
		},
		{
		  "name": "A4",
		  "midi": 69,
		  "time": 114.99988499999964,
		  "velocity": 0.6929133858267716,
		  "duration": 0.11111099999999396
		},
		{
		  "name": "A3",
		  "midi": 57,
		  "time": 114.99988499999964,
		  "velocity": 0.6929133858267716,
		  "duration": 0.11111099999999396
		},
		{
		  "name": "C#4",
		  "midi": 61,
		  "time": 115.22210699999962,
		  "velocity": 0.6929133858267716,
		  "duration": 0.11111099999999396
		},
		{
		  "name": "F#4",
		  "midi": 66,
		  "time": 115.22210699999962,
		  "velocity": 0.6929133858267716,
		  "duration": 0.11111099999999396
		},
		{
		  "name": "F#3",
		  "midi": 54,
		  "time": 115.22210699999962,
		  "velocity": 0.6929133858267716,
		  "duration": 0.11111099999999396
		},
		{
		  "name": "E4",
		  "midi": 64,
		  "time": 115.33321799999962,
		  "velocity": 0.6929133858267716,
		  "duration": 0.11111099999999396
		},
		{
		  "name": "A4",
		  "midi": 69,
		  "time": 115.33321799999962,
		  "velocity": 0.6929133858267716,
		  "duration": 0.11111099999999396
		},
		{
		  "name": "A3",
		  "midi": 57,
		  "time": 115.33321799999962,
		  "velocity": 0.6929133858267716,
		  "duration": 0.11111099999999396
		},
		{
		  "name": "C#4",
		  "midi": 61,
		  "time": 115.5554399999996,
		  "velocity": 0.6929133858267716,
		  "duration": 0.11111099999999396
		},
		{
		  "name": "F#4",
		  "midi": 66,
		  "time": 115.5554399999996,
		  "velocity": 0.6929133858267716,
		  "duration": 0.11111099999999396
		},
		{
		  "name": "F#3",
		  "midi": 54,
		  "time": 115.5554399999996,
		  "velocity": 0.6929133858267716,
		  "duration": 0.11111099999999396
		},
		{
		  "name": "C#4",
		  "midi": 61,
		  "time": 115.7776619999996,
		  "velocity": 0.6929133858267716,
		  "duration": 0.11111099999999396
		},
		{
		  "name": "F#4",
		  "midi": 66,
		  "time": 115.7776619999996,
		  "velocity": 0.6929133858267716,
		  "duration": 0.11111099999999396
		},
		{
		  "name": "F#3",
		  "midi": 54,
		  "time": 115.7776619999996,
		  "velocity": 0.6929133858267716,
		  "duration": 0.11111099999999396
		},
		{
		  "name": "E4",
		  "midi": 64,
		  "time": 118.44432599999959,
		  "velocity": 0.6929133858267716,
		  "duration": 0.11111099999999396
		},
		{
		  "name": "A4",
		  "midi": 69,
		  "time": 118.44432599999959,
		  "velocity": 0.6929133858267716,
		  "duration": 0.11111099999999396
		},
		{
		  "name": "A3",
		  "midi": 57,
		  "time": 118.44432599999959,
		  "velocity": 0.6929133858267716,
		  "duration": 0.11111099999999396
		},
		{
		  "name": "E4",
		  "midi": 64,
		  "time": 118.55543699999959,
		  "velocity": 0.6929133858267716,
		  "duration": 0.11111099999999396
		},
		{
		  "name": "A4",
		  "midi": 69,
		  "time": 118.55543699999959,
		  "velocity": 0.6929133858267716,
		  "duration": 0.11111099999999396
		},
		{
		  "name": "A3",
		  "midi": 57,
		  "time": 118.55543699999959,
		  "velocity": 0.6929133858267716,
		  "duration": 0.11111099999999396
		},
		{
		  "name": "C#4",
		  "midi": 61,
		  "time": 118.77765899999957,
		  "velocity": 0.6929133858267716,
		  "duration": 0.11111099999999396
		},
		{
		  "name": "F#4",
		  "midi": 66,
		  "time": 118.77765899999957,
		  "velocity": 0.6929133858267716,
		  "duration": 0.11111099999999396
		},
		{
		  "name": "F#3",
		  "midi": 54,
		  "time": 118.77765899999957,
		  "velocity": 0.6929133858267716,
		  "duration": 0.11111099999999396
		},
		{
		  "name": "E4",
		  "midi": 64,
		  "time": 118.88876999999957,
		  "velocity": 0.6929133858267716,
		  "duration": 0.11111099999999396
		},
		{
		  "name": "A4",
		  "midi": 69,
		  "time": 118.88876999999957,
		  "velocity": 0.6929133858267716,
		  "duration": 0.11111099999999396
		},
		{
		  "name": "A3",
		  "midi": 57,
		  "time": 118.88876999999957,
		  "velocity": 0.6929133858267716,
		  "duration": 0.11111099999999396
		},
		{
		  "name": "C#4",
		  "midi": 61,
		  "time": 119.11099199999956,
		  "velocity": 0.6929133858267716,
		  "duration": 0.11111099999999396
		},
		{
		  "name": "F#4",
		  "midi": 66,
		  "time": 119.11099199999956,
		  "velocity": 0.6929133858267716,
		  "duration": 0.11111099999999396
		},
		{
		  "name": "F#3",
		  "midi": 54,
		  "time": 119.11099199999956,
		  "velocity": 0.6929133858267716,
		  "duration": 0.11111099999999396
		},
		{
		  "name": "C#4",
		  "midi": 61,
		  "time": 119.33321399999954,
		  "velocity": 0.6929133858267716,
		  "duration": 0.11111099999999396
		},
		{
		  "name": "F#4",
		  "midi": 66,
		  "time": 119.33321399999954,
		  "velocity": 0.6929133858267716,
		  "duration": 0.11111099999999396
		},
		{
		  "name": "F#3",
		  "midi": 54,
		  "time": 119.33321399999954,
		  "velocity": 0.6929133858267716,
		  "duration": 0.11111099999999396
		},
		{
		  "name": "B3",
		  "midi": 59,
		  "time": 121.99987799999954,
		  "velocity": 0.6929133858267716,
		  "duration": 0.11111099999999396
		},
		{
		  "name": "E4",
		  "midi": 64,
		  "time": 121.99987799999954,
		  "velocity": 0.6929133858267716,
		  "duration": 0.11111099999999396
		},
		{
		  "name": "E3",
		  "midi": 52,
		  "time": 121.99987799999954,
		  "velocity": 0.6929133858267716,
		  "duration": 0.11111099999999396
		},
		{
		  "name": "B3",
		  "midi": 59,
		  "time": 122.11098899999953,
		  "velocity": 0.6929133858267716,
		  "duration": 0.11111099999999396
		},
		{
		  "name": "E4",
		  "midi": 64,
		  "time": 122.11098899999953,
		  "velocity": 0.6929133858267716,
		  "duration": 0.11111099999999396
		},
		{
		  "name": "E3",
		  "midi": 52,
		  "time": 122.11098899999953,
		  "velocity": 0.6929133858267716,
		  "duration": 0.11111099999999396
		},
		{
		  "name": "A3",
		  "midi": 57,
		  "time": 122.33321099999952,
		  "velocity": 0.6929133858267716,
		  "duration": 0.11111099999999396
		},
		{
		  "name": "C#4",
		  "midi": 61,
		  "time": 122.33321099999952,
		  "velocity": 0.6929133858267716,
		  "duration": 0.11111099999999396
		},
		{
		  "name": "C#3",
		  "midi": 49,
		  "time": 122.33321099999952,
		  "velocity": 0.6929133858267716,
		  "duration": 0.11111099999999396
		},
		{
		  "name": "B3",
		  "midi": 59,
		  "time": 122.44432199999952,
		  "velocity": 0.6929133858267716,
		  "duration": 0.11111099999999396
		},
		{
		  "name": "E4",
		  "midi": 64,
		  "time": 122.44432199999952,
		  "velocity": 0.6929133858267716,
		  "duration": 0.11111099999999396
		},
		{
		  "name": "E3",
		  "midi": 52,
		  "time": 122.44432199999952,
		  "velocity": 0.6929133858267716,
		  "duration": 0.11111099999999396
		},
		{
		  "name": "E4",
		  "midi": 64,
		  "time": 122.6665439999995,
		  "velocity": 0.6929133858267716,
		  "duration": 0.11111099999999396
		},
		{
		  "name": "A4",
		  "midi": 69,
		  "time": 122.6665439999995,
		  "velocity": 0.6929133858267716,
		  "duration": 0.11111099999999396
		},
		{
		  "name": "A3",
		  "midi": 57,
		  "time": 122.6665439999995,
		  "velocity": 0.6929133858267716,
		  "duration": 0.11111099999999396
		},
		{
		  "name": "E4",
		  "midi": 64,
		  "time": 122.88876599999949,
		  "velocity": 0.6929133858267716,
		  "duration": 0.11111099999999396
		},
		{
		  "name": "A4",
		  "midi": 69,
		  "time": 122.88876599999949,
		  "velocity": 0.6929133858267716,
		  "duration": 0.11111099999999396
		},
		{
		  "name": "A3",
		  "midi": 57,
		  "time": 122.88876599999949,
		  "velocity": 0.6929133858267716,
		  "duration": 0.11111099999999396
		},
		{
		  "name": "F#4",
		  "midi": 66,
		  "time": 124.4443199999995,
		  "velocity": 0.6929133858267716,
		  "duration": 0.11111099999999396
		},
		{
		  "name": "B4",
		  "midi": 71,
		  "time": 124.4443199999995,
		  "velocity": 0.6929133858267716,
		  "duration": 0.11111099999999396
		},
		{
		  "name": "B3",
		  "midi": 59,
		  "time": 124.4443199999995,
		  "velocity": 0.6929133858267716,
		  "duration": 0.11111099999999396
		},
		{
		  "name": "F#4",
		  "midi": 66,
		  "time": 124.66654199999948,
		  "velocity": 0.6929133858267716,
		  "duration": 0.11111099999999396
		},
		{
		  "name": "B4",
		  "midi": 71,
		  "time": 124.66654199999948,
		  "velocity": 0.6929133858267716,
		  "duration": 0.11111099999999396
		},
		{
		  "name": "B3",
		  "midi": 59,
		  "time": 124.66654199999948,
		  "velocity": 0.6929133858267716,
		  "duration": 0.11111099999999396
		},
		{
		  "name": "E4",
		  "midi": 64,
		  "time": 125.55542999999948,
		  "velocity": 0.6929133858267716,
		  "duration": 0.11111099999999396
		},
		{
		  "name": "A4",
		  "midi": 69,
		  "time": 125.55542999999948,
		  "velocity": 0.6929133858267716,
		  "duration": 0.11111099999999396
		},
		{
		  "name": "A3",
		  "midi": 57,
		  "time": 125.55542999999948,
		  "velocity": 0.6929133858267716,
		  "duration": 0.11111099999999396
		},
		{
		  "name": "E4",
		  "midi": 64,
		  "time": 125.66654099999947,
		  "velocity": 0.6929133858267716,
		  "duration": 0.11111099999999396
		},
		{
		  "name": "A4",
		  "midi": 69,
		  "time": 125.66654099999947,
		  "velocity": 0.6929133858267716,
		  "duration": 0.11111099999999396
		},
		{
		  "name": "A3",
		  "midi": 57,
		  "time": 125.66654099999947,
		  "velocity": 0.6929133858267716,
		  "duration": 0.11111099999999396
		},
		{
		  "name": "C#4",
		  "midi": 61,
		  "time": 125.88876299999946,
		  "velocity": 0.6929133858267716,
		  "duration": 0.11111099999999396
		},
		{
		  "name": "F#4",
		  "midi": 66,
		  "time": 125.88876299999946,
		  "velocity": 0.6929133858267716,
		  "duration": 0.11111099999999396
		},
		{
		  "name": "F#3",
		  "midi": 54,
		  "time": 125.88876299999946,
		  "velocity": 0.6929133858267716,
		  "duration": 0.11111099999999396
		},
		{
		  "name": "E4",
		  "midi": 64,
		  "time": 125.99987399999945,
		  "velocity": 0.6929133858267716,
		  "duration": 0.11111099999999396
		},
		{
		  "name": "A4",
		  "midi": 69,
		  "time": 125.99987399999945,
		  "velocity": 0.6929133858267716,
		  "duration": 0.11111099999999396
		},
		{
		  "name": "A3",
		  "midi": 57,
		  "time": 125.99987399999945,
		  "velocity": 0.6929133858267716,
		  "duration": 0.11111099999999396
		},
		{
		  "name": "C#4",
		  "midi": 61,
		  "time": 126.22209599999944,
		  "velocity": 0.6929133858267716,
		  "duration": 0.11111099999999396
		},
		{
		  "name": "F#4",
		  "midi": 66,
		  "time": 126.22209599999944,
		  "velocity": 0.6929133858267716,
		  "duration": 0.11111099999999396
		},
		{
		  "name": "F#3",
		  "midi": 54,
		  "time": 126.22209599999944,
		  "velocity": 0.6929133858267716,
		  "duration": 0.11111099999999396
		},
		{
		  "name": "C#4",
		  "midi": 61,
		  "time": 126.44431799999943,
		  "velocity": 0.6929133858267716,
		  "duration": 0.11111099999999396
		},
		{
		  "name": "F#4",
		  "midi": 66,
		  "time": 126.44431799999943,
		  "velocity": 0.6929133858267716,
		  "duration": 0.11111099999999396
		},
		{
		  "name": "F#3",
		  "midi": 54,
		  "time": 126.44431799999943,
		  "velocity": 0.6929133858267716,
		  "duration": 0.11111099999999396
		},
		{
		  "name": "C#4",
		  "midi": 61,
		  "time": 129.22209299999943,
		  "velocity": 0.6929133858267716,
		  "duration": 0.11111099999999396
		},
		{
		  "name": "F#4",
		  "midi": 66,
		  "time": 129.22209299999943,
		  "velocity": 0.6929133858267716,
		  "duration": 0.11111099999999396
		},
		{
		  "name": "F#3",
		  "midi": 54,
		  "time": 129.22209299999943,
		  "velocity": 0.6929133858267716,
		  "duration": 0.11111099999999396
		},
		{
		  "name": "C#4",
		  "midi": 61,
		  "time": 129.55542599999941,
		  "velocity": 0.6929133858267716,
		  "duration": 0.11111099999999396
		},
		{
		  "name": "F#4",
		  "midi": 66,
		  "time": 129.55542599999941,
		  "velocity": 0.6929133858267716,
		  "duration": 0.11111099999999396
		},
		{
		  "name": "F#3",
		  "midi": 54,
		  "time": 129.55542599999941,
		  "velocity": 0.6929133858267716,
		  "duration": 0.11111099999999396
		},
		{
		  "name": "E4",
		  "midi": 64,
		  "time": 152.8887359999994,
		  "velocity": 0.3937007874015748,
		  "duration": 0.11111099999999396
		},
		{
		  "name": "F#4",
		  "midi": 66,
		  "time": 153.11095799999939,
		  "velocity": 0.6141732283464567,
		  "duration": 0.11111099999999396
		},
		{
		  "name": "E4",
		  "midi": 64,
		  "time": 153.33317999999937,
		  "velocity": 0.3937007874015748,
		  "duration": 0.11111099999999396
		},
		{
		  "name": "F#4",
		  "midi": 66,
		  "time": 153.44429099999937,
		  "velocity": 0.6141732283464567,
		  "duration": 0.22222199999998793
		},
		{
		  "name": "F#4",
		  "midi": 66,
		  "time": 153.77762399999935,
		  "velocity": 0.6141732283464567,
		  "duration": 0.11111099999999396
		},
		{
		  "name": "E4",
		  "midi": 64,
		  "time": 153.99984599999934,
		  "velocity": 0.3937007874015748,
		  "duration": 0.11111099999999396
		},
		{
		  "name": "F#4",
		  "midi": 66,
		  "time": 154.11095699999933,
		  "velocity": 0.6141732283464567,
		  "duration": 0.22222199999998793
		},
		{
		  "name": "F#4",
		  "midi": 66,
		  "time": 154.4442899999993,
		  "velocity": 0.3937007874015748,
		  "duration": 0.11111099999999396
		},
		{
		  "name": "F#4",
		  "midi": 66,
		  "time": 154.6665119999993,
		  "velocity": 0.3937007874015748,
		  "duration": 0.11111099999999396
		},
		{
		  "name": "G#4",
		  "midi": 68,
		  "time": 154.8887339999993,
		  "velocity": 0.6771653543307087,
		  "duration": 0.11111099999999396
		},
		{
		  "name": "F#4",
		  "midi": 66,
		  "time": 155.11095599999928,
		  "velocity": 0.4566929133858268,
		  "duration": 0.11111099999999396
		},
		{
		  "name": "G#4",
		  "midi": 68,
		  "time": 155.22206699999927,
		  "velocity": 0.6771653543307087,
		  "duration": 0.22222199999998793
		},
		{
		  "name": "G#4",
		  "midi": 68,
		  "time": 155.55539999999925,
		  "velocity": 0.6771653543307087,
		  "duration": 0.11111099999999396
		},
		{
		  "name": "F#4",
		  "midi": 66,
		  "time": 155.77762199999924,
		  "velocity": 0.4566929133858268,
		  "duration": 0.11111099999999396
		},
		{
		  "name": "G#4",
		  "midi": 68,
		  "time": 155.88873299999923,
		  "velocity": 0.6771653543307087,
		  "duration": 0.22222199999998793
		},
		{
		  "name": "G#4",
		  "midi": 68,
		  "time": 156.22206599999922,
		  "velocity": 0.4566929133858268,
		  "duration": 0.11111099999999396
		},
		{
		  "name": "G4",
		  "midi": 67,
		  "time": 156.4442879999992,
		  "velocity": 0.3937007874015748,
		  "duration": 0.11111099999999396
		},
		{
		  "name": "A4",
		  "midi": 69,
		  "time": 156.6665099999992,
		  "velocity": 0.7086614173228346,
		  "duration": 0.11111099999999396
		},
		{
		  "name": "G4",
		  "midi": 67,
		  "time": 156.88873199999918,
		  "velocity": 0.4881889763779528,
		  "duration": 0.11111099999999396
		},
		{
		  "name": "A4",
		  "midi": 69,
		  "time": 156.99984299999917,
		  "velocity": 0.7086614173228346,
		  "duration": 0.22222199999998793
		},
		{
		  "name": "A4",
		  "midi": 69,
		  "time": 157.33317599999916,
		  "velocity": 0.7086614173228346,
		  "duration": 0.11111099999999396
		},
		{
		  "name": "G4",
		  "midi": 67,
		  "time": 157.55539799999914,
		  "velocity": 0.4881889763779528,
		  "duration": 0.11111099999999396
		},
		{
		  "name": "A4",
		  "midi": 69,
		  "time": 157.66650899999914,
		  "velocity": 0.7086614173228346,
		  "duration": 0.22222199999998793
		},
		{
		  "name": "A4",
		  "midi": 69,
		  "time": 157.99984199999912,
		  "velocity": 0.4881889763779528,
		  "duration": 0.11111099999999396
		},
		{
		  "name": "B4",
		  "midi": 71,
		  "time": 158.2220639999991,
		  "velocity": 0.5511811023622047,
		  "duration": 0.22222199999998793
		},
		{
		  "name": "A4",
		  "midi": 69,
		  "time": 158.4442859999991,
		  "velocity": 0.6771653543307087,
		  "duration": 0.11111099999999396
		},
		{
		  "name": "B4",
		  "midi": 71,
		  "time": 158.5553969999991,
		  "velocity": 0.7716535433070866,
		  "duration": 0.22222199999998793
		},
		{
		  "name": "D5",
		  "midi": 74,
		  "time": 158.77761899999908,
		  "velocity": 0.5511811023622047,
		  "duration": 0.11111099999999396
		},
		{
		  "name": "B4",
		  "midi": 71,
		  "time": 158.88872999999907,
		  "velocity": 0.7716535433070866,
		  "duration": 0.11111099999999396
		},
		{
		  "name": "F#4",
		  "midi": 66,
		  "time": 158.99984099999907,
		  "velocity": 0.5511811023622047,
		  "duration": 0.11111099999999396
		},
		{
		  "name": "A4",
		  "midi": 69,
		  "time": 159.11095199999906,
		  "velocity": 0.6771653543307087,
		  "duration": 0.11111099999999396
		},
		{
		  "name": "B4",
		  "midi": 71,
		  "time": 159.22206299999905,
		  "velocity": 0.7716535433070866,
		  "duration": 0.22222199999998793
		},
		{
		  "name": "D5",
		  "midi": 74,
		  "time": 159.44428499999904,
		  "velocity": 0.5511811023622047,
		  "duration": 0.11111099999999396
		},
		{
		  "name": "B4",
		  "midi": 71,
		  "time": 159.55539599999904,
		  "velocity": 0.5511811023622047,
		  "duration": 0.11111099999999396
		},
		{
		  "name": "D5",
		  "midi": 74,
		  "time": 159.66650699999903,
		  "velocity": 0.5511811023622047,
		  "duration": 0.11111099999999396
		},
		{
		  "name": "B4",
		  "midi": 71,
		  "time": 159.77761799999902,
		  "velocity": 0.5511811023622047,
		  "duration": 0.22222199999998793
		},
		{
		  "name": "F#4",
		  "midi": 66,
		  "time": 159.999839999999,
		  "velocity": 0.7637795275590551,
		  "duration": 0.22222199999998793
		},
		{
		  "name": "C#5",
		  "midi": 73,
		  "time": 160.444283999999,
		  "velocity": 0.7637795275590551,
		  "duration": 0.22222199999998793
		},
		{
		  "name": "F#5",
		  "midi": 78,
		  "time": 160.88872799999896,
		  "velocity": 0.7637795275590551,
		  "duration": 0.22222199999998793
		},
		{
		  "name": "C#5",
		  "midi": 73,
		  "time": 161.33317199999894,
		  "velocity": 0.7716535433070866,
		  "duration": 0.22222199999998793
		},
		{
		  "name": "G#4",
		  "midi": 68,
		  "time": 161.77761599999891,
		  "velocity": 0.7716535433070866,
		  "duration": 0.22222199999998793
		},
		{
		  "name": "D#5",
		  "midi": 75,
		  "time": 162.2220599999989,
		  "velocity": 0.7795275590551181,
		  "duration": 0.22222199999998793
		},
		{
		  "name": "G#5",
		  "midi": 80,
		  "time": 162.66650399999887,
		  "velocity": 0.7795275590551181,
		  "duration": 0.22222199999998793
		},
		{
		  "name": "D#5",
		  "midi": 75,
		  "time": 163.11094799999884,
		  "velocity": 0.7874015748031497,
		  "duration": 0.22222199999998793
		},
		{
		  "name": "A4",
		  "midi": 69,
		  "time": 163.55539199999882,
		  "velocity": 0.7874015748031497,
		  "duration": 0.22222199999998793
		},
		{
		  "name": "E5",
		  "midi": 76,
		  "time": 163.9998359999988,
		  "velocity": 0.7952755905511811,
		  "duration": 0.22222199999998793
		},
		{
		  "name": "A5",
		  "midi": 81,
		  "time": 164.44427999999877,
		  "velocity": 0.7952755905511811,
		  "duration": 0.22222199999998793
		},
		{
		  "name": "E5",
		  "midi": 76,
		  "time": 164.88872399999875,
		  "velocity": 0.8031496062992126,
		  "duration": 0.22222199999998793
		},
		{
		  "name": "B4",
		  "midi": 71,
		  "time": 165.33316799999872,
		  "velocity": 0.8031496062992126,
		  "duration": 0.22222199999998793
		},
		{
		  "name": "F#5",
		  "midi": 78,
		  "time": 165.7776119999987,
		  "velocity": 0.8031496062992126,
		  "duration": 0.22222199999998793
		},
		{
		  "name": "B5",
		  "midi": 83,
		  "time": 166.22205599999867,
		  "velocity": 0.8110236220472441,
		  "duration": 0.22222199999998793
		},
		{
		  "name": "F#5",
		  "midi": 78,
		  "time": 166.66649999999865,
		  "velocity": 0.8110236220472441,
		  "duration": 0.22222199999998793
		},
		{
		  "name": "C#5",
		  "midi": 73,
		  "time": 167.11094399999863,
		  "velocity": 0.8188976377952756,
		  "duration": 0.22222199999998793
		},
		{
		  "name": "G#5",
		  "midi": 80,
		  "time": 167.5553879999986,
		  "velocity": 0.8188976377952756,
		  "duration": 0.22222199999998793
		},
		{
		  "name": "C#6",
		  "midi": 85,
		  "time": 167.99983199999858,
		  "velocity": 0.8267716535433071,
		  "duration": 0.22222199999998793
		},
		{
		  "name": "G#5",
		  "midi": 80,
		  "time": 168.44427599999855,
		  "velocity": 0.8267716535433071,
		  "duration": 0.22222199999998793
		},
		{
		  "name": "D#5",
		  "midi": 75,
		  "time": 168.88871999999853,
		  "velocity": 0.8346456692913385,
		  "duration": 0.22222199999998793
		},
		{
		  "name": "A#5",
		  "midi": 82,
		  "time": 169.3331639999985,
		  "velocity": 0.8346456692913385,
		  "duration": 0.22222199999998793
		},
		{
		  "name": "D#6",
		  "midi": 87,
		  "time": 169.77760799999848,
		  "velocity": 0.8346456692913385,
		  "duration": 0.22222199999998793
		},
		{
		  "name": "A#5",
		  "midi": 82,
		  "time": 170.22205199999846,
		  "velocity": 0.84251968503937,
		  "duration": 0.22222199999998793
		},
		{
		  "name": "E5",
		  "midi": 76,
		  "time": 170.66649599999843,
		  "velocity": 0.84251968503937,
		  "duration": 0.22222199999998793
		},
		{
		  "name": "B5",
		  "midi": 83,
		  "time": 171.1109399999984,
		  "velocity": 0.8503937007874016,
		  "duration": 0.22222199999998793
		},
		{
		  "name": "E6",
		  "midi": 88,
		  "time": 171.55538399999838,
		  "velocity": 0.8503937007874016,
		  "duration": 0.22222199999998793
		},
		{
		  "name": "B5",
		  "midi": 83,
		  "time": 171.99982799999836,
		  "velocity": 0.8582677165354331,
		  "duration": 0.22222199999998793
		},
		{
		  "name": "F#5",
		  "midi": 78,
		  "time": 172.44427199999834,
		  "velocity": 0.8582677165354331,
		  "duration": 0.22222199999998793
		},
		{
		  "name": "C#6",
		  "midi": 85,
		  "time": 172.8887159999983,
		  "velocity": 0.8661417322834646,
		  "duration": 0.22222199999998793
		},
		{
		  "name": "F#6",
		  "midi": 90,
		  "time": 173.3331599999983,
		  "velocity": 0.8661417322834646,
		  "duration": 0.22222199999998793
		},
		{
		  "name": "C#6",
		  "midi": 85,
		  "time": 173.77760399999826,
		  "velocity": 0.8661417322834646,
		  "duration": 0.22222199999998793
		},
		{
		  "name": "C#4",
		  "midi": 61,
		  "time": 202.66646399999826,
		  "velocity": 0.6929133858267716,
		  "duration": 0.11111099999999396
		},
		{
		  "name": "F#4",
		  "midi": 66,
		  "time": 202.66646399999826,
		  "velocity": 0.6929133858267716,
		  "duration": 0.11111099999999396
		},
		{
		  "name": "F#3",
		  "midi": 54,
		  "time": 202.66646399999826,
		  "velocity": 0.6929133858267716,
		  "duration": 0.11111099999999396
		},
		{
		  "name": "C#4",
		  "midi": 61,
		  "time": 202.88868599999824,
		  "velocity": 0.6929133858267716,
		  "duration": 0.11111099999999396
		},
		{
		  "name": "F#4",
		  "midi": 66,
		  "time": 202.88868599999824,
		  "velocity": 0.6929133858267716,
		  "duration": 0.11111099999999396
		},
		{
		  "name": "F#3",
		  "midi": 54,
		  "time": 202.88868599999824,
		  "velocity": 0.6929133858267716,
		  "duration": 0.11111099999999396
		},
		{
		  "name": "B3",
		  "midi": 59,
		  "time": 205.55534999999824,
		  "velocity": 0.6929133858267716,
		  "duration": 0.11111099999999396
		},
		{
		  "name": "E4",
		  "midi": 64,
		  "time": 205.55534999999824,
		  "velocity": 0.6929133858267716,
		  "duration": 0.11111099999999396
		},
		{
		  "name": "E3",
		  "midi": 52,
		  "time": 205.55534999999824,
		  "velocity": 0.6929133858267716,
		  "duration": 0.11111099999999396
		},
		{
		  "name": "B3",
		  "midi": 59,
		  "time": 205.66646099999824,
		  "velocity": 0.6929133858267716,
		  "duration": 0.11111099999999396
		},
		{
		  "name": "E4",
		  "midi": 64,
		  "time": 205.66646099999824,
		  "velocity": 0.6929133858267716,
		  "duration": 0.11111099999999396
		},
		{
		  "name": "E3",
		  "midi": 52,
		  "time": 205.66646099999824,
		  "velocity": 0.6929133858267716,
		  "duration": 0.11111099999999396
		},
		{
		  "name": "A3",
		  "midi": 57,
		  "time": 205.88868299999822,
		  "velocity": 0.6929133858267716,
		  "duration": 0.11111099999999396
		},
		{
		  "name": "C#4",
		  "midi": 61,
		  "time": 205.88868299999822,
		  "velocity": 0.6929133858267716,
		  "duration": 0.11111099999999396
		},
		{
		  "name": "C#3",
		  "midi": 49,
		  "time": 205.88868299999822,
		  "velocity": 0.6929133858267716,
		  "duration": 0.11111099999999396
		},
		{
		  "name": "B3",
		  "midi": 59,
		  "time": 205.99979399999822,
		  "velocity": 0.6929133858267716,
		  "duration": 0.11111099999999396
		},
		{
		  "name": "E4",
		  "midi": 64,
		  "time": 205.99979399999822,
		  "velocity": 0.6929133858267716,
		  "duration": 0.11111099999999396
		},
		{
		  "name": "E3",
		  "midi": 52,
		  "time": 205.99979399999822,
		  "velocity": 0.6929133858267716,
		  "duration": 0.11111099999999396
		},
		{
		  "name": "C#4",
		  "midi": 61,
		  "time": 206.2220159999982,
		  "velocity": 0.6929133858267716,
		  "duration": 0.11111099999999396
		},
		{
		  "name": "F#4",
		  "midi": 66,
		  "time": 206.2220159999982,
		  "velocity": 0.6929133858267716,
		  "duration": 0.11111099999999396
		},
		{
		  "name": "F#3",
		  "midi": 54,
		  "time": 206.2220159999982,
		  "velocity": 0.6929133858267716,
		  "duration": 0.11111099999999396
		},
		{
		  "name": "C#4",
		  "midi": 61,
		  "time": 206.4442379999982,
		  "velocity": 0.6929133858267716,
		  "duration": 0.11111099999999396
		},
		{
		  "name": "F#4",
		  "midi": 66,
		  "time": 206.4442379999982,
		  "velocity": 0.6929133858267716,
		  "duration": 0.11111099999999396
		},
		{
		  "name": "F#3",
		  "midi": 54,
		  "time": 206.4442379999982,
		  "velocity": 0.6929133858267716,
		  "duration": 0.11111099999999396
		},
		{
		  "name": "E4",
		  "midi": 64,
		  "time": 209.1109019999982,
		  "velocity": 0.6929133858267716,
		  "duration": 0.11111099999999396
		},
		{
		  "name": "A4",
		  "midi": 69,
		  "time": 209.1109019999982,
		  "velocity": 0.6929133858267716,
		  "duration": 0.11111099999999396
		},
		{
		  "name": "A3",
		  "midi": 57,
		  "time": 209.1109019999982,
		  "velocity": 0.6929133858267716,
		  "duration": 0.11111099999999396
		},
		{
		  "name": "E4",
		  "midi": 64,
		  "time": 209.22201299999819,
		  "velocity": 0.6929133858267716,
		  "duration": 0.11111099999999396
		},
		{
		  "name": "A4",
		  "midi": 69,
		  "time": 209.22201299999819,
		  "velocity": 0.6929133858267716,
		  "duration": 0.11111099999999396
		},
		{
		  "name": "A3",
		  "midi": 57,
		  "time": 209.22201299999819,
		  "velocity": 0.6929133858267716,
		  "duration": 0.11111099999999396
		},
		{
		  "name": "C#4",
		  "midi": 61,
		  "time": 209.44423499999817,
		  "velocity": 0.6929133858267716,
		  "duration": 0.11111099999999396
		},
		{
		  "name": "F#4",
		  "midi": 66,
		  "time": 209.44423499999817,
		  "velocity": 0.6929133858267716,
		  "duration": 0.11111099999999396
		},
		{
		  "name": "F#3",
		  "midi": 54,
		  "time": 209.44423499999817,
		  "velocity": 0.6929133858267716,
		  "duration": 0.11111099999999396
		},
		{
		  "name": "E4",
		  "midi": 64,
		  "time": 209.55534599999817,
		  "velocity": 0.6929133858267716,
		  "duration": 0.11111099999999396
		},
		{
		  "name": "A4",
		  "midi": 69,
		  "time": 209.55534599999817,
		  "velocity": 0.6929133858267716,
		  "duration": 0.11111099999999396
		},
		{
		  "name": "A3",
		  "midi": 57,
		  "time": 209.55534599999817,
		  "velocity": 0.6929133858267716,
		  "duration": 0.11111099999999396
		},
		{
		  "name": "C#4",
		  "midi": 61,
		  "time": 209.77756799999815,
		  "velocity": 0.6929133858267716,
		  "duration": 0.11111099999999396
		},
		{
		  "name": "F#4",
		  "midi": 66,
		  "time": 209.77756799999815,
		  "velocity": 0.6929133858267716,
		  "duration": 0.11111099999999396
		},
		{
		  "name": "F#3",
		  "midi": 54,
		  "time": 209.77756799999815,
		  "velocity": 0.6929133858267716,
		  "duration": 0.11111099999999396
		},
		{
		  "name": "C#4",
		  "midi": 61,
		  "time": 209.99978999999814,
		  "velocity": 0.6929133858267716,
		  "duration": 0.11111099999999396
		},
		{
		  "name": "F#4",
		  "midi": 66,
		  "time": 209.99978999999814,
		  "velocity": 0.6929133858267716,
		  "duration": 0.11111099999999396
		},
		{
		  "name": "F#3",
		  "midi": 54,
		  "time": 209.99978999999814,
		  "velocity": 0.6929133858267716,
		  "duration": 0.11111099999999396
		},
		{
		  "name": "B3",
		  "midi": 59,
		  "time": 212.66645399999814,
		  "velocity": 0.6929133858267716,
		  "duration": 0.11111099999999396
		},
		{
		  "name": "E4",
		  "midi": 64,
		  "time": 212.66645399999814,
		  "velocity": 0.6929133858267716,
		  "duration": 0.11111099999999396
		},
		{
		  "name": "E3",
		  "midi": 52,
		  "time": 212.66645399999814,
		  "velocity": 0.6929133858267716,
		  "duration": 0.11111099999999396
		},
		{
		  "name": "B3",
		  "midi": 59,
		  "time": 212.77756499999813,
		  "velocity": 0.6929133858267716,
		  "duration": 0.11111099999999396
		},
		{
		  "name": "E4",
		  "midi": 64,
		  "time": 212.77756499999813,
		  "velocity": 0.6929133858267716,
		  "duration": 0.11111099999999396
		},
		{
		  "name": "E3",
		  "midi": 52,
		  "time": 212.77756499999813,
		  "velocity": 0.6929133858267716,
		  "duration": 0.11111099999999396
		},
		{
		  "name": "A3",
		  "midi": 57,
		  "time": 212.99978699999812,
		  "velocity": 0.6929133858267716,
		  "duration": 0.11111099999999396
		},
		{
		  "name": "C#4",
		  "midi": 61,
		  "time": 212.99978699999812,
		  "velocity": 0.6929133858267716,
		  "duration": 0.11111099999999396
		},
		{
		  "name": "C#3",
		  "midi": 49,
		  "time": 212.99978699999812,
		  "velocity": 0.6929133858267716,
		  "duration": 0.11111099999999396
		},
		{
		  "name": "B3",
		  "midi": 59,
		  "time": 213.11089799999812,
		  "velocity": 0.6929133858267716,
		  "duration": 0.11111099999999396
		},
		{
		  "name": "E4",
		  "midi": 64,
		  "time": 213.11089799999812,
		  "velocity": 0.6929133858267716,
		  "duration": 0.11111099999999396
		},
		{
		  "name": "E3",
		  "midi": 52,
		  "time": 213.11089799999812,
		  "velocity": 0.6929133858267716,
		  "duration": 0.11111099999999396
		},
		{
		  "name": "C#4",
		  "midi": 61,
		  "time": 213.3331199999981,
		  "velocity": 0.6929133858267716,
		  "duration": 0.11111099999999396
		},
		{
		  "name": "F#4",
		  "midi": 66,
		  "time": 213.3331199999981,
		  "velocity": 0.6929133858267716,
		  "duration": 0.11111099999999396
		},
		{
		  "name": "F#3",
		  "midi": 54,
		  "time": 213.3331199999981,
		  "velocity": 0.6929133858267716,
		  "duration": 0.11111099999999396
		},
		{
		  "name": "C#4",
		  "midi": 61,
		  "time": 213.5553419999981,
		  "velocity": 0.6929133858267716,
		  "duration": 0.11111099999999396
		},
		{
		  "name": "F#4",
		  "midi": 66,
		  "time": 213.5553419999981,
		  "velocity": 0.6929133858267716,
		  "duration": 0.11111099999999396
		},
		{
		  "name": "F#3",
		  "midi": 54,
		  "time": 213.5553419999981,
		  "velocity": 0.6929133858267716,
		  "duration": 0.11111099999999396
		},
		{
		  "name": "E4",
		  "midi": 64,
		  "time": 216.2220059999981,
		  "velocity": 0.6929133858267716,
		  "duration": 0.11111099999999396
		},
		{
		  "name": "A4",
		  "midi": 69,
		  "time": 216.2220059999981,
		  "velocity": 0.6929133858267716,
		  "duration": 0.11111099999999396
		},
		{
		  "name": "A3",
		  "midi": 57,
		  "time": 216.2220059999981,
		  "velocity": 0.6929133858267716,
		  "duration": 0.11111099999999396
		},
		{
		  "name": "E4",
		  "midi": 64,
		  "time": 216.33311699999808,
		  "velocity": 0.6929133858267716,
		  "duration": 0.11111099999999396
		},
		{
		  "name": "A4",
		  "midi": 69,
		  "time": 216.33311699999808,
		  "velocity": 0.6929133858267716,
		  "duration": 0.11111099999999396
		},
		{
		  "name": "A3",
		  "midi": 57,
		  "time": 216.33311699999808,
		  "velocity": 0.6929133858267716,
		  "duration": 0.11111099999999396
		},
		{
		  "name": "C#4",
		  "midi": 61,
		  "time": 216.55533899999807,
		  "velocity": 0.6929133858267716,
		  "duration": 0.11111099999999396
		},
		{
		  "name": "F#4",
		  "midi": 66,
		  "time": 216.55533899999807,
		  "velocity": 0.6929133858267716,
		  "duration": 0.11111099999999396
		},
		{
		  "name": "F#3",
		  "midi": 54,
		  "time": 216.55533899999807,
		  "velocity": 0.6929133858267716,
		  "duration": 0.11111099999999396
		},
		{
		  "name": "E4",
		  "midi": 64,
		  "time": 216.66644999999806,
		  "velocity": 0.6929133858267716,
		  "duration": 0.11111099999999396
		},
		{
		  "name": "A4",
		  "midi": 69,
		  "time": 216.66644999999806,
		  "velocity": 0.6929133858267716,
		  "duration": 0.11111099999999396
		},
		{
		  "name": "A3",
		  "midi": 57,
		  "time": 216.66644999999806,
		  "velocity": 0.6929133858267716,
		  "duration": 0.11111099999999396
		},
		{
		  "name": "C#4",
		  "midi": 61,
		  "time": 216.88867199999805,
		  "velocity": 0.6929133858267716,
		  "duration": 0.11111099999999396
		},
		{
		  "name": "F#4",
		  "midi": 66,
		  "time": 216.88867199999805,
		  "velocity": 0.6929133858267716,
		  "duration": 0.11111099999999396
		},
		{
		  "name": "F#3",
		  "midi": 54,
		  "time": 216.88867199999805,
		  "velocity": 0.6929133858267716,
		  "duration": 0.11111099999999396
		},
		{
		  "name": "C#4",
		  "midi": 61,
		  "time": 217.11089399999804,
		  "velocity": 0.6929133858267716,
		  "duration": 0.11111099999999396
		},
		{
		  "name": "F#4",
		  "midi": 66,
		  "time": 217.11089399999804,
		  "velocity": 0.6929133858267716,
		  "duration": 0.11111099999999396
		},
		{
		  "name": "F#3",
		  "midi": 54,
		  "time": 217.11089399999804,
		  "velocity": 0.6929133858267716,
		  "duration": 0.11111099999999396
		},
		{
		  "name": "B3",
		  "midi": 59,
		  "time": 219.77755799999804,
		  "velocity": 0.6929133858267716,
		  "duration": 0.11111099999999396
		},
		{
		  "name": "E4",
		  "midi": 64,
		  "time": 219.77755799999804,
		  "velocity": 0.6929133858267716,
		  "duration": 0.11111099999999396
		},
		{
		  "name": "E3",
		  "midi": 52,
		  "time": 219.77755799999804,
		  "velocity": 0.6929133858267716,
		  "duration": 0.11111099999999396
		},
		{
		  "name": "B3",
		  "midi": 59,
		  "time": 219.88866899999803,
		  "velocity": 0.6929133858267716,
		  "duration": 0.11111099999999396
		},
		{
		  "name": "E4",
		  "midi": 64,
		  "time": 219.88866899999803,
		  "velocity": 0.6929133858267716,
		  "duration": 0.11111099999999396
		},
		{
		  "name": "E3",
		  "midi": 52,
		  "time": 219.88866899999803,
		  "velocity": 0.6929133858267716,
		  "duration": 0.11111099999999396
		},
		{
		  "name": "A3",
		  "midi": 57,
		  "time": 220.11089099999802,
		  "velocity": 0.6929133858267716,
		  "duration": 0.11111099999999396
		},
		{
		  "name": "C#4",
		  "midi": 61,
		  "time": 220.11089099999802,
		  "velocity": 0.6929133858267716,
		  "duration": 0.11111099999999396
		},
		{
		  "name": "C#3",
		  "midi": 49,
		  "time": 220.11089099999802,
		  "velocity": 0.6929133858267716,
		  "duration": 0.11111099999999396
		},
		{
		  "name": "B3",
		  "midi": 59,
		  "time": 220.222001999998,
		  "velocity": 0.6929133858267716,
		  "duration": 0.11111099999999396
		},
		{
		  "name": "E4",
		  "midi": 64,
		  "time": 220.222001999998,
		  "velocity": 0.6929133858267716,
		  "duration": 0.11111099999999396
		},
		{
		  "name": "E3",
		  "midi": 52,
		  "time": 220.222001999998,
		  "velocity": 0.6929133858267716,
		  "duration": 0.11111099999999396
		},
		{
		  "name": "C#4",
		  "midi": 61,
		  "time": 220.444223999998,
		  "velocity": 0.6929133858267716,
		  "duration": 0.11111099999999396
		},
		{
		  "name": "F#4",
		  "midi": 66,
		  "time": 220.444223999998,
		  "velocity": 0.6929133858267716,
		  "duration": 0.11111099999999396
		},
		{
		  "name": "F#3",
		  "midi": 54,
		  "time": 220.444223999998,
		  "velocity": 0.6929133858267716,
		  "duration": 0.11111099999999396
		},
		{
		  "name": "C#4",
		  "midi": 61,
		  "time": 220.666445999998,
		  "velocity": 0.6929133858267716,
		  "duration": 0.11111099999999396
		},
		{
		  "name": "F#4",
		  "midi": 66,
		  "time": 220.666445999998,
		  "velocity": 0.6929133858267716,
		  "duration": 0.11111099999999396
		},
		{
		  "name": "F#3",
		  "midi": 54,
		  "time": 220.666445999998,
		  "velocity": 0.6929133858267716,
		  "duration": 0.11111099999999396
		},
		{
		  "name": "B3",
		  "midi": 59,
		  "time": 223.333109999998,
		  "velocity": 0.6929133858267716,
		  "duration": 0.11111099999999396
		},
		{
		  "name": "E4",
		  "midi": 64,
		  "time": 223.333109999998,
		  "velocity": 0.6929133858267716,
		  "duration": 0.11111099999999396
		},
		{
		  "name": "E3",
		  "midi": 52,
		  "time": 223.333109999998,
		  "velocity": 0.6929133858267716,
		  "duration": 0.11111099999999396
		},
		{
		  "name": "B3",
		  "midi": 59,
		  "time": 223.44422099999798,
		  "velocity": 0.6929133858267716,
		  "duration": 0.11111099999999396
		},
		{
		  "name": "E4",
		  "midi": 64,
		  "time": 223.44422099999798,
		  "velocity": 0.6929133858267716,
		  "duration": 0.11111099999999396
		},
		{
		  "name": "E3",
		  "midi": 52,
		  "time": 223.44422099999798,
		  "velocity": 0.6929133858267716,
		  "duration": 0.11111099999999396
		},
		{
		  "name": "A3",
		  "midi": 57,
		  "time": 223.66644299999797,
		  "velocity": 0.6929133858267716,
		  "duration": 0.11111099999999396
		},
		{
		  "name": "C#4",
		  "midi": 61,
		  "time": 223.66644299999797,
		  "velocity": 0.6929133858267716,
		  "duration": 0.11111099999999396
		},
		{
		  "name": "C#3",
		  "midi": 49,
		  "time": 223.66644299999797,
		  "velocity": 0.6929133858267716,
		  "duration": 0.11111099999999396
		},
		{
		  "name": "B3",
		  "midi": 59,
		  "time": 223.77755399999796,
		  "velocity": 0.6929133858267716,
		  "duration": 0.11111099999999396
		},
		{
		  "name": "E4",
		  "midi": 64,
		  "time": 223.77755399999796,
		  "velocity": 0.6929133858267716,
		  "duration": 0.11111099999999396
		},
		{
		  "name": "E3",
		  "midi": 52,
		  "time": 223.77755399999796,
		  "velocity": 0.6929133858267716,
		  "duration": 0.11111099999999396
		},
		{
		  "name": "E4",
		  "midi": 64,
		  "time": 223.99977599999795,
		  "velocity": 0.6929133858267716,
		  "duration": 0.11111099999999396
		},
		{
		  "name": "A4",
		  "midi": 69,
		  "time": 223.99977599999795,
		  "velocity": 0.6929133858267716,
		  "duration": 0.11111099999999396
		},
		{
		  "name": "A3",
		  "midi": 57,
		  "time": 223.99977599999795,
		  "velocity": 0.6929133858267716,
		  "duration": 0.11111099999999396
		},
		{
		  "name": "E4",
		  "midi": 64,
		  "time": 224.22199799999794,
		  "velocity": 0.6929133858267716,
		  "duration": 0.11111099999999396
		},
		{
		  "name": "A4",
		  "midi": 69,
		  "time": 224.22199799999794,
		  "velocity": 0.6929133858267716,
		  "duration": 0.11111099999999396
		},
		{
		  "name": "A3",
		  "midi": 57,
		  "time": 224.22199799999794,
		  "velocity": 0.6929133858267716,
		  "duration": 0.11111099999999396
		},
		{
		  "name": "F#4",
		  "midi": 66,
		  "time": 225.77755199999794,
		  "velocity": 0.6929133858267716,
		  "duration": 0.11111099999999396
		},
		{
		  "name": "B4",
		  "midi": 71,
		  "time": 225.77755199999794,
		  "velocity": 0.6929133858267716,
		  "duration": 0.11111099999999396
		},
		{
		  "name": "B3",
		  "midi": 59,
		  "time": 225.77755199999794,
		  "velocity": 0.6929133858267716,
		  "duration": 0.11111099999999396
		},
		{
		  "name": "F#4",
		  "midi": 66,
		  "time": 225.99977399999793,
		  "velocity": 0.6929133858267716,
		  "duration": 0.11111099999999396
		},
		{
		  "name": "B4",
		  "midi": 71,
		  "time": 225.99977399999793,
		  "velocity": 0.6929133858267716,
		  "duration": 0.11111099999999396
		},
		{
		  "name": "B3",
		  "midi": 59,
		  "time": 225.99977399999793,
		  "velocity": 0.6929133858267716,
		  "duration": 0.11111099999999396
		},
		{
		  "name": "E4",
		  "midi": 64,
		  "time": 226.8886619999979,
		  "velocity": 0.6929133858267716,
		  "duration": 0.11111099999999396
		},
		{
		  "name": "A4",
		  "midi": 69,
		  "time": 226.8886619999979,
		  "velocity": 0.6929133858267716,
		  "duration": 0.11111099999999396
		},
		{
		  "name": "A3",
		  "midi": 57,
		  "time": 226.8886619999979,
		  "velocity": 0.6929133858267716,
		  "duration": 0.11111099999999396
		},
		{
		  "name": "E4",
		  "midi": 64,
		  "time": 226.9997729999979,
		  "velocity": 0.6929133858267716,
		  "duration": 0.11111099999999396
		},
		{
		  "name": "A4",
		  "midi": 69,
		  "time": 226.9997729999979,
		  "velocity": 0.6929133858267716,
		  "duration": 0.11111099999999396
		},
		{
		  "name": "A3",
		  "midi": 57,
		  "time": 226.9997729999979,
		  "velocity": 0.6929133858267716,
		  "duration": 0.11111099999999396
		},
		{
		  "name": "C#4",
		  "midi": 61,
		  "time": 227.2219949999979,
		  "velocity": 0.6929133858267716,
		  "duration": 0.11111099999999396
		},
		{
		  "name": "F#4",
		  "midi": 66,
		  "time": 227.2219949999979,
		  "velocity": 0.6929133858267716,
		  "duration": 0.11111099999999396
		},
		{
		  "name": "F#3",
		  "midi": 54,
		  "time": 227.2219949999979,
		  "velocity": 0.6929133858267716,
		  "duration": 0.11111099999999396
		},
		{
		  "name": "E4",
		  "midi": 64,
		  "time": 227.33310599999788,
		  "velocity": 0.6929133858267716,
		  "duration": 0.11111099999999396
		},
		{
		  "name": "A4",
		  "midi": 69,
		  "time": 227.33310599999788,
		  "velocity": 0.6929133858267716,
		  "duration": 0.11111099999999396
		},
		{
		  "name": "A3",
		  "midi": 57,
		  "time": 227.33310599999788,
		  "velocity": 0.6929133858267716,
		  "duration": 0.11111099999999396
		},
		{
		  "name": "C#4",
		  "midi": 61,
		  "time": 227.55532799999787,
		  "velocity": 0.6929133858267716,
		  "duration": 0.11111099999999396
		},
		{
		  "name": "F#4",
		  "midi": 66,
		  "time": 227.55532799999787,
		  "velocity": 0.6929133858267716,
		  "duration": 0.11111099999999396
		},
		{
		  "name": "F#3",
		  "midi": 54,
		  "time": 227.55532799999787,
		  "velocity": 0.6929133858267716,
		  "duration": 0.11111099999999396
		},
		{
		  "name": "C#4",
		  "midi": 61,
		  "time": 227.77754999999786,
		  "velocity": 0.6929133858267716,
		  "duration": 0.11111099999999396
		},
		{
		  "name": "F#4",
		  "midi": 66,
		  "time": 227.77754999999786,
		  "velocity": 0.6929133858267716,
		  "duration": 0.11111099999999396
		},
		{
		  "name": "F#3",
		  "midi": 54,
		  "time": 227.77754999999786,
		  "velocity": 0.6929133858267716,
		  "duration": 0.11111099999999396
		},
		{
		  "name": "E4",
		  "midi": 64,
		  "time": 230.44421399999786,
		  "velocity": 0.6929133858267716,
		  "duration": 0.11111099999999396
		},
		{
		  "name": "A4",
		  "midi": 69,
		  "time": 230.44421399999786,
		  "velocity": 0.6929133858267716,
		  "duration": 0.11111099999999396
		},
		{
		  "name": "A3",
		  "midi": 57,
		  "time": 230.44421399999786,
		  "velocity": 0.6929133858267716,
		  "duration": 0.11111099999999396
		},
		{
		  "name": "E4",
		  "midi": 64,
		  "time": 230.55532499999785,
		  "velocity": 0.6929133858267716,
		  "duration": 0.11111099999999396
		},
		{
		  "name": "A4",
		  "midi": 69,
		  "time": 230.55532499999785,
		  "velocity": 0.6929133858267716,
		  "duration": 0.11111099999999396
		},
		{
		  "name": "A3",
		  "midi": 57,
		  "time": 230.55532499999785,
		  "velocity": 0.6929133858267716,
		  "duration": 0.11111099999999396
		},
		{
		  "name": "C#4",
		  "midi": 61,
		  "time": 230.77754699999784,
		  "velocity": 0.6929133858267716,
		  "duration": 0.11111099999999396
		},
		{
		  "name": "F#4",
		  "midi": 66,
		  "time": 230.77754699999784,
		  "velocity": 0.6929133858267716,
		  "duration": 0.11111099999999396
		},
		{
		  "name": "F#3",
		  "midi": 54,
		  "time": 230.77754699999784,
		  "velocity": 0.6929133858267716,
		  "duration": 0.11111099999999396
		},
		{
		  "name": "E4",
		  "midi": 64,
		  "time": 230.88865799999783,
		  "velocity": 0.6929133858267716,
		  "duration": 0.11111099999999396
		},
		{
		  "name": "A4",
		  "midi": 69,
		  "time": 230.88865799999783,
		  "velocity": 0.6929133858267716,
		  "duration": 0.11111099999999396
		},
		{
		  "name": "A3",
		  "midi": 57,
		  "time": 230.88865799999783,
		  "velocity": 0.6929133858267716,
		  "duration": 0.11111099999999396
		},
		{
		  "name": "C#4",
		  "midi": 61,
		  "time": 231.11087999999782,
		  "velocity": 0.6929133858267716,
		  "duration": 0.11111099999999396
		},
		{
		  "name": "F#4",
		  "midi": 66,
		  "time": 231.11087999999782,
		  "velocity": 0.6929133858267716,
		  "duration": 0.11111099999999396
		},
		{
		  "name": "F#3",
		  "midi": 54,
		  "time": 231.11087999999782,
		  "velocity": 0.6929133858267716,
		  "duration": 0.11111099999999396
		},
		{
		  "name": "C#4",
		  "midi": 61,
		  "time": 231.3331019999978,
		  "velocity": 0.6929133858267716,
		  "duration": 0.11111099999999396
		},
		{
		  "name": "F#4",
		  "midi": 66,
		  "time": 231.3331019999978,
		  "velocity": 0.6929133858267716,
		  "duration": 0.11111099999999396
		},
		{
		  "name": "F#3",
		  "midi": 54,
		  "time": 231.3331019999978,
		  "velocity": 0.6929133858267716,
		  "duration": 0.11111099999999396
		},
		{
		  "name": "B3",
		  "midi": 59,
		  "time": 233.9997659999978,
		  "velocity": 0.6929133858267716,
		  "duration": 0.11111099999999396
		},
		{
		  "name": "E4",
		  "midi": 64,
		  "time": 233.9997659999978,
		  "velocity": 0.6929133858267716,
		  "duration": 0.11111099999999396
		},
		{
		  "name": "E3",
		  "midi": 52,
		  "time": 233.9997659999978,
		  "velocity": 0.6929133858267716,
		  "duration": 0.11111099999999396
		},
		{
		  "name": "B3",
		  "midi": 59,
		  "time": 234.1108769999978,
		  "velocity": 0.6929133858267716,
		  "duration": 0.11111099999999396
		},
		{
		  "name": "E4",
		  "midi": 64,
		  "time": 234.1108769999978,
		  "velocity": 0.6929133858267716,
		  "duration": 0.11111099999999396
		},
		{
		  "name": "E3",
		  "midi": 52,
		  "time": 234.1108769999978,
		  "velocity": 0.6929133858267716,
		  "duration": 0.11111099999999396
		},
		{
		  "name": "A3",
		  "midi": 57,
		  "time": 234.3330989999978,
		  "velocity": 0.6929133858267716,
		  "duration": 0.11111099999999396
		},
		{
		  "name": "C#4",
		  "midi": 61,
		  "time": 234.3330989999978,
		  "velocity": 0.6929133858267716,
		  "duration": 0.11111099999999396
		},
		{
		  "name": "C#3",
		  "midi": 49,
		  "time": 234.3330989999978,
		  "velocity": 0.6929133858267716,
		  "duration": 0.11111099999999396
		},
		{
		  "name": "B3",
		  "midi": 59,
		  "time": 234.44420999999778,
		  "velocity": 0.6929133858267716,
		  "duration": 0.11111099999999396
		},
		{
		  "name": "E4",
		  "midi": 64,
		  "time": 234.44420999999778,
		  "velocity": 0.6929133858267716,
		  "duration": 0.11111099999999396
		},
		{
		  "name": "E3",
		  "midi": 52,
		  "time": 234.44420999999778,
		  "velocity": 0.6929133858267716,
		  "duration": 0.11111099999999396
		},
		{
		  "name": "C#4",
		  "midi": 61,
		  "time": 234.66643199999777,
		  "velocity": 0.6929133858267716,
		  "duration": 0.11111099999999396
		},
		{
		  "name": "F#4",
		  "midi": 66,
		  "time": 234.66643199999777,
		  "velocity": 0.6929133858267716,
		  "duration": 0.11111099999999396
		},
		{
		  "name": "F#3",
		  "midi": 54,
		  "time": 234.66643199999777,
		  "velocity": 0.6929133858267716,
		  "duration": 0.11111099999999396
		},
		{
		  "name": "C#4",
		  "midi": 61,
		  "time": 234.88865399999776,
		  "velocity": 0.6929133858267716,
		  "duration": 0.11111099999999396
		},
		{
		  "name": "F#4",
		  "midi": 66,
		  "time": 234.88865399999776,
		  "velocity": 0.6929133858267716,
		  "duration": 0.11111099999999396
		},
		{
		  "name": "F#3",
		  "midi": 54,
		  "time": 234.88865399999776,
		  "velocity": 0.6929133858267716,
		  "duration": 0.11111099999999396
		},
		{
		  "name": "B3",
		  "midi": 59,
		  "time": 237.55531799999775,
		  "velocity": 0.6929133858267716,
		  "duration": 0.11111099999999396
		},
		{
		  "name": "E4",
		  "midi": 64,
		  "time": 237.55531799999775,
		  "velocity": 0.6929133858267716,
		  "duration": 0.11111099999999396
		},
		{
		  "name": "E3",
		  "midi": 52,
		  "time": 237.55531799999775,
		  "velocity": 0.6929133858267716,
		  "duration": 0.11111099999999396
		},
		{
		  "name": "B3",
		  "midi": 59,
		  "time": 237.66642899999775,
		  "velocity": 0.6929133858267716,
		  "duration": 0.11111099999999396
		},
		{
		  "name": "E4",
		  "midi": 64,
		  "time": 237.66642899999775,
		  "velocity": 0.6929133858267716,
		  "duration": 0.11111099999999396
		},
		{
		  "name": "E3",
		  "midi": 52,
		  "time": 237.66642899999775,
		  "velocity": 0.6929133858267716,
		  "duration": 0.11111099999999396
		},
		{
		  "name": "A3",
		  "midi": 57,
		  "time": 237.88865099999774,
		  "velocity": 0.6929133858267716,
		  "duration": 0.11111099999999396
		},
		{
		  "name": "C#4",
		  "midi": 61,
		  "time": 237.88865099999774,
		  "velocity": 0.6929133858267716,
		  "duration": 0.11111099999999396
		},
		{
		  "name": "C#3",
		  "midi": 49,
		  "time": 237.88865099999774,
		  "velocity": 0.6929133858267716,
		  "duration": 0.11111099999999396
		},
		{
		  "name": "B3",
		  "midi": 59,
		  "time": 237.99976199999773,
		  "velocity": 0.6929133858267716,
		  "duration": 0.11111099999999396
		},
		{
		  "name": "E4",
		  "midi": 64,
		  "time": 237.99976199999773,
		  "velocity": 0.6929133858267716,
		  "duration": 0.11111099999999396
		},
		{
		  "name": "E3",
		  "midi": 52,
		  "time": 237.99976199999773,
		  "velocity": 0.6929133858267716,
		  "duration": 0.11111099999999396
		},
		{
		  "name": "E4",
		  "midi": 64,
		  "time": 238.22198399999772,
		  "velocity": 0.6929133858267716,
		  "duration": 0.11111099999999396
		},
		{
		  "name": "A4",
		  "midi": 69,
		  "time": 238.22198399999772,
		  "velocity": 0.6929133858267716,
		  "duration": 0.11111099999999396
		},
		{
		  "name": "A3",
		  "midi": 57,
		  "time": 238.22198399999772,
		  "velocity": 0.6929133858267716,
		  "duration": 0.11111099999999396
		},
		{
		  "name": "E4",
		  "midi": 64,
		  "time": 238.4442059999977,
		  "velocity": 0.6929133858267716,
		  "duration": 0.11111099999999396
		},
		{
		  "name": "A4",
		  "midi": 69,
		  "time": 238.4442059999977,
		  "velocity": 0.6929133858267716,
		  "duration": 0.11111099999999396
		},
		{
		  "name": "A3",
		  "midi": 57,
		  "time": 238.4442059999977,
		  "velocity": 0.6929133858267716,
		  "duration": 0.11111099999999396
		},
		{
		  "name": "F#4",
		  "midi": 66,
		  "time": 239.9997599999977,
		  "velocity": 0.6929133858267716,
		  "duration": 0.11111099999999396
		},
		{
		  "name": "B4",
		  "midi": 71,
		  "time": 239.9997599999977,
		  "velocity": 0.6929133858267716,
		  "duration": 0.11111099999999396
		},
		{
		  "name": "B3",
		  "midi": 59,
		  "time": 239.9997599999977,
		  "velocity": 0.6929133858267716,
		  "duration": 0.11111099999999396
		},
		{
		  "name": "F#4",
		  "midi": 66,
		  "time": 240.2219819999977,
		  "velocity": 0.6929133858267716,
		  "duration": 0.11111099999999396
		},
		{
		  "name": "B4",
		  "midi": 71,
		  "time": 240.2219819999977,
		  "velocity": 0.6929133858267716,
		  "duration": 0.11111099999999396
		},
		{
		  "name": "B3",
		  "midi": 59,
		  "time": 240.2219819999977,
		  "velocity": 0.6929133858267716,
		  "duration": 0.11111099999999396
		},
		{
		  "name": "E4",
		  "midi": 64,
		  "time": 241.11086999999767,
		  "velocity": 0.6929133858267716,
		  "duration": 0.11111099999999396
		},
		{
		  "name": "A4",
		  "midi": 69,
		  "time": 241.11086999999767,
		  "velocity": 0.6929133858267716,
		  "duration": 0.11111099999999396
		},
		{
		  "name": "A3",
		  "midi": 57,
		  "time": 241.11086999999767,
		  "velocity": 0.6929133858267716,
		  "duration": 0.11111099999999396
		},
		{
		  "name": "E4",
		  "midi": 64,
		  "time": 241.22198099999767,
		  "velocity": 0.6929133858267716,
		  "duration": 0.11111099999999396
		},
		{
		  "name": "A4",
		  "midi": 69,
		  "time": 241.22198099999767,
		  "velocity": 0.6929133858267716,
		  "duration": 0.11111099999999396
		},
		{
		  "name": "A3",
		  "midi": 57,
		  "time": 241.22198099999767,
		  "velocity": 0.6929133858267716,
		  "duration": 0.11111099999999396
		},
		{
		  "name": "C#4",
		  "midi": 61,
		  "time": 241.44420299999766,
		  "velocity": 0.6929133858267716,
		  "duration": 0.11111099999999396
		},
		{
		  "name": "F#4",
		  "midi": 66,
		  "time": 241.44420299999766,
		  "velocity": 0.6929133858267716,
		  "duration": 0.11111099999999396
		},
		{
		  "name": "F#3",
		  "midi": 54,
		  "time": 241.44420299999766,
		  "velocity": 0.6929133858267716,
		  "duration": 0.11111099999999396
		},
		{
		  "name": "E4",
		  "midi": 64,
		  "time": 241.55531399999765,
		  "velocity": 0.6929133858267716,
		  "duration": 0.11111099999999396
		},
		{
		  "name": "A4",
		  "midi": 69,
		  "time": 241.55531399999765,
		  "velocity": 0.6929133858267716,
		  "duration": 0.11111099999999396
		},
		{
		  "name": "A3",
		  "midi": 57,
		  "time": 241.55531399999765,
		  "velocity": 0.6929133858267716,
		  "duration": 0.11111099999999396
		},
		{
		  "name": "C#4",
		  "midi": 61,
		  "time": 241.77753599999764,
		  "velocity": 0.6929133858267716,
		  "duration": 0.11111099999999396
		},
		{
		  "name": "F#4",
		  "midi": 66,
		  "time": 241.77753599999764,
		  "velocity": 0.6929133858267716,
		  "duration": 0.11111099999999396
		},
		{
		  "name": "F#3",
		  "midi": 54,
		  "time": 241.77753599999764,
		  "velocity": 0.6929133858267716,
		  "duration": 0.11111099999999396
		},
		{
		  "name": "C#4",
		  "midi": 61,
		  "time": 241.99975799999763,
		  "velocity": 0.6929133858267716,
		  "duration": 0.11111099999999396
		},
		{
		  "name": "F#4",
		  "midi": 66,
		  "time": 241.99975799999763,
		  "velocity": 0.6929133858267716,
		  "duration": 0.11111099999999396
		},
		{
		  "name": "F#3",
		  "midi": 54,
		  "time": 241.99975799999763,
		  "velocity": 0.6929133858267716,
		  "duration": 0.11111099999999396
		},
		{
		  "name": "E4",
		  "midi": 64,
		  "time": 244.66642199999762,
		  "velocity": 0.6929133858267716,
		  "duration": 0.11111099999999396
		},
		{
		  "name": "A4",
		  "midi": 69,
		  "time": 244.66642199999762,
		  "velocity": 0.6929133858267716,
		  "duration": 0.11111099999999396
		},
		{
		  "name": "A3",
		  "midi": 57,
		  "time": 244.66642199999762,
		  "velocity": 0.6929133858267716,
		  "duration": 0.11111099999999396
		},
		{
		  "name": "E4",
		  "midi": 64,
		  "time": 244.77753299999762,
		  "velocity": 0.6929133858267716,
		  "duration": 0.11111099999999396
		},
		{
		  "name": "A4",
		  "midi": 69,
		  "time": 244.77753299999762,
		  "velocity": 0.6929133858267716,
		  "duration": 0.11111099999999396
		},
		{
		  "name": "A3",
		  "midi": 57,
		  "time": 244.77753299999762,
		  "velocity": 0.6929133858267716,
		  "duration": 0.11111099999999396
		},
		{
		  "name": "C#4",
		  "midi": 61,
		  "time": 244.9997549999976,
		  "velocity": 0.6929133858267716,
		  "duration": 0.11111099999999396
		},
		{
		  "name": "F#4",
		  "midi": 66,
		  "time": 244.9997549999976,
		  "velocity": 0.6929133858267716,
		  "duration": 0.11111099999999396
		},
		{
		  "name": "F#3",
		  "midi": 54,
		  "time": 244.9997549999976,
		  "velocity": 0.6929133858267716,
		  "duration": 0.11111099999999396
		},
		{
		  "name": "E4",
		  "midi": 64,
		  "time": 245.1108659999976,
		  "velocity": 0.6929133858267716,
		  "duration": 0.11111099999999396
		},
		{
		  "name": "A4",
		  "midi": 69,
		  "time": 245.1108659999976,
		  "velocity": 0.6929133858267716,
		  "duration": 0.11111099999999396
		},
		{
		  "name": "A3",
		  "midi": 57,
		  "time": 245.1108659999976,
		  "velocity": 0.6929133858267716,
		  "duration": 0.11111099999999396
		},
		{
		  "name": "C#4",
		  "midi": 61,
		  "time": 245.3330879999976,
		  "velocity": 0.6929133858267716,
		  "duration": 0.11111099999999396
		},
		{
		  "name": "F#4",
		  "midi": 66,
		  "time": 245.3330879999976,
		  "velocity": 0.6929133858267716,
		  "duration": 0.11111099999999396
		},
		{
		  "name": "F#3",
		  "midi": 54,
		  "time": 245.3330879999976,
		  "velocity": 0.6929133858267716,
		  "duration": 0.11111099999999396
		},
		{
		  "name": "C#4",
		  "midi": 61,
		  "time": 245.55530999999758,
		  "velocity": 0.6929133858267716,
		  "duration": 0.11111099999999396
		},
		{
		  "name": "F#4",
		  "midi": 66,
		  "time": 245.55530999999758,
		  "velocity": 0.6929133858267716,
		  "duration": 0.11111099999999396
		},
		{
		  "name": "F#3",
		  "midi": 54,
		  "time": 245.55530999999758,
		  "velocity": 0.6929133858267716,
		  "duration": 0.11111099999999396
		},
		{
		  "name": "B3",
		  "midi": 59,
		  "time": 248.22197399999757,
		  "velocity": 0.6929133858267716,
		  "duration": 0.11111099999999396
		},
		{
		  "name": "E4",
		  "midi": 64,
		  "time": 248.22197399999757,
		  "velocity": 0.6929133858267716,
		  "duration": 0.11111099999999396
		},
		{
		  "name": "E3",
		  "midi": 52,
		  "time": 248.22197399999757,
		  "velocity": 0.6929133858267716,
		  "duration": 0.11111099999999396
		},
		{
		  "name": "B3",
		  "midi": 59,
		  "time": 248.33308499999757,
		  "velocity": 0.6929133858267716,
		  "duration": 0.11111099999999396
		},
		{
		  "name": "E4",
		  "midi": 64,
		  "time": 248.33308499999757,
		  "velocity": 0.6929133858267716,
		  "duration": 0.11111099999999396
		},
		{
		  "name": "E3",
		  "midi": 52,
		  "time": 248.33308499999757,
		  "velocity": 0.6929133858267716,
		  "duration": 0.11111099999999396
		},
		{
		  "name": "A3",
		  "midi": 57,
		  "time": 248.55530699999755,
		  "velocity": 0.6929133858267716,
		  "duration": 0.11111099999999396
		},
		{
		  "name": "C#4",
		  "midi": 61,
		  "time": 248.55530699999755,
		  "velocity": 0.6929133858267716,
		  "duration": 0.11111099999999396
		},
		{
		  "name": "C#3",
		  "midi": 49,
		  "time": 248.55530699999755,
		  "velocity": 0.6929133858267716,
		  "duration": 0.11111099999999396
		},
		{
		  "name": "B3",
		  "midi": 59,
		  "time": 248.66641799999755,
		  "velocity": 0.6929133858267716,
		  "duration": 0.11111099999999396
		},
		{
		  "name": "E4",
		  "midi": 64,
		  "time": 248.66641799999755,
		  "velocity": 0.6929133858267716,
		  "duration": 0.11111099999999396
		},
		{
		  "name": "E3",
		  "midi": 52,
		  "time": 248.66641799999755,
		  "velocity": 0.6929133858267716,
		  "duration": 0.11111099999999396
		},
		{
		  "name": "C#4",
		  "midi": 61,
		  "time": 248.88863999999754,
		  "velocity": 0.6929133858267716,
		  "duration": 0.11111099999999396
		},
		{
		  "name": "F#4",
		  "midi": 66,
		  "time": 248.88863999999754,
		  "velocity": 0.6929133858267716,
		  "duration": 0.11111099999999396
		},
		{
		  "name": "F#3",
		  "midi": 54,
		  "time": 248.88863999999754,
		  "velocity": 0.6929133858267716,
		  "duration": 0.11111099999999396
		},
		{
		  "name": "C#4",
		  "midi": 61,
		  "time": 249.11086199999752,
		  "velocity": 0.6929133858267716,
		  "duration": 0.11111099999999396
		},
		{
		  "name": "F#4",
		  "midi": 66,
		  "time": 249.11086199999752,
		  "velocity": 0.6929133858267716,
		  "duration": 0.11111099999999396
		},
		{
		  "name": "F#3",
		  "midi": 54,
		  "time": 249.11086199999752,
		  "velocity": 0.6929133858267716,
		  "duration": 0.11111099999999396
		},
		{
		  "name": "B3",
		  "midi": 59,
		  "time": 251.77752599999752,
		  "velocity": 0.6929133858267716,
		  "duration": 0.11111099999999396
		},
		{
		  "name": "E4",
		  "midi": 64,
		  "time": 251.77752599999752,
		  "velocity": 0.6929133858267716,
		  "duration": 0.11111099999999396
		},
		{
		  "name": "E3",
		  "midi": 52,
		  "time": 251.77752599999752,
		  "velocity": 0.6929133858267716,
		  "duration": 0.11111099999999396
		},
		{
		  "name": "B3",
		  "midi": 59,
		  "time": 251.88863699999752,
		  "velocity": 0.6929133858267716,
		  "duration": 0.11111099999999396
		},
		{
		  "name": "E4",
		  "midi": 64,
		  "time": 251.88863699999752,
		  "velocity": 0.6929133858267716,
		  "duration": 0.11111099999999396
		},
		{
		  "name": "E3",
		  "midi": 52,
		  "time": 251.88863699999752,
		  "velocity": 0.6929133858267716,
		  "duration": 0.11111099999999396
		},
		{
		  "name": "A3",
		  "midi": 57,
		  "time": 252.1108589999975,
		  "velocity": 0.6929133858267716,
		  "duration": 0.11111099999999396
		},
		{
		  "name": "C#4",
		  "midi": 61,
		  "time": 252.1108589999975,
		  "velocity": 0.6929133858267716,
		  "duration": 0.11111099999999396
		},
		{
		  "name": "C#3",
		  "midi": 49,
		  "time": 252.1108589999975,
		  "velocity": 0.6929133858267716,
		  "duration": 0.11111099999999396
		},
		{
		  "name": "B3",
		  "midi": 59,
		  "time": 252.2219699999975,
		  "velocity": 0.6929133858267716,
		  "duration": 0.11111099999999396
		},
		{
		  "name": "E4",
		  "midi": 64,
		  "time": 252.2219699999975,
		  "velocity": 0.6929133858267716,
		  "duration": 0.11111099999999396
		},
		{
		  "name": "E3",
		  "midi": 52,
		  "time": 252.2219699999975,
		  "velocity": 0.6929133858267716,
		  "duration": 0.11111099999999396
		},
		{
		  "name": "E4",
		  "midi": 64,
		  "time": 252.44419199999749,
		  "velocity": 0.6929133858267716,
		  "duration": 0.11111099999999396
		},
		{
		  "name": "A4",
		  "midi": 69,
		  "time": 252.44419199999749,
		  "velocity": 0.6929133858267716,
		  "duration": 0.11111099999999396
		},
		{
		  "name": "A3",
		  "midi": 57,
		  "time": 252.44419199999749,
		  "velocity": 0.6929133858267716,
		  "duration": 0.11111099999999396
		},
		{
		  "name": "E4",
		  "midi": 64,
		  "time": 252.66641399999747,
		  "velocity": 0.6929133858267716,
		  "duration": 0.11111099999999396
		},
		{
		  "name": "A4",
		  "midi": 69,
		  "time": 252.66641399999747,
		  "velocity": 0.6929133858267716,
		  "duration": 0.11111099999999396
		},
		{
		  "name": "A3",
		  "midi": 57,
		  "time": 252.66641399999747,
		  "velocity": 0.6929133858267716,
		  "duration": 0.11111099999999396
		},
		{
		  "name": "F#4",
		  "midi": 66,
		  "time": 254.22196799999747,
		  "velocity": 0.6929133858267716,
		  "duration": 0.11111099999999396
		},
		{
		  "name": "B4",
		  "midi": 71,
		  "time": 254.22196799999747,
		  "velocity": 0.6929133858267716,
		  "duration": 0.11111099999999396
		},
		{
		  "name": "B3",
		  "midi": 59,
		  "time": 254.22196799999747,
		  "velocity": 0.6929133858267716,
		  "duration": 0.11111099999999396
		},
		{
		  "name": "F#4",
		  "midi": 66,
		  "time": 254.44418999999746,
		  "velocity": 0.6929133858267716,
		  "duration": 0.11111099999999396
		},
		{
		  "name": "B4",
		  "midi": 71,
		  "time": 254.44418999999746,
		  "velocity": 0.6929133858267716,
		  "duration": 0.11111099999999396
		},
		{
		  "name": "B3",
		  "midi": 59,
		  "time": 254.44418999999746,
		  "velocity": 0.6929133858267716,
		  "duration": 0.11111099999999396
		},
		{
		  "name": "E4",
		  "midi": 64,
		  "time": 255.33307799999744,
		  "velocity": 0.6929133858267716,
		  "duration": 0.11111099999999396
		},
		{
		  "name": "A4",
		  "midi": 69,
		  "time": 255.33307799999744,
		  "velocity": 0.6929133858267716,
		  "duration": 0.11111099999999396
		},
		{
		  "name": "A3",
		  "midi": 57,
		  "time": 255.33307799999744,
		  "velocity": 0.6929133858267716,
		  "duration": 0.11111099999999396
		},
		{
		  "name": "E4",
		  "midi": 64,
		  "time": 255.44418899999744,
		  "velocity": 0.6929133858267716,
		  "duration": 0.11111099999999396
		},
		{
		  "name": "A4",
		  "midi": 69,
		  "time": 255.44418899999744,
		  "velocity": 0.6929133858267716,
		  "duration": 0.11111099999999396
		},
		{
		  "name": "A3",
		  "midi": 57,
		  "time": 255.44418899999744,
		  "velocity": 0.6929133858267716,
		  "duration": 0.11111099999999396
		},
		{
		  "name": "C#4",
		  "midi": 61,
		  "time": 255.66641099999742,
		  "velocity": 0.6929133858267716,
		  "duration": 0.11111099999999396
		},
		{
		  "name": "F#4",
		  "midi": 66,
		  "time": 255.66641099999742,
		  "velocity": 0.6929133858267716,
		  "duration": 0.11111099999999396
		},
		{
		  "name": "F#3",
		  "midi": 54,
		  "time": 255.66641099999742,
		  "velocity": 0.6929133858267716,
		  "duration": 0.11111099999999396
		},
		{
		  "name": "E4",
		  "midi": 64,
		  "time": 255.77752199999742,
		  "velocity": 0.6929133858267716,
		  "duration": 0.11111099999999396
		},
		{
		  "name": "A4",
		  "midi": 69,
		  "time": 255.77752199999742,
		  "velocity": 0.6929133858267716,
		  "duration": 0.11111099999999396
		},
		{
		  "name": "A3",
		  "midi": 57,
		  "time": 255.77752199999742,
		  "velocity": 0.6929133858267716,
		  "duration": 0.11111099999999396
		},
		{
		  "name": "C#4",
		  "midi": 61,
		  "time": 255.9997439999974,
		  "velocity": 0.6929133858267716,
		  "duration": 0.11111099999999396
		},
		{
		  "name": "F#4",
		  "midi": 66,
		  "time": 255.9997439999974,
		  "velocity": 0.6929133858267716,
		  "duration": 0.11111099999999396
		},
		{
		  "name": "F#3",
		  "midi": 54,
		  "time": 255.9997439999974,
		  "velocity": 0.6929133858267716,
		  "duration": 0.11111099999999396
		},
		{
		  "name": "C#4",
		  "midi": 61,
		  "time": 256.2219659999974,
		  "velocity": 0.6929133858267716,
		  "duration": 0.11111099999999396
		},
		{
		  "name": "F#4",
		  "midi": 66,
		  "time": 256.2219659999974,
		  "velocity": 0.6929133858267716,
		  "duration": 0.11111099999999396
		},
		{
		  "name": "F#3",
		  "midi": 54,
		  "time": 256.2219659999974,
		  "velocity": 0.6929133858267716,
		  "duration": 0.11111099999999396
		},
		{
		  "name": "E4",
		  "midi": 64,
		  "time": 258.88862999999736,
		  "velocity": 0.6929133858267716,
		  "duration": 0.11111099999999396
		},
		{
		  "name": "A4",
		  "midi": 69,
		  "time": 258.88862999999736,
		  "velocity": 0.6929133858267716,
		  "duration": 0.11111099999999396
		},
		{
		  "name": "A3",
		  "midi": 57,
		  "time": 258.88862999999736,
		  "velocity": 0.6929133858267716,
		  "duration": 0.11111099999999396
		},
		{
		  "name": "E4",
		  "midi": 64,
		  "time": 258.99974099999736,
		  "velocity": 0.6929133858267716,
		  "duration": 0.11111099999999396
		},
		{
		  "name": "A4",
		  "midi": 69,
		  "time": 258.99974099999736,
		  "velocity": 0.6929133858267716,
		  "duration": 0.11111099999999396
		},
		{
		  "name": "A3",
		  "midi": 57,
		  "time": 258.99974099999736,
		  "velocity": 0.6929133858267716,
		  "duration": 0.11111099999999396
		},
		{
		  "name": "C#4",
		  "midi": 61,
		  "time": 259.22196299999734,
		  "velocity": 0.6929133858267716,
		  "duration": 0.11111099999999396
		},
		{
		  "name": "F#4",
		  "midi": 66,
		  "time": 259.22196299999734,
		  "velocity": 0.6929133858267716,
		  "duration": 0.11111099999999396
		},
		{
		  "name": "F#3",
		  "midi": 54,
		  "time": 259.22196299999734,
		  "velocity": 0.6929133858267716,
		  "duration": 0.11111099999999396
		},
		{
		  "name": "E4",
		  "midi": 64,
		  "time": 259.33307399999734,
		  "velocity": 0.6929133858267716,
		  "duration": 0.11111099999999396
		},
		{
		  "name": "A4",
		  "midi": 69,
		  "time": 259.33307399999734,
		  "velocity": 0.6929133858267716,
		  "duration": 0.11111099999999396
		},
		{
		  "name": "A3",
		  "midi": 57,
		  "time": 259.33307399999734,
		  "velocity": 0.6929133858267716,
		  "duration": 0.11111099999999396
		},
		{
		  "name": "C#4",
		  "midi": 61,
		  "time": 259.5552959999973,
		  "velocity": 0.6929133858267716,
		  "duration": 0.11111099999999396
		},
		{
		  "name": "F#4",
		  "midi": 66,
		  "time": 259.5552959999973,
		  "velocity": 0.6929133858267716,
		  "duration": 0.11111099999999396
		},
		{
		  "name": "F#3",
		  "midi": 54,
		  "time": 259.5552959999973,
		  "velocity": 0.6929133858267716,
		  "duration": 0.11111099999999396
		},
		{
		  "name": "C#4",
		  "midi": 61,
		  "time": 259.7775179999973,
		  "velocity": 0.6929133858267716,
		  "duration": 0.11111099999999396
		},
		{
		  "name": "F#4",
		  "midi": 66,
		  "time": 259.7775179999973,
		  "velocity": 0.6929133858267716,
		  "duration": 0.11111099999999396
		},
		{
		  "name": "F#3",
		  "midi": 54,
		  "time": 259.7775179999973,
		  "velocity": 0.6929133858267716,
		  "duration": 0.11111099999999396
		},
		{
		  "name": "B3",
		  "midi": 59,
		  "time": 262.4441819999973,
		  "velocity": 0.6929133858267716,
		  "duration": 0.11111099999999396
		},
		{
		  "name": "E4",
		  "midi": 64,
		  "time": 262.4441819999973,
		  "velocity": 0.6929133858267716,
		  "duration": 0.11111099999999396
		},
		{
		  "name": "E3",
		  "midi": 52,
		  "time": 262.4441819999973,
		  "velocity": 0.6929133858267716,
		  "duration": 0.11111099999999396
		},
		{
		  "name": "B3",
		  "midi": 59,
		  "time": 262.5552929999973,
		  "velocity": 0.6929133858267716,
		  "duration": 0.11111099999999396
		},
		{
		  "name": "E4",
		  "midi": 64,
		  "time": 262.5552929999973,
		  "velocity": 0.6929133858267716,
		  "duration": 0.11111099999999396
		},
		{
		  "name": "E3",
		  "midi": 52,
		  "time": 262.5552929999973,
		  "velocity": 0.6929133858267716,
		  "duration": 0.11111099999999396
		},
		{
		  "name": "A3",
		  "midi": 57,
		  "time": 262.77751499999727,
		  "velocity": 0.6929133858267716,
		  "duration": 0.11111099999999396
		},
		{
		  "name": "C#4",
		  "midi": 61,
		  "time": 262.77751499999727,
		  "velocity": 0.6929133858267716,
		  "duration": 0.11111099999999396
		},
		{
		  "name": "C#3",
		  "midi": 49,
		  "time": 262.77751499999727,
		  "velocity": 0.6929133858267716,
		  "duration": 0.11111099999999396
		},
		{
		  "name": "B3",
		  "midi": 59,
		  "time": 262.88862599999726,
		  "velocity": 0.6929133858267716,
		  "duration": 0.11111099999999396
		},
		{
		  "name": "E4",
		  "midi": 64,
		  "time": 262.88862599999726,
		  "velocity": 0.6929133858267716,
		  "duration": 0.11111099999999396
		},
		{
		  "name": "E3",
		  "midi": 52,
		  "time": 262.88862599999726,
		  "velocity": 0.6929133858267716,
		  "duration": 0.11111099999999396
		},
		{
		  "name": "C#4",
		  "midi": 61,
		  "time": 263.11084799999725,
		  "velocity": 0.6929133858267716,
		  "duration": 0.11111099999999396
		},
		{
		  "name": "F#4",
		  "midi": 66,
		  "time": 263.11084799999725,
		  "velocity": 0.6929133858267716,
		  "duration": 0.11111099999999396
		},
		{
		  "name": "F#3",
		  "midi": 54,
		  "time": 263.11084799999725,
		  "velocity": 0.6929133858267716,
		  "duration": 0.11111099999999396
		},
		{
		  "name": "C#4",
		  "midi": 61,
		  "time": 263.33306999999724,
		  "velocity": 0.6929133858267716,
		  "duration": 0.11111099999999396
		},
		{
		  "name": "F#4",
		  "midi": 66,
		  "time": 263.33306999999724,
		  "velocity": 0.6929133858267716,
		  "duration": 0.11111099999999396
		},
		{
		  "name": "F#3",
		  "midi": 54,
		  "time": 263.33306999999724,
		  "velocity": 0.6929133858267716,
		  "duration": 0.11111099999999396
		},
		{
		  "name": "E4",
		  "midi": 64,
		  "time": 265.9997339999972,
		  "velocity": 0.6929133858267716,
		  "duration": 0.11111099999999396
		},
		{
		  "name": "A4",
		  "midi": 69,
		  "time": 265.9997339999972,
		  "velocity": 0.6929133858267716,
		  "duration": 0.11111099999999396
		},
		{
		  "name": "A3",
		  "midi": 57,
		  "time": 265.9997339999972,
		  "velocity": 0.6929133858267716,
		  "duration": 0.11111099999999396
		},
		{
		  "name": "E4",
		  "midi": 64,
		  "time": 266.1108449999972,
		  "velocity": 0.6929133858267716,
		  "duration": 0.11111099999999396
		},
		{
		  "name": "A4",
		  "midi": 69,
		  "time": 266.1108449999972,
		  "velocity": 0.6929133858267716,
		  "duration": 0.11111099999999396
		},
		{
		  "name": "A3",
		  "midi": 57,
		  "time": 266.1108449999972,
		  "velocity": 0.6929133858267716,
		  "duration": 0.11111099999999396
		},
		{
		  "name": "C#4",
		  "midi": 61,
		  "time": 266.3330669999972,
		  "velocity": 0.6929133858267716,
		  "duration": 0.11111099999999396
		},
		{
		  "name": "F#4",
		  "midi": 66,
		  "time": 266.3330669999972,
		  "velocity": 0.6929133858267716,
		  "duration": 0.11111099999999396
		},
		{
		  "name": "F#3",
		  "midi": 54,
		  "time": 266.3330669999972,
		  "velocity": 0.6929133858267716,
		  "duration": 0.11111099999999396
		},
		{
		  "name": "E4",
		  "midi": 64,
		  "time": 266.4441779999972,
		  "velocity": 0.6929133858267716,
		  "duration": 0.11111099999999396
		},
		{
		  "name": "A4",
		  "midi": 69,
		  "time": 266.4441779999972,
		  "velocity": 0.6929133858267716,
		  "duration": 0.11111099999999396
		},
		{
		  "name": "A3",
		  "midi": 57,
		  "time": 266.4441779999972,
		  "velocity": 0.6929133858267716,
		  "duration": 0.11111099999999396
		},
		{
		  "name": "C#4",
		  "midi": 61,
		  "time": 266.66639999999717,
		  "velocity": 0.6929133858267716,
		  "duration": 0.11111099999999396
		},
		{
		  "name": "F#4",
		  "midi": 66,
		  "time": 266.66639999999717,
		  "velocity": 0.6929133858267716,
		  "duration": 0.11111099999999396
		},
		{
		  "name": "F#3",
		  "midi": 54,
		  "time": 266.66639999999717,
		  "velocity": 0.6929133858267716,
		  "duration": 0.11111099999999396
		},
		{
		  "name": "C#4",
		  "midi": 61,
		  "time": 266.88862199999716,
		  "velocity": 0.6929133858267716,
		  "duration": 0.11111099999999396
		},
		{
		  "name": "F#4",
		  "midi": 66,
		  "time": 266.88862199999716,
		  "velocity": 0.6929133858267716,
		  "duration": 0.11111099999999396
		},
		{
		  "name": "F#3",
		  "midi": 54,
		  "time": 266.88862199999716,
		  "velocity": 0.6929133858267716,
		  "duration": 0.11111099999999396
		},
		{
		  "name": "B3",
		  "midi": 59,
		  "time": 269.5552859999971,
		  "velocity": 0.6929133858267716,
		  "duration": 0.11111099999999396
		},
		{
		  "name": "E4",
		  "midi": 64,
		  "time": 269.5552859999971,
		  "velocity": 0.6929133858267716,
		  "duration": 0.11111099999999396
		},
		{
		  "name": "E3",
		  "midi": 52,
		  "time": 269.5552859999971,
		  "velocity": 0.6929133858267716,
		  "duration": 0.11111099999999396
		},
		{
		  "name": "B3",
		  "midi": 59,
		  "time": 269.6663969999971,
		  "velocity": 0.6929133858267716,
		  "duration": 0.11111099999999396
		},
		{
		  "name": "E4",
		  "midi": 64,
		  "time": 269.6663969999971,
		  "velocity": 0.6929133858267716,
		  "duration": 0.11111099999999396
		},
		{
		  "name": "E3",
		  "midi": 52,
		  "time": 269.6663969999971,
		  "velocity": 0.6929133858267716,
		  "duration": 0.11111099999999396
		},
		{
		  "name": "A3",
		  "midi": 57,
		  "time": 269.8886189999971,
		  "velocity": 0.6929133858267716,
		  "duration": 0.11111099999999396
		},
		{
		  "name": "C#4",
		  "midi": 61,
		  "time": 269.8886189999971,
		  "velocity": 0.6929133858267716,
		  "duration": 0.11111099999999396
		},
		{
		  "name": "C#3",
		  "midi": 49,
		  "time": 269.8886189999971,
		  "velocity": 0.6929133858267716,
		  "duration": 0.11111099999999396
		},
		{
		  "name": "B3",
		  "midi": 59,
		  "time": 269.9997299999971,
		  "velocity": 0.6929133858267716,
		  "duration": 0.11111099999999396
		},
		{
		  "name": "E4",
		  "midi": 64,
		  "time": 269.9997299999971,
		  "velocity": 0.6929133858267716,
		  "duration": 0.11111099999999396
		},
		{
		  "name": "E3",
		  "midi": 52,
		  "time": 269.9997299999971,
		  "velocity": 0.6929133858267716,
		  "duration": 0.11111099999999396
		},
		{
		  "name": "C#4",
		  "midi": 61,
		  "time": 270.2219519999971,
		  "velocity": 0.6929133858267716,
		  "duration": 0.11111099999999396
		},
		{
		  "name": "F#4",
		  "midi": 66,
		  "time": 270.2219519999971,
		  "velocity": 0.6929133858267716,
		  "duration": 0.11111099999999396
		},
		{
		  "name": "F#3",
		  "midi": 54,
		  "time": 270.2219519999971,
		  "velocity": 0.6929133858267716,
		  "duration": 0.11111099999999396
		},
		{
		  "name": "C#4",
		  "midi": 61,
		  "time": 270.4441739999971,
		  "velocity": 0.6929133858267716,
		  "duration": 0.11111099999999396
		},
		{
		  "name": "F#4",
		  "midi": 66,
		  "time": 270.4441739999971,
		  "velocity": 0.6929133858267716,
		  "duration": 0.11111099999999396
		},
		{
		  "name": "F#3",
		  "midi": 54,
		  "time": 270.4441739999971,
		  "velocity": 0.6929133858267716,
		  "duration": 0.11111099999999396
		},
		{
		  "name": "E4",
		  "midi": 64,
		  "time": 273.11083799999705,
		  "velocity": 0.6929133858267716,
		  "duration": 0.11111099999999396
		},
		{
		  "name": "A4",
		  "midi": 69,
		  "time": 273.11083799999705,
		  "velocity": 0.6929133858267716,
		  "duration": 0.11111099999999396
		},
		{
		  "name": "A3",
		  "midi": 57,
		  "time": 273.11083799999705,
		  "velocity": 0.6929133858267716,
		  "duration": 0.11111099999999396
		},
		{
		  "name": "E4",
		  "midi": 64,
		  "time": 273.22194899999704,
		  "velocity": 0.6929133858267716,
		  "duration": 0.11111099999999396
		},
		{
		  "name": "A4",
		  "midi": 69,
		  "time": 273.22194899999704,
		  "velocity": 0.6929133858267716,
		  "duration": 0.11111099999999396
		},
		{
		  "name": "A3",
		  "midi": 57,
		  "time": 273.22194899999704,
		  "velocity": 0.6929133858267716,
		  "duration": 0.11111099999999396
		},
		{
		  "name": "C#4",
		  "midi": 61,
		  "time": 273.444170999997,
		  "velocity": 0.6929133858267716,
		  "duration": 0.11111099999999396
		},
		{
		  "name": "F#4",
		  "midi": 66,
		  "time": 273.444170999997,
		  "velocity": 0.6929133858267716,
		  "duration": 0.11111099999999396
		},
		{
		  "name": "F#3",
		  "midi": 54,
		  "time": 273.444170999997,
		  "velocity": 0.6929133858267716,
		  "duration": 0.11111099999999396
		},
		{
		  "name": "E4",
		  "midi": 64,
		  "time": 273.555281999997,
		  "velocity": 0.6929133858267716,
		  "duration": 0.11111099999999396
		},
		{
		  "name": "A4",
		  "midi": 69,
		  "time": 273.555281999997,
		  "velocity": 0.6929133858267716,
		  "duration": 0.11111099999999396
		},
		{
		  "name": "A3",
		  "midi": 57,
		  "time": 273.555281999997,
		  "velocity": 0.6929133858267716,
		  "duration": 0.11111099999999396
		},
		{
		  "name": "C#4",
		  "midi": 61,
		  "time": 273.777503999997,
		  "velocity": 0.6929133858267716,
		  "duration": 0.11111099999999396
		},
		{
		  "name": "F#4",
		  "midi": 66,
		  "time": 273.777503999997,
		  "velocity": 0.6929133858267716,
		  "duration": 0.11111099999999396
		},
		{
		  "name": "F#3",
		  "midi": 54,
		  "time": 273.777503999997,
		  "velocity": 0.6929133858267716,
		  "duration": 0.11111099999999396
		}
	  ],
	"WorldMachine": [
		{
		  "name": "F#4",
		  "midi": 66,
		  "time": 49.333284,
		  "velocity": 0.8031496062992126,
		  "duration": 1.1111100000000036
		},
		{
		  "name": "F#4",
		  "midi": 66,
		  "time": 52.888836000000005,
		  "velocity": 0.8031496062992126,
		  "duration": 1.1111100000000036
		},
		{
		  "name": "C#5",
		  "midi": 73,
		  "time": 53.99994600000001,
		  "velocity": 0.8031496062992126,
		  "duration": 0.6666659999999993
		},
		{
		  "name": "B4",
		  "midi": 71,
		  "time": 54.66661200000001,
		  "velocity": 0.8031496062992126,
		  "duration": 0.11111100000000107
		},
		{
		  "name": "A4",
		  "midi": 69,
		  "time": 54.88883400000001,
		  "velocity": 0.8031496062992126,
		  "duration": 0.11111100000000107
		},
		{
		  "name": "B4",
		  "midi": 71,
		  "time": 55.11105600000001,
		  "velocity": 0.8031496062992126,
		  "duration": 0.11111100000000107
		},
		{
		  "name": "A4",
		  "midi": 69,
		  "time": 55.333278000000014,
		  "velocity": 0.8031496062992126,
		  "duration": 0.11111100000000107
		},
		{
		  "name": "F#4",
		  "midi": 66,
		  "time": 55.555500000000016,
		  "velocity": 0.8031496062992126,
		  "duration": 0.11111100000000107
		},
		{
		  "name": "E4",
		  "midi": 64,
		  "time": 55.66661100000002,
		  "velocity": 0.8031496062992126,
		  "duration": 1.2222209999999976
		},
		{
		  "name": "F#4",
		  "midi": 66,
		  "time": 107.99989200000002,
		  "velocity": 0.8031496062992126,
		  "duration": 1.1111099999999965
		},
		{
		  "name": "F#4",
		  "midi": 66,
		  "time": 111.55544400000001,
		  "velocity": 0.8031496062992126,
		  "duration": 1.1111099999999965
		},
		{
		  "name": "C#5",
		  "midi": 73,
		  "time": 112.666554,
		  "velocity": 0.8031496062992126,
		  "duration": 0.6666660000000064
		},
		{
		  "name": "B4",
		  "midi": 71,
		  "time": 113.33322000000001,
		  "velocity": 0.8031496062992126,
		  "duration": 0.11111099999999396
		},
		{
		  "name": "A4",
		  "midi": 69,
		  "time": 113.555442,
		  "velocity": 0.8031496062992126,
		  "duration": 0.11111099999999396
		},
		{
		  "name": "B4",
		  "midi": 71,
		  "time": 113.77766399999999,
		  "velocity": 0.8031496062992126,
		  "duration": 0.11111099999999396
		},
		{
		  "name": "A4",
		  "midi": 69,
		  "time": 113.99988599999998,
		  "velocity": 0.8031496062992126,
		  "duration": 0.11111099999999396
		},
		{
		  "name": "F#4",
		  "midi": 66,
		  "time": 114.22210799999996,
		  "velocity": 0.8031496062992126,
		  "duration": 0.11111099999999396
		},
		{
		  "name": "E4",
		  "midi": 64,
		  "time": 114.33321899999996,
		  "velocity": 0.8031496062992126,
		  "duration": 1.2222210000000047
		},
		{
		  "name": "F#4",
		  "midi": 66,
		  "time": 223.55533199999996,
		  "velocity": 0.8031496062992126,
		  "duration": 1.1111099999999965
		},
		{
		  "name": "F#4",
		  "midi": 66,
		  "time": 227.11088399999997,
		  "velocity": 0.8031496062992126,
		  "duration": 1.1111099999999965
		},
		{
		  "name": "C#5",
		  "midi": 73,
		  "time": 228.22199399999997,
		  "velocity": 0.8031496062992126,
		  "duration": 0.6666659999999922
		},
		{
		  "name": "B4",
		  "midi": 71,
		  "time": 228.88865999999996,
		  "velocity": 0.8031496062992126,
		  "duration": 0.11111099999999396
		},
		{
		  "name": "A4",
		  "midi": 69,
		  "time": 229.11088199999995,
		  "velocity": 0.8031496062992126,
		  "duration": 0.11111099999999396
		},
		{
		  "name": "B4",
		  "midi": 71,
		  "time": 229.33310399999993,
		  "velocity": 0.8031496062992126,
		  "duration": 0.11111099999999396
		},
		{
		  "name": "A4",
		  "midi": 69,
		  "time": 229.55532599999992,
		  "velocity": 0.8031496062992126,
		  "duration": 0.11111099999999396
		},
		{
		  "name": "F#4",
		  "midi": 66,
		  "time": 229.7775479999999,
		  "velocity": 0.8031496062992126,
		  "duration": 0.11111099999999396
		},
		{
		  "name": "E4",
		  "midi": 64,
		  "time": 229.8886589999999,
		  "velocity": 0.8031496062992126,
		  "duration": 1.2222209999999905
		},
		{
		  "name": "F#4",
		  "midi": 66,
		  "time": 231.1108799999999,
		  "velocity": 0.7874015748031497,
		  "duration": 0.11111099999999396
		},
		{
		  "name": "F#4",
		  "midi": 66,
		  "time": 231.33310199999988,
		  "velocity": 0.7874015748031497,
		  "duration": 0.22222199999998793
		},
		{
		  "name": "F#3",
		  "midi": 54,
		  "time": 231.55532399999987,
		  "velocity": 0.7874015748031497,
		  "duration": 0.22222199999998793
		},
		{
		  "name": "F#3",
		  "midi": 54,
		  "time": 231.77754599999986,
		  "velocity": 0.7874015748031497,
		  "duration": 0.22222199999998793
		},
		{
		  "name": "E4",
		  "midi": 64,
		  "time": 231.99976799999985,
		  "velocity": 0.7874015748031497,
		  "duration": 0.22222199999998793
		},
		{
		  "name": "E4",
		  "midi": 64,
		  "time": 232.22198999999983,
		  "velocity": 0.7874015748031497,
		  "duration": 0.22222199999998793
		},
		{
		  "name": "D#4",
		  "midi": 63,
		  "time": 232.44421199999982,
		  "velocity": 0.7874015748031497,
		  "duration": 0.22222199999998793
		},
		{
		  "name": "D#4",
		  "midi": 63,
		  "time": 232.6664339999998,
		  "velocity": 0.7874015748031497,
		  "duration": 0.11111099999999396
		},
		{
		  "name": "C#4",
		  "midi": 61,
		  "time": 232.7775449999998,
		  "velocity": 0.7874015748031497,
		  "duration": 0.22222199999998793
		},
		{
		  "name": "F#3",
		  "midi": 54,
		  "time": 233.1108779999998,
		  "velocity": 0.7874015748031497,
		  "duration": 0.11111099999999396
		},
		{
		  "name": "F#4",
		  "midi": 66,
		  "time": 233.33309999999977,
		  "velocity": 0.7874015748031497,
		  "duration": 0.11111099999999396
		},
		{
		  "name": "F#4",
		  "midi": 66,
		  "time": 233.55532199999976,
		  "velocity": 0.7874015748031497,
		  "duration": 0.11111099999999396
		},
		{
		  "name": "E4",
		  "midi": 64,
		  "time": 233.77754399999975,
		  "velocity": 0.7874015748031497,
		  "duration": 0.11111099999999396
		},
		{
		  "name": "E4",
		  "midi": 64,
		  "time": 233.99976599999974,
		  "velocity": 0.7874015748031497,
		  "duration": 0.11111099999999396
		},
		{
		  "name": "D#4",
		  "midi": 63,
		  "time": 234.22198799999973,
		  "velocity": 0.7874015748031497,
		  "duration": 0.11111099999999396
		},
		{
		  "name": "D#4",
		  "midi": 63,
		  "time": 234.4442099999997,
		  "velocity": 0.7874015748031497,
		  "duration": 0.11111099999999396
		},
		{
		  "name": "F#4",
		  "midi": 66,
		  "time": 234.6664319999997,
		  "velocity": 0.7874015748031497,
		  "duration": 0.11111099999999396
		},
		{
		  "name": "F#4",
		  "midi": 66,
		  "time": 234.8886539999997,
		  "velocity": 0.7874015748031497,
		  "duration": 0.22222199999998793
		},
		{
		  "name": "F#3",
		  "midi": 54,
		  "time": 235.11087599999968,
		  "velocity": 0.7874015748031497,
		  "duration": 0.22222199999998793
		},
		{
		  "name": "F#3",
		  "midi": 54,
		  "time": 235.33309799999967,
		  "velocity": 0.7874015748031497,
		  "duration": 0.22222199999998793
		},
		{
		  "name": "E4",
		  "midi": 64,
		  "time": 235.55531999999965,
		  "velocity": 0.7874015748031497,
		  "duration": 0.22222199999998793
		},
		{
		  "name": "E4",
		  "midi": 64,
		  "time": 235.77754199999964,
		  "velocity": 0.7874015748031497,
		  "duration": 0.22222199999998793
		},
		{
		  "name": "D#4",
		  "midi": 63,
		  "time": 235.99976399999963,
		  "velocity": 0.7874015748031497,
		  "duration": 0.22222199999998793
		},
		{
		  "name": "D#4",
		  "midi": 63,
		  "time": 236.22198599999962,
		  "velocity": 0.7874015748031497,
		  "duration": 0.11111099999999396
		},
		{
		  "name": "C#4",
		  "midi": 61,
		  "time": 236.3330969999996,
		  "velocity": 0.7874015748031497,
		  "duration": 0.22222199999998793
		},
		{
		  "name": "F#3",
		  "midi": 54,
		  "time": 236.6664299999996,
		  "velocity": 0.7874015748031497,
		  "duration": 0.11111099999999396
		},
		{
		  "name": "F#4",
		  "midi": 66,
		  "time": 236.88865199999958,
		  "velocity": 0.7874015748031497,
		  "duration": 0.11111099999999396
		},
		{
		  "name": "F#4",
		  "midi": 66,
		  "time": 237.11087399999957,
		  "velocity": 0.7874015748031497,
		  "duration": 0.11111099999999396
		},
		{
		  "name": "E4",
		  "midi": 64,
		  "time": 237.33309599999956,
		  "velocity": 0.7874015748031497,
		  "duration": 0.11111099999999396
		},
		{
		  "name": "E4",
		  "midi": 64,
		  "time": 237.55531799999955,
		  "velocity": 0.7874015748031497,
		  "duration": 0.11111099999999396
		},
		{
		  "name": "D#4",
		  "midi": 63,
		  "time": 237.77753999999953,
		  "velocity": 0.7874015748031497,
		  "duration": 0.11111099999999396
		},
		{
		  "name": "D#4",
		  "midi": 63,
		  "time": 237.99976199999952,
		  "velocity": 0.7874015748031497,
		  "duration": 0.11111099999999396
		},
		{
		  "name": "F#4",
		  "midi": 66,
		  "time": 238.2219839999995,
		  "velocity": 0.7874015748031497,
		  "duration": 0.22222199999998793
		},
		{
		  "name": "F#5",
		  "midi": 78,
		  "time": 238.4442059999995,
		  "velocity": 0.7874015748031497,
		  "duration": 0.22222199999998793
		},
		{
		  "name": "F#3",
		  "midi": 54,
		  "time": 238.66642799999948,
		  "velocity": 0.7874015748031497,
		  "duration": 0.22222199999998793
		},
		{
		  "name": "F#3",
		  "midi": 54,
		  "time": 238.88864999999947,
		  "velocity": 0.7874015748031497,
		  "duration": 0.22222199999998793
		},
		{
		  "name": "A3",
		  "midi": 57,
		  "time": 239.11087199999946,
		  "velocity": 0.7874015748031497,
		  "duration": 0.22222199999998793
		},
		{
		  "name": "C#4",
		  "midi": 61,
		  "time": 239.33309399999945,
		  "velocity": 0.7874015748031497,
		  "duration": 0.22222199999998793
		},
		{
		  "name": "D#4",
		  "midi": 63,
		  "time": 239.55531599999944,
		  "velocity": 0.7874015748031497,
		  "duration": 0.22222199999998793
		},
		{
		  "name": "F#5",
		  "midi": 78,
		  "time": 239.77753799999942,
		  "velocity": 0.7874015748031497,
		  "duration": 0.11111099999999396
		},
		{
		  "name": "C#4",
		  "midi": 61,
		  "time": 239.88864899999942,
		  "velocity": 0.7874015748031497,
		  "duration": 0.11111099999999396
		},
		{
		  "name": "F#3",
		  "midi": 54,
		  "time": 240.2219819999994,
		  "velocity": 0.7874015748031497,
		  "duration": 0.11111099999999396
		},
		{
		  "name": "F#4",
		  "midi": 66,
		  "time": 240.4442039999994,
		  "velocity": 0.7874015748031497,
		  "duration": 0.11111099999999396
		},
		{
		  "name": "F#4",
		  "midi": 66,
		  "time": 240.66642599999938,
		  "velocity": 0.7874015748031497,
		  "duration": 0.11111099999999396
		},
		{
		  "name": "E4",
		  "midi": 64,
		  "time": 240.88864799999936,
		  "velocity": 0.7874015748031497,
		  "duration": 0.11111099999999396
		},
		{
		  "name": "E4",
		  "midi": 64,
		  "time": 241.11086999999935,
		  "velocity": 0.7874015748031497,
		  "duration": 0.11111099999999396
		},
		{
		  "name": "D#4",
		  "midi": 63,
		  "time": 241.33309199999934,
		  "velocity": 0.7874015748031497,
		  "duration": 0.11111099999999396
		},
		{
		  "name": "F#3",
		  "midi": 54,
		  "time": 241.44420299999933,
		  "velocity": 0.7874015748031497,
		  "duration": 0.11111099999999396
		},
		{
		  "name": "F#4",
		  "midi": 66,
		  "time": 241.55531399999933,
		  "velocity": 0.7874015748031497,
		  "duration": 0.11111099999999396
		},
		{
		  "name": "F#5",
		  "midi": 78,
		  "time": 241.66642499999932,
		  "velocity": 0.7874015748031497,
		  "duration": 0.11111099999999396
		},
		{
		  "name": "F#4",
		  "midi": 66,
		  "time": 241.77753599999932,
		  "velocity": 0.7874015748031497,
		  "duration": 0.11111099999999396
		},
		{
		  "name": "F#4",
		  "midi": 66,
		  "time": 241.9997579999993,
		  "velocity": 0.7874015748031497,
		  "duration": 0.22222199999998793
		},
		{
		  "name": "F#3",
		  "midi": 54,
		  "time": 242.2219799999993,
		  "velocity": 0.7874015748031497,
		  "duration": 0.22222199999998793
		},
		{
		  "name": "F#3",
		  "midi": 54,
		  "time": 242.44420199999928,
		  "velocity": 0.7874015748031497,
		  "duration": 0.22222199999998793
		},
		{
		  "name": "E4",
		  "midi": 64,
		  "time": 242.66642399999927,
		  "velocity": 0.7874015748031497,
		  "duration": 0.22222199999998793
		},
		{
		  "name": "E4",
		  "midi": 64,
		  "time": 242.88864599999926,
		  "velocity": 0.7874015748031497,
		  "duration": 0.22222199999998793
		},
		{
		  "name": "D#4",
		  "midi": 63,
		  "time": 243.11086799999924,
		  "velocity": 0.7874015748031497,
		  "duration": 0.22222199999998793
		},
		{
		  "name": "D#4",
		  "midi": 63,
		  "time": 243.33308999999923,
		  "velocity": 0.7874015748031497,
		  "duration": 0.11111099999999396
		},
		{
		  "name": "C#4",
		  "midi": 61,
		  "time": 243.44420099999923,
		  "velocity": 0.7874015748031497,
		  "duration": 0.22222199999998793
		},
		{
		  "name": "F#3",
		  "midi": 54,
		  "time": 243.7775339999992,
		  "velocity": 0.7874015748031497,
		  "duration": 0.11111099999999396
		},
		{
		  "name": "F#4",
		  "midi": 66,
		  "time": 243.9997559999992,
		  "velocity": 0.7874015748031497,
		  "duration": 0.11111099999999396
		},
		{
		  "name": "F#4",
		  "midi": 66,
		  "time": 244.22197799999918,
		  "velocity": 0.7874015748031497,
		  "duration": 0.11111099999999396
		},
		{
		  "name": "E4",
		  "midi": 64,
		  "time": 244.44419999999917,
		  "velocity": 0.7874015748031497,
		  "duration": 0.11111099999999396
		},
		{
		  "name": "E4",
		  "midi": 64,
		  "time": 244.66642199999916,
		  "velocity": 0.7874015748031497,
		  "duration": 0.11111099999999396
		},
		{
		  "name": "F#4",
		  "midi": 66,
		  "time": 244.88864399999915,
		  "velocity": 0.7874015748031497,
		  "duration": 0.11111099999999396
		},
		{
		  "name": "F#4",
		  "midi": 66,
		  "time": 245.11086599999913,
		  "velocity": 0.7874015748031497,
		  "duration": 0.11111099999999396
		},
		{
		  "name": "F#3",
		  "midi": 54,
		  "time": 245.33308799999912,
		  "velocity": 0.7874015748031497,
		  "duration": 0.11111099999999396
		},
		{
		  "name": "F#3",
		  "midi": 54,
		  "time": 245.5553099999991,
		  "velocity": 0.7874015748031497,
		  "duration": 0.22222199999998793
		},
		{
		  "name": "F#2",
		  "midi": 42,
		  "time": 245.7775319999991,
		  "velocity": 0.7874015748031497,
		  "duration": 0.22222199999998793
		},
		{
		  "name": "F#2",
		  "midi": 42,
		  "time": 245.9997539999991,
		  "velocity": 0.7874015748031497,
		  "duration": 0.22222199999998793
		},
		{
		  "name": "E3",
		  "midi": 52,
		  "time": 246.22197599999907,
		  "velocity": 0.7874015748031497,
		  "duration": 0.22222199999998793
		},
		{
		  "name": "E3",
		  "midi": 52,
		  "time": 246.44419799999906,
		  "velocity": 0.7874015748031497,
		  "duration": 0.22222199999998793
		},
		{
		  "name": "D#3",
		  "midi": 51,
		  "time": 246.66641999999905,
		  "velocity": 0.7874015748031497,
		  "duration": 0.22222199999998793
		},
		{
		  "name": "C#3",
		  "midi": 49,
		  "time": 246.88864199999904,
		  "velocity": 0.7874015748031497,
		  "duration": 0.11111099999999396
		},
		{
		  "name": "F#2",
		  "midi": 42,
		  "time": 246.99975299999903,
		  "velocity": 0.7874015748031497,
		  "duration": 0.11111099999999396
		},
		{
		  "name": "F#2",
		  "midi": 42,
		  "time": 247.333085999999,
		  "velocity": 0.7874015748031497,
		  "duration": 0.11111099999999396
		},
		{
		  "name": "F#3",
		  "midi": 54,
		  "time": 247.555307999999,
		  "velocity": 0.7874015748031497,
		  "duration": 0.11111099999999396
		},
		{
		  "name": "F#3",
		  "midi": 54,
		  "time": 247.777529999999,
		  "velocity": 0.7874015748031497,
		  "duration": 0.11111099999999396
		},
		{
		  "name": "E3",
		  "midi": 52,
		  "time": 247.99975199999898,
		  "velocity": 0.7874015748031497,
		  "duration": 0.11111099999999396
		},
		{
		  "name": "E3",
		  "midi": 52,
		  "time": 248.22197399999897,
		  "velocity": 0.7874015748031497,
		  "duration": 0.11111099999999396
		},
		{
		  "name": "D#3",
		  "midi": 51,
		  "time": 248.44419599999895,
		  "velocity": 0.7874015748031497,
		  "duration": 0.11111099999999396
		},
		{
		  "name": "D#3",
		  "midi": 51,
		  "time": 248.66641799999894,
		  "velocity": 0.7874015748031497,
		  "duration": 0.11111099999999396
		},
		{
		  "name": "F#3",
		  "midi": 54,
		  "time": 248.88863999999893,
		  "velocity": 0.7874015748031497,
		  "duration": 0.11111099999999396
		},
		{
		  "name": "F#3",
		  "midi": 54,
		  "time": 249.11086199999892,
		  "velocity": 0.7874015748031497,
		  "duration": 0.22222199999998793
		},
		{
		  "name": "F#2",
		  "midi": 42,
		  "time": 249.3330839999989,
		  "velocity": 0.7874015748031497,
		  "duration": 0.22222199999998793
		},
		{
		  "name": "F#2",
		  "midi": 42,
		  "time": 249.5553059999989,
		  "velocity": 0.7874015748031497,
		  "duration": 0.22222199999998793
		},
		{
		  "name": "E3",
		  "midi": 52,
		  "time": 249.77752799999888,
		  "velocity": 0.7874015748031497,
		  "duration": 0.22222199999998793
		},
		{
		  "name": "E3",
		  "midi": 52,
		  "time": 249.99974999999887,
		  "velocity": 0.7874015748031497,
		  "duration": 0.22222199999998793
		},
		{
		  "name": "D#3",
		  "midi": 51,
		  "time": 250.22197199999886,
		  "velocity": 0.7874015748031497,
		  "duration": 0.22222199999998793
		},
		{
		  "name": "C#3",
		  "midi": 49,
		  "time": 250.44419399999884,
		  "velocity": 0.7874015748031497,
		  "duration": 0.11111099999999396
		},
		{
		  "name": "F#2",
		  "midi": 42,
		  "time": 250.55530499999884,
		  "velocity": 0.7874015748031497,
		  "duration": 0.11111099999999396
		},
		{
		  "name": "F#2",
		  "midi": 42,
		  "time": 250.88863799999882,
		  "velocity": 0.7874015748031497,
		  "duration": 0.11111099999999396
		},
		{
		  "name": "F#3",
		  "midi": 54,
		  "time": 251.1108599999988,
		  "velocity": 0.7874015748031497,
		  "duration": 0.11111099999999396
		},
		{
		  "name": "F#3",
		  "midi": 54,
		  "time": 251.3330819999988,
		  "velocity": 0.7874015748031497,
		  "duration": 0.11111099999999396
		},
		{
		  "name": "E3",
		  "midi": 52,
		  "time": 251.55530399999878,
		  "velocity": 0.7874015748031497,
		  "duration": 0.11111099999999396
		},
		{
		  "name": "E3",
		  "midi": 52,
		  "time": 251.77752599999877,
		  "velocity": 0.7874015748031497,
		  "duration": 0.11111099999999396
		},
		{
		  "name": "D#3",
		  "midi": 51,
		  "time": 251.99974799999876,
		  "velocity": 0.7874015748031497,
		  "duration": 0.11111099999999396
		},
		{
		  "name": "D#3",
		  "midi": 51,
		  "time": 252.22196999999875,
		  "velocity": 0.7874015748031497,
		  "duration": 0.11111099999999396
		},
		{
		  "name": "F#3",
		  "midi": 54,
		  "time": 252.44419199999874,
		  "velocity": 0.7874015748031497,
		  "duration": 0.22222199999998793
		},
		{
		  "name": "F#4",
		  "midi": 66,
		  "time": 252.66641399999872,
		  "velocity": 0.7874015748031497,
		  "duration": 0.22222199999998793
		},
		{
		  "name": "F#2",
		  "midi": 42,
		  "time": 252.8886359999987,
		  "velocity": 0.7874015748031497,
		  "duration": 0.22222199999998793
		},
		{
		  "name": "F#2",
		  "midi": 42,
		  "time": 253.1108579999987,
		  "velocity": 0.7874015748031497,
		  "duration": 0.22222199999998793
		},
		{
		  "name": "A2",
		  "midi": 45,
		  "time": 253.3330799999987,
		  "velocity": 0.7874015748031497,
		  "duration": 0.22222199999998793
		},
		{
		  "name": "C#3",
		  "midi": 49,
		  "time": 253.55530199999868,
		  "velocity": 0.7874015748031497,
		  "duration": 0.22222199999998793
		},
		{
		  "name": "D#3",
		  "midi": 51,
		  "time": 253.77752399999866,
		  "velocity": 0.7874015748031497,
		  "duration": 0.22222199999998793
		},
		{
		  "name": "F#4",
		  "midi": 66,
		  "time": 253.99974599999865,
		  "velocity": 0.7874015748031497,
		  "duration": 0.11111099999999396
		},
		{
		  "name": "C#3",
		  "midi": 49,
		  "time": 254.11085699999865,
		  "velocity": 0.7874015748031497,
		  "duration": 0.11111099999999396
		},
		{
		  "name": "F#2",
		  "midi": 42,
		  "time": 254.44418999999863,
		  "velocity": 0.7874015748031497,
		  "duration": 0.11111099999999396
		},
		{
		  "name": "F#3",
		  "midi": 54,
		  "time": 254.66641199999862,
		  "velocity": 0.7874015748031497,
		  "duration": 0.11111099999999396
		},
		{
		  "name": "F#3",
		  "midi": 54,
		  "time": 254.8886339999986,
		  "velocity": 0.7874015748031497,
		  "duration": 0.11111099999999396
		},
		{
		  "name": "E3",
		  "midi": 52,
		  "time": 255.1108559999986,
		  "velocity": 0.7874015748031497,
		  "duration": 0.11111099999999396
		},
		{
		  "name": "E3",
		  "midi": 52,
		  "time": 255.33307799999858,
		  "velocity": 0.7874015748031497,
		  "duration": 0.11111099999999396
		},
		{
		  "name": "D#3",
		  "midi": 51,
		  "time": 255.55529999999857,
		  "velocity": 0.7874015748031497,
		  "duration": 0.11111099999999396
		},
		{
		  "name": "F#2",
		  "midi": 42,
		  "time": 255.66641099999856,
		  "velocity": 0.7874015748031497,
		  "duration": 0.11111099999999396
		},
		{
		  "name": "F#3",
		  "midi": 54,
		  "time": 255.77752199999856,
		  "velocity": 0.7874015748031497,
		  "duration": 0.11111099999999396
		},
		{
		  "name": "F#4",
		  "midi": 66,
		  "time": 255.88863299999855,
		  "velocity": 0.7874015748031497,
		  "duration": 0.11111099999999396
		},
		{
		  "name": "F#3",
		  "midi": 54,
		  "time": 255.99974399999854,
		  "velocity": 0.7874015748031497,
		  "duration": 0.11111099999999396
		},
		{
		  "name": "F#3",
		  "midi": 54,
		  "time": 256.22196599999853,
		  "velocity": 0.7874015748031497,
		  "duration": 0.22222199999998793
		},
		{
		  "name": "F#2",
		  "midi": 42,
		  "time": 256.4441879999985,
		  "velocity": 0.7874015748031497,
		  "duration": 0.22222199999998793
		},
		{
		  "name": "F#2",
		  "midi": 42,
		  "time": 256.6664099999985,
		  "velocity": 0.7874015748031497,
		  "duration": 0.22222199999998793
		},
		{
		  "name": "E3",
		  "midi": 52,
		  "time": 256.8886319999985,
		  "velocity": 0.7874015748031497,
		  "duration": 0.22222199999998793
		},
		{
		  "name": "E3",
		  "midi": 52,
		  "time": 257.1108539999985,
		  "velocity": 0.7874015748031497,
		  "duration": 0.22222199999998793
		},
		{
		  "name": "D#3",
		  "midi": 51,
		  "time": 257.33307599999847,
		  "velocity": 0.7874015748031497,
		  "duration": 0.22222199999998793
		},
		{
		  "name": "D#3",
		  "midi": 51,
		  "time": 257.55529799999846,
		  "velocity": 0.7874015748031497,
		  "duration": 0.11111099999999396
		},
		{
		  "name": "C#3",
		  "midi": 49,
		  "time": 257.66640899999845,
		  "velocity": 0.7874015748031497,
		  "duration": 0.22222199999998793
		},
		{
		  "name": "F#2",
		  "midi": 42,
		  "time": 257.99974199999843,
		  "velocity": 0.7874015748031497,
		  "duration": 0.11111099999999396
		},
		{
		  "name": "F#3",
		  "midi": 54,
		  "time": 258.2219639999984,
		  "velocity": 0.7874015748031497,
		  "duration": 0.11111099999999396
		},
		{
		  "name": "F#3",
		  "midi": 54,
		  "time": 258.4441859999984,
		  "velocity": 0.7874015748031497,
		  "duration": 0.11111099999999396
		},
		{
		  "name": "E3",
		  "midi": 52,
		  "time": 258.6664079999984,
		  "velocity": 0.7874015748031497,
		  "duration": 0.11111099999999396
		},
		{
		  "name": "E3",
		  "midi": 52,
		  "time": 258.8886299999984,
		  "velocity": 0.7874015748031497,
		  "duration": 0.11111099999999396
		},
		{
		  "name": "F#3",
		  "midi": 54,
		  "time": 259.1108519999984,
		  "velocity": 0.7874015748031497,
		  "duration": 0.11111099999999396
		},
		{
		  "name": "F#3",
		  "midi": 54,
		  "time": 259.33307399999836,
		  "velocity": 0.7874015748031497,
		  "duration": 0.11111099999999396
		}
	  ]
  }
}
